<?xml version="1.0" encoding="UTF-8" standalone="no"?>
<!DOCTYPE svg PUBLIC "-//W3C//DTD SVG 1.1//EN"
 "http://www.w3.org/Graphics/SVG/1.1/DTD/svg11.dtd">
<!-- Generated by graphviz version 2.47.0 (20210316.0004)
 -->
<!-- Title: dependencies Pages: 1 -->
<svg width="2240pt" height="349pt"
 viewBox="0.00 0.00 2240.00 349.00" xmlns="http://www.w3.org/2000/svg" xmlns:xlink="http://www.w3.org/1999/xlink">
<g id="graph0" class="graph" transform="scale(1 1) rotate(0) translate(4 345)">
<title>dependencies</title>
<polygon fill="white" stroke="transparent" points="-4,4 -4,-345 2236,-345 2236,4 -4,4"/>
<text text-anchor="start" x="1095.01" y="-42.4" font-family="Times-12" font-weight="bold" font-size="14.00">Legend</text>
<polygon fill="#ffffb3" stroke="transparent" points="882,-10 882,-30 902,-30 902,-10 882,-10"/>
<text text-anchor="start" x="905.63" y="-15.4" font-family="Times-12" font-size="14.00"> &#160;Declarations</text>
<polygon fill="#8dd3c7" stroke="transparent" points="995,-10 995,-30 1015,-30 1015,-10 995,-10"/>
<text text-anchor="start" x="1018.73" y="-15.4" font-family="Times-12" font-size="14.00"> &#160;Module</text>
<polygon fill="#80b1d3" stroke="transparent" points="1081,-10 1081,-30 1101,-30 1101,-10 1081,-10"/>
<text text-anchor="start" x="1104.78" y="-15.4" font-family="Times-12" font-size="14.00"> &#160;Bootstrap</text>
<polygon fill="#fdb462" stroke="transparent" points="1178,-10 1178,-30 1198,-30 1198,-10 1178,-10"/>
<text text-anchor="start" x="1201.67" y="-15.4" font-family="Times-12" font-size="14.00"> &#160;Providers</text>
<polygon fill="#fb8072" stroke="transparent" points="1274,-10 1274,-30 1294,-30 1294,-10 1274,-10"/>
<text text-anchor="start" x="1297.73" y="-15.4" font-family="Times-12" font-size="14.00"> &#160;Exports</text>
<g id="clust1" class="cluster">
<title>cluster_VcdDatagridModule</title>
<polygon fill="none" stroke="black" stroke-dasharray="1,5" points="8,-70 8,-333 2224,-333 2224,-70 8,-70"/>
</g>
<g id="clust4" class="cluster">
<title>cluster_VcdDatagridModule_DatagridComponent_providers</title>
<polygon fill="none" stroke="black" points="2020,-78 2020,-195 2216,-195 2216,-78 2020,-78"/>
</g>
<g id="clust10" class="cluster">
<title>cluster_VcdDatagridModule_imports</title>
<polygon fill="none" stroke="black" points="1283,-143 1283,-195 2012,-195 2012,-143 1283,-143"/>
</g>
<g id="clust11" class="cluster">
<title>cluster_VcdDatagridModule_exports</title>
<polygon fill="none" stroke="black" points="1010,-273 1010,-325 1367,-325 1367,-273 1010,-273"/>
</g>
<g id="clust2" class="cluster">
<title>cluster_VcdDatagridModule_declarations</title>
<polygon fill="none" stroke="black" points="16,-143 16,-195 1275,-195 1275,-143 16,-143"/>
</g>
<!-- BoldTextRendererComponent -->
<g id="node1" class="node">
<title>BoldTextRendererComponent</title>
<polygon fill="#ffffb3" stroke="black" points="1266.52,-187 1081.48,-187 1081.48,-151 1266.52,-151 1266.52,-187"/>
<text text-anchor="middle" x="1174" y="-164.8" font-family="Times,serif" font-size="14.00">BoldTextRendererComponent</text>
</g>
<!-- VcdDatagridModule -->
<g id="node8" class="node">
<title>VcdDatagridModule</title>
<polygon fill="#8dd3c7" stroke="black" points="1239.85,-252 1236.85,-256 1215.85,-256 1212.85,-252 1108.15,-252 1108.15,-216 1239.85,-216 1239.85,-252"/>
<text text-anchor="middle" x="1174" y="-229.8" font-family="Times,serif" font-size="14.00">VcdDatagridModule</text>
</g>
<!-- BoldTextRendererComponent&#45;&gt;VcdDatagridModule -->
<g id="edge1" class="edge">
<title>BoldTextRendererComponent&#45;&gt;VcdDatagridModule</title>
<path fill="none" stroke="black" d="M1174,-187.11C1174,-187.11 1174,-205.99 1174,-205.99"/>
<polygon fill="black" stroke="black" points="1170.5,-205.99 1174,-215.99 1177.5,-205.99 1170.5,-205.99"/>
</g>
<!-- DatagridComponent -->
<g id="node2" class="node">
<title>DatagridComponent</title>
<polygon fill="#ffffb3" stroke="black" points="2170.31,-187 2039.69,-187 2039.69,-151 2170.31,-151 2170.31,-187"/>
<text text-anchor="middle" x="2105" y="-164.8" font-family="Times,serif" font-size="14.00">DatagridComponent</text>
</g>
<!-- DatagridComponent&#45;&gt;VcdDatagridModule -->
<g id="edge2" class="edge">
<title>DatagridComponent&#45;&gt;VcdDatagridModule</title>
<path fill="none" stroke="black" d="M2105,-187.25C2105,-210.02 2105,-246 2105,-246 2105,-246 1250.21,-246 1250.21,-246"/>
<polygon fill="black" stroke="black" points="1250.21,-242.5 1240.21,-246 1250.21,-249.5 1250.21,-242.5"/>
</g>
<!-- DatagridMultiSelectFilterComponent -->
<g id="node3" class="node">
<title>DatagridMultiSelectFilterComponent</title>
<polygon fill="#ffffb3" stroke="black" points="1062.96,-187 837.04,-187 837.04,-151 1062.96,-151 1062.96,-187"/>
<text text-anchor="middle" x="950" y="-164.8" font-family="Times,serif" font-size="14.00">DatagridMultiSelectFilterComponent</text>
</g>
<!-- DatagridMultiSelectFilterComponent&#45;&gt;VcdDatagridModule -->
<g id="edge4" class="edge">
<title>DatagridMultiSelectFilterComponent&#45;&gt;VcdDatagridModule</title>
<path fill="none" stroke="black" d="M1040.54,-187.24C1040.54,-202.57 1040.54,-222 1040.54,-222 1040.54,-222 1098.05,-222 1098.05,-222"/>
<polygon fill="black" stroke="black" points="1098.05,-225.5 1108.05,-222 1098.05,-218.5 1098.05,-225.5"/>
</g>
<!-- DatagridNumericFilterComponent -->
<g id="node4" class="node">
<title>DatagridNumericFilterComponent</title>
<polygon fill="#ffffb3" stroke="black" points="818.62,-187 609.38,-187 609.38,-151 818.62,-151 818.62,-187"/>
<text text-anchor="middle" x="714" y="-164.8" font-family="Times,serif" font-size="14.00">DatagridNumericFilterComponent</text>
</g>
<!-- DatagridNumericFilterComponent&#45;&gt;VcdDatagridModule -->
<g id="edge5" class="edge">
<title>DatagridNumericFilterComponent&#45;&gt;VcdDatagridModule</title>
<path fill="none" stroke="black" d="M714,-187.02C714,-204.37 714,-228 714,-228 714,-228 1098.09,-228 1098.09,-228"/>
<polygon fill="black" stroke="black" points="1098.09,-231.5 1108.09,-228 1098.09,-224.5 1098.09,-231.5"/>
</g>
<!-- DatagridSelectFilterComponent -->
<g id="node5" class="node">
<title>DatagridSelectFilterComponent</title>
<polygon fill="#ffffb3" stroke="black" points="591.35,-187 396.65,-187 396.65,-151 591.35,-151 591.35,-187"/>
<text text-anchor="middle" x="494" y="-164.8" font-family="Times,serif" font-size="14.00">DatagridSelectFilterComponent</text>
</g>
<!-- DatagridSelectFilterComponent&#45;&gt;VcdDatagridModule -->
<g id="edge6" class="edge">
<title>DatagridSelectFilterComponent&#45;&gt;VcdDatagridModule</title>
<path fill="none" stroke="black" d="M494,-187.11C494,-206.34 494,-234 494,-234 494,-234 1097.87,-234 1097.87,-234"/>
<polygon fill="black" stroke="black" points="1097.87,-237.5 1107.87,-234 1097.87,-230.5 1097.87,-237.5"/>
</g>
<!-- DatagridStringFilterComponent -->
<g id="node6" class="node">
<title>DatagridStringFilterComponent</title>
<polygon fill="#ffffb3" stroke="black" points="378.36,-187 183.64,-187 183.64,-151 378.36,-151 378.36,-187"/>
<text text-anchor="middle" x="281" y="-164.8" font-family="Times,serif" font-size="14.00">DatagridStringFilterComponent</text>
</g>
<!-- DatagridStringFilterComponent&#45;&gt;VcdDatagridModule -->
<g id="edge7" class="edge">
<title>DatagridStringFilterComponent&#45;&gt;VcdDatagridModule</title>
<path fill="none" stroke="black" d="M281,-187.28C281,-208.32 281,-240 281,-240 281,-240 1097.97,-240 1097.97,-240"/>
<polygon fill="black" stroke="black" points="1097.97,-243.5 1107.97,-240 1097.97,-236.5 1097.97,-243.5"/>
</g>
<!-- FunctionRendererPipe -->
<g id="node7" class="node">
<title>FunctionRendererPipe</title>
<polygon fill="#ffffb3" stroke="black" points="165.97,-187 24.03,-187 24.03,-151 165.97,-151 165.97,-187"/>
<text text-anchor="middle" x="95" y="-164.8" font-family="Times,serif" font-size="14.00">FunctionRendererPipe</text>
</g>
<!-- FunctionRendererPipe&#45;&gt;VcdDatagridModule -->
<g id="edge8" class="edge">
<title>FunctionRendererPipe&#45;&gt;VcdDatagridModule</title>
<path fill="none" stroke="black" d="M95,-187.25C95,-210.02 95,-246 95,-246 95,-246 1098.13,-246 1098.13,-246"/>
<polygon fill="black" stroke="black" points="1098.13,-249.5 1108.13,-246 1098.13,-242.5 1098.13,-249.5"/>
</g>
<!-- BoldTextRendererComponent  -->
<g id="node14" class="node">
<title>BoldTextRendererComponent </title>
<polygon fill="#fb8072" stroke="black" points="1358.52,-317 1169.48,-317 1169.48,-281 1358.52,-281 1358.52,-317"/>
<text text-anchor="middle" x="1264" y="-294.8" font-family="Times,serif" font-size="14.00">BoldTextRendererComponent </text>
</g>
<!-- VcdDatagridModule&#45;&gt;BoldTextRendererComponent  -->
<g id="edge13" class="edge">
<title>VcdDatagridModule&#45;&gt;BoldTextRendererComponent </title>
<path fill="none" stroke="black" stroke-dasharray="5,2" d="M1204.71,-252.11C1204.71,-252.11 1204.71,-270.99 1204.71,-270.99"/>
<polygon fill="black" stroke="black" points="1201.21,-270.99 1204.71,-280.99 1208.21,-270.99 1201.21,-270.99"/>
</g>
<!-- DatagridComponent  -->
<g id="node15" class="node">
<title>DatagridComponent </title>
<polygon fill="#fb8072" stroke="black" points="1151.81,-317 1018.19,-317 1018.19,-281 1151.81,-281 1151.81,-317"/>
<text text-anchor="middle" x="1085" y="-294.8" font-family="Times,serif" font-size="14.00">DatagridComponent </text>
</g>
<!-- VcdDatagridModule&#45;&gt;DatagridComponent  -->
<g id="edge14" class="edge">
<title>VcdDatagridModule&#45;&gt;DatagridComponent </title>
<path fill="none" stroke="black" stroke-dasharray="5,2" d="M1129.99,-252.11C1129.99,-252.11 1129.99,-270.99 1129.99,-270.99"/>
<polygon fill="black" stroke="black" points="1126.49,-270.99 1129.99,-280.99 1133.49,-270.99 1126.49,-270.99"/>
</g>
<!-- SubscriptionTracker -->
<g id="node9" class="node">
<title>SubscriptionTracker</title>
<ellipse fill="#fdb462" stroke="black" cx="2118" cy="-104" rx="89.75" ry="18"/>
<text text-anchor="middle" x="2118" y="-99.8" font-family="Times,serif" font-size="14.00">SubscriptionTracker</text>
</g>
<!-- SubscriptionTracker&#45;&gt;DatagridComponent -->
<g id="edge3" class="edge">
<title>SubscriptionTracker&#45;&gt;DatagridComponent</title>
<path fill="none" stroke="black" d="M2105,-122.11C2105,-122.11 2105,-140.99 2105,-140.99"/>
<polygon fill="black" stroke="black" points="2101.5,-140.99 2105,-150.99 2108.5,-140.99 2101.5,-140.99"/>
</g>
<!-- ShowClippedTextDirectiveModule -->
<g id="node10" class="node">
<title>ShowClippedTextDirectiveModule</title>
<polygon fill="#8dd3c7" stroke="black" points="2003.51,-187 2000.51,-191 1979.51,-191 1976.51,-187 1790.49,-187 1790.49,-151 2003.51,-151 2003.51,-187"/>
<text text-anchor="middle" x="1897" y="-164.8" font-family="Times,serif" font-size="14.00">ShowClippedTextDirectiveModule</text>
</g>
<!-- ShowClippedTextDirectiveModule&#45;&gt;VcdDatagridModule -->
<g id="edge9" class="edge">
<title>ShowClippedTextDirectiveModule&#45;&gt;VcdDatagridModule</title>
<path fill="none" stroke="black" d="M1897,-187.28C1897,-208.32 1897,-240 1897,-240 1897,-240 1250.08,-240 1250.08,-240"/>
<polygon fill="black" stroke="black" points="1250.08,-236.5 1240.08,-240 1250.08,-243.5 1250.08,-236.5"/>
</g>
<!-- VcdActionMenuModule -->
<g id="node11" class="node">
<title>VcdActionMenuModule</title>
<polygon fill="#8dd3c7" stroke="black" points="1771.63,-187 1768.63,-191 1747.63,-191 1744.63,-187 1618.37,-187 1618.37,-151 1771.63,-151 1771.63,-187"/>
<text text-anchor="middle" x="1695" y="-164.8" font-family="Times,serif" font-size="14.00">VcdActionMenuModule</text>
</g>
<!-- VcdActionMenuModule&#45;&gt;VcdDatagridModule -->
<g id="edge10" class="edge">
<title>VcdActionMenuModule&#45;&gt;VcdDatagridModule</title>
<path fill="none" stroke="black" d="M1695,-187.11C1695,-206.34 1695,-234 1695,-234 1695,-234 1249.99,-234 1249.99,-234"/>
<polygon fill="black" stroke="black" points="1249.99,-230.5 1239.99,-234 1249.98,-237.5 1249.99,-230.5"/>
</g>
<!-- VcdActivityReporterModule -->
<g id="node12" class="node">
<title>VcdActivityReporterModule</title>
<polygon fill="#8dd3c7" stroke="black" points="1599.73,-187 1596.73,-191 1575.73,-191 1572.73,-187 1422.27,-187 1422.27,-151 1599.73,-151 1599.73,-187"/>
<text text-anchor="middle" x="1511" y="-164.8" font-family="Times,serif" font-size="14.00">VcdActivityReporterModule</text>
</g>
<!-- VcdActivityReporterModule&#45;&gt;VcdDatagridModule -->
<g id="edge11" class="edge">
<title>VcdActivityReporterModule&#45;&gt;VcdDatagridModule</title>
<path fill="none" stroke="black" d="M1511,-187.02C1511,-204.37 1511,-228 1511,-228 1511,-228 1250.18,-228 1250.18,-228"/>
<polygon fill="black" stroke="black" points="1250.18,-224.5 1240.18,-228 1250.18,-231.5 1250.18,-224.5"/>
</g>
<!-- VcdFormModule -->
<g id="node13" class="node">
<title>VcdFormModule</title>
<polygon fill="#8dd3c7" stroke="black" points="1404.7,-187 1401.7,-191 1380.7,-191 1377.7,-187 1291.3,-187 1291.3,-151 1404.7,-151 1404.7,-187"/>
<text text-anchor="middle" x="1348" y="-164.8" font-family="Times,serif" font-size="14.00">VcdFormModule</text>
</g>
<!-- VcdFormModule&#45;&gt;VcdDatagridModule -->
<g id="edge12" class="edge">
<title>VcdFormModule&#45;&gt;VcdDatagridModule</title>
<path fill="none" stroke="black" d="M1324.95,-187.24C1324.95,-202.57 1324.95,-222 1324.95,-222 1324.95,-222 1250.21,-222 1250.21,-222"/>
<polygon fill="black" stroke="black" points="1250.21,-218.5 1240.21,-222 1250.21,-225.5 1250.21,-218.5"/>
</g>
</g>
</svg>
