<?xml version="1.0" encoding="UTF-8" standalone="no"?>
<!DOCTYPE svg PUBLIC "-//W3C//DTD SVG 1.1//EN"
 "http://www.w3.org/Graphics/SVG/1.1/DTD/svg11.dtd">
<!-- Generated by graphviz version 2.40.1 (20161225.0304)
 -->
<!-- Title: dependencies Pages: 1 -->
<svg width="2250pt" height="284pt"
 viewBox="0.00 0.00 2250.00 284.00" xmlns="http://www.w3.org/2000/svg" xmlns:xlink="http://www.w3.org/1999/xlink">
<g id="graph0" class="graph" transform="scale(1 1) rotate(0) translate(4 280)">
<title>dependencies</title>
<polygon fill="#ffffff" stroke="transparent" points="-4,4 -4,-280 2246,-280 2246,4 -4,4"/>
<text text-anchor="start" x="1100.0091" y="-42.4" font-family="sans-serif" font-weight="bold" font-size="14.00" fill="#000000">Legend</text>
<polygon fill="#ffffb3" stroke="transparent" points="887,-10 887,-30 907,-30 907,-10 887,-10"/>
<text text-anchor="start" x="910.629" y="-15.4" font-family="sans-serif" font-size="14.00" fill="#000000"> &#160;Declarations</text>
<polygon fill="#8dd3c7" stroke="transparent" points="1000,-10 1000,-30 1020,-30 1020,-10 1000,-10"/>
<text text-anchor="start" x="1023.7251" y="-15.4" font-family="sans-serif" font-size="14.00" fill="#000000"> &#160;Module</text>
<polygon fill="#80b1d3" stroke="transparent" points="1086,-10 1086,-30 1106,-30 1106,-10 1086,-10"/>
<text text-anchor="start" x="1109.7812" y="-15.4" font-family="sans-serif" font-size="14.00" fill="#000000"> &#160;Bootstrap</text>
<polygon fill="#fdb462" stroke="transparent" points="1183,-10 1183,-30 1203,-30 1203,-10 1183,-10"/>
<text text-anchor="start" x="1206.6732" y="-15.4" font-family="sans-serif" font-size="14.00" fill="#000000"> &#160;Providers</text>
<polygon fill="#fb8072" stroke="transparent" points="1279,-10 1279,-30 1299,-30 1299,-10 1279,-10"/>
<text text-anchor="start" x="1302.7258" y="-15.4" font-family="sans-serif" font-size="14.00" fill="#000000"> &#160;Exports</text>
<g id="clust1" class="cluster">
<title>cluster_VcdDatagridModule</title>
<polygon fill="none" stroke="#000000" stroke-dasharray="1,5" points="8,-70 8,-268 2234,-268 2234,-70 8,-70"/>
</g>
<g id="clust2" class="cluster">
<title>cluster_VcdDatagridModule_declarations</title>
<polygon fill="none" stroke="#000000" points="581,-78 581,-130 2226,-130 2226,-78 581,-78"/>
</g>
<g id="clust11" class="cluster">
<title>cluster_VcdDatagridModule_imports</title>
<polygon fill="none" stroke="#000000" points="16,-78 16,-130 573,-130 573,-78 16,-78"/>
</g>
<g id="clust12" class="cluster">
<title>cluster_VcdDatagridModule_exports</title>
<polygon fill="none" stroke="#000000" points="895,-208 895,-260 1252,-260 1252,-208 895,-208"/>
</g>
<!-- BoldTextRendererComponent -->
<g id="node1" class="node">
<title>BoldTextRendererComponent</title>
<polygon fill="#ffffb3" stroke="#000000" points="2217.5196,-122 2032.4804,-122 2032.4804,-86 2217.5196,-86 2217.5196,-122"/>
<text text-anchor="middle" x="2125" y="-99.8" font-family="Times,serif" font-size="14.00" fill="#000000">BoldTextRendererComponent</text>
</g>
<!-- VcdDatagridModule -->
<g id="node9" class="node">
<title>VcdDatagridModule</title>
<polygon fill="#8dd3c7" stroke="#000000" points="1124.8487,-187 1121.8487,-191 1100.8487,-191 1097.8487,-187 993.1513,-187 993.1513,-151 1124.8487,-151 1124.8487,-187"/>
<text text-anchor="middle" x="1059" y="-164.8" font-family="Times,serif" font-size="14.00" fill="#000000">VcdDatagridModule</text>
</g>
<!-- BoldTextRendererComponent&#45;&gt;VcdDatagridModule -->
<g id="edge1" class="edge">
<title>BoldTextRendererComponent&#45;&gt;VcdDatagridModule</title>
<path fill="none" stroke="#000000" d="M2125,-122.2479C2125,-145.0179 2125,-181 2125,-181 2125,-181 1134.8786,-181 1134.8786,-181"/>
<polygon fill="#000000" stroke="#000000" points="1134.8786,-177.5001 1124.8786,-181 1134.8786,-184.5001 1134.8786,-177.5001"/>
</g>
<!-- ComponentRendererOutletDirective -->
<g id="node2" class="node">
<title>ComponentRendererOutletDirective</title>
<polygon fill="#ffffb3" stroke="#000000" points="2013.71,-122 1794.29,-122 1794.29,-86 2013.71,-86 2013.71,-122"/>
<text text-anchor="middle" x="1904" y="-99.8" font-family="Times,serif" font-size="14.00" fill="#000000">ComponentRendererOutletDirective</text>
</g>
<!-- ComponentRendererOutletDirective&#45;&gt;VcdDatagridModule -->
<g id="edge2" class="edge">
<title>ComponentRendererOutletDirective&#45;&gt;VcdDatagridModule</title>
<path fill="none" stroke="#000000" d="M1904,-122.2843C1904,-143.3211 1904,-175 1904,-175 1904,-175 1134.9538,-175 1134.9538,-175"/>
<polygon fill="#000000" stroke="#000000" points="1134.9538,-171.5001 1124.9538,-175 1134.9537,-178.5001 1134.9538,-171.5001"/>
</g>
<!-- DatagridComponent -->
<g id="node3" class="node">
<title>DatagridComponent</title>
<polygon fill="#ffffb3" stroke="#000000" points="1776.3104,-122 1645.6896,-122 1645.6896,-86 1776.3104,-86 1776.3104,-122"/>
<text text-anchor="middle" x="1711" y="-99.8" font-family="Times,serif" font-size="14.00" fill="#000000">DatagridComponent</text>
</g>
<!-- DatagridComponent&#45;&gt;VcdDatagridModule -->
<g id="edge3" class="edge">
<title>DatagridComponent&#45;&gt;VcdDatagridModule</title>
<path fill="none" stroke="#000000" d="M1711,-122.1061C1711,-141.3391 1711,-169 1711,-169 1711,-169 1135.1053,-169 1135.1053,-169"/>
<polygon fill="#000000" stroke="#000000" points="1135.1053,-165.5001 1125.1053,-169 1135.1053,-172.5001 1135.1053,-165.5001"/>
</g>
<!-- DatagridMultiSelectFilterComponent -->
<g id="node4" class="node">
<title>DatagridMultiSelectFilterComponent</title>
<polygon fill="#ffffb3" stroke="#000000" points="1627.9636,-122 1402.0364,-122 1402.0364,-86 1627.9636,-86 1627.9636,-122"/>
<text text-anchor="middle" x="1515" y="-99.8" font-family="Times,serif" font-size="14.00" fill="#000000">DatagridMultiSelectFilterComponent</text>
</g>
<!-- DatagridMultiSelectFilterComponent&#45;&gt;VcdDatagridModule -->
<g id="edge4" class="edge">
<title>DatagridMultiSelectFilterComponent&#45;&gt;VcdDatagridModule</title>
<path fill="none" stroke="#000000" d="M1515,-122.0225C1515,-139.3734 1515,-163 1515,-163 1515,-163 1135.3063,-163 1135.3063,-163"/>
<polygon fill="#000000" stroke="#000000" points="1135.3064,-159.5001 1125.3063,-163 1135.3063,-166.5001 1135.3064,-159.5001"/>
</g>
<!-- DatagridNumericFilterComponent -->
<g id="node5" class="node">
<title>DatagridNumericFilterComponent</title>
<polygon fill="#ffffb3" stroke="#000000" points="1383.6175,-122 1174.3825,-122 1174.3825,-86 1383.6175,-86 1383.6175,-122"/>
<text text-anchor="middle" x="1279" y="-99.8" font-family="Times,serif" font-size="14.00" fill="#000000">DatagridNumericFilterComponent</text>
</g>
<!-- DatagridNumericFilterComponent&#45;&gt;VcdDatagridModule -->
<g id="edge5" class="edge">
<title>DatagridNumericFilterComponent&#45;&gt;VcdDatagridModule</title>
<path fill="none" stroke="#000000" d="M1208.8505,-122.2396C1208.8505,-137.5706 1208.8505,-157 1208.8505,-157 1208.8505,-157 1135.1628,-157 1135.1628,-157"/>
<polygon fill="#000000" stroke="#000000" points="1135.1628,-153.5001 1125.1628,-157 1135.1628,-160.5001 1135.1628,-153.5001"/>
</g>
<!-- DatagridSelectFilterComponent -->
<g id="node6" class="node">
<title>DatagridSelectFilterComponent</title>
<polygon fill="#ffffb3" stroke="#000000" points="1156.3473,-122 961.6527,-122 961.6527,-86 1156.3473,-86 1156.3473,-122"/>
<text text-anchor="middle" x="1059" y="-99.8" font-family="Times,serif" font-size="14.00" fill="#000000">DatagridSelectFilterComponent</text>
</g>
<!-- DatagridSelectFilterComponent&#45;&gt;VcdDatagridModule -->
<g id="edge6" class="edge">
<title>DatagridSelectFilterComponent&#45;&gt;VcdDatagridModule</title>
<path fill="none" stroke="#000000" d="M1059,-122.1061C1059,-122.1061 1059,-140.991 1059,-140.991"/>
<polygon fill="#000000" stroke="#000000" points="1055.5001,-140.9909 1059,-150.991 1062.5001,-140.991 1055.5001,-140.9909"/>
</g>
<!-- DatagridStringFilterComponent -->
<g id="node7" class="node">
<title>DatagridStringFilterComponent</title>
<polygon fill="#ffffb3" stroke="#000000" points="943.364,-122 748.636,-122 748.636,-86 943.364,-86 943.364,-122"/>
<text text-anchor="middle" x="846" y="-99.8" font-family="Times,serif" font-size="14.00" fill="#000000">DatagridStringFilterComponent</text>
</g>
<!-- DatagridStringFilterComponent&#45;&gt;VcdDatagridModule -->
<g id="edge7" class="edge">
<title>DatagridStringFilterComponent&#45;&gt;VcdDatagridModule</title>
<path fill="none" stroke="#000000" d="M923.2635,-122.2396C923.2635,-137.5706 923.2635,-157 923.2635,-157 923.2635,-157 983.1198,-157 983.1198,-157"/>
<polygon fill="#000000" stroke="#000000" points="983.1199,-160.5001 993.1198,-157 983.1198,-153.5001 983.1199,-160.5001"/>
</g>
<!-- FunctionRendererPipe -->
<g id="node8" class="node">
<title>FunctionRendererPipe</title>
<polygon fill="#ffffb3" stroke="#000000" points="730.9678,-122 589.0322,-122 589.0322,-86 730.9678,-86 730.9678,-122"/>
<text text-anchor="middle" x="660" y="-99.8" font-family="Times,serif" font-size="14.00" fill="#000000">FunctionRendererPipe</text>
</g>
<!-- FunctionRendererPipe&#45;&gt;VcdDatagridModule -->
<g id="edge8" class="edge">
<title>FunctionRendererPipe&#45;&gt;VcdDatagridModule</title>
<path fill="none" stroke="#000000" d="M660,-122.0225C660,-139.3734 660,-163 660,-163 660,-163 983.1133,-163 983.1133,-163"/>
<polygon fill="#000000" stroke="#000000" points="983.1133,-166.5001 993.1133,-163 983.1132,-159.5001 983.1133,-166.5001"/>
</g>
<!-- BoldTextRendererComponent  -->
<g id="node13" class="node">
<title>BoldTextRendererComponent </title>
<polygon fill="#fb8072" stroke="#000000" points="1243.519,-252 1054.481,-252 1054.481,-216 1243.519,-216 1243.519,-252"/>
<text text-anchor="middle" x="1149" y="-229.8" font-family="Times,serif" font-size="14.00" fill="#000000">BoldTextRendererComponent </text>
</g>
<!-- VcdDatagridModule&#45;&gt;BoldTextRendererComponent  -->
<g id="edge12" class="edge">
<title>VcdDatagridModule&#45;&gt;BoldTextRendererComponent </title>
<path fill="none" stroke="#000000" stroke-dasharray="5,2" d="M1089.7074,-187.1061C1089.7074,-187.1061 1089.7074,-205.991 1089.7074,-205.991"/>
<polygon fill="#000000" stroke="#000000" points="1086.2075,-205.9909 1089.7074,-215.991 1093.2075,-205.991 1086.2075,-205.9909"/>
</g>
<!-- DatagridComponent  -->
<g id="node14" class="node">
<title>DatagridComponent </title>
<polygon fill="#fb8072" stroke="#000000" points="1036.8101,-252 903.1899,-252 903.1899,-216 1036.8101,-216 1036.8101,-252"/>
<text text-anchor="middle" x="970" y="-229.8" font-family="Times,serif" font-size="14.00" fill="#000000">DatagridComponent </text>
</g>
<!-- VcdDatagridModule&#45;&gt;DatagridComponent  -->
<g id="edge13" class="edge">
<title>VcdDatagridModule&#45;&gt;DatagridComponent </title>
<path fill="none" stroke="#000000" stroke-dasharray="5,2" d="M1014.9904,-187.1061C1014.9904,-187.1061 1014.9904,-205.991 1014.9904,-205.991"/>
<polygon fill="#000000" stroke="#000000" points="1011.4904,-205.9909 1014.9904,-215.991 1018.4904,-205.991 1011.4904,-205.9909"/>
</g>
<!-- ShowClippedTextDirectiveModule -->
<g id="node10" class="node">
<title>ShowClippedTextDirectiveModule</title>
<polygon fill="#8dd3c7" stroke="#000000" points="564.5126,-122 561.5126,-126 540.5126,-126 537.5126,-122 351.4874,-122 351.4874,-86 564.5126,-86 564.5126,-122"/>
<text text-anchor="middle" x="458" y="-99.8" font-family="Times,serif" font-size="14.00" fill="#000000">ShowClippedTextDirectiveModule</text>
</g>
<!-- ShowClippedTextDirectiveModule&#45;&gt;VcdDatagridModule -->
<g id="edge9" class="edge">
<title>ShowClippedTextDirectiveModule&#45;&gt;VcdDatagridModule</title>
<path fill="none" stroke="#000000" d="M458,-122.1061C458,-141.3391 458,-169 458,-169 458,-169 982.9633,-169 982.9633,-169"/>
<polygon fill="#000000" stroke="#000000" points="982.9633,-172.5001 992.9633,-169 982.9633,-165.5001 982.9633,-172.5001"/>
</g>
<!-- VcdActivityReporterModule -->
<g id="node11" class="node">
<title>VcdActivityReporterModule</title>
<polygon fill="#8dd3c7" stroke="#000000" points="332.7324,-122 329.7324,-126 308.7324,-126 305.7324,-122 155.2676,-122 155.2676,-86 332.7324,-86 332.7324,-122"/>
<text text-anchor="middle" x="244" y="-99.8" font-family="Times,serif" font-size="14.00" fill="#000000">VcdActivityReporterModule</text>
</g>
<!-- VcdActivityReporterModule&#45;&gt;VcdDatagridModule -->
<g id="edge10" class="edge">
<title>VcdActivityReporterModule&#45;&gt;VcdDatagridModule</title>
<path fill="none" stroke="#000000" d="M244,-122.2843C244,-143.3211 244,-175 244,-175 244,-175 982.9955,-175 982.9955,-175"/>
<polygon fill="#000000" stroke="#000000" points="982.9955,-178.5001 992.9955,-175 982.9955,-171.5001 982.9955,-178.5001"/>
</g>
<!-- VcdFormModule -->
<g id="node12" class="node">
<title>VcdFormModule</title>
<polygon fill="#8dd3c7" stroke="#000000" points="137.705,-122 134.705,-126 113.705,-126 110.705,-122 24.295,-122 24.295,-86 137.705,-86 137.705,-122"/>
<text text-anchor="middle" x="81" y="-99.8" font-family="Times,serif" font-size="14.00" fill="#000000">VcdFormModule</text>
</g>
<!-- VcdFormModule&#45;&gt;VcdDatagridModule -->
<g id="edge11" class="edge">
<title>VcdFormModule&#45;&gt;VcdDatagridModule</title>
<path fill="none" stroke="#000000" d="M81,-122.2479C81,-145.0179 81,-181 81,-181 81,-181 982.93,-181 982.93,-181"/>
<polygon fill="#000000" stroke="#000000" points="982.93,-184.5001 992.93,-181 982.93,-177.5001 982.93,-184.5001"/>
</g>
</g>
</svg>
