<?xml version="1.0" encoding="UTF-8" standalone="no"?>
<!DOCTYPE svg PUBLIC "-//W3C//DTD SVG 1.1//EN"
 "http://www.w3.org/Graphics/SVG/1.1/DTD/svg11.dtd">
<!-- Generated by graphviz version 2.40.1 (20161225.0304)
 -->
<!-- Title: dependencies Pages: 1 -->
<svg width="2422pt" height="284pt"
 viewBox="0.00 0.00 2422.00 284.00" xmlns="http://www.w3.org/2000/svg" xmlns:xlink="http://www.w3.org/1999/xlink">
<g id="graph0" class="graph" transform="scale(1 1) rotate(0) translate(4 280)">
<title>dependencies</title>
<polygon fill="#ffffff" stroke="transparent" points="-4,4 -4,-280 2418,-280 2418,4 -4,4"/>
<text text-anchor="start" x="1186.0091" y="-42.4" font-family="sans-serif" font-weight="bold" font-size="14.00" fill="#000000">Legend</text>
<polygon fill="#ffffb3" stroke="transparent" points="973,-10 973,-30 993,-30 993,-10 973,-10"/>
<text text-anchor="start" x="996.629" y="-15.4" font-family="sans-serif" font-size="14.00" fill="#000000"> &#160;Declarations</text>
<polygon fill="#8dd3c7" stroke="transparent" points="1086,-10 1086,-30 1106,-30 1106,-10 1086,-10"/>
<text text-anchor="start" x="1109.7251" y="-15.4" font-family="sans-serif" font-size="14.00" fill="#000000"> &#160;Module</text>
<polygon fill="#80b1d3" stroke="transparent" points="1172,-10 1172,-30 1192,-30 1192,-10 1172,-10"/>
<text text-anchor="start" x="1195.7812" y="-15.4" font-family="sans-serif" font-size="14.00" fill="#000000"> &#160;Bootstrap</text>
<polygon fill="#fdb462" stroke="transparent" points="1269,-10 1269,-30 1289,-30 1289,-10 1269,-10"/>
<text text-anchor="start" x="1292.6732" y="-15.4" font-family="sans-serif" font-size="14.00" fill="#000000"> &#160;Providers</text>
<polygon fill="#fb8072" stroke="transparent" points="1365,-10 1365,-30 1385,-30 1385,-10 1365,-10"/>
<text text-anchor="start" x="1388.7258" y="-15.4" font-family="sans-serif" font-size="14.00" fill="#000000"> &#160;Exports</text>
<g id="clust1" class="cluster">
<title>cluster_VcdDatagridModule</title>
<polygon fill="none" stroke="#000000" stroke-dasharray="1,5" points="8,-70 8,-268 2406,-268 2406,-70 8,-70"/>
</g>
<g id="clust2" class="cluster">
<title>cluster_VcdDatagridModule_declarations</title>
<polygon fill="none" stroke="#000000" points="753,-78 753,-130 2398,-130 2398,-78 753,-78"/>
</g>
<g id="clust11" class="cluster">
<title>cluster_VcdDatagridModule_imports</title>
<polygon fill="none" stroke="#000000" points="16,-78 16,-130 745,-130 745,-78 16,-78"/>
</g>
<g id="clust12" class="cluster">
<title>cluster_VcdDatagridModule_exports</title>
<polygon fill="none" stroke="#000000" points="960,-208 960,-260 1317,-260 1317,-208 960,-208"/>
</g>
<!-- BoldTextRendererComponent -->
<g id="node1" class="node">
<title>BoldTextRendererComponent</title>
<polygon fill="#ffffb3" stroke="#000000" points="2389.5196,-122 2204.4804,-122 2204.4804,-86 2389.5196,-86 2389.5196,-122"/>
<text text-anchor="middle" x="2297" y="-99.8" font-family="Times,serif" font-size="14.00" fill="#000000">BoldTextRendererComponent</text>
</g>
<!-- VcdDatagridModule -->
<g id="node9" class="node">
<title>VcdDatagridModule</title>
<polygon fill="#8dd3c7" stroke="#000000" points="1189.8487,-187 1186.8487,-191 1165.8487,-191 1162.8487,-187 1058.1513,-187 1058.1513,-151 1189.8487,-151 1189.8487,-187"/>
<text text-anchor="middle" x="1124" y="-164.8" font-family="Times,serif" font-size="14.00" fill="#000000">VcdDatagridModule</text>
</g>
<!-- BoldTextRendererComponent&#45;&gt;VcdDatagridModule -->
<g id="edge1" class="edge">
<title>BoldTextRendererComponent&#45;&gt;VcdDatagridModule</title>
<path fill="none" stroke="#000000" d="M2297,-122.2479C2297,-145.0179 2297,-181 2297,-181 2297,-181 1200.0021,-181 1200.0021,-181"/>
<polygon fill="#000000" stroke="#000000" points="1200.0022,-177.5001 1190.0021,-181 1200.0021,-184.5001 1200.0022,-177.5001"/>
</g>
<!-- ComponentRendererOutletDirective -->
<g id="node2" class="node">
<title>ComponentRendererOutletDirective</title>
<polygon fill="#ffffb3" stroke="#000000" points="2185.71,-122 1966.29,-122 1966.29,-86 2185.71,-86 2185.71,-122"/>
<text text-anchor="middle" x="2076" y="-99.8" font-family="Times,serif" font-size="14.00" fill="#000000">ComponentRendererOutletDirective</text>
</g>
<!-- ComponentRendererOutletDirective&#45;&gt;VcdDatagridModule -->
<g id="edge2" class="edge">
<title>ComponentRendererOutletDirective&#45;&gt;VcdDatagridModule</title>
<path fill="none" stroke="#000000" d="M2076,-122.2843C2076,-143.3211 2076,-175 2076,-175 2076,-175 1200.187,-175 1200.187,-175"/>
<polygon fill="#000000" stroke="#000000" points="1200.187,-171.5001 1190.187,-175 1200.1869,-178.5001 1200.187,-171.5001"/>
</g>
<!-- DatagridComponent -->
<g id="node3" class="node">
<title>DatagridComponent</title>
<polygon fill="#ffffb3" stroke="#000000" points="1948.3104,-122 1817.6896,-122 1817.6896,-86 1948.3104,-86 1948.3104,-122"/>
<text text-anchor="middle" x="1883" y="-99.8" font-family="Times,serif" font-size="14.00" fill="#000000">DatagridComponent</text>
</g>
<!-- DatagridComponent&#45;&gt;VcdDatagridModule -->
<g id="edge3" class="edge">
<title>DatagridComponent&#45;&gt;VcdDatagridModule</title>
<path fill="none" stroke="#000000" d="M1883,-122.1061C1883,-141.3391 1883,-169 1883,-169 1883,-169 1200.0285,-169 1200.0285,-169"/>
<polygon fill="#000000" stroke="#000000" points="1200.0286,-165.5001 1190.0285,-169 1200.0285,-172.5001 1200.0286,-165.5001"/>
</g>
<!-- DatagridMultiSelectFilterComponent -->
<g id="node4" class="node">
<title>DatagridMultiSelectFilterComponent</title>
<polygon fill="#ffffb3" stroke="#000000" points="1799.9636,-122 1574.0364,-122 1574.0364,-86 1799.9636,-86 1799.9636,-122"/>
<text text-anchor="middle" x="1687" y="-99.8" font-family="Times,serif" font-size="14.00" fill="#000000">DatagridMultiSelectFilterComponent</text>
</g>
<!-- DatagridMultiSelectFilterComponent&#45;&gt;VcdDatagridModule -->
<g id="edge4" class="edge">
<title>DatagridMultiSelectFilterComponent&#45;&gt;VcdDatagridModule</title>
<path fill="none" stroke="#000000" d="M1687,-122.0225C1687,-139.3734 1687,-163 1687,-163 1687,-163 1199.9617,-163 1199.9617,-163"/>
<polygon fill="#000000" stroke="#000000" points="1199.9618,-159.5001 1189.9617,-163 1199.9617,-166.5001 1199.9618,-159.5001"/>
</g>
<!-- DatagridNumericFilterComponent -->
<g id="node5" class="node">
<title>DatagridNumericFilterComponent</title>
<polygon fill="#ffffb3" stroke="#000000" points="1555.6175,-122 1346.3825,-122 1346.3825,-86 1555.6175,-86 1555.6175,-122"/>
<text text-anchor="middle" x="1451" y="-99.8" font-family="Times,serif" font-size="14.00" fill="#000000">DatagridNumericFilterComponent</text>
</g>
<!-- DatagridNumericFilterComponent&#45;&gt;VcdDatagridModule -->
<g id="edge5" class="edge">
<title>DatagridNumericFilterComponent&#45;&gt;VcdDatagridModule</title>
<path fill="none" stroke="#000000" d="M1451,-122.2396C1451,-137.5706 1451,-157 1451,-157 1451,-157 1200.1733,-157 1200.1733,-157"/>
<polygon fill="#000000" stroke="#000000" points="1200.1734,-153.5001 1190.1733,-157 1200.1733,-160.5001 1200.1734,-153.5001"/>
</g>
<!-- DatagridSelectFilterComponent -->
<g id="node6" class="node">
<title>DatagridSelectFilterComponent</title>
<polygon fill="#ffffb3" stroke="#000000" points="1328.3473,-122 1133.6527,-122 1133.6527,-86 1328.3473,-86 1328.3473,-122"/>
<text text-anchor="middle" x="1231" y="-99.8" font-family="Times,serif" font-size="14.00" fill="#000000">DatagridSelectFilterComponent</text>
</g>
<!-- DatagridSelectFilterComponent&#45;&gt;VcdDatagridModule -->
<g id="edge6" class="edge">
<title>DatagridSelectFilterComponent&#45;&gt;VcdDatagridModule</title>
<path fill="none" stroke="#000000" d="M1161.7503,-122.1061C1161.7503,-122.1061 1161.7503,-140.991 1161.7503,-140.991"/>
<polygon fill="#000000" stroke="#000000" points="1158.2504,-140.9909 1161.7503,-150.991 1165.2504,-140.991 1158.2504,-140.9909"/>
</g>
<!-- DatagridStringFilterComponent -->
<g id="node7" class="node">
<title>DatagridStringFilterComponent</title>
<polygon fill="#ffffb3" stroke="#000000" points="1115.364,-122 920.636,-122 920.636,-86 1115.364,-86 1115.364,-122"/>
<text text-anchor="middle" x="1018" y="-99.8" font-family="Times,serif" font-size="14.00" fill="#000000">DatagridStringFilterComponent</text>
</g>
<!-- DatagridStringFilterComponent&#45;&gt;VcdDatagridModule -->
<g id="edge7" class="edge">
<title>DatagridStringFilterComponent&#45;&gt;VcdDatagridModule</title>
<path fill="none" stroke="#000000" d="M1086.7539,-122.1061C1086.7539,-122.1061 1086.7539,-140.991 1086.7539,-140.991"/>
<polygon fill="#000000" stroke="#000000" points="1083.2539,-140.9909 1086.7539,-150.991 1090.2539,-140.991 1083.2539,-140.9909"/>
</g>
<!-- FunctionRendererPipe -->
<g id="node8" class="node">
<title>FunctionRendererPipe</title>
<polygon fill="#ffffb3" stroke="#000000" points="902.9678,-122 761.0322,-122 761.0322,-86 902.9678,-86 902.9678,-122"/>
<text text-anchor="middle" x="832" y="-99.8" font-family="Times,serif" font-size="14.00" fill="#000000">FunctionRendererPipe</text>
</g>
<!-- FunctionRendererPipe&#45;&gt;VcdDatagridModule -->
<g id="edge8" class="edge">
<title>FunctionRendererPipe&#45;&gt;VcdDatagridModule</title>
<path fill="none" stroke="#000000" d="M832,-122.2396C832,-137.5706 832,-157 832,-157 832,-157 1048.1054,-157 1048.1054,-157"/>
<polygon fill="#000000" stroke="#000000" points="1048.1054,-160.5001 1058.1054,-157 1048.1054,-153.5001 1048.1054,-160.5001"/>
</g>
<!-- BoldTextRendererComponent  -->
<g id="node14" class="node">
<title>BoldTextRendererComponent </title>
<polygon fill="#fb8072" stroke="#000000" points="1308.519,-252 1119.481,-252 1119.481,-216 1308.519,-216 1308.519,-252"/>
<text text-anchor="middle" x="1214" y="-229.8" font-family="Times,serif" font-size="14.00" fill="#000000">BoldTextRendererComponent </text>
</g>
<!-- VcdDatagridModule&#45;&gt;BoldTextRendererComponent  -->
<g id="edge13" class="edge">
<title>VcdDatagridModule&#45;&gt;BoldTextRendererComponent </title>
<path fill="none" stroke="#000000" stroke-dasharray="5,2" d="M1154.7074,-187.1061C1154.7074,-187.1061 1154.7074,-205.991 1154.7074,-205.991"/>
<polygon fill="#000000" stroke="#000000" points="1151.2075,-205.9909 1154.7074,-215.991 1158.2075,-205.991 1151.2075,-205.9909"/>
</g>
<!-- DatagridComponent  -->
<g id="node15" class="node">
<title>DatagridComponent </title>
<polygon fill="#fb8072" stroke="#000000" points="1101.8101,-252 968.1899,-252 968.1899,-216 1101.8101,-216 1101.8101,-252"/>
<text text-anchor="middle" x="1035" y="-229.8" font-family="Times,serif" font-size="14.00" fill="#000000">DatagridComponent </text>
</g>
<!-- VcdDatagridModule&#45;&gt;DatagridComponent  -->
<g id="edge14" class="edge">
<title>VcdDatagridModule&#45;&gt;DatagridComponent </title>
<path fill="none" stroke="#000000" stroke-dasharray="5,2" d="M1079.9904,-187.1061C1079.9904,-187.1061 1079.9904,-205.991 1079.9904,-205.991"/>
<polygon fill="#000000" stroke="#000000" points="1076.4904,-205.9909 1079.9904,-215.991 1083.4904,-205.991 1076.4904,-205.9909"/>
</g>
<!-- ShowClippedTextDirectiveModule -->
<g id="node10" class="node">
<title>ShowClippedTextDirectiveModule</title>
<polygon fill="#8dd3c7" stroke="#000000" points="736.5126,-122 733.5126,-126 712.5126,-126 709.5126,-122 523.4874,-122 523.4874,-86 736.5126,-86 736.5126,-122"/>
<text text-anchor="middle" x="630" y="-99.8" font-family="Times,serif" font-size="14.00" fill="#000000">ShowClippedTextDirectiveModule</text>
</g>
<!-- ShowClippedTextDirectiveModule&#45;&gt;VcdDatagridModule -->
<g id="edge9" class="edge">
<title>ShowClippedTextDirectiveModule&#45;&gt;VcdDatagridModule</title>
<path fill="none" stroke="#000000" d="M630,-122.0225C630,-139.3734 630,-163 630,-163 630,-163 1048.1453,-163 1048.1453,-163"/>
<polygon fill="#000000" stroke="#000000" points="1048.1453,-166.5001 1058.1453,-163 1048.1452,-159.5001 1048.1453,-166.5001"/>
</g>
<!-- VcdActionMenuModule -->
<g id="node11" class="node">
<title>VcdActionMenuModule</title>
<polygon fill="#8dd3c7" stroke="#000000" points="504.633,-122 501.633,-126 480.633,-126 477.633,-122 351.367,-122 351.367,-86 504.633,-86 504.633,-122"/>
<text text-anchor="middle" x="428" y="-99.8" font-family="Times,serif" font-size="14.00" fill="#000000">VcdActionMenuModule</text>
</g>
<!-- VcdActionMenuModule&#45;&gt;VcdDatagridModule -->
<g id="edge10" class="edge">
<title>VcdActionMenuModule&#45;&gt;VcdDatagridModule</title>
<path fill="none" stroke="#000000" d="M428,-122.1061C428,-141.3391 428,-169 428,-169 428,-169 1047.8945,-169 1047.8945,-169"/>
<polygon fill="#000000" stroke="#000000" points="1047.8946,-172.5001 1057.8945,-169 1047.8945,-165.5001 1047.8946,-172.5001"/>
</g>
<!-- VcdActivityReporterModule -->
<g id="node12" class="node">
<title>VcdActivityReporterModule</title>
<polygon fill="#8dd3c7" stroke="#000000" points="332.7324,-122 329.7324,-126 308.7324,-126 305.7324,-122 155.2676,-122 155.2676,-86 332.7324,-86 332.7324,-122"/>
<text text-anchor="middle" x="244" y="-99.8" font-family="Times,serif" font-size="14.00" fill="#000000">VcdActivityReporterModule</text>
</g>
<!-- VcdActivityReporterModule&#45;&gt;VcdDatagridModule -->
<g id="edge11" class="edge">
<title>VcdActivityReporterModule&#45;&gt;VcdDatagridModule</title>
<path fill="none" stroke="#000000" d="M244,-122.2843C244,-143.3211 244,-175 244,-175 244,-175 1047.857,-175 1047.857,-175"/>
<polygon fill="#000000" stroke="#000000" points="1047.857,-178.5001 1057.857,-175 1047.8569,-171.5001 1047.857,-178.5001"/>
</g>
<!-- VcdFormModule -->
<g id="node13" class="node">
<title>VcdFormModule</title>
<polygon fill="#8dd3c7" stroke="#000000" points="137.705,-122 134.705,-126 113.705,-126 110.705,-122 24.295,-122 24.295,-86 137.705,-86 137.705,-122"/>
<text text-anchor="middle" x="81" y="-99.8" font-family="Times,serif" font-size="14.00" fill="#000000">VcdFormModule</text>
</g>
<!-- VcdFormModule&#45;&gt;VcdDatagridModule -->
<g id="edge12" class="edge">
<title>VcdFormModule&#45;&gt;VcdDatagridModule</title>
<path fill="none" stroke="#000000" d="M81,-122.2479C81,-145.0179 81,-181 81,-181 81,-181 1047.9644,-181 1047.9644,-181"/>
<polygon fill="#000000" stroke="#000000" points="1047.9645,-184.5001 1057.9644,-181 1047.9644,-177.5001 1047.9645,-184.5001"/>
</g>
</g>
</svg>
