<?xml version="1.0" encoding="UTF-8" standalone="no"?>
<!DOCTYPE svg PUBLIC "-//W3C//DTD SVG 1.1//EN"
 "http://www.w3.org/Graphics/SVG/1.1/DTD/svg11.dtd">
<!-- Generated by graphviz version 5.0.0 (20220707.1540)
 -->
<!-- Title: dependencies Pages: 1 -->
<svg width="2184pt" height="247pt"
 viewBox="0.00 0.00 2184.00 246.80" xmlns="http://www.w3.org/2000/svg" xmlns:xlink="http://www.w3.org/1999/xlink">
<g id="graph0" class="graph" transform="scale(1 1) rotate(0) translate(4 242.8)">
<title>dependencies</title>
<polygon fill="white" stroke="transparent" points="-4,4 -4,-242.8 2180,-242.8 2180,4 -4,4"/>
<text text-anchor="middle" x="1088" y="-8.2" font-family="sans-serif" font-size="14.00">dependencies</text>
<g id="clust1" class="cluster">
<title>cluster_VcdDatagridModule</title>
<polygon fill="none" stroke="black" stroke-dasharray="1,5" points="8,-32.8 8,-230.8 2168,-230.8 2168,-32.8 8,-32.8"/>
</g>
<g id="clust11" class="cluster">
<title>cluster_VcdDatagridModule_exports</title>
<polygon fill="none" stroke="black" points="854,-170.8 854,-222.8 1211,-222.8 1211,-170.8 854,-170.8"/>
</g>
<g id="clust2" class="cluster">
<title>cluster_VcdDatagridModule_declarations</title>
<polygon fill="none" stroke="black" points="753,-40.8 753,-92.8 2160,-92.8 2160,-40.8 753,-40.8"/>
</g>
<g id="clust10" class="cluster">
<title>cluster_VcdDatagridModule_imports</title>
<polygon fill="none" stroke="black" points="16,-40.8 16,-92.8 745,-92.8 745,-40.8 16,-40.8"/>
</g>
<!-- BoldTextRendererComponent -->
<g id="node1" class="node">
<title>BoldTextRendererComponent</title>
<polygon fill="#ffffb3" stroke="black" points="2151.52,-84.8 1966.48,-84.8 1966.48,-48.8 2151.52,-48.8 2151.52,-84.8"/>
<text text-anchor="middle" x="2059" y="-62.6" font-family="Times,serif" font-size="14.00">BoldTextRendererComponent</text>
</g>
<!-- VcdDatagridModule -->
<g id="node8" class="node">
<title>VcdDatagridModule</title>
<polygon fill="#8dd3c7" stroke="black" points="1083.86,-149.8 1080.86,-153.8 1059.86,-153.8 1056.86,-149.8 952.14,-149.8 952.14,-113.8 1083.86,-113.8 1083.86,-149.8"/>
<text text-anchor="middle" x="1018" y="-127.6" font-family="Times,serif" font-size="14.00">VcdDatagridModule</text>
</g>
<!-- BoldTextRendererComponent&#45;&gt;VcdDatagridModule -->
<g id="edge1" class="edge">
<title>BoldTextRendererComponent&#45;&gt;VcdDatagridModule</title>
<path fill="none" stroke="black" d="M2059,-85.05C2059,-107.82 2059,-143.8 2059,-143.8 2059,-143.8 1093.91,-143.8 1093.91,-143.8"/>
<polygon fill="black" stroke="black" points="1093.91,-140.3 1083.91,-143.8 1093.91,-147.3 1093.91,-140.3"/>
</g>
<!-- DatagridComponent -->
<g id="node2" class="node">
<title>DatagridComponent</title>
<polygon fill="#ffffb3" stroke="black" points="1948.31,-84.8 1817.69,-84.8 1817.69,-48.8 1948.31,-48.8 1948.31,-84.8"/>
<text text-anchor="middle" x="1883" y="-62.6" font-family="Times,serif" font-size="14.00">DatagridComponent</text>
</g>
<!-- DatagridComponent&#45;&gt;VcdDatagridModule -->
<g id="edge2" class="edge">
<title>DatagridComponent&#45;&gt;VcdDatagridModule</title>
<path fill="none" stroke="black" d="M1883,-85.08C1883,-106.12 1883,-137.8 1883,-137.8 1883,-137.8 1094.08,-137.8 1094.08,-137.8"/>
<polygon fill="black" stroke="black" points="1094.08,-134.3 1084.08,-137.8 1094.08,-141.3 1094.08,-134.3"/>
</g>
<!-- DatagridMultiSelectFilterComponent -->
<g id="node3" class="node">
<title>DatagridMultiSelectFilterComponent</title>
<polygon fill="#ffffb3" stroke="black" points="1799.97,-84.8 1574.03,-84.8 1574.03,-48.8 1799.97,-48.8 1799.97,-84.8"/>
<text text-anchor="middle" x="1687" y="-62.6" font-family="Times,serif" font-size="14.00">DatagridMultiSelectFilterComponent</text>
</g>
<!-- DatagridMultiSelectFilterComponent&#45;&gt;VcdDatagridModule -->
<g id="edge3" class="edge">
<title>DatagridMultiSelectFilterComponent&#45;&gt;VcdDatagridModule</title>
<path fill="none" stroke="black" d="M1687,-84.91C1687,-104.14 1687,-131.8 1687,-131.8 1687,-131.8 1093.98,-131.8 1093.98,-131.8"/>
<polygon fill="black" stroke="black" points="1093.98,-128.3 1083.98,-131.8 1093.98,-135.3 1093.98,-128.3"/>
</g>
<!-- DatagridNumericFilterComponent -->
<g id="node4" class="node">
<title>DatagridNumericFilterComponent</title>
<polygon fill="#ffffb3" stroke="black" points="1555.62,-84.8 1346.38,-84.8 1346.38,-48.8 1555.62,-48.8 1555.62,-84.8"/>
<text text-anchor="middle" x="1451" y="-62.6" font-family="Times,serif" font-size="14.00">DatagridNumericFilterComponent</text>
</g>
<!-- DatagridNumericFilterComponent&#45;&gt;VcdDatagridModule -->
<g id="edge4" class="edge">
<title>DatagridNumericFilterComponent&#45;&gt;VcdDatagridModule</title>
<path fill="none" stroke="black" d="M1451,-84.82C1451,-102.17 1451,-125.8 1451,-125.8 1451,-125.8 1094.23,-125.8 1094.23,-125.8"/>
<polygon fill="black" stroke="black" points="1094.23,-122.3 1084.23,-125.8 1094.23,-129.3 1094.23,-122.3"/>
</g>
<!-- DatagridSelectFilterComponent -->
<g id="node5" class="node">
<title>DatagridSelectFilterComponent</title>
<polygon fill="#ffffb3" stroke="black" points="1328.35,-84.8 1133.65,-84.8 1133.65,-48.8 1328.35,-48.8 1328.35,-84.8"/>
<text text-anchor="middle" x="1231" y="-62.6" font-family="Times,serif" font-size="14.00">DatagridSelectFilterComponent</text>
</g>
<!-- DatagridSelectFilterComponent&#45;&gt;VcdDatagridModule -->
<g id="edge5" class="edge">
<title>DatagridSelectFilterComponent&#45;&gt;VcdDatagridModule</title>
<path fill="none" stroke="black" d="M1168.04,-85.04C1168.04,-100.37 1168.04,-119.8 1168.04,-119.8 1168.04,-119.8 1094.25,-119.8 1094.25,-119.8"/>
<polygon fill="black" stroke="black" points="1094.25,-116.3 1084.25,-119.8 1094.25,-123.3 1094.25,-116.3"/>
</g>
<!-- DatagridStringFilterComponent -->
<g id="node6" class="node">
<title>DatagridStringFilterComponent</title>
<polygon fill="#ffffb3" stroke="black" points="1115.37,-84.8 920.63,-84.8 920.63,-48.8 1115.37,-48.8 1115.37,-84.8"/>
<text text-anchor="middle" x="1018" y="-62.6" font-family="Times,serif" font-size="14.00">DatagridStringFilterComponent</text>
</g>
<!-- DatagridStringFilterComponent&#45;&gt;VcdDatagridModule -->
<g id="edge6" class="edge">
<title>DatagridStringFilterComponent&#45;&gt;VcdDatagridModule</title>
<path fill="none" stroke="black" d="M1018,-84.91C1018,-84.91 1018,-103.79 1018,-103.79"/>
<polygon fill="black" stroke="black" points="1014.5,-103.79 1018,-113.79 1021.5,-103.79 1014.5,-103.79"/>
</g>
<!-- FunctionRendererPipe -->
<g id="node7" class="node">
<title>FunctionRendererPipe</title>
<polygon fill="#ffffb3" stroke="black" points="902.97,-84.8 761.03,-84.8 761.03,-48.8 902.97,-48.8 902.97,-84.8"/>
<text text-anchor="middle" x="832" y="-62.6" font-family="Times,serif" font-size="14.00">FunctionRendererPipe</text>
</g>
<!-- FunctionRendererPipe&#45;&gt;VcdDatagridModule -->
<g id="edge7" class="edge">
<title>FunctionRendererPipe&#45;&gt;VcdDatagridModule</title>
<path fill="none" stroke="black" d="M882.54,-85.04C882.54,-100.37 882.54,-119.8 882.54,-119.8 882.54,-119.8 941.86,-119.8 941.86,-119.8"/>
<polygon fill="black" stroke="black" points="941.86,-123.3 951.86,-119.8 941.86,-116.3 941.86,-123.3"/>
</g>
<!-- BoldTextRendererComponent  -->
<g id="node13" class="node">
<title>BoldTextRendererComponent </title>
<polygon fill="#fb8072" stroke="black" points="1202.52,-214.8 1013.48,-214.8 1013.48,-178.8 1202.52,-178.8 1202.52,-214.8"/>
<text text-anchor="middle" x="1108" y="-192.6" font-family="Times,serif" font-size="14.00">BoldTextRendererComponent </text>
</g>
<!-- VcdDatagridModule&#45;&gt;BoldTextRendererComponent  -->
<g id="edge12" class="edge">
<title>VcdDatagridModule&#45;&gt;BoldTextRendererComponent </title>
<path fill="none" stroke="black" stroke-dasharray="5,2" d="M1048.71,-149.91C1048.71,-149.91 1048.71,-168.79 1048.71,-168.79"/>
<polygon fill="black" stroke="black" points="1045.21,-168.79 1048.71,-178.79 1052.21,-168.79 1045.21,-168.79"/>
</g>
<!-- DatagridComponent  -->
<g id="node14" class="node">
<title>DatagridComponent </title>
<polygon fill="#fb8072" stroke="black" points="995.81,-214.8 862.19,-214.8 862.19,-178.8 995.81,-178.8 995.81,-214.8"/>
<text text-anchor="middle" x="929" y="-192.6" font-family="Times,serif" font-size="14.00">DatagridComponent </text>
</g>
<!-- VcdDatagridModule&#45;&gt;DatagridComponent  -->
<g id="edge13" class="edge">
<title>VcdDatagridModule&#45;&gt;DatagridComponent </title>
<path fill="none" stroke="black" stroke-dasharray="5,2" d="M973.99,-149.91C973.99,-149.91 973.99,-168.79 973.99,-168.79"/>
<polygon fill="black" stroke="black" points="970.49,-168.79 973.99,-178.79 977.49,-168.79 970.49,-168.79"/>
</g>
<!-- ShowClippedTextDirectiveModule -->
<g id="node9" class="node">
<title>ShowClippedTextDirectiveModule</title>
<polygon fill="#8dd3c7" stroke="black" points="736.52,-84.8 733.52,-88.8 712.52,-88.8 709.52,-84.8 523.48,-84.8 523.48,-48.8 736.52,-48.8 736.52,-84.8"/>
<text text-anchor="middle" x="630" y="-62.6" font-family="Times,serif" font-size="14.00">ShowClippedTextDirectiveModule</text>
</g>
<!-- ShowClippedTextDirectiveModule&#45;&gt;VcdDatagridModule -->
<g id="edge8" class="edge">
<title>ShowClippedTextDirectiveModule&#45;&gt;VcdDatagridModule</title>
<path fill="none" stroke="black" d="M630,-84.82C630,-102.17 630,-125.8 630,-125.8 630,-125.8 941.74,-125.8 941.74,-125.8"/>
<polygon fill="black" stroke="black" points="941.74,-129.3 951.74,-125.8 941.74,-122.3 941.74,-129.3"/>
</g>
<!-- VcdActionMenuModule -->
<g id="node10" class="node">
<title>VcdActionMenuModule</title>
<polygon fill="#8dd3c7" stroke="black" points="504.64,-84.8 501.64,-88.8 480.64,-88.8 477.64,-84.8 351.36,-84.8 351.36,-48.8 504.64,-48.8 504.64,-84.8"/>
<text text-anchor="middle" x="428" y="-62.6" font-family="Times,serif" font-size="14.00">VcdActionMenuModule</text>
</g>
<!-- VcdActionMenuModule&#45;&gt;VcdDatagridModule -->
<g id="edge9" class="edge">
<title>VcdActionMenuModule&#45;&gt;VcdDatagridModule</title>
<path fill="none" stroke="black" d="M428,-84.91C428,-104.14 428,-131.8 428,-131.8 428,-131.8 942.04,-131.8 942.04,-131.8"/>
<polygon fill="black" stroke="black" points="942.04,-135.3 952.04,-131.8 942.04,-128.3 942.04,-135.3"/>
</g>
<!-- VcdActivityReporterModule -->
<g id="node11" class="node">
<title>VcdActivityReporterModule</title>
<polygon fill="#8dd3c7" stroke="black" points="332.74,-84.8 329.74,-88.8 308.74,-88.8 305.74,-84.8 155.26,-84.8 155.26,-48.8 332.74,-48.8 332.74,-84.8"/>
<text text-anchor="middle" x="244" y="-62.6" font-family="Times,serif" font-size="14.00">VcdActivityReporterModule</text>
</g>
<!-- VcdActivityReporterModule&#45;&gt;VcdDatagridModule -->
<g id="edge10" class="edge">
<title>VcdActivityReporterModule&#45;&gt;VcdDatagridModule</title>
<path fill="none" stroke="black" d="M244,-85.08C244,-106.12 244,-137.8 244,-137.8 244,-137.8 942.01,-137.8 942.01,-137.8"/>
<polygon fill="black" stroke="black" points="942.01,-141.3 952.01,-137.8 942.01,-134.3 942.01,-141.3"/>
</g>
<!-- VcdFormModule -->
<g id="node12" class="node">
<title>VcdFormModule</title>
<polygon fill="#8dd3c7" stroke="black" points="137.71,-84.8 134.71,-88.8 113.71,-88.8 110.71,-84.8 24.29,-84.8 24.29,-48.8 137.71,-48.8 137.71,-84.8"/>
<text text-anchor="middle" x="81" y="-62.6" font-family="Times,serif" font-size="14.00">VcdFormModule</text>
</g>
<!-- VcdFormModule&#45;&gt;VcdDatagridModule -->
<g id="edge11" class="edge">
<title>VcdFormModule&#45;&gt;VcdDatagridModule</title>
<path fill="none" stroke="black" d="M81,-85.05C81,-107.82 81,-143.8 81,-143.8 81,-143.8 942.11,-143.8 942.11,-143.8"/>
<polygon fill="black" stroke="black" points="942.11,-147.3 952.11,-143.8 942.11,-140.3 942.11,-147.3"/>
</g>
</g>
</svg>
