<?xml version="1.0" encoding="UTF-8" standalone="no"?>
<!DOCTYPE svg PUBLIC "-//W3C//DTD SVG 1.1//EN"
 "http://www.w3.org/Graphics/SVG/1.1/DTD/svg11.dtd">
<!-- Generated by graphviz version 2.47.0 (20210316.0004)
 -->
<!-- Title: dependencies Pages: 1 -->
<svg width="2184pt" height="349pt"
 viewBox="0.00 0.00 2184.00 349.00" xmlns="http://www.w3.org/2000/svg" xmlns:xlink="http://www.w3.org/1999/xlink">
<g id="graph0" class="graph" transform="scale(1 1) rotate(0) translate(4 345)">
<title>dependencies</title>
<polygon fill="white" stroke="transparent" points="-4,4 -4,-345 2180,-345 2180,4 -4,4"/>
<text text-anchor="start" x="1067.01" y="-42.4" font-family="Times-12" font-weight="bold" font-size="14.00">Legend</text>
<polygon fill="#ffffb3" stroke="transparent" points="854,-10 854,-30 874,-30 874,-10 854,-10"/>
<text text-anchor="start" x="877.63" y="-15.4" font-family="Times-12" font-size="14.00"> &#160;Declarations</text>
<polygon fill="#8dd3c7" stroke="transparent" points="967,-10 967,-30 987,-30 987,-10 967,-10"/>
<text text-anchor="start" x="990.73" y="-15.4" font-family="Times-12" font-size="14.00"> &#160;Module</text>
<polygon fill="#80b1d3" stroke="transparent" points="1053,-10 1053,-30 1073,-30 1073,-10 1053,-10"/>
<text text-anchor="start" x="1076.78" y="-15.4" font-family="Times-12" font-size="14.00"> &#160;Bootstrap</text>
<polygon fill="#fdb462" stroke="transparent" points="1150,-10 1150,-30 1170,-30 1170,-10 1150,-10"/>
<text text-anchor="start" x="1173.67" y="-15.4" font-family="Times-12" font-size="14.00"> &#160;Providers</text>
<polygon fill="#fb8072" stroke="transparent" points="1246,-10 1246,-30 1266,-30 1266,-10 1246,-10"/>
<text text-anchor="start" x="1269.73" y="-15.4" font-family="Times-12" font-size="14.00"> &#160;Exports</text>
<g id="clust1" class="cluster">
<title>cluster_VcdDatagridModule</title>
<polygon fill="none" stroke="black" stroke-dasharray="1,5" points="8,-70 8,-333 2168,-333 2168,-70 8,-70"/>
</g>
<g id="clust2" class="cluster">
<title>cluster_VcdDatagridModule_declarations</title>
<polygon fill="none" stroke="black" points="16,-143 16,-195 1423,-195 1423,-143 16,-143"/>
</g>
<g id="clust10" class="cluster">
<title>cluster_VcdDatagridModule_imports</title>
<polygon fill="none" stroke="black" points="1431,-143 1431,-195 2160,-195 2160,-143 1431,-143"/>
</g>
<g id="clust11" class="cluster">
<title>cluster_VcdDatagridModule_exports</title>
<polygon fill="none" stroke="black" points="982,-273 982,-325 1339,-325 1339,-273 982,-273"/>
</g>
<g id="clust4" class="cluster">
<title>cluster_VcdDatagridModule_DatagridComponent_providers</title>
<polygon fill="none" stroke="black" points="1048,-78 1048,-130 1244,-130 1244,-78 1048,-78"/>
</g>
<!-- BoldTextRendererComponent -->
<g id="node1" class="node">
<title>BoldTextRendererComponent</title>
<polygon fill="#ffffb3" stroke="black" points="1414.52,-187 1229.48,-187 1229.48,-151 1414.52,-151 1414.52,-187"/>
<text text-anchor="middle" x="1322" y="-164.8" font-family="Times,serif" font-size="14.00">BoldTextRendererComponent</text>
</g>
<!-- VcdDatagridModule -->
<g id="node8" class="node">
<title>VcdDatagridModule</title>
<polygon fill="#8dd3c7" stroke="black" points="1211.85,-252 1208.85,-256 1187.85,-256 1184.85,-252 1080.15,-252 1080.15,-216 1211.85,-216 1211.85,-252"/>
<text text-anchor="middle" x="1146" y="-229.8" font-family="Times,serif" font-size="14.00">VcdDatagridModule</text>
</g>
<!-- BoldTextRendererComponent&#45;&gt;VcdDatagridModule -->
<g id="edge1" class="edge">
<title>BoldTextRendererComponent&#45;&gt;VcdDatagridModule</title>
<path fill="none" stroke="black" d="M1279.88,-187.24C1279.88,-202.57 1279.88,-222 1279.88,-222 1279.88,-222 1222.15,-222 1222.15,-222"/>
<polygon fill="black" stroke="black" points="1222.15,-218.5 1212.15,-222 1222.15,-225.5 1222.15,-218.5"/>
</g>
<!-- DatagridComponent -->
<g id="node2" class="node">
<title>DatagridComponent</title>
<polygon fill="#ffffb3" stroke="black" points="1211.31,-187 1080.69,-187 1080.69,-151 1211.31,-151 1211.31,-187"/>
<text text-anchor="middle" x="1146" y="-164.8" font-family="Times,serif" font-size="14.00">DatagridComponent</text>
</g>
<!-- DatagridComponent&#45;&gt;VcdDatagridModule -->
<g id="edge2" class="edge">
<title>DatagridComponent&#45;&gt;VcdDatagridModule</title>
<path fill="none" stroke="black" d="M1146,-187.11C1146,-187.11 1146,-205.99 1146,-205.99"/>
<polygon fill="black" stroke="black" points="1142.5,-205.99 1146,-215.99 1149.5,-205.99 1142.5,-205.99"/>
</g>
<!-- DatagridMultiSelectFilterComponent -->
<g id="node3" class="node">
<title>DatagridMultiSelectFilterComponent</title>
<polygon fill="#ffffb3" stroke="black" points="1062.96,-187 837.04,-187 837.04,-151 1062.96,-151 1062.96,-187"/>
<text text-anchor="middle" x="950" y="-164.8" font-family="Times,serif" font-size="14.00">DatagridMultiSelectFilterComponent</text>
</g>
<!-- DatagridMultiSelectFilterComponent&#45;&gt;VcdDatagridModule -->
<g id="edge4" class="edge">
<title>DatagridMultiSelectFilterComponent&#45;&gt;VcdDatagridModule</title>
<path fill="none" stroke="black" d="M1026.54,-187.24C1026.54,-202.57 1026.54,-222 1026.54,-222 1026.54,-222 1069.98,-222 1069.98,-222"/>
<polygon fill="black" stroke="black" points="1069.98,-225.5 1079.98,-222 1069.98,-218.5 1069.98,-225.5"/>
</g>
<!-- DatagridNumericFilterComponent -->
<g id="node4" class="node">
<title>DatagridNumericFilterComponent</title>
<polygon fill="#ffffb3" stroke="black" points="818.62,-187 609.38,-187 609.38,-151 818.62,-151 818.62,-187"/>
<text text-anchor="middle" x="714" y="-164.8" font-family="Times,serif" font-size="14.00">DatagridNumericFilterComponent</text>
</g>
<!-- DatagridNumericFilterComponent&#45;&gt;VcdDatagridModule -->
<g id="edge5" class="edge">
<title>DatagridNumericFilterComponent&#45;&gt;VcdDatagridModule</title>
<path fill="none" stroke="black" d="M714,-187.02C714,-204.37 714,-228 714,-228 714,-228 1069.92,-228 1069.92,-228"/>
<polygon fill="black" stroke="black" points="1069.92,-231.5 1079.92,-228 1069.92,-224.5 1069.92,-231.5"/>
</g>
<!-- DatagridSelectFilterComponent -->
<g id="node5" class="node">
<title>DatagridSelectFilterComponent</title>
<polygon fill="#ffffb3" stroke="black" points="591.35,-187 396.65,-187 396.65,-151 591.35,-151 591.35,-187"/>
<text text-anchor="middle" x="494" y="-164.8" font-family="Times,serif" font-size="14.00">DatagridSelectFilterComponent</text>
</g>
<!-- DatagridSelectFilterComponent&#45;&gt;VcdDatagridModule -->
<g id="edge6" class="edge">
<title>DatagridSelectFilterComponent&#45;&gt;VcdDatagridModule</title>
<path fill="none" stroke="black" d="M494,-187.11C494,-206.34 494,-234 494,-234 494,-234 1069.89,-234 1069.89,-234"/>
<polygon fill="black" stroke="black" points="1069.89,-237.5 1079.89,-234 1069.89,-230.5 1069.89,-237.5"/>
</g>
<!-- DatagridStringFilterComponent -->
<g id="node6" class="node">
<title>DatagridStringFilterComponent</title>
<polygon fill="#ffffb3" stroke="black" points="378.36,-187 183.64,-187 183.64,-151 378.36,-151 378.36,-187"/>
<text text-anchor="middle" x="281" y="-164.8" font-family="Times,serif" font-size="14.00">DatagridStringFilterComponent</text>
</g>
<!-- DatagridStringFilterComponent&#45;&gt;VcdDatagridModule -->
<g id="edge7" class="edge">
<title>DatagridStringFilterComponent&#45;&gt;VcdDatagridModule</title>
<path fill="none" stroke="black" d="M281,-187.28C281,-208.32 281,-240 281,-240 281,-240 1069.92,-240 1069.92,-240"/>
<polygon fill="black" stroke="black" points="1069.92,-243.5 1079.92,-240 1069.92,-236.5 1069.92,-243.5"/>
</g>
<!-- FunctionRendererPipe -->
<g id="node7" class="node">
<title>FunctionRendererPipe</title>
<polygon fill="#ffffb3" stroke="black" points="165.97,-187 24.03,-187 24.03,-151 165.97,-151 165.97,-187"/>
<text text-anchor="middle" x="95" y="-164.8" font-family="Times,serif" font-size="14.00">FunctionRendererPipe</text>
</g>
<!-- FunctionRendererPipe&#45;&gt;VcdDatagridModule -->
<g id="edge8" class="edge">
<title>FunctionRendererPipe&#45;&gt;VcdDatagridModule</title>
<path fill="none" stroke="black" d="M95,-187.25C95,-210.02 95,-246 95,-246 95,-246 1069.86,-246 1069.86,-246"/>
<polygon fill="black" stroke="black" points="1069.86,-249.5 1079.86,-246 1069.86,-242.5 1069.86,-249.5"/>
</g>
<!-- BoldTextRendererComponent  -->
<g id="node14" class="node">
<title>BoldTextRendererComponent </title>
<polygon fill="#fb8072" stroke="black" points="1330.52,-317 1141.48,-317 1141.48,-281 1330.52,-281 1330.52,-317"/>
<text text-anchor="middle" x="1236" y="-294.8" font-family="Times,serif" font-size="14.00">BoldTextRendererComponent </text>
</g>
<!-- VcdDatagridModule&#45;&gt;BoldTextRendererComponent  -->
<g id="edge13" class="edge">
<title>VcdDatagridModule&#45;&gt;BoldTextRendererComponent </title>
<path fill="none" stroke="black" stroke-dasharray="5,2" d="M1176.71,-252.11C1176.71,-252.11 1176.71,-270.99 1176.71,-270.99"/>
<polygon fill="black" stroke="black" points="1173.21,-270.99 1176.71,-280.99 1180.21,-270.99 1173.21,-270.99"/>
</g>
<!-- DatagridComponent  -->
<g id="node15" class="node">
<title>DatagridComponent </title>
<polygon fill="#fb8072" stroke="black" points="1123.81,-317 990.19,-317 990.19,-281 1123.81,-281 1123.81,-317"/>
<text text-anchor="middle" x="1057" y="-294.8" font-family="Times,serif" font-size="14.00">DatagridComponent </text>
</g>
<!-- VcdDatagridModule&#45;&gt;DatagridComponent  -->
<g id="edge14" class="edge">
<title>VcdDatagridModule&#45;&gt;DatagridComponent </title>
<path fill="none" stroke="black" stroke-dasharray="5,2" d="M1101.99,-252.11C1101.99,-252.11 1101.99,-270.99 1101.99,-270.99"/>
<polygon fill="black" stroke="black" points="1098.49,-270.99 1101.99,-280.99 1105.49,-270.99 1098.49,-270.99"/>
</g>
<!-- SubscriptionTracker -->
<g id="node9" class="node">
<title>SubscriptionTracker</title>
<ellipse fill="#fdb462" stroke="black" cx="1146" cy="-104" rx="89.75" ry="18"/>
<text text-anchor="middle" x="1146" y="-99.8" font-family="Times,serif" font-size="14.00">SubscriptionTracker</text>
</g>
<!-- SubscriptionTracker&#45;&gt;DatagridComponent -->
<g id="edge3" class="edge">
<title>SubscriptionTracker&#45;&gt;DatagridComponent</title>
<path fill="none" stroke="black" d="M1146,-122.11C1146,-122.11 1146,-140.99 1146,-140.99"/>
<polygon fill="black" stroke="black" points="1142.5,-140.99 1146,-150.99 1149.5,-140.99 1142.5,-140.99"/>
</g>
<!-- ShowClippedTextDirectiveModule -->
<g id="node10" class="node">
<title>ShowClippedTextDirectiveModule</title>
<polygon fill="#8dd3c7" stroke="black" points="2151.51,-187 2148.51,-191 2127.51,-191 2124.51,-187 1938.49,-187 1938.49,-151 2151.51,-151 2151.51,-187"/>
<text text-anchor="middle" x="2045" y="-164.8" font-family="Times,serif" font-size="14.00">ShowClippedTextDirectiveModule</text>
</g>
<!-- ShowClippedTextDirectiveModule&#45;&gt;VcdDatagridModule -->
<g id="edge9" class="edge">
<title>ShowClippedTextDirectiveModule&#45;&gt;VcdDatagridModule</title>
<path fill="none" stroke="black" d="M2045,-187.25C2045,-210.02 2045,-246 2045,-246 2045,-246 1222.11,-246 1222.11,-246"/>
<polygon fill="black" stroke="black" points="1222.11,-242.5 1212.11,-246 1222.11,-249.5 1222.11,-242.5"/>
</g>
<!-- VcdActionMenuModule -->
<g id="node11" class="node">
<title>VcdActionMenuModule</title>
<polygon fill="#8dd3c7" stroke="black" points="1919.63,-187 1916.63,-191 1895.63,-191 1892.63,-187 1766.37,-187 1766.37,-151 1919.63,-151 1919.63,-187"/>
<text text-anchor="middle" x="1843" y="-164.8" font-family="Times,serif" font-size="14.00">VcdActionMenuModule</text>
</g>
<!-- VcdActionMenuModule&#45;&gt;VcdDatagridModule -->
<g id="edge10" class="edge">
<title>VcdActionMenuModule&#45;&gt;VcdDatagridModule</title>
<path fill="none" stroke="black" d="M1843,-187.28C1843,-208.32 1843,-240 1843,-240 1843,-240 1221.89,-240 1221.89,-240"/>
<polygon fill="black" stroke="black" points="1221.89,-236.5 1211.89,-240 1221.89,-243.5 1221.89,-236.5"/>
</g>
<!-- VcdActivityReporterModule -->
<g id="node12" class="node">
<title>VcdActivityReporterModule</title>
<polygon fill="#8dd3c7" stroke="black" points="1747.73,-187 1744.73,-191 1723.73,-191 1720.73,-187 1570.27,-187 1570.27,-151 1747.73,-151 1747.73,-187"/>
<text text-anchor="middle" x="1659" y="-164.8" font-family="Times,serif" font-size="14.00">VcdActivityReporterModule</text>
</g>
<!-- VcdActivityReporterModule&#45;&gt;VcdDatagridModule -->
<g id="edge11" class="edge">
<title>VcdActivityReporterModule&#45;&gt;VcdDatagridModule</title>
<path fill="none" stroke="black" d="M1659,-187.11C1659,-206.34 1659,-234 1659,-234 1659,-234 1222.02,-234 1222.02,-234"/>
<polygon fill="black" stroke="black" points="1222.02,-230.5 1212.02,-234 1222.02,-237.5 1222.02,-230.5"/>
</g>
<!-- VcdFormModule -->
<g id="node13" class="node">
<title>VcdFormModule</title>
<polygon fill="#8dd3c7" stroke="black" points="1552.7,-187 1549.7,-191 1528.7,-191 1525.7,-187 1439.3,-187 1439.3,-151 1552.7,-151 1552.7,-187"/>
<text text-anchor="middle" x="1496" y="-164.8" font-family="Times,serif" font-size="14.00">VcdFormModule</text>
</g>
<!-- VcdFormModule&#45;&gt;VcdDatagridModule -->
<g id="edge12" class="edge">
<title>VcdFormModule&#45;&gt;VcdDatagridModule</title>
<path fill="none" stroke="black" d="M1496,-187.02C1496,-204.37 1496,-228 1496,-228 1496,-228 1222.24,-228 1222.24,-228"/>
<polygon fill="black" stroke="black" points="1222.24,-224.5 1212.24,-228 1222.24,-231.5 1222.24,-224.5"/>
</g>
</g>
</svg>
