<?xml version="1.0" encoding="UTF-8" standalone="no"?>
<!DOCTYPE svg PUBLIC "-//W3C//DTD SVG 1.1//EN"
 "http://www.w3.org/Graphics/SVG/1.1/DTD/svg11.dtd">
<!-- Generated by graphviz version 2.47.0 (20210316.0004)
 -->
<!-- Title: dependencies Pages: 1 -->
<svg width="2240pt" height="349pt"
 viewBox="0.00 0.00 2240.00 349.00" xmlns="http://www.w3.org/2000/svg" xmlns:xlink="http://www.w3.org/1999/xlink">
<g id="graph0" class="graph" transform="scale(1 1) rotate(0) translate(4 345)">
<title>dependencies</title>
<polygon fill="white" stroke="transparent" points="-4,4 -4,-345 2236,-345 2236,4 -4,4"/>
<text text-anchor="start" x="1095.01" y="-42.4" font-family="Times-12" font-weight="bold" font-size="14.00">Legend</text>
<polygon fill="#ffffb3" stroke="transparent" points="882,-10 882,-30 902,-30 902,-10 882,-10"/>
<text text-anchor="start" x="905.63" y="-15.4" font-family="Times-12" font-size="14.00"> &#160;Declarations</text>
<polygon fill="#8dd3c7" stroke="transparent" points="995,-10 995,-30 1015,-30 1015,-10 995,-10"/>
<text text-anchor="start" x="1018.73" y="-15.4" font-family="Times-12" font-size="14.00"> &#160;Module</text>
<polygon fill="#80b1d3" stroke="transparent" points="1081,-10 1081,-30 1101,-30 1101,-10 1081,-10"/>
<text text-anchor="start" x="1104.78" y="-15.4" font-family="Times-12" font-size="14.00"> &#160;Bootstrap</text>
<polygon fill="#fdb462" stroke="transparent" points="1178,-10 1178,-30 1198,-30 1198,-10 1178,-10"/>
<text text-anchor="start" x="1201.67" y="-15.4" font-family="Times-12" font-size="14.00"> &#160;Providers</text>
<polygon fill="#fb8072" stroke="transparent" points="1274,-10 1274,-30 1294,-30 1294,-10 1274,-10"/>
<text text-anchor="start" x="1297.73" y="-15.4" font-family="Times-12" font-size="14.00"> &#160;Exports</text>
<g id="clust1" class="cluster">
<title>cluster_VcdDatagridModule</title>
<polygon fill="none" stroke="black" stroke-dasharray="1,5" points="8,-70 8,-333 2224,-333 2224,-70 8,-70"/>
</g>
<g id="clust11" class="cluster">
<title>cluster_VcdDatagridModule_exports</title>
<polygon fill="none" stroke="black" points="854,-273 854,-325 1211,-325 1211,-273 854,-273"/>
</g>
<g id="clust4" class="cluster">
<title>cluster_VcdDatagridModule_DatagridComponent_providers</title>
<polygon fill="none" stroke="black" points="2020,-78 2020,-195 2216,-195 2216,-78 2020,-78"/>
</g>
<g id="clust2" class="cluster">
<title>cluster_VcdDatagridModule_declarations</title>
<polygon fill="none" stroke="black" points="753,-143 753,-195 2012,-195 2012,-143 753,-143"/>
</g>
<g id="clust10" class="cluster">
<title>cluster_VcdDatagridModule_imports</title>
<polygon fill="none" stroke="black" points="16,-143 16,-195 745,-195 745,-143 16,-143"/>
</g>
<!-- BoldTextRendererComponent -->
<g id="node1" class="node">
<title>BoldTextRendererComponent</title>
<polygon fill="#ffffb3" stroke="black" points="2003.52,-187 1818.48,-187 1818.48,-151 2003.52,-151 2003.52,-187"/>
<text text-anchor="middle" x="1911" y="-164.8" font-family="Times,serif" font-size="14.00">BoldTextRendererComponent</text>
</g>
<!-- VcdDatagridModule -->
<g id="node8" class="node">
<title>VcdDatagridModule</title>
<polygon fill="#8dd3c7" stroke="black" points="1083.85,-252 1080.85,-256 1059.85,-256 1056.85,-252 952.15,-252 952.15,-216 1083.85,-216 1083.85,-252"/>
<text text-anchor="middle" x="1018" y="-229.8" font-family="Times,serif" font-size="14.00">VcdDatagridModule</text>
</g>
<!-- BoldTextRendererComponent&#45;&gt;VcdDatagridModule -->
<g id="edge1" class="edge">
<title>BoldTextRendererComponent&#45;&gt;VcdDatagridModule</title>
<path fill="none" stroke="black" d="M1911,-187.28C1911,-208.32 1911,-240 1911,-240 1911,-240 1094.03,-240 1094.03,-240"/>
<polygon fill="black" stroke="black" points="1094.03,-236.5 1084.03,-240 1094.03,-243.5 1094.03,-236.5"/>
</g>
<!-- DatagridComponent -->
<g id="node2" class="node">
<title>DatagridComponent</title>
<polygon fill="#ffffb3" stroke="black" points="2170.31,-187 2039.69,-187 2039.69,-151 2170.31,-151 2170.31,-187"/>
<text text-anchor="middle" x="2105" y="-164.8" font-family="Times,serif" font-size="14.00">DatagridComponent</text>
</g>
<!-- DatagridComponent&#45;&gt;VcdDatagridModule -->
<g id="edge2" class="edge">
<title>DatagridComponent&#45;&gt;VcdDatagridModule</title>
<path fill="none" stroke="black" d="M2105,-187.25C2105,-210.02 2105,-246 2105,-246 2105,-246 1093.95,-246 1093.95,-246"/>
<polygon fill="black" stroke="black" points="1093.95,-242.5 1083.95,-246 1093.95,-249.5 1093.95,-242.5"/>
</g>
<!-- DatagridMultiSelectFilterComponent -->
<g id="node3" class="node">
<title>DatagridMultiSelectFilterComponent</title>
<polygon fill="#ffffb3" stroke="black" points="1799.96,-187 1574.04,-187 1574.04,-151 1799.96,-151 1799.96,-187"/>
<text text-anchor="middle" x="1687" y="-164.8" font-family="Times,serif" font-size="14.00">DatagridMultiSelectFilterComponent</text>
</g>
<!-- DatagridMultiSelectFilterComponent&#45;&gt;VcdDatagridModule -->
<g id="edge4" class="edge">
<title>DatagridMultiSelectFilterComponent&#45;&gt;VcdDatagridModule</title>
<path fill="none" stroke="black" d="M1687,-187.11C1687,-206.34 1687,-234 1687,-234 1687,-234 1093.98,-234 1093.98,-234"/>
<polygon fill="black" stroke="black" points="1093.98,-230.5 1083.98,-234 1093.98,-237.5 1093.98,-230.5"/>
</g>
<!-- DatagridNumericFilterComponent -->
<g id="node4" class="node">
<title>DatagridNumericFilterComponent</title>
<polygon fill="#ffffb3" stroke="black" points="1555.62,-187 1346.38,-187 1346.38,-151 1555.62,-151 1555.62,-187"/>
<text text-anchor="middle" x="1451" y="-164.8" font-family="Times,serif" font-size="14.00">DatagridNumericFilterComponent</text>
</g>
<!-- DatagridNumericFilterComponent&#45;&gt;VcdDatagridModule -->
<g id="edge5" class="edge">
<title>DatagridNumericFilterComponent&#45;&gt;VcdDatagridModule</title>
<path fill="none" stroke="black" d="M1451,-187.02C1451,-204.37 1451,-228 1451,-228 1451,-228 1094.23,-228 1094.23,-228"/>
<polygon fill="black" stroke="black" points="1094.23,-224.5 1084.23,-228 1094.23,-231.5 1094.23,-224.5"/>
</g>
<!-- DatagridSelectFilterComponent -->
<g id="node5" class="node">
<title>DatagridSelectFilterComponent</title>
<polygon fill="#ffffb3" stroke="black" points="1328.35,-187 1133.65,-187 1133.65,-151 1328.35,-151 1328.35,-187"/>
<text text-anchor="middle" x="1231" y="-164.8" font-family="Times,serif" font-size="14.00">DatagridSelectFilterComponent</text>
</g>
<!-- DatagridSelectFilterComponent&#45;&gt;VcdDatagridModule -->
<g id="edge6" class="edge">
<title>DatagridSelectFilterComponent&#45;&gt;VcdDatagridModule</title>
<path fill="none" stroke="black" d="M1168.04,-187.24C1168.04,-202.57 1168.04,-222 1168.04,-222 1168.04,-222 1094.25,-222 1094.25,-222"/>
<polygon fill="black" stroke="black" points="1094.25,-218.5 1084.25,-222 1094.25,-225.5 1094.25,-218.5"/>
</g>
<!-- DatagridStringFilterComponent -->
<g id="node6" class="node">
<title>DatagridStringFilterComponent</title>
<polygon fill="#ffffb3" stroke="black" points="1115.36,-187 920.64,-187 920.64,-151 1115.36,-151 1115.36,-187"/>
<text text-anchor="middle" x="1018" y="-164.8" font-family="Times,serif" font-size="14.00">DatagridStringFilterComponent</text>
</g>
<!-- DatagridStringFilterComponent&#45;&gt;VcdDatagridModule -->
<g id="edge7" class="edge">
<title>DatagridStringFilterComponent&#45;&gt;VcdDatagridModule</title>
<path fill="none" stroke="black" d="M1018,-187.11C1018,-187.11 1018,-205.99 1018,-205.99"/>
<polygon fill="black" stroke="black" points="1014.5,-205.99 1018,-215.99 1021.5,-205.99 1014.5,-205.99"/>
</g>
<!-- FunctionRendererPipe -->
<g id="node7" class="node">
<title>FunctionRendererPipe</title>
<polygon fill="#ffffb3" stroke="black" points="902.97,-187 761.03,-187 761.03,-151 902.97,-151 902.97,-187"/>
<text text-anchor="middle" x="832" y="-164.8" font-family="Times,serif" font-size="14.00">FunctionRendererPipe</text>
</g>
<!-- FunctionRendererPipe&#45;&gt;VcdDatagridModule -->
<g id="edge8" class="edge">
<title>FunctionRendererPipe&#45;&gt;VcdDatagridModule</title>
<path fill="none" stroke="black" d="M882.54,-187.24C882.54,-202.57 882.54,-222 882.54,-222 882.54,-222 941.86,-222 941.86,-222"/>
<polygon fill="black" stroke="black" points="941.86,-225.5 951.86,-222 941.86,-218.5 941.86,-225.5"/>
</g>
<!-- BoldTextRendererComponent  -->
<g id="node14" class="node">
<title>BoldTextRendererComponent </title>
<polygon fill="#fb8072" stroke="black" points="1202.52,-317 1013.48,-317 1013.48,-281 1202.52,-281 1202.52,-317"/>
<text text-anchor="middle" x="1108" y="-294.8" font-family="Times,serif" font-size="14.00">BoldTextRendererComponent </text>
</g>
<!-- VcdDatagridModule&#45;&gt;BoldTextRendererComponent  -->
<g id="edge13" class="edge">
<title>VcdDatagridModule&#45;&gt;BoldTextRendererComponent </title>
<path fill="none" stroke="black" stroke-dasharray="5,2" d="M1048.71,-252.11C1048.71,-252.11 1048.71,-270.99 1048.71,-270.99"/>
<polygon fill="black" stroke="black" points="1045.21,-270.99 1048.71,-280.99 1052.21,-270.99 1045.21,-270.99"/>
</g>
<!-- DatagridComponent  -->
<g id="node15" class="node">
<title>DatagridComponent </title>
<polygon fill="#fb8072" stroke="black" points="995.81,-317 862.19,-317 862.19,-281 995.81,-281 995.81,-317"/>
<text text-anchor="middle" x="929" y="-294.8" font-family="Times,serif" font-size="14.00">DatagridComponent </text>
</g>
<!-- VcdDatagridModule&#45;&gt;DatagridComponent  -->
<g id="edge14" class="edge">
<title>VcdDatagridModule&#45;&gt;DatagridComponent </title>
<path fill="none" stroke="black" stroke-dasharray="5,2" d="M973.99,-252.11C973.99,-252.11 973.99,-270.99 973.99,-270.99"/>
<polygon fill="black" stroke="black" points="970.49,-270.99 973.99,-280.99 977.49,-270.99 970.49,-270.99"/>
</g>
<!-- SubscriptionTracker -->
<g id="node9" class="node">
<title>SubscriptionTracker</title>
<ellipse fill="#fdb462" stroke="black" cx="2118" cy="-104" rx="89.75" ry="18"/>
<text text-anchor="middle" x="2118" y="-99.8" font-family="Times,serif" font-size="14.00">SubscriptionTracker</text>
</g>
<!-- SubscriptionTracker&#45;&gt;DatagridComponent -->
<g id="edge3" class="edge">
<title>SubscriptionTracker&#45;&gt;DatagridComponent</title>
<path fill="none" stroke="black" d="M2105,-122.11C2105,-122.11 2105,-140.99 2105,-140.99"/>
<polygon fill="black" stroke="black" points="2101.5,-140.99 2105,-150.99 2108.5,-140.99 2101.5,-140.99"/>
</g>
<!-- ShowClippedTextDirectiveModule -->
<g id="node10" class="node">
<title>ShowClippedTextDirectiveModule</title>
<polygon fill="#8dd3c7" stroke="black" points="736.51,-187 733.51,-191 712.51,-191 709.51,-187 523.49,-187 523.49,-151 736.51,-151 736.51,-187"/>
<text text-anchor="middle" x="630" y="-164.8" font-family="Times,serif" font-size="14.00">ShowClippedTextDirectiveModule</text>
</g>
<!-- ShowClippedTextDirectiveModule&#45;&gt;VcdDatagridModule -->
<g id="edge9" class="edge">
<title>ShowClippedTextDirectiveModule&#45;&gt;VcdDatagridModule</title>
<path fill="none" stroke="black" d="M630,-187.02C630,-204.37 630,-228 630,-228 630,-228 941.74,-228 941.74,-228"/>
<polygon fill="black" stroke="black" points="941.74,-231.5 951.74,-228 941.74,-224.5 941.74,-231.5"/>
</g>
<!-- VcdActionMenuModule -->
<g id="node11" class="node">
<title>VcdActionMenuModule</title>
<polygon fill="#8dd3c7" stroke="black" points="504.63,-187 501.63,-191 480.63,-191 477.63,-187 351.37,-187 351.37,-151 504.63,-151 504.63,-187"/>
<text text-anchor="middle" x="428" y="-164.8" font-family="Times,serif" font-size="14.00">VcdActionMenuModule</text>
</g>
<!-- VcdActionMenuModule&#45;&gt;VcdDatagridModule -->
<g id="edge10" class="edge">
<title>VcdActionMenuModule&#45;&gt;VcdDatagridModule</title>
<path fill="none" stroke="black" d="M428,-187.11C428,-206.34 428,-234 428,-234 428,-234 942.04,-234 942.04,-234"/>
<polygon fill="black" stroke="black" points="942.04,-237.5 952.04,-234 942.04,-230.5 942.04,-237.5"/>
</g>
<!-- VcdActivityReporterModule -->
<g id="node12" class="node">
<title>VcdActivityReporterModule</title>
<polygon fill="#8dd3c7" stroke="black" points="332.73,-187 329.73,-191 308.73,-191 305.73,-187 155.27,-187 155.27,-151 332.73,-151 332.73,-187"/>
<text text-anchor="middle" x="244" y="-164.8" font-family="Times,serif" font-size="14.00">VcdActivityReporterModule</text>
</g>
<!-- VcdActivityReporterModule&#45;&gt;VcdDatagridModule -->
<g id="edge11" class="edge">
<title>VcdActivityReporterModule&#45;&gt;VcdDatagridModule</title>
<path fill="none" stroke="black" d="M244,-187.28C244,-208.32 244,-240 244,-240 244,-240 942.01,-240 942.01,-240"/>
<polygon fill="black" stroke="black" points="942.01,-243.5 952.01,-240 942.01,-236.5 942.01,-243.5"/>
</g>
<!-- VcdFormModule -->
<g id="node13" class="node">
<title>VcdFormModule</title>
<polygon fill="#8dd3c7" stroke="black" points="137.7,-187 134.7,-191 113.7,-191 110.7,-187 24.3,-187 24.3,-151 137.7,-151 137.7,-187"/>
<text text-anchor="middle" x="81" y="-164.8" font-family="Times,serif" font-size="14.00">VcdFormModule</text>
</g>
<!-- VcdFormModule&#45;&gt;VcdDatagridModule -->
<g id="edge12" class="edge">
<title>VcdFormModule&#45;&gt;VcdDatagridModule</title>
<path fill="none" stroke="black" d="M81,-187.25C81,-210.02 81,-246 81,-246 81,-246 942.11,-246 942.11,-246"/>
<polygon fill="black" stroke="black" points="942.11,-249.5 952.11,-246 942.11,-242.5 942.11,-249.5"/>
</g>
</g>
</svg>
