<?xml version="1.0" encoding="UTF-8" standalone="no"?>
<!DOCTYPE svg PUBLIC "-//W3C//DTD SVG 1.1//EN"
 "http://www.w3.org/Graphics/SVG/1.1/DTD/svg11.dtd">
<!-- Generated by graphviz version 5.0.0 (20220707.1540)
 -->
<!-- Title: dependencies Pages: 1 -->
<svg width="2240pt" height="312pt"
 viewBox="0.00 0.00 2240.00 311.80" xmlns="http://www.w3.org/2000/svg" xmlns:xlink="http://www.w3.org/1999/xlink">
<g id="graph0" class="graph" transform="scale(1 1) rotate(0) translate(4 307.8)">
<title>dependencies</title>
<polygon fill="white" stroke="transparent" points="-4,4 -4,-307.8 2236,-307.8 2236,4 -4,4"/>
<text text-anchor="middle" x="1116" y="-8.2" font-family="sans-serif" font-size="14.00">dependencies</text>
<g id="clust1" class="cluster">
<title>cluster_VcdDatagridModule</title>
<polygon fill="none" stroke="black" stroke-dasharray="1,5" points="8,-32.8 8,-295.8 2224,-295.8 2224,-32.8 8,-32.8"/>
</g>
<g id="clust10" class="cluster">
<title>cluster_VcdDatagridModule_imports</title>
<polygon fill="none" stroke="black" points="1487,-105.8 1487,-157.8 2216,-157.8 2216,-105.8 1487,-105.8"/>
</g>
<g id="clust4" class="cluster">
<title>cluster_VcdDatagridModule_DatagridComponent_providers</title>
<polygon fill="none" stroke="black" points="1283,-40.8 1283,-157.8 1479,-157.8 1479,-40.8 1283,-40.8"/>
</g>
<g id="clust2" class="cluster">
<title>cluster_VcdDatagridModule_declarations</title>
<polygon fill="none" stroke="black" points="16,-105.8 16,-157.8 1275,-157.8 1275,-105.8 16,-105.8"/>
</g>
<g id="clust11" class="cluster">
<title>cluster_VcdDatagridModule_exports</title>
<polygon fill="none" stroke="black" points="1010,-235.8 1010,-287.8 1367,-287.8 1367,-235.8 1010,-235.8"/>
</g>
<!-- BoldTextRendererComponent -->
<g id="node1" class="node">
<title>BoldTextRendererComponent</title>
<polygon fill="#ffffb3" stroke="black" points="1266.52,-149.8 1081.48,-149.8 1081.48,-113.8 1266.52,-113.8 1266.52,-149.8"/>
<text text-anchor="middle" x="1174" y="-127.6" font-family="Times,serif" font-size="14.00">BoldTextRendererComponent</text>
</g>
<!-- VcdDatagridModule -->
<g id="node8" class="node">
<title>VcdDatagridModule</title>
<polygon fill="#8dd3c7" stroke="black" points="1239.86,-214.8 1236.86,-218.8 1215.86,-218.8 1212.86,-214.8 1108.14,-214.8 1108.14,-178.8 1239.86,-178.8 1239.86,-214.8"/>
<text text-anchor="middle" x="1174" y="-192.6" font-family="Times,serif" font-size="14.00">VcdDatagridModule</text>
</g>
<!-- BoldTextRendererComponent&#45;&gt;VcdDatagridModule -->
<g id="edge1" class="edge">
<title>BoldTextRendererComponent&#45;&gt;VcdDatagridModule</title>
<path fill="none" stroke="black" d="M1174,-149.91C1174,-149.91 1174,-168.79 1174,-168.79"/>
<polygon fill="black" stroke="black" points="1170.5,-168.79 1174,-178.79 1177.5,-168.79 1170.5,-168.79"/>
</g>
<!-- DatagridComponent -->
<g id="node2" class="node">
<title>DatagridComponent</title>
<polygon fill="#ffffb3" stroke="black" points="1433.31,-149.8 1302.69,-149.8 1302.69,-113.8 1433.31,-113.8 1433.31,-149.8"/>
<text text-anchor="middle" x="1368" y="-127.6" font-family="Times,serif" font-size="14.00">DatagridComponent</text>
</g>
<!-- DatagridComponent&#45;&gt;VcdDatagridModule -->
<g id="edge2" class="edge">
<title>DatagridComponent&#45;&gt;VcdDatagridModule</title>
<path fill="none" stroke="black" d="M1330.68,-150.04C1330.68,-165.37 1330.68,-184.8 1330.68,-184.8 1330.68,-184.8 1249.99,-184.8 1249.99,-184.8"/>
<polygon fill="black" stroke="black" points="1249.99,-181.3 1239.99,-184.8 1249.99,-188.3 1249.99,-181.3"/>
</g>
<!-- DatagridMultiSelectFilterComponent -->
<g id="node3" class="node">
<title>DatagridMultiSelectFilterComponent</title>
<polygon fill="#ffffb3" stroke="black" points="1062.97,-149.8 837.03,-149.8 837.03,-113.8 1062.97,-113.8 1062.97,-149.8"/>
<text text-anchor="middle" x="950" y="-127.6" font-family="Times,serif" font-size="14.00">DatagridMultiSelectFilterComponent</text>
</g>
<!-- DatagridMultiSelectFilterComponent&#45;&gt;VcdDatagridModule -->
<g id="edge4" class="edge">
<title>DatagridMultiSelectFilterComponent&#45;&gt;VcdDatagridModule</title>
<path fill="none" stroke="black" d="M1040.54,-150.04C1040.54,-165.37 1040.54,-184.8 1040.54,-184.8 1040.54,-184.8 1098.05,-184.8 1098.05,-184.8"/>
<polygon fill="black" stroke="black" points="1098.05,-188.3 1108.05,-184.8 1098.05,-181.3 1098.05,-188.3"/>
</g>
<!-- DatagridNumericFilterComponent -->
<g id="node4" class="node">
<title>DatagridNumericFilterComponent</title>
<polygon fill="#ffffb3" stroke="black" points="818.62,-149.8 609.38,-149.8 609.38,-113.8 818.62,-113.8 818.62,-149.8"/>
<text text-anchor="middle" x="714" y="-127.6" font-family="Times,serif" font-size="14.00">DatagridNumericFilterComponent</text>
</g>
<!-- DatagridNumericFilterComponent&#45;&gt;VcdDatagridModule -->
<g id="edge5" class="edge">
<title>DatagridNumericFilterComponent&#45;&gt;VcdDatagridModule</title>
<path fill="none" stroke="black" d="M714,-149.82C714,-167.17 714,-190.8 714,-190.8 714,-190.8 1098.09,-190.8 1098.09,-190.8"/>
<polygon fill="black" stroke="black" points="1098.09,-194.3 1108.09,-190.8 1098.09,-187.3 1098.09,-194.3"/>
</g>
<!-- DatagridSelectFilterComponent -->
<g id="node5" class="node">
<title>DatagridSelectFilterComponent</title>
<polygon fill="#ffffb3" stroke="black" points="591.35,-149.8 396.65,-149.8 396.65,-113.8 591.35,-113.8 591.35,-149.8"/>
<text text-anchor="middle" x="494" y="-127.6" font-family="Times,serif" font-size="14.00">DatagridSelectFilterComponent</text>
</g>
<!-- DatagridSelectFilterComponent&#45;&gt;VcdDatagridModule -->
<g id="edge6" class="edge">
<title>DatagridSelectFilterComponent&#45;&gt;VcdDatagridModule</title>
<path fill="none" stroke="black" d="M494,-149.91C494,-169.14 494,-196.8 494,-196.8 494,-196.8 1097.87,-196.8 1097.87,-196.8"/>
<polygon fill="black" stroke="black" points="1097.87,-200.3 1107.87,-196.8 1097.87,-193.3 1097.87,-200.3"/>
</g>
<!-- DatagridStringFilterComponent -->
<g id="node6" class="node">
<title>DatagridStringFilterComponent</title>
<polygon fill="#ffffb3" stroke="black" points="378.37,-149.8 183.63,-149.8 183.63,-113.8 378.37,-113.8 378.37,-149.8"/>
<text text-anchor="middle" x="281" y="-127.6" font-family="Times,serif" font-size="14.00">DatagridStringFilterComponent</text>
</g>
<!-- DatagridStringFilterComponent&#45;&gt;VcdDatagridModule -->
<g id="edge7" class="edge">
<title>DatagridStringFilterComponent&#45;&gt;VcdDatagridModule</title>
<path fill="none" stroke="black" d="M281,-150.08C281,-171.12 281,-202.8 281,-202.8 281,-202.8 1097.97,-202.8 1097.97,-202.8"/>
<polygon fill="black" stroke="black" points="1097.97,-206.3 1107.97,-202.8 1097.97,-199.3 1097.97,-206.3"/>
</g>
<!-- FunctionRendererPipe -->
<g id="node7" class="node">
<title>FunctionRendererPipe</title>
<polygon fill="#ffffb3" stroke="black" points="165.97,-149.8 24.03,-149.8 24.03,-113.8 165.97,-113.8 165.97,-149.8"/>
<text text-anchor="middle" x="95" y="-127.6" font-family="Times,serif" font-size="14.00">FunctionRendererPipe</text>
</g>
<!-- FunctionRendererPipe&#45;&gt;VcdDatagridModule -->
<g id="edge8" class="edge">
<title>FunctionRendererPipe&#45;&gt;VcdDatagridModule</title>
<path fill="none" stroke="black" d="M95,-150.05C95,-172.82 95,-208.8 95,-208.8 95,-208.8 1098.13,-208.8 1098.13,-208.8"/>
<polygon fill="black" stroke="black" points="1098.13,-212.3 1108.13,-208.8 1098.13,-205.3 1098.13,-212.3"/>
</g>
<!-- BoldTextRendererComponent  -->
<g id="node14" class="node">
<title>BoldTextRendererComponent </title>
<polygon fill="#fb8072" stroke="black" points="1358.52,-279.8 1169.48,-279.8 1169.48,-243.8 1358.52,-243.8 1358.52,-279.8"/>
<text text-anchor="middle" x="1264" y="-257.6" font-family="Times,serif" font-size="14.00">BoldTextRendererComponent </text>
</g>
<!-- VcdDatagridModule&#45;&gt;BoldTextRendererComponent  -->
<g id="edge13" class="edge">
<title>VcdDatagridModule&#45;&gt;BoldTextRendererComponent </title>
<path fill="none" stroke="black" stroke-dasharray="5,2" d="M1204.71,-214.91C1204.71,-214.91 1204.71,-233.79 1204.71,-233.79"/>
<polygon fill="black" stroke="black" points="1201.21,-233.79 1204.71,-243.79 1208.21,-233.79 1201.21,-233.79"/>
</g>
<!-- DatagridComponent  -->
<g id="node15" class="node">
<title>DatagridComponent </title>
<polygon fill="#fb8072" stroke="black" points="1151.81,-279.8 1018.19,-279.8 1018.19,-243.8 1151.81,-243.8 1151.81,-279.8"/>
<text text-anchor="middle" x="1085" y="-257.6" font-family="Times,serif" font-size="14.00">DatagridComponent </text>
</g>
<!-- VcdDatagridModule&#45;&gt;DatagridComponent  -->
<g id="edge14" class="edge">
<title>VcdDatagridModule&#45;&gt;DatagridComponent </title>
<path fill="none" stroke="black" stroke-dasharray="5,2" d="M1129.99,-214.91C1129.99,-214.91 1129.99,-233.79 1129.99,-233.79"/>
<polygon fill="black" stroke="black" points="1126.49,-233.79 1129.99,-243.79 1133.49,-233.79 1126.49,-233.79"/>
</g>
<!-- SubscriptionTracker -->
<g id="node9" class="node">
<title>SubscriptionTracker</title>
<ellipse fill="#fdb462" stroke="black" cx="1381" cy="-66.8" rx="89.75" ry="18"/>
<text text-anchor="middle" x="1381" y="-62.6" font-family="Times,serif" font-size="14.00">SubscriptionTracker</text>
</g>
<!-- SubscriptionTracker&#45;&gt;DatagridComponent -->
<g id="edge3" class="edge">
<title>SubscriptionTracker&#45;&gt;DatagridComponent</title>
<path fill="none" stroke="black" d="M1368,-84.91C1368,-84.91 1368,-103.79 1368,-103.79"/>
<polygon fill="black" stroke="black" points="1364.5,-103.79 1368,-113.79 1371.5,-103.79 1364.5,-103.79"/>
</g>
<!-- ShowClippedTextDirectiveModule -->
<g id="node10" class="node">
<title>ShowClippedTextDirectiveModule</title>
<polygon fill="#8dd3c7" stroke="black" points="2207.52,-149.8 2204.52,-153.8 2183.52,-153.8 2180.52,-149.8 1994.48,-149.8 1994.48,-113.8 2207.52,-113.8 2207.52,-149.8"/>
<text text-anchor="middle" x="2101" y="-127.6" font-family="Times,serif" font-size="14.00">ShowClippedTextDirectiveModule</text>
</g>
<!-- ShowClippedTextDirectiveModule&#45;&gt;VcdDatagridModule -->
<g id="edge9" class="edge">
<title>ShowClippedTextDirectiveModule&#45;&gt;VcdDatagridModule</title>
<path fill="none" stroke="black" d="M2101,-150.05C2101,-172.82 2101,-208.8 2101,-208.8 2101,-208.8 1249.92,-208.8 1249.92,-208.8"/>
<polygon fill="black" stroke="black" points="1249.92,-205.3 1239.92,-208.8 1249.92,-212.3 1249.92,-205.3"/>
</g>
<!-- VcdActionMenuModule -->
<g id="node11" class="node">
<title>VcdActionMenuModule</title>
<polygon fill="#8dd3c7" stroke="black" points="1975.64,-149.8 1972.64,-153.8 1951.64,-153.8 1948.64,-149.8 1822.36,-149.8 1822.36,-113.8 1975.64,-113.8 1975.64,-149.8"/>
<text text-anchor="middle" x="1899" y="-127.6" font-family="Times,serif" font-size="14.00">VcdActionMenuModule</text>
</g>
<!-- VcdActionMenuModule&#45;&gt;VcdDatagridModule -->
<g id="edge10" class="edge">
<title>VcdActionMenuModule&#45;&gt;VcdDatagridModule</title>
<path fill="none" stroke="black" d="M1899,-150.08C1899,-171.12 1899,-202.8 1899,-202.8 1899,-202.8 1249.94,-202.8 1249.94,-202.8"/>
<polygon fill="black" stroke="black" points="1249.94,-199.3 1239.94,-202.8 1249.94,-206.3 1249.94,-199.3"/>
</g>
<!-- VcdActivityReporterModule -->
<g id="node12" class="node">
<title>VcdActivityReporterModule</title>
<polygon fill="#8dd3c7" stroke="black" points="1803.74,-149.8 1800.74,-153.8 1779.74,-153.8 1776.74,-149.8 1626.26,-149.8 1626.26,-113.8 1803.74,-113.8 1803.74,-149.8"/>
<text text-anchor="middle" x="1715" y="-127.6" font-family="Times,serif" font-size="14.00">VcdActivityReporterModule</text>
</g>
<!-- VcdActivityReporterModule&#45;&gt;VcdDatagridModule -->
<g id="edge11" class="edge">
<title>VcdActivityReporterModule&#45;&gt;VcdDatagridModule</title>
<path fill="none" stroke="black" d="M1715,-149.91C1715,-169.14 1715,-196.8 1715,-196.8 1715,-196.8 1250.07,-196.8 1250.07,-196.8"/>
<polygon fill="black" stroke="black" points="1250.07,-193.3 1240.07,-196.8 1250.07,-200.3 1250.07,-193.3"/>
</g>
<!-- VcdFormModule -->
<g id="node13" class="node">
<title>VcdFormModule</title>
<polygon fill="#8dd3c7" stroke="black" points="1608.71,-149.8 1605.71,-153.8 1584.71,-153.8 1581.71,-149.8 1495.29,-149.8 1495.29,-113.8 1608.71,-113.8 1608.71,-149.8"/>
<text text-anchor="middle" x="1552" y="-127.6" font-family="Times,serif" font-size="14.00">VcdFormModule</text>
</g>
<!-- VcdFormModule&#45;&gt;VcdDatagridModule -->
<g id="edge12" class="edge">
<title>VcdFormModule&#45;&gt;VcdDatagridModule</title>
<path fill="none" stroke="black" d="M1552,-149.82C1552,-167.17 1552,-190.8 1552,-190.8 1552,-190.8 1250.28,-190.8 1250.28,-190.8"/>
<polygon fill="black" stroke="black" points="1250.28,-187.3 1240.28,-190.8 1250.28,-194.3 1250.28,-187.3"/>
</g>
</g>
</svg>
