<?xml version="1.0" encoding="UTF-8" standalone="no"?>
<!DOCTYPE svg PUBLIC "-//W3C//DTD SVG 1.1//EN"
 "http://www.w3.org/Graphics/SVG/1.1/DTD/svg11.dtd">
<!-- Generated by graphviz version 5.0.0 (20220707.1540)
 -->
<!-- Title: dependencies Pages: 1 -->
<svg width="254pt" height="247pt"
 viewBox="0.00 0.00 254.00 246.80" xmlns="http://www.w3.org/2000/svg" xmlns:xlink="http://www.w3.org/1999/xlink">
<g id="graph0" class="graph" transform="scale(1 1) rotate(0) translate(4 242.8)">
<title>dependencies</title>
<polygon fill="white" stroke="transparent" points="-4,4 -4,-242.8 250,-242.8 250,4 -4,4"/>
<text text-anchor="middle" x="123" y="-8.2" font-family="sans-serif" font-size="14.00">dependencies</text>
<g id="clust1" class="cluster">
<title>cluster_ShowClippedTextDirectiveModule</title>
<polygon fill="none" stroke="black" stroke-dasharray="1,5" points="8,-32.8 8,-230.8 238,-230.8 238,-32.8 8,-32.8"/>
</g>
<g id="clust2" class="cluster">
<title>cluster_ShowClippedTextDirectiveModule_declarations</title>
<polygon fill="none" stroke="black" points="30,-40.8 30,-92.8 216,-92.8 216,-40.8 30,-40.8"/>
</g>
<g id="clust5" class="cluster">
<title>cluster_ShowClippedTextDirectiveModule_exports</title>
<polygon fill="none" stroke="black" points="28,-170.8 28,-222.8 218,-222.8 218,-170.8 28,-170.8"/>
</g>
<!-- ShowClippedTextDirective -->
<g id="node1" class="node">
<title>ShowClippedTextDirective</title>
<polygon fill="#ffffb3" stroke="black" points="207.97,-84.8 38.03,-84.8 38.03,-48.8 207.97,-48.8 207.97,-84.8"/>
<text text-anchor="middle" x="123" y="-62.6" font-family="Times,serif" font-size="14.00">ShowClippedTextDirective</text>
</g>
<!-- ShowClippedTextDirectiveModule -->
<g id="node2" class="node">
<title>ShowClippedTextDirectiveModule</title>
<polygon fill="#8dd3c7" stroke="black" points="229.52,-149.8 226.52,-153.8 205.52,-153.8 202.52,-149.8 16.48,-149.8 16.48,-113.8 229.52,-113.8 229.52,-149.8"/>
<text text-anchor="middle" x="123" y="-127.6" font-family="Times,serif" font-size="14.00">ShowClippedTextDirectiveModule</text>
</g>
<!-- ShowClippedTextDirective&#45;&gt;ShowClippedTextDirectiveModule -->
<g id="edge1" class="edge">
<title>ShowClippedTextDirective&#45;&gt;ShowClippedTextDirectiveModule</title>
<path fill="none" stroke="black" d="M123,-84.91C123,-84.91 123,-103.79 123,-103.79"/>
<polygon fill="black" stroke="black" points="119.5,-103.79 123,-113.79 126.5,-103.79 119.5,-103.79"/>
</g>
<!-- ShowClippedTextDirective  -->
<g id="node3" class="node">
<title>ShowClippedTextDirective </title>
<polygon fill="#fb8072" stroke="black" points="209.97,-214.8 36.03,-214.8 36.03,-178.8 209.97,-178.8 209.97,-214.8"/>
<text text-anchor="middle" x="123" y="-192.6" font-family="Times,serif" font-size="14.00">ShowClippedTextDirective </text>
</g>
<!-- ShowClippedTextDirectiveModule&#45;&gt;ShowClippedTextDirective  -->
<g id="edge2" class="edge">
<title>ShowClippedTextDirectiveModule&#45;&gt;ShowClippedTextDirective </title>
<path fill="none" stroke="black" stroke-dasharray="5,2" d="M123,-149.91C123,-149.91 123,-168.79 123,-168.79"/>
<polygon fill="black" stroke="black" points="119.5,-168.79 123,-178.79 126.5,-168.79 119.5,-168.79"/>
</g>
</g>
</svg>
