<?xml version="1.0" encoding="UTF-8" standalone="no"?>
<!DOCTYPE svg PUBLIC "-//W3C//DTD SVG 1.1//EN"
 "http://www.w3.org/Graphics/SVG/1.1/DTD/svg11.dtd">
<!-- Generated by graphviz version 5.0.0 (20220707.1540)
 -->
<!-- Title: dependencies Pages: 1 -->
<svg width="884pt" height="247pt"
 viewBox="0.00 0.00 884.00 246.80" xmlns="http://www.w3.org/2000/svg" xmlns:xlink="http://www.w3.org/1999/xlink">
<g id="graph0" class="graph" transform="scale(1 1) rotate(0) translate(4 242.8)">
<title>dependencies</title>
<polygon fill="white" stroke="transparent" points="-4,4 -4,-242.8 880,-242.8 880,4 -4,4"/>
<text text-anchor="middle" x="438" y="-8.2" font-family="sans-serif" font-size="14.00">dependencies</text>
<g id="clust1" class="cluster">
<title>cluster_VcdActivityReporterModule</title>
<polygon fill="none" stroke="black" stroke-dasharray="1,5" points="8,-32.8 8,-230.8 868,-230.8 868,-32.8 8,-32.8"/>
</g>
<g id="clust5" class="cluster">
<title>cluster_VcdActivityReporterModule_imports</title>
<polygon fill="none" stroke="black" points="494,-40.8 494,-92.8 860,-92.8 860,-40.8 494,-40.8"/>
</g>
<g id="clust6" class="cluster">
<title>cluster_VcdActivityReporterModule_exports</title>
<polygon fill="none" stroke="black" points="196,-170.8 196,-222.8 674,-222.8 674,-170.8 196,-170.8"/>
</g>
<g id="clust2" class="cluster">
<title>cluster_VcdActivityReporterModule_declarations</title>
<polygon fill="none" stroke="black" points="16,-40.8 16,-92.8 486,-92.8 486,-40.8 16,-40.8"/>
</g>
<!-- BannerActivityReporterComponent -->
<g id="node1" class="node">
<title>BannerActivityReporterComponent</title>
<polygon fill="#ffffb3" stroke="black" points="478.12,-84.8 261.88,-84.8 261.88,-48.8 478.12,-48.8 478.12,-84.8"/>
<text text-anchor="middle" x="370" y="-62.6" font-family="Times,serif" font-size="14.00">BannerActivityReporterComponent</text>
</g>
<!-- VcdActivityReporterModule -->
<g id="node3" class="node">
<title>VcdActivityReporterModule</title>
<polygon fill="#8dd3c7" stroke="black" points="524.74,-149.8 521.74,-153.8 500.74,-153.8 497.74,-149.8 347.26,-149.8 347.26,-113.8 524.74,-113.8 524.74,-149.8"/>
<text text-anchor="middle" x="436" y="-127.6" font-family="Times,serif" font-size="14.00">VcdActivityReporterModule</text>
</g>
<!-- BannerActivityReporterComponent&#45;&gt;VcdActivityReporterModule -->
<g id="edge1" class="edge">
<title>BannerActivityReporterComponent&#45;&gt;VcdActivityReporterModule</title>
<path fill="none" stroke="black" d="M412.72,-84.91C412.72,-84.91 412.72,-103.79 412.72,-103.79"/>
<polygon fill="black" stroke="black" points="409.22,-103.79 412.72,-113.79 416.22,-103.79 409.22,-103.79"/>
</g>
<!-- SpinnerActivityReporterComponent -->
<g id="node2" class="node">
<title>SpinnerActivityReporterComponent</title>
<polygon fill="#ffffb3" stroke="black" points="243.75,-84.8 24.25,-84.8 24.25,-48.8 243.75,-48.8 243.75,-84.8"/>
<text text-anchor="middle" x="134" y="-62.6" font-family="Times,serif" font-size="14.00">SpinnerActivityReporterComponent</text>
</g>
<!-- SpinnerActivityReporterComponent&#45;&gt;VcdActivityReporterModule -->
<g id="edge2" class="edge">
<title>SpinnerActivityReporterComponent&#45;&gt;VcdActivityReporterModule</title>
<path fill="none" stroke="black" d="M224.12,-84.91C224.12,-104.14 224.12,-131.8 224.12,-131.8 224.12,-131.8 337.07,-131.8 337.07,-131.8"/>
<polygon fill="black" stroke="black" points="337.07,-135.3 347.07,-131.8 337.07,-128.3 337.07,-135.3"/>
</g>
<!-- BannerActivityReporterComponent  -->
<g id="node6" class="node">
<title>BannerActivityReporterComponent </title>
<polygon fill="#fb8072" stroke="black" points="666.12,-214.8 445.88,-214.8 445.88,-178.8 666.12,-178.8 666.12,-214.8"/>
<text text-anchor="middle" x="556" y="-192.6" font-family="Times,serif" font-size="14.00">BannerActivityReporterComponent </text>
</g>
<!-- VcdActivityReporterModule&#45;&gt;BannerActivityReporterComponent  -->
<g id="edge5" class="edge">
<title>VcdActivityReporterModule&#45;&gt;BannerActivityReporterComponent </title>
<path fill="none" stroke="black" stroke-dasharray="5,2" d="M485.4,-149.91C485.4,-149.91 485.4,-168.79 485.4,-168.79"/>
<polygon fill="black" stroke="black" points="481.9,-168.79 485.4,-178.79 488.9,-168.79 481.9,-168.79"/>
</g>
<!-- SpinnerActivityReporterComponent  -->
<g id="node7" class="node">
<title>SpinnerActivityReporterComponent </title>
<polygon fill="#fb8072" stroke="black" points="427.75,-214.8 204.25,-214.8 204.25,-178.8 427.75,-178.8 427.75,-214.8"/>
<text text-anchor="middle" x="316" y="-192.6" font-family="Times,serif" font-size="14.00">SpinnerActivityReporterComponent </text>
</g>
<!-- VcdActivityReporterModule&#45;&gt;SpinnerActivityReporterComponent  -->
<g id="edge6" class="edge">
<title>VcdActivityReporterModule&#45;&gt;SpinnerActivityReporterComponent </title>
<path fill="none" stroke="black" stroke-dasharray="5,2" d="M387.38,-149.91C387.38,-149.91 387.38,-168.79 387.38,-168.79"/>
<polygon fill="black" stroke="black" points="383.88,-168.79 387.38,-178.79 390.88,-168.79 383.88,-168.79"/>
</g>
<!-- VcdErrorBannerModule -->
<g id="node4" class="node">
<title>VcdErrorBannerModule</title>
<polygon fill="#8dd3c7" stroke="black" points="852.34,-84.8 849.34,-88.8 828.34,-88.8 825.34,-84.8 699.66,-84.8 699.66,-48.8 852.34,-48.8 852.34,-84.8"/>
<text text-anchor="middle" x="776" y="-62.6" font-family="Times,serif" font-size="14.00">VcdErrorBannerModule</text>
</g>
<!-- VcdErrorBannerModule&#45;&gt;VcdActivityReporterModule -->
<g id="edge3" class="edge">
<title>VcdErrorBannerModule&#45;&gt;VcdActivityReporterModule</title>
<path fill="none" stroke="black" d="M776,-84.91C776,-104.14 776,-131.8 776,-131.8 776,-131.8 534.89,-131.8 534.89,-131.8"/>
<polygon fill="black" stroke="black" points="534.89,-128.3 524.89,-131.8 534.89,-135.3 534.89,-128.3"/>
</g>
<!-- VcdLoadingIndicatorModule -->
<g id="node5" class="node">
<title>VcdLoadingIndicatorModule</title>
<polygon fill="#8dd3c7" stroke="black" points="682.06,-84.8 679.06,-88.8 658.06,-88.8 655.06,-84.8 501.94,-84.8 501.94,-48.8 682.06,-48.8 682.06,-84.8"/>
<text text-anchor="middle" x="592" y="-62.6" font-family="Times,serif" font-size="14.00">VcdLoadingIndicatorModule</text>
</g>
<!-- VcdLoadingIndicatorModule&#45;&gt;VcdActivityReporterModule -->
<g id="edge4" class="edge">
<title>VcdLoadingIndicatorModule&#45;&gt;VcdActivityReporterModule</title>
<path fill="none" stroke="black" d="M513.42,-84.91C513.42,-84.91 513.42,-103.79 513.42,-103.79"/>
<polygon fill="black" stroke="black" points="509.92,-103.79 513.42,-113.79 516.92,-103.79 509.92,-103.79"/>
</g>
</g>
</svg>
