<?xml version="1.0" encoding="UTF-8" standalone="no"?>
<!DOCTYPE svg PUBLIC "-//W3C//DTD SVG 1.1//EN"
 "http://www.w3.org/Graphics/SVG/1.1/DTD/svg11.dtd">
<!-- Generated by graphviz version 2.47.0 (20210316.0004)
 -->
<!-- Title: dependencies Pages: 1 -->
<svg width="884pt" height="284pt"
 viewBox="0.00 0.00 884.00 284.00" xmlns="http://www.w3.org/2000/svg" xmlns:xlink="http://www.w3.org/1999/xlink">
<g id="graph0" class="graph" transform="scale(1 1) rotate(0) translate(4 280)">
<title>dependencies</title>
<polygon fill="white" stroke="transparent" points="-4,4 -4,-280 880,-280 880,4 -4,4"/>
<text text-anchor="start" x="417.01" y="-42.4" font-family="Times-12" font-weight="bold" font-size="14.00">Legend</text>
<polygon fill="#ffffb3" stroke="transparent" points="204,-10 204,-30 224,-30 224,-10 204,-10"/>
<text text-anchor="start" x="227.63" y="-15.4" font-family="Times-12" font-size="14.00"> &#160;Declarations</text>
<polygon fill="#8dd3c7" stroke="transparent" points="317,-10 317,-30 337,-30 337,-10 317,-10"/>
<text text-anchor="start" x="340.73" y="-15.4" font-family="Times-12" font-size="14.00"> &#160;Module</text>
<polygon fill="#80b1d3" stroke="transparent" points="403,-10 403,-30 423,-30 423,-10 403,-10"/>
<text text-anchor="start" x="426.78" y="-15.4" font-family="Times-12" font-size="14.00"> &#160;Bootstrap</text>
<polygon fill="#fdb462" stroke="transparent" points="500,-10 500,-30 520,-30 520,-10 500,-10"/>
<text text-anchor="start" x="523.67" y="-15.4" font-family="Times-12" font-size="14.00"> &#160;Providers</text>
<polygon fill="#fb8072" stroke="transparent" points="596,-10 596,-30 616,-30 616,-10 596,-10"/>
<text text-anchor="start" x="619.73" y="-15.4" font-family="Times-12" font-size="14.00"> &#160;Exports</text>
<g id="clust1" class="cluster">
<title>cluster_VcdActivityReporterModule</title>
<polygon fill="none" stroke="black" stroke-dasharray="1,5" points="8,-70 8,-268 868,-268 868,-70 8,-70"/>
</g>
<g id="clust2" class="cluster">
<title>cluster_VcdActivityReporterModule_declarations</title>
<polygon fill="none" stroke="black" points="390,-78 390,-130 860,-130 860,-78 390,-78"/>
</g>
<g id="clust5" class="cluster">
<title>cluster_VcdActivityReporterModule_imports</title>
<polygon fill="none" stroke="black" points="16,-78 16,-130 382,-130 382,-78 16,-78"/>
</g>
<g id="clust6" class="cluster">
<title>cluster_VcdActivityReporterModule_exports</title>
<polygon fill="none" stroke="black" points="160,-208 160,-260 638,-260 638,-208 160,-208"/>
</g>
<!-- BannerActivityReporterComponent -->
<g id="node1" class="node">
<title>BannerActivityReporterComponent</title>
<polygon fill="#ffffb3" stroke="black" points="852.12,-122 635.88,-122 635.88,-86 852.12,-86 852.12,-122"/>
<text text-anchor="middle" x="744" y="-99.8" font-family="Times,serif" font-size="14.00">BannerActivityReporterComponent</text>
</g>
<!-- VcdActivityReporterModule -->
<g id="node3" class="node">
<title>VcdActivityReporterModule</title>
<polygon fill="#8dd3c7" stroke="black" points="488.73,-187 485.73,-191 464.73,-191 461.73,-187 311.27,-187 311.27,-151 488.73,-151 488.73,-187"/>
<text text-anchor="middle" x="400" y="-164.8" font-family="Times,serif" font-size="14.00">VcdActivityReporterModule</text>
</g>
<!-- BannerActivityReporterComponent&#45;&gt;VcdActivityReporterModule -->
<g id="edge1" class="edge">
<title>BannerActivityReporterComponent&#45;&gt;VcdActivityReporterModule</title>
<path fill="none" stroke="black" d="M744,-122.11C744,-141.34 744,-169 744,-169 744,-169 499.04,-169 499.04,-169"/>
<polygon fill="black" stroke="black" points="499.04,-165.5 489.04,-169 499.04,-172.5 499.04,-165.5"/>
</g>
<!-- SpinnerActivityReporterComponent -->
<g id="node2" class="node">
<title>SpinnerActivityReporterComponent</title>
<polygon fill="#ffffb3" stroke="black" points="617.74,-122 398.26,-122 398.26,-86 617.74,-86 617.74,-122"/>
<text text-anchor="middle" x="508" y="-99.8" font-family="Times,serif" font-size="14.00">SpinnerActivityReporterComponent</text>
</g>
<!-- SpinnerActivityReporterComponent&#45;&gt;VcdActivityReporterModule -->
<g id="edge2" class="edge">
<title>SpinnerActivityReporterComponent&#45;&gt;VcdActivityReporterModule</title>
<path fill="none" stroke="black" d="M443.5,-122.11C443.5,-122.11 443.5,-140.99 443.5,-140.99"/>
<polygon fill="black" stroke="black" points="440,-140.99 443.5,-150.99 447,-140.99 440,-140.99"/>
</g>
<!-- BannerActivityReporterComponent  -->
<g id="node6" class="node">
<title>BannerActivityReporterComponent </title>
<polygon fill="#fb8072" stroke="black" points="630.12,-252 409.88,-252 409.88,-216 630.12,-216 630.12,-252"/>
<text text-anchor="middle" x="520" y="-229.8" font-family="Times,serif" font-size="14.00">BannerActivityReporterComponent </text>
</g>
<!-- VcdActivityReporterModule&#45;&gt;BannerActivityReporterComponent  -->
<g id="edge5" class="edge">
<title>VcdActivityReporterModule&#45;&gt;BannerActivityReporterComponent </title>
<path fill="none" stroke="black" stroke-dasharray="5,2" d="M449.4,-187.11C449.4,-187.11 449.4,-205.99 449.4,-205.99"/>
<polygon fill="black" stroke="black" points="445.9,-205.99 449.4,-215.99 452.9,-205.99 445.9,-205.99"/>
</g>
<!-- SpinnerActivityReporterComponent  -->
<g id="node7" class="node">
<title>SpinnerActivityReporterComponent </title>
<polygon fill="#fb8072" stroke="black" points="391.74,-252 168.26,-252 168.26,-216 391.74,-216 391.74,-252"/>
<text text-anchor="middle" x="280" y="-229.8" font-family="Times,serif" font-size="14.00">SpinnerActivityReporterComponent </text>
</g>
<!-- VcdActivityReporterModule&#45;&gt;SpinnerActivityReporterComponent  -->
<g id="edge6" class="edge">
<title>VcdActivityReporterModule&#45;&gt;SpinnerActivityReporterComponent </title>
<path fill="none" stroke="black" stroke-dasharray="5,2" d="M351.38,-187.11C351.38,-187.11 351.38,-205.99 351.38,-205.99"/>
<polygon fill="black" stroke="black" points="347.88,-205.99 351.38,-215.99 354.88,-205.99 347.88,-205.99"/>
</g>
<!-- VcdErrorBannerModule -->
<g id="node4" class="node">
<title>VcdErrorBannerModule</title>
<polygon fill="#8dd3c7" stroke="black" points="374.33,-122 371.33,-126 350.33,-126 347.33,-122 221.67,-122 221.67,-86 374.33,-86 374.33,-122"/>
<text text-anchor="middle" x="298" y="-99.8" font-family="Times,serif" font-size="14.00">VcdErrorBannerModule</text>
</g>
<!-- VcdErrorBannerModule&#45;&gt;VcdActivityReporterModule -->
<g id="edge3" class="edge">
<title>VcdErrorBannerModule&#45;&gt;VcdActivityReporterModule</title>
<path fill="none" stroke="black" d="M342.77,-122.11C342.77,-122.11 342.77,-140.99 342.77,-140.99"/>
<polygon fill="black" stroke="black" points="339.27,-140.99 342.77,-150.99 346.27,-140.99 339.27,-140.99"/>
</g>
<!-- VcdLoadingIndicatorModule -->
<g id="node5" class="node">
<title>VcdLoadingIndicatorModule</title>
<polygon fill="#8dd3c7" stroke="black" points="204.06,-122 201.06,-126 180.06,-126 177.06,-122 23.94,-122 23.94,-86 204.06,-86 204.06,-122"/>
<text text-anchor="middle" x="114" y="-99.8" font-family="Times,serif" font-size="14.00">VcdLoadingIndicatorModule</text>
</g>
<!-- VcdLoadingIndicatorModule&#45;&gt;VcdActivityReporterModule -->
<g id="edge4" class="edge">
<title>VcdLoadingIndicatorModule&#45;&gt;VcdActivityReporterModule</title>
<path fill="none" stroke="black" d="M186.2,-122.11C186.2,-141.34 186.2,-169 186.2,-169 186.2,-169 301.19,-169 301.19,-169"/>
<polygon fill="black" stroke="black" points="301.19,-172.5 311.19,-169 301.19,-165.5 301.19,-172.5"/>
</g>
</g>
</svg>
