<?xml version="1.0" encoding="UTF-8" standalone="no"?>
<!DOCTYPE svg PUBLIC "-//W3C//DTD SVG 1.1//EN"
 "http://www.w3.org/Graphics/SVG/1.1/DTD/svg11.dtd">
<!-- Generated by graphviz version 5.0.0 (20220707.1540)
 -->
<!-- Title: dependencies Pages: 1 -->
<svg width="884pt" height="247pt"
 viewBox="0.00 0.00 884.00 246.80" xmlns="http://www.w3.org/2000/svg" xmlns:xlink="http://www.w3.org/1999/xlink">
<g id="graph0" class="graph" transform="scale(1 1) rotate(0) translate(4 242.8)">
<title>dependencies</title>
<polygon fill="white" stroke="transparent" points="-4,4 -4,-242.8 880,-242.8 880,4 -4,4"/>
<text text-anchor="middle" x="438" y="-8.2" font-family="sans-serif" font-size="14.00">dependencies</text>
<g id="clust1" class="cluster">
<title>cluster_VcdActivityReporterModule</title>
<polygon fill="none" stroke="black" stroke-dasharray="1,5" points="8,-32.8 8,-230.8 868,-230.8 868,-32.8 8,-32.8"/>
</g>
<g id="clust2" class="cluster">
<title>cluster_VcdActivityReporterModule_declarations</title>
<polygon fill="none" stroke="black" points="390,-40.8 390,-92.8 860,-92.8 860,-40.8 390,-40.8"/>
</g>
<g id="clust5" class="cluster">
<title>cluster_VcdActivityReporterModule_imports</title>
<polygon fill="none" stroke="black" points="16,-40.8 16,-92.8 382,-92.8 382,-40.8 16,-40.8"/>
</g>
<g id="clust6" class="cluster">
<title>cluster_VcdActivityReporterModule_exports</title>
<polygon fill="none" stroke="black" points="160,-170.8 160,-222.8 638,-222.8 638,-170.8 160,-170.8"/>
</g>
<!-- BannerActivityReporterComponent -->
<g id="node1" class="node">
<title>BannerActivityReporterComponent</title>
<polygon fill="#ffffb3" stroke="black" points="852.12,-84.8 635.88,-84.8 635.88,-48.8 852.12,-48.8 852.12,-84.8"/>
<text text-anchor="middle" x="744" y="-62.6" font-family="Times,serif" font-size="14.00">BannerActivityReporterComponent</text>
</g>
<!-- VcdActivityReporterModule -->
<g id="node3" class="node">
<title>VcdActivityReporterModule</title>
<polygon fill="#8dd3c7" stroke="black" points="488.74,-149.8 485.74,-153.8 464.74,-153.8 461.74,-149.8 311.26,-149.8 311.26,-113.8 488.74,-113.8 488.74,-149.8"/>
<text text-anchor="middle" x="400" y="-127.6" font-family="Times,serif" font-size="14.00">VcdActivityReporterModule</text>
</g>
<!-- BannerActivityReporterComponent&#45;&gt;VcdActivityReporterModule -->
<g id="edge1" class="edge">
<title>BannerActivityReporterComponent&#45;&gt;VcdActivityReporterModule</title>
<path fill="none" stroke="black" d="M744,-84.91C744,-104.14 744,-131.8 744,-131.8 744,-131.8 499.04,-131.8 499.04,-131.8"/>
<polygon fill="black" stroke="black" points="499.04,-128.3 489.04,-131.8 499.04,-135.3 499.04,-128.3"/>
</g>
<!-- SpinnerActivityReporterComponent -->
<g id="node2" class="node">
<title>SpinnerActivityReporterComponent</title>
<polygon fill="#ffffb3" stroke="black" points="617.75,-84.8 398.25,-84.8 398.25,-48.8 617.75,-48.8 617.75,-84.8"/>
<text text-anchor="middle" x="508" y="-62.6" font-family="Times,serif" font-size="14.00">SpinnerActivityReporterComponent</text>
</g>
<!-- SpinnerActivityReporterComponent&#45;&gt;VcdActivityReporterModule -->
<g id="edge2" class="edge">
<title>SpinnerActivityReporterComponent&#45;&gt;VcdActivityReporterModule</title>
<path fill="none" stroke="black" d="M443.5,-84.91C443.5,-84.91 443.5,-103.79 443.5,-103.79"/>
<polygon fill="black" stroke="black" points="440,-103.79 443.5,-113.79 447,-103.79 440,-103.79"/>
</g>
<!-- BannerActivityReporterComponent  -->
<g id="node6" class="node">
<title>BannerActivityReporterComponent </title>
<polygon fill="#fb8072" stroke="black" points="630.12,-214.8 409.88,-214.8 409.88,-178.8 630.12,-178.8 630.12,-214.8"/>
<text text-anchor="middle" x="520" y="-192.6" font-family="Times,serif" font-size="14.00">BannerActivityReporterComponent </text>
</g>
<!-- VcdActivityReporterModule&#45;&gt;BannerActivityReporterComponent  -->
<g id="edge5" class="edge">
<title>VcdActivityReporterModule&#45;&gt;BannerActivityReporterComponent </title>
<path fill="none" stroke="black" stroke-dasharray="5,2" d="M449.4,-149.91C449.4,-149.91 449.4,-168.79 449.4,-168.79"/>
<polygon fill="black" stroke="black" points="445.9,-168.79 449.4,-178.79 452.9,-168.79 445.9,-168.79"/>
</g>
<!-- SpinnerActivityReporterComponent  -->
<g id="node7" class="node">
<title>SpinnerActivityReporterComponent </title>
<polygon fill="#fb8072" stroke="black" points="391.75,-214.8 168.25,-214.8 168.25,-178.8 391.75,-178.8 391.75,-214.8"/>
<text text-anchor="middle" x="280" y="-192.6" font-family="Times,serif" font-size="14.00">SpinnerActivityReporterComponent </text>
</g>
<!-- VcdActivityReporterModule&#45;&gt;SpinnerActivityReporterComponent  -->
<g id="edge6" class="edge">
<title>VcdActivityReporterModule&#45;&gt;SpinnerActivityReporterComponent </title>
<path fill="none" stroke="black" stroke-dasharray="5,2" d="M351.38,-149.91C351.38,-149.91 351.38,-168.79 351.38,-168.79"/>
<polygon fill="black" stroke="black" points="347.88,-168.79 351.38,-178.79 354.88,-168.79 347.88,-168.79"/>
</g>
<!-- VcdErrorBannerModule -->
<g id="node4" class="node">
<title>VcdErrorBannerModule</title>
<polygon fill="#8dd3c7" stroke="black" points="374.34,-84.8 371.34,-88.8 350.34,-88.8 347.34,-84.8 221.66,-84.8 221.66,-48.8 374.34,-48.8 374.34,-84.8"/>
<text text-anchor="middle" x="298" y="-62.6" font-family="Times,serif" font-size="14.00">VcdErrorBannerModule</text>
</g>
<!-- VcdErrorBannerModule&#45;&gt;VcdActivityReporterModule -->
<g id="edge3" class="edge">
<title>VcdErrorBannerModule&#45;&gt;VcdActivityReporterModule</title>
<path fill="none" stroke="black" d="M342.78,-84.91C342.78,-84.91 342.78,-103.79 342.78,-103.79"/>
<polygon fill="black" stroke="black" points="339.28,-103.79 342.78,-113.79 346.28,-103.79 339.28,-103.79"/>
</g>
<!-- VcdLoadingIndicatorModule -->
<g id="node5" class="node">
<title>VcdLoadingIndicatorModule</title>
<polygon fill="#8dd3c7" stroke="black" points="204.06,-84.8 201.06,-88.8 180.06,-88.8 177.06,-84.8 23.94,-84.8 23.94,-48.8 204.06,-48.8 204.06,-84.8"/>
<text text-anchor="middle" x="114" y="-62.6" font-family="Times,serif" font-size="14.00">VcdLoadingIndicatorModule</text>
</g>
<!-- VcdLoadingIndicatorModule&#45;&gt;VcdActivityReporterModule -->
<g id="edge4" class="edge">
<title>VcdLoadingIndicatorModule&#45;&gt;VcdActivityReporterModule</title>
<path fill="none" stroke="black" d="M186.2,-84.91C186.2,-104.14 186.2,-131.8 186.2,-131.8 186.2,-131.8 301.19,-131.8 301.19,-131.8"/>
<polygon fill="black" stroke="black" points="301.19,-135.3 311.19,-131.8 301.19,-128.3 301.19,-135.3"/>
</g>
</g>
</svg>
