<?xml version="1.0" encoding="UTF-8" standalone="no"?>
<!DOCTYPE svg PUBLIC "-//W3C//DTD SVG 1.1//EN"
 "http://www.w3.org/Graphics/SVG/1.1/DTD/svg11.dtd">
<!-- Generated by graphviz version 2.40.1 (20161225.0304)
 -->
<!-- Title: dependencies Pages: 1 -->
<svg width="884pt" height="284pt"
 viewBox="0.00 0.00 884.00 284.00" xmlns="http://www.w3.org/2000/svg" xmlns:xlink="http://www.w3.org/1999/xlink">
<g id="graph0" class="graph" transform="scale(1 1) rotate(0) translate(4 280)">
<title>dependencies</title>
<polygon fill="#ffffff" stroke="transparent" points="-4,4 -4,-280 880,-280 880,4 -4,4"/>
<text text-anchor="start" x="417.0091" y="-42.4" font-family="sans-serif" font-weight="bold" font-size="14.00" fill="#000000">Legend</text>
<polygon fill="#ffffb3" stroke="transparent" points="204,-10 204,-30 224,-30 224,-10 204,-10"/>
<text text-anchor="start" x="227.629" y="-15.4" font-family="sans-serif" font-size="14.00" fill="#000000"> &#160;Declarations</text>
<polygon fill="#8dd3c7" stroke="transparent" points="317,-10 317,-30 337,-30 337,-10 317,-10"/>
<text text-anchor="start" x="340.7251" y="-15.4" font-family="sans-serif" font-size="14.00" fill="#000000"> &#160;Module</text>
<polygon fill="#80b1d3" stroke="transparent" points="403,-10 403,-30 423,-30 423,-10 403,-10"/>
<text text-anchor="start" x="426.7812" y="-15.4" font-family="sans-serif" font-size="14.00" fill="#000000"> &#160;Bootstrap</text>
<polygon fill="#fdb462" stroke="transparent" points="500,-10 500,-30 520,-30 520,-10 500,-10"/>
<text text-anchor="start" x="523.6732" y="-15.4" font-family="sans-serif" font-size="14.00" fill="#000000"> &#160;Providers</text>
<polygon fill="#fb8072" stroke="transparent" points="596,-10 596,-30 616,-30 616,-10 596,-10"/>
<text text-anchor="start" x="619.7258" y="-15.4" font-family="sans-serif" font-size="14.00" fill="#000000"> &#160;Exports</text>
<g id="clust1" class="cluster">
<title>cluster_VcdActivityReporterModule</title>
<polygon fill="none" stroke="#000000" stroke-dasharray="1,5" points="8,-70 8,-268 868,-268 868,-70 8,-70"/>
</g>
<g id="clust2" class="cluster">
<title>cluster_VcdActivityReporterModule_declarations</title>
<polygon fill="none" stroke="#000000" points="390,-78 390,-130 860,-130 860,-78 390,-78"/>
</g>
<g id="clust5" class="cluster">
<title>cluster_VcdActivityReporterModule_imports</title>
<polygon fill="none" stroke="#000000" points="16,-78 16,-130 382,-130 382,-78 16,-78"/>
</g>
<g id="clust6" class="cluster">
<title>cluster_VcdActivityReporterModule_exports</title>
<polygon fill="none" stroke="#000000" points="160,-208 160,-260 638,-260 638,-208 160,-208"/>
</g>
<!-- BannerActivityReporterComponent -->
<g id="node1" class="node">
<title>BannerActivityReporterComponent</title>
<polygon fill="#ffffb3" stroke="#000000" points="852.1203,-122 635.8797,-122 635.8797,-86 852.1203,-86 852.1203,-122"/>
<text text-anchor="middle" x="744" y="-99.8" font-family="Times,serif" font-size="14.00" fill="#000000">BannerActivityReporterComponent</text>
</g>
<!-- VcdActivityReporterModule -->
<g id="node3" class="node">
<title>VcdActivityReporterModule</title>
<polygon fill="#8dd3c7" stroke="#000000" points="488.7324,-187 485.7324,-191 464.7324,-191 461.7324,-187 311.2676,-187 311.2676,-151 488.7324,-151 488.7324,-187"/>
<text text-anchor="middle" x="400" y="-164.8" font-family="Times,serif" font-size="14.00" fill="#000000">VcdActivityReporterModule</text>
</g>
<!-- BannerActivityReporterComponent&#45;&gt;VcdActivityReporterModule -->
<g id="edge1" class="edge">
<title>BannerActivityReporterComponent&#45;&gt;VcdActivityReporterModule</title>
<path fill="none" stroke="#000000" d="M744,-122.1061C744,-141.3391 744,-169 744,-169 744,-169 499.0359,-169 499.0359,-169"/>
<polygon fill="#000000" stroke="#000000" points="499.036,-165.5001 489.0359,-169 499.0359,-172.5001 499.036,-165.5001"/>
</g>
<!-- SpinnerActivityReporterComponent -->
<g id="node2" class="node">
<title>SpinnerActivityReporterComponent</title>
<polygon fill="#ffffb3" stroke="#000000" points="617.7422,-122 398.2578,-122 398.2578,-86 617.7422,-86 617.7422,-122"/>
<text text-anchor="middle" x="508" y="-99.8" font-family="Times,serif" font-size="14.00" fill="#000000">SpinnerActivityReporterComponent</text>
</g>
<!-- SpinnerActivityReporterComponent&#45;&gt;VcdActivityReporterModule -->
<g id="edge2" class="edge">
<title>SpinnerActivityReporterComponent&#45;&gt;VcdActivityReporterModule</title>
<path fill="none" stroke="#000000" d="M443.4976,-122.1061C443.4976,-122.1061 443.4976,-140.991 443.4976,-140.991"/>
<polygon fill="#000000" stroke="#000000" points="439.9976,-140.9909 443.4976,-150.991 446.9976,-140.991 439.9976,-140.9909"/>
</g>
<!-- BannerActivityReporterComponent  -->
<g id="node6" class="node">
<title>BannerActivityReporterComponent </title>
<polygon fill="#fb8072" stroke="#000000" points="630.12,-252 409.88,-252 409.88,-216 630.12,-216 630.12,-252"/>
<text text-anchor="middle" x="520" y="-229.8" font-family="Times,serif" font-size="14.00" fill="#000000">BannerActivityReporterComponent </text>
</g>
<!-- VcdActivityReporterModule&#45;&gt;BannerActivityReporterComponent  -->
<g id="edge5" class="edge">
<title>VcdActivityReporterModule&#45;&gt;BannerActivityReporterComponent </title>
<path fill="none" stroke="#000000" stroke-dasharray="5,2" d="M449.4031,-187.1061C449.4031,-187.1061 449.4031,-205.991 449.4031,-205.991"/>
<polygon fill="#000000" stroke="#000000" points="445.9031,-205.9909 449.4031,-215.991 452.9031,-205.991 445.9031,-205.9909"/>
</g>
<!-- SpinnerActivityReporterComponent  -->
<g id="node7" class="node">
<title>SpinnerActivityReporterComponent </title>
<polygon fill="#fb8072" stroke="#000000" points="391.7421,-252 168.2579,-252 168.2579,-216 391.7421,-216 391.7421,-252"/>
<text text-anchor="middle" x="280" y="-229.8" font-family="Times,serif" font-size="14.00" fill="#000000">SpinnerActivityReporterComponent </text>
</g>
<!-- VcdActivityReporterModule&#45;&gt;SpinnerActivityReporterComponent  -->
<g id="edge6" class="edge">
<title>VcdActivityReporterModule&#45;&gt;SpinnerActivityReporterComponent </title>
<path fill="none" stroke="#000000" stroke-dasharray="5,2" d="M351.3775,-187.1061C351.3775,-187.1061 351.3775,-205.991 351.3775,-205.991"/>
<polygon fill="#000000" stroke="#000000" points="347.8775,-205.9909 351.3775,-215.991 354.8775,-205.991 347.8775,-205.9909"/>
</g>
<!-- VcdErrorBannerModule -->
<g id="node4" class="node">
<title>VcdErrorBannerModule</title>
<polygon fill="#8dd3c7" stroke="#000000" points="374.3319,-122 371.3319,-126 350.3319,-126 347.3319,-122 221.6681,-122 221.6681,-86 374.3319,-86 374.3319,-122"/>
<text text-anchor="middle" x="298" y="-99.8" font-family="Times,serif" font-size="14.00" fill="#000000">VcdErrorBannerModule</text>
</g>
<!-- VcdErrorBannerModule&#45;&gt;VcdActivityReporterModule -->
<g id="edge3" class="edge">
<title>VcdErrorBannerModule&#45;&gt;VcdActivityReporterModule</title>
<path fill="none" stroke="#000000" d="M342.7749,-122.1061C342.7749,-122.1061 342.7749,-140.991 342.7749,-140.991"/>
<polygon fill="#000000" stroke="#000000" points="339.275,-140.9909 342.7749,-150.991 346.275,-140.991 339.275,-140.9909"/>
</g>
<!-- VcdLoadingIndicatorModule -->
<g id="node5" class="node">
<title>VcdLoadingIndicatorModule</title>
<polygon fill="#8dd3c7" stroke="#000000" points="204.0604,-122 201.0604,-126 180.0604,-126 177.0604,-122 23.9396,-122 23.9396,-86 204.0604,-86 204.0604,-122"/>
<text text-anchor="middle" x="114" y="-99.8" font-family="Times,serif" font-size="14.00" fill="#000000">VcdLoadingIndicatorModule</text>
</g>
<!-- VcdLoadingIndicatorModule&#45;&gt;VcdActivityReporterModule -->
<g id="edge4" class="edge">
<title>VcdLoadingIndicatorModule&#45;&gt;VcdActivityReporterModule</title>
<path fill="none" stroke="#000000" d="M186.2046,-122.1061C186.2046,-141.3391 186.2046,-169 186.2046,-169 186.2046,-169 301.1889,-169 301.1889,-169"/>
<polygon fill="#000000" stroke="#000000" points="301.1889,-172.5001 311.1889,-169 301.1888,-165.5001 301.1889,-172.5001"/>
</g>
</g>
</svg>
