<?xml version="1.0" encoding="UTF-8" standalone="no"?>
<!DOCTYPE svg PUBLIC "-//W3C//DTD SVG 1.1//EN"
 "http://www.w3.org/Graphics/SVG/1.1/DTD/svg11.dtd">
<!-- Generated by graphviz version 2.47.0 (20210316.0004)
 -->
<!-- Title: dependencies Pages: 1 -->
<svg width="2540pt" height="284pt"
 viewBox="0.00 0.00 2540.00 284.00" xmlns="http://www.w3.org/2000/svg" xmlns:xlink="http://www.w3.org/1999/xlink">
<g id="graph0" class="graph" transform="scale(1 1) rotate(0) translate(4 280)">
<title>dependencies</title>
<polygon fill="white" stroke="transparent" points="-4,4 -4,-280 2536,-280 2536,4 -4,4"/>
<text text-anchor="start" x="1245.01" y="-42.4" font-family="Times-12" font-weight="bold" font-size="14.00">Legend</text>
<polygon fill="#ffffb3" stroke="transparent" points="1032,-10 1032,-30 1052,-30 1052,-10 1032,-10"/>
<text text-anchor="start" x="1055.63" y="-15.4" font-family="Times-12" font-size="14.00"> &#160;Declarations</text>
<polygon fill="#8dd3c7" stroke="transparent" points="1145,-10 1145,-30 1165,-30 1165,-10 1145,-10"/>
<text text-anchor="start" x="1168.73" y="-15.4" font-family="Times-12" font-size="14.00"> &#160;Module</text>
<polygon fill="#80b1d3" stroke="transparent" points="1231,-10 1231,-30 1251,-30 1251,-10 1231,-10"/>
<text text-anchor="start" x="1254.78" y="-15.4" font-family="Times-12" font-size="14.00"> &#160;Bootstrap</text>
<polygon fill="#fdb462" stroke="transparent" points="1328,-10 1328,-30 1348,-30 1348,-10 1328,-10"/>
<text text-anchor="start" x="1351.67" y="-15.4" font-family="Times-12" font-size="14.00"> &#160;Providers</text>
<polygon fill="#fb8072" stroke="transparent" points="1424,-10 1424,-30 1444,-30 1444,-10 1424,-10"/>
<text text-anchor="start" x="1447.73" y="-15.4" font-family="Times-12" font-size="14.00"> &#160;Exports</text>
<g id="clust1" class="cluster">
<title>cluster_VcdSharingModalModule</title>
<polygon fill="none" stroke="black" stroke-dasharray="1,5" points="8,-70 8,-268 2524,-268 2524,-70 8,-70"/>
</g>
<g id="clust14" class="cluster">
<title>cluster_VcdSharingModalModule_providers</title>
<polygon fill="none" stroke="black" points="2338,-78 2338,-130 2516,-130 2516,-78 2338,-78"/>
</g>
<g id="clust11" class="cluster">
<title>cluster_VcdSharingModalModule_imports</title>
<polygon fill="none" stroke="black" points="1874,-78 1874,-130 2330,-130 2330,-78 1874,-78"/>
</g>
<g id="clust12" class="cluster">
<title>cluster_VcdSharingModalModule_exports</title>
<polygon fill="none" stroke="black" points="1174,-208 1174,-260 1624,-260 1624,-208 1174,-208"/>
</g>
<g id="clust2" class="cluster">
<title>cluster_VcdSharingModalModule_declarations</title>
<polygon fill="none" stroke="black" points="16,-78 16,-130 1866,-130 1866,-78 16,-78"/>
</g>
<!-- RightsDropdownRendererComponent -->
<g id="node1" class="node">
<title>RightsDropdownRendererComponent</title>
<polygon fill="#ffffb3" stroke="black" points="1857.57,-122 1628.43,-122 1628.43,-86 1857.57,-86 1857.57,-122"/>
<text text-anchor="middle" x="1743" y="-99.8" font-family="Times,serif" font-size="14.00">RightsDropdownRendererComponent</text>
</g>
<!-- VcdSharingModalModule -->
<g id="node9" class="node">
<title>VcdSharingModalModule</title>
<polygon fill="#8dd3c7" stroke="black" points="1502.47,-187 1499.47,-191 1478.47,-191 1475.47,-187 1339.53,-187 1339.53,-151 1502.47,-151 1502.47,-187"/>
<text text-anchor="middle" x="1421" y="-164.8" font-family="Times,serif" font-size="14.00">VcdSharingModalModule</text>
</g>
<!-- RightsDropdownRendererComponent&#45;&gt;VcdSharingModalModule -->
<g id="edge1" class="edge">
<title>RightsDropdownRendererComponent&#45;&gt;VcdSharingModalModule</title>
<path fill="none" stroke="black" d="M1743,-122.24C1743,-137.57 1743,-157 1743,-157 1743,-157 1512.67,-157 1512.67,-157"/>
<polygon fill="black" stroke="black" points="1512.67,-153.5 1502.67,-157 1512.67,-160.5 1512.67,-153.5"/>
</g>
<!-- SharingModalComponent -->
<g id="node2" class="node">
<title>SharingModalComponent</title>
<polygon fill="#ffffb3" stroke="black" points="1610.93,-122 1449.07,-122 1449.07,-86 1610.93,-86 1610.93,-122"/>
<text text-anchor="middle" x="1530" y="-99.8" font-family="Times,serif" font-size="14.00">SharingModalComponent</text>
</g>
<!-- SharingModalComponent&#45;&gt;VcdSharingModalModule -->
<g id="edge2" class="edge">
<title>SharingModalComponent&#45;&gt;VcdSharingModalModule</title>
<path fill="none" stroke="black" d="M1475.88,-122.11C1475.88,-122.11 1475.88,-140.99 1475.88,-140.99"/>
<polygon fill="black" stroke="black" points="1472.38,-140.99 1475.88,-150.99 1479.38,-140.99 1472.38,-140.99"/>
</g>
<!-- SharingModalGroupRenderComponent -->
<g id="node3" class="node">
<title>SharingModalGroupRenderComponent</title>
<polygon fill="#ffffb3" stroke="black" points="1430.62,-122 1193.38,-122 1193.38,-86 1430.62,-86 1430.62,-122"/>
<text text-anchor="middle" x="1312" y="-99.8" font-family="Times,serif" font-size="14.00">SharingModalGroupRenderComponent</text>
</g>
<!-- SharingModalGroupRenderComponent&#45;&gt;VcdSharingModalModule -->
<g id="edge3" class="edge">
<title>SharingModalGroupRenderComponent&#45;&gt;VcdSharingModalModule</title>
<path fill="none" stroke="black" d="M1385.16,-122.11C1385.16,-122.11 1385.16,-140.99 1385.16,-140.99"/>
<polygon fill="black" stroke="black" points="1381.66,-140.99 1385.16,-150.99 1388.66,-140.99 1381.66,-140.99"/>
</g>
<!-- SharingModalOrgRenderComponent -->
<g id="node4" class="node">
<title>SharingModalOrgRenderComponent</title>
<polygon fill="#ffffb3" stroke="black" points="1174.62,-122 951.38,-122 951.38,-86 1174.62,-86 1174.62,-122"/>
<text text-anchor="middle" x="1063" y="-99.8" font-family="Times,serif" font-size="14.00">SharingModalOrgRenderComponent</text>
</g>
<!-- SharingModalOrgRenderComponent&#45;&gt;VcdSharingModalModule -->
<g id="edge4" class="edge">
<title>SharingModalOrgRenderComponent&#45;&gt;VcdSharingModalModule</title>
<path fill="none" stroke="black" d="M1063,-122.24C1063,-137.57 1063,-157 1063,-157 1063,-157 1329.32,-157 1329.32,-157"/>
<polygon fill="black" stroke="black" points="1329.32,-160.5 1339.32,-157 1329.32,-153.5 1329.32,-160.5"/>
</g>
<!-- SharingModalTabComponent -->
<g id="node5" class="node">
<title>SharingModalTabComponent</title>
<polygon fill="#ffffb3" stroke="black" points="933.7,-122 750.3,-122 750.3,-86 933.7,-86 933.7,-122"/>
<text text-anchor="middle" x="842" y="-99.8" font-family="Times,serif" font-size="14.00">SharingModalTabComponent</text>
</g>
<!-- SharingModalTabComponent&#45;&gt;VcdSharingModalModule -->
<g id="edge5" class="edge">
<title>SharingModalTabComponent&#45;&gt;VcdSharingModalModule</title>
<path fill="none" stroke="black" d="M842,-122.02C842,-139.37 842,-163 842,-163 842,-163 1329.27,-163 1329.27,-163"/>
<polygon fill="black" stroke="black" points="1329.27,-166.5 1339.27,-163 1329.27,-159.5 1329.27,-166.5"/>
</g>
<!-- SharingModalUserRenderComponent -->
<g id="node6" class="node">
<title>SharingModalUserRenderComponent</title>
<polygon fill="#ffffb3" stroke="black" points="732.28,-122 503.72,-122 503.72,-86 732.28,-86 732.28,-122"/>
<text text-anchor="middle" x="618" y="-99.8" font-family="Times,serif" font-size="14.00">SharingModalUserRenderComponent</text>
</g>
<!-- SharingModalUserRenderComponent&#45;&gt;VcdSharingModalModule -->
<g id="edge6" class="edge">
<title>SharingModalUserRenderComponent&#45;&gt;VcdSharingModalModule</title>
<path fill="none" stroke="black" d="M618,-122.11C618,-141.34 618,-169 618,-169 618,-169 1329.21,-169 1329.21,-169"/>
<polygon fill="black" stroke="black" points="1329.21,-172.5 1339.21,-169 1329.21,-165.5 1329.21,-172.5"/>
</g>
<!-- UsersGroupsOrgsSharingModalDirective -->
<g id="node7" class="node">
<title>UsersGroupsOrgsSharingModalDirective</title>
<polygon fill="#ffffb3" stroke="black" points="486.48,-122 237.52,-122 237.52,-86 486.48,-86 486.48,-122"/>
<text text-anchor="middle" x="362" y="-99.8" font-family="Times,serif" font-size="14.00">UsersGroupsOrgsSharingModalDirective</text>
</g>
<!-- UsersGroupsOrgsSharingModalDirective&#45;&gt;VcdSharingModalModule -->
<g id="edge7" class="edge">
<title>UsersGroupsOrgsSharingModalDirective&#45;&gt;VcdSharingModalModule</title>
<path fill="none" stroke="black" d="M362,-122.28C362,-143.32 362,-175 362,-175 362,-175 1329.22,-175 1329.22,-175"/>
<polygon fill="black" stroke="black" points="1329.22,-178.5 1339.22,-175 1329.22,-171.5 1329.22,-178.5"/>
</g>
<!-- VcdSelectAllToggleComponent -->
<g id="node8" class="node">
<title>VcdSelectAllToggleComponent</title>
<polygon fill="#ffffb3" stroke="black" points="220.41,-122 23.59,-122 23.59,-86 220.41,-86 220.41,-122"/>
<text text-anchor="middle" x="122" y="-99.8" font-family="Times,serif" font-size="14.00">VcdSelectAllToggleComponent</text>
</g>
<!-- VcdSelectAllToggleComponent&#45;&gt;VcdSharingModalModule -->
<g id="edge8" class="edge">
<title>VcdSelectAllToggleComponent&#45;&gt;VcdSharingModalModule</title>
<path fill="none" stroke="black" d="M122,-122.25C122,-145.02 122,-181 122,-181 122,-181 1329.25,-181 1329.25,-181"/>
<polygon fill="black" stroke="black" points="1329.25,-184.5 1339.25,-181 1329.25,-177.5 1329.25,-184.5"/>
</g>
<!-- SharingModalComponent  -->
<g id="node13" class="node">
<title>SharingModalComponent </title>
<polygon fill="#fb8072" stroke="black" points="1616.43,-252 1451.57,-252 1451.57,-216 1616.43,-216 1616.43,-252"/>
<text text-anchor="middle" x="1534" y="-229.8" font-family="Times,serif" font-size="14.00">SharingModalComponent </text>
</g>
<!-- VcdSharingModalModule&#45;&gt;SharingModalComponent  -->
<g id="edge12" class="edge">
<title>VcdSharingModalModule&#45;&gt;SharingModalComponent </title>
<path fill="none" stroke="black" stroke-dasharray="5,2" d="M1477.01,-187.11C1477.01,-187.11 1477.01,-205.99 1477.01,-205.99"/>
<polygon fill="black" stroke="black" points="1473.51,-205.99 1477.01,-215.99 1480.51,-205.99 1473.51,-205.99"/>
</g>
<!-- UsersGroupsOrgsSharingModalDirective  -->
<g id="node14" class="node">
<title>UsersGroupsOrgsSharingModalDirective </title>
<polygon fill="#fb8072" stroke="black" points="1433.98,-252 1182.02,-252 1182.02,-216 1433.98,-216 1433.98,-252"/>
<text text-anchor="middle" x="1308" y="-229.8" font-family="Times,serif" font-size="14.00">UsersGroupsOrgsSharingModalDirective </text>
</g>
<!-- VcdSharingModalModule&#45;&gt;UsersGroupsOrgsSharingModalDirective  -->
<g id="edge13" class="edge">
<title>VcdSharingModalModule&#45;&gt;UsersGroupsOrgsSharingModalDirective </title>
<path fill="none" stroke="black" stroke-dasharray="5,2" d="M1386.75,-187.11C1386.75,-187.11 1386.75,-205.99 1386.75,-205.99"/>
<polygon fill="black" stroke="black" points="1383.25,-205.99 1386.75,-215.99 1390.25,-205.99 1383.25,-205.99"/>
</g>
<!-- DropdownModule -->
<g id="node10" class="node">
<title>DropdownModule</title>
<polygon fill="#8dd3c7" stroke="black" points="2321.92,-122 2318.92,-126 2297.92,-126 2294.92,-122 2202.08,-122 2202.08,-86 2321.92,-86 2321.92,-122"/>
<text text-anchor="middle" x="2262" y="-99.8" font-family="Times,serif" font-size="14.00">DropdownModule</text>
</g>
<!-- DropdownModule&#45;&gt;VcdSharingModalModule -->
<g id="edge9" class="edge">
<title>DropdownModule&#45;&gt;VcdSharingModalModule</title>
<path fill="none" stroke="black" d="M2262,-122.28C2262,-143.32 2262,-175 2262,-175 2262,-175 1512.79,-175 1512.79,-175"/>
<polygon fill="black" stroke="black" points="1512.79,-171.5 1502.79,-175 1512.79,-178.5 1512.79,-171.5"/>
</g>
<!-- VcdDatagridModule -->
<g id="node11" class="node">
<title>VcdDatagridModule</title>
<polygon fill="#8dd3c7" stroke="black" points="2183.85,-122 2180.85,-126 2159.85,-126 2156.85,-122 2052.15,-122 2052.15,-86 2183.85,-86 2183.85,-122"/>
<text text-anchor="middle" x="2118" y="-99.8" font-family="Times,serif" font-size="14.00">VcdDatagridModule</text>
</g>
<!-- VcdDatagridModule&#45;&gt;VcdSharingModalModule -->
<g id="edge10" class="edge">
<title>VcdDatagridModule&#45;&gt;VcdSharingModalModule</title>
<path fill="none" stroke="black" d="M2118,-122.11C2118,-141.34 2118,-169 2118,-169 2118,-169 1512.66,-169 1512.66,-169"/>
<polygon fill="black" stroke="black" points="1512.66,-165.5 1502.66,-169 1512.66,-172.5 1512.66,-165.5"/>
</g>
<!-- VcdErrorBannerModule -->
<g id="node12" class="node">
<title>VcdErrorBannerModule</title>
<polygon fill="#8dd3c7" stroke="black" points="2034.33,-122 2031.33,-126 2010.33,-126 2007.33,-122 1881.67,-122 1881.67,-86 2034.33,-86 2034.33,-122"/>
<text text-anchor="middle" x="1958" y="-99.8" font-family="Times,serif" font-size="14.00">VcdErrorBannerModule</text>
</g>
<!-- VcdErrorBannerModule&#45;&gt;VcdSharingModalModule -->
<g id="edge11" class="edge">
<title>VcdErrorBannerModule&#45;&gt;VcdSharingModalModule</title>
<path fill="none" stroke="black" d="M1958,-122.02C1958,-139.37 1958,-163 1958,-163 1958,-163 1512.56,-163 1512.56,-163"/>
<polygon fill="black" stroke="black" points="1512.56,-159.5 1502.56,-163 1512.56,-166.5 1512.56,-159.5"/>
</g>
<!-- RestQueryService -->
<g id="node15" class="node">
<title>RestQueryService</title>
<ellipse fill="#fdb462" stroke="black" cx="2427" cy="-104" rx="81.08" ry="18"/>
<text text-anchor="middle" x="2427" y="-99.8" font-family="Times,serif" font-size="14.00">RestQueryService</text>
</g>
<!-- RestQueryService&#45;&gt;VcdSharingModalModule -->
<g id="edge14" class="edge">
<title>RestQueryService&#45;&gt;VcdSharingModalModule</title>
<path fill="none" stroke="black" d="M2427,-122.25C2427,-145.02 2427,-181 2427,-181 2427,-181 1512.47,-181 1512.47,-181"/>
<polygon fill="black" stroke="black" points="1512.47,-177.5 1502.47,-181 1512.47,-184.5 1512.47,-177.5"/>
</g>
</g>
</svg>
