<?xml version="1.0" encoding="UTF-8" standalone="no"?>
<!DOCTYPE svg PUBLIC "-//W3C//DTD SVG 1.1//EN"
 "http://www.w3.org/Graphics/SVG/1.1/DTD/svg11.dtd">
<!-- Generated by graphviz version 2.47.0 (20210316.0004)
 -->
<!-- Title: dependencies Pages: 1 -->
<svg width="2540pt" height="284pt"
 viewBox="0.00 0.00 2540.00 284.00" xmlns="http://www.w3.org/2000/svg" xmlns:xlink="http://www.w3.org/1999/xlink">
<g id="graph0" class="graph" transform="scale(1 1) rotate(0) translate(4 280)">
<title>dependencies</title>
<polygon fill="white" stroke="transparent" points="-4,4 -4,-280 2536,-280 2536,4 -4,4"/>
<text text-anchor="start" x="1245.01" y="-42.4" font-family="Times-12" font-weight="bold" font-size="14.00">Legend</text>
<polygon fill="#ffffb3" stroke="transparent" points="1032,-10 1032,-30 1052,-30 1052,-10 1032,-10"/>
<text text-anchor="start" x="1055.63" y="-15.4" font-family="Times-12" font-size="14.00"> &#160;Declarations</text>
<polygon fill="#8dd3c7" stroke="transparent" points="1145,-10 1145,-30 1165,-30 1165,-10 1145,-10"/>
<text text-anchor="start" x="1168.73" y="-15.4" font-family="Times-12" font-size="14.00"> &#160;Module</text>
<polygon fill="#80b1d3" stroke="transparent" points="1231,-10 1231,-30 1251,-30 1251,-10 1231,-10"/>
<text text-anchor="start" x="1254.78" y="-15.4" font-family="Times-12" font-size="14.00"> &#160;Bootstrap</text>
<polygon fill="#fdb462" stroke="transparent" points="1328,-10 1328,-30 1348,-30 1348,-10 1328,-10"/>
<text text-anchor="start" x="1351.67" y="-15.4" font-family="Times-12" font-size="14.00"> &#160;Providers</text>
<polygon fill="#fb8072" stroke="transparent" points="1424,-10 1424,-30 1444,-30 1444,-10 1424,-10"/>
<text text-anchor="start" x="1447.73" y="-15.4" font-family="Times-12" font-size="14.00"> &#160;Exports</text>
<g id="clust1" class="cluster">
<title>cluster_VcdSharingModalModule</title>
<polygon fill="none" stroke="black" stroke-dasharray="1,5" points="8,-70 8,-268 2524,-268 2524,-70 8,-70"/>
</g>
<g id="clust14" class="cluster">
<title>cluster_VcdSharingModalModule_providers</title>
<polygon fill="none" stroke="black" points="2338,-78 2338,-130 2516,-130 2516,-78 2338,-78"/>
</g>
<g id="clust2" class="cluster">
<title>cluster_VcdSharingModalModule_declarations</title>
<polygon fill="none" stroke="black" points="480,-78 480,-130 2330,-130 2330,-78 480,-78"/>
</g>
<g id="clust11" class="cluster">
<title>cluster_VcdSharingModalModule_imports</title>
<polygon fill="none" stroke="black" points="16,-78 16,-130 472,-130 472,-78 16,-78"/>
</g>
<g id="clust12" class="cluster">
<title>cluster_VcdSharingModalModule_exports</title>
<polygon fill="none" stroke="black" points="947,-208 947,-260 1397,-260 1397,-208 947,-208"/>
</g>
<!-- RightsDropdownRendererComponent -->
<g id="node1" class="node">
<title>RightsDropdownRendererComponent</title>
<polygon fill="#ffffb3" stroke="black" points="2321.57,-122 2092.43,-122 2092.43,-86 2321.57,-86 2321.57,-122"/>
<text text-anchor="middle" x="2207" y="-99.8" font-family="Times,serif" font-size="14.00">RightsDropdownRendererComponent</text>
</g>
<!-- VcdSharingModalModule -->
<g id="node9" class="node">
<title>VcdSharingModalModule</title>
<polygon fill="#8dd3c7" stroke="black" points="1275.47,-187 1272.47,-191 1251.47,-191 1248.47,-187 1112.53,-187 1112.53,-151 1275.47,-151 1275.47,-187"/>
<text text-anchor="middle" x="1194" y="-164.8" font-family="Times,serif" font-size="14.00">VcdSharingModalModule</text>
</g>
<!-- RightsDropdownRendererComponent&#45;&gt;VcdSharingModalModule -->
<g id="edge1" class="edge">
<title>RightsDropdownRendererComponent&#45;&gt;VcdSharingModalModule</title>
<path fill="none" stroke="black" d="M2207,-122.28C2207,-143.32 2207,-175 2207,-175 2207,-175 1285.61,-175 1285.61,-175"/>
<polygon fill="black" stroke="black" points="1285.61,-171.5 1275.61,-175 1285.61,-178.5 1285.61,-171.5"/>
</g>
<!-- SharingModalComponent -->
<g id="node2" class="node">
<title>SharingModalComponent</title>
<polygon fill="#ffffb3" stroke="black" points="2074.93,-122 1913.07,-122 1913.07,-86 2074.93,-86 2074.93,-122"/>
<text text-anchor="middle" x="1994" y="-99.8" font-family="Times,serif" font-size="14.00">SharingModalComponent</text>
</g>
<!-- SharingModalComponent&#45;&gt;VcdSharingModalModule -->
<g id="edge2" class="edge">
<title>SharingModalComponent&#45;&gt;VcdSharingModalModule</title>
<path fill="none" stroke="black" d="M1994,-122.11C1994,-141.34 1994,-169 1994,-169 1994,-169 1285.48,-169 1285.48,-169"/>
<polygon fill="black" stroke="black" points="1285.48,-165.5 1275.48,-169 1285.48,-172.5 1285.48,-165.5"/>
</g>
<!-- SharingModalGroupRenderComponent -->
<g id="node3" class="node">
<title>SharingModalGroupRenderComponent</title>
<polygon fill="#ffffb3" stroke="black" points="1894.62,-122 1657.38,-122 1657.38,-86 1894.62,-86 1894.62,-122"/>
<text text-anchor="middle" x="1776" y="-99.8" font-family="Times,serif" font-size="14.00">SharingModalGroupRenderComponent</text>
</g>
<!-- SharingModalGroupRenderComponent&#45;&gt;VcdSharingModalModule -->
<g id="edge3" class="edge">
<title>SharingModalGroupRenderComponent&#45;&gt;VcdSharingModalModule</title>
<path fill="none" stroke="black" d="M1776,-122.02C1776,-139.37 1776,-163 1776,-163 1776,-163 1285.54,-163 1285.54,-163"/>
<polygon fill="black" stroke="black" points="1285.54,-159.5 1275.54,-163 1285.54,-166.5 1285.54,-159.5"/>
</g>
<!-- SharingModalOrgRenderComponent -->
<g id="node4" class="node">
<title>SharingModalOrgRenderComponent</title>
<polygon fill="#ffffb3" stroke="black" points="1638.62,-122 1415.38,-122 1415.38,-86 1638.62,-86 1638.62,-122"/>
<text text-anchor="middle" x="1527" y="-99.8" font-family="Times,serif" font-size="14.00">SharingModalOrgRenderComponent</text>
</g>
<!-- SharingModalOrgRenderComponent&#45;&gt;VcdSharingModalModule -->
<g id="edge4" class="edge">
<title>SharingModalOrgRenderComponent&#45;&gt;VcdSharingModalModule</title>
<path fill="none" stroke="black" d="M1527,-122.24C1527,-137.57 1527,-157 1527,-157 1527,-157 1285.89,-157 1285.89,-157"/>
<polygon fill="black" stroke="black" points="1285.89,-153.5 1275.89,-157 1285.89,-160.5 1285.89,-153.5"/>
</g>
<!-- SharingModalTabComponent -->
<g id="node5" class="node">
<title>SharingModalTabComponent</title>
<polygon fill="#ffffb3" stroke="black" points="1397.7,-122 1214.3,-122 1214.3,-86 1397.7,-86 1397.7,-122"/>
<text text-anchor="middle" x="1306" y="-99.8" font-family="Times,serif" font-size="14.00">SharingModalTabComponent</text>
</g>
<!-- SharingModalTabComponent&#45;&gt;VcdSharingModalModule -->
<g id="edge5" class="edge">
<title>SharingModalTabComponent&#45;&gt;VcdSharingModalModule</title>
<path fill="none" stroke="black" d="M1244.94,-122.11C1244.94,-122.11 1244.94,-140.99 1244.94,-140.99"/>
<polygon fill="black" stroke="black" points="1241.44,-140.99 1244.94,-150.99 1248.44,-140.99 1241.44,-140.99"/>
</g>
<!-- SharingModalUserRenderComponent -->
<g id="node6" class="node">
<title>SharingModalUserRenderComponent</title>
<polygon fill="#ffffb3" stroke="black" points="1196.28,-122 967.72,-122 967.72,-86 1196.28,-86 1196.28,-122"/>
<text text-anchor="middle" x="1082" y="-99.8" font-family="Times,serif" font-size="14.00">SharingModalUserRenderComponent</text>
</g>
<!-- SharingModalUserRenderComponent&#45;&gt;VcdSharingModalModule -->
<g id="edge6" class="edge">
<title>SharingModalUserRenderComponent&#45;&gt;VcdSharingModalModule</title>
<path fill="none" stroke="black" d="M1154.33,-122.11C1154.33,-122.11 1154.33,-140.99 1154.33,-140.99"/>
<polygon fill="black" stroke="black" points="1150.83,-140.99 1154.33,-150.99 1157.83,-140.99 1150.83,-140.99"/>
</g>
<!-- UsersGroupsOrgsSharingModalDirective -->
<g id="node7" class="node">
<title>UsersGroupsOrgsSharingModalDirective</title>
<polygon fill="#ffffb3" stroke="black" points="950.48,-122 701.52,-122 701.52,-86 950.48,-86 950.48,-122"/>
<text text-anchor="middle" x="826" y="-99.8" font-family="Times,serif" font-size="14.00">UsersGroupsOrgsSharingModalDirective</text>
</g>
<!-- UsersGroupsOrgsSharingModalDirective&#45;&gt;VcdSharingModalModule -->
<g id="edge7" class="edge">
<title>UsersGroupsOrgsSharingModalDirective&#45;&gt;VcdSharingModalModule</title>
<path fill="none" stroke="black" d="M826,-122.24C826,-137.57 826,-157 826,-157 826,-157 1102.33,-157 1102.33,-157"/>
<polygon fill="black" stroke="black" points="1102.33,-160.5 1112.33,-157 1102.33,-153.5 1102.33,-160.5"/>
</g>
<!-- VcdSelectAllToggleComponent -->
<g id="node8" class="node">
<title>VcdSelectAllToggleComponent</title>
<polygon fill="#ffffb3" stroke="black" points="684.41,-122 487.59,-122 487.59,-86 684.41,-86 684.41,-122"/>
<text text-anchor="middle" x="586" y="-99.8" font-family="Times,serif" font-size="14.00">VcdSelectAllToggleComponent</text>
</g>
<!-- VcdSelectAllToggleComponent&#45;&gt;VcdSharingModalModule -->
<g id="edge8" class="edge">
<title>VcdSelectAllToggleComponent&#45;&gt;VcdSharingModalModule</title>
<path fill="none" stroke="black" d="M586,-122.02C586,-139.37 586,-163 586,-163 586,-163 1102.32,-163 1102.32,-163"/>
<polygon fill="black" stroke="black" points="1102.32,-166.5 1112.32,-163 1102.32,-159.5 1102.32,-166.5"/>
</g>
<!-- SharingModalComponent  -->
<g id="node13" class="node">
<title>SharingModalComponent </title>
<polygon fill="#fb8072" stroke="black" points="1389.43,-252 1224.57,-252 1224.57,-216 1389.43,-216 1389.43,-252"/>
<text text-anchor="middle" x="1307" y="-229.8" font-family="Times,serif" font-size="14.00">SharingModalComponent </text>
</g>
<!-- VcdSharingModalModule&#45;&gt;SharingModalComponent  -->
<g id="edge12" class="edge">
<title>VcdSharingModalModule&#45;&gt;SharingModalComponent </title>
<path fill="none" stroke="black" stroke-dasharray="5,2" d="M1250.01,-187.11C1250.01,-187.11 1250.01,-205.99 1250.01,-205.99"/>
<polygon fill="black" stroke="black" points="1246.51,-205.99 1250.01,-215.99 1253.51,-205.99 1246.51,-205.99"/>
</g>
<!-- UsersGroupsOrgsSharingModalDirective  -->
<g id="node14" class="node">
<title>UsersGroupsOrgsSharingModalDirective </title>
<polygon fill="#fb8072" stroke="black" points="1206.98,-252 955.02,-252 955.02,-216 1206.98,-216 1206.98,-252"/>
<text text-anchor="middle" x="1081" y="-229.8" font-family="Times,serif" font-size="14.00">UsersGroupsOrgsSharingModalDirective </text>
</g>
<!-- VcdSharingModalModule&#45;&gt;UsersGroupsOrgsSharingModalDirective  -->
<g id="edge13" class="edge">
<title>VcdSharingModalModule&#45;&gt;UsersGroupsOrgsSharingModalDirective </title>
<path fill="none" stroke="black" stroke-dasharray="5,2" d="M1159.75,-187.11C1159.75,-187.11 1159.75,-205.99 1159.75,-205.99"/>
<polygon fill="black" stroke="black" points="1156.25,-205.99 1159.75,-215.99 1163.25,-205.99 1156.25,-205.99"/>
</g>
<!-- DropdownModule -->
<g id="node10" class="node">
<title>DropdownModule</title>
<polygon fill="#8dd3c7" stroke="black" points="463.92,-122 460.92,-126 439.92,-126 436.92,-122 344.08,-122 344.08,-86 463.92,-86 463.92,-122"/>
<text text-anchor="middle" x="404" y="-99.8" font-family="Times,serif" font-size="14.00">DropdownModule</text>
</g>
<!-- DropdownModule&#45;&gt;VcdSharingModalModule -->
<g id="edge9" class="edge">
<title>DropdownModule&#45;&gt;VcdSharingModalModule</title>
<path fill="none" stroke="black" d="M404,-122.11C404,-141.34 404,-169 404,-169 404,-169 1102.43,-169 1102.43,-169"/>
<polygon fill="black" stroke="black" points="1102.43,-172.5 1112.43,-169 1102.43,-165.5 1102.43,-172.5"/>
</g>
<!-- VcdDatagridModule -->
<g id="node11" class="node">
<title>VcdDatagridModule</title>
<polygon fill="#8dd3c7" stroke="black" points="325.85,-122 322.85,-126 301.85,-126 298.85,-122 194.15,-122 194.15,-86 325.85,-86 325.85,-122"/>
<text text-anchor="middle" x="260" y="-99.8" font-family="Times,serif" font-size="14.00">VcdDatagridModule</text>
</g>
<!-- VcdDatagridModule&#45;&gt;VcdSharingModalModule -->
<g id="edge10" class="edge">
<title>VcdDatagridModule&#45;&gt;VcdSharingModalModule</title>
<path fill="none" stroke="black" d="M260,-122.28C260,-143.32 260,-175 260,-175 260,-175 1102.34,-175 1102.34,-175"/>
<polygon fill="black" stroke="black" points="1102.34,-178.5 1112.34,-175 1102.34,-171.5 1102.34,-178.5"/>
</g>
<!-- VcdErrorBannerModule -->
<g id="node12" class="node">
<title>VcdErrorBannerModule</title>
<polygon fill="#8dd3c7" stroke="black" points="176.33,-122 173.33,-126 152.33,-126 149.33,-122 23.67,-122 23.67,-86 176.33,-86 176.33,-122"/>
<text text-anchor="middle" x="100" y="-99.8" font-family="Times,serif" font-size="14.00">VcdErrorBannerModule</text>
</g>
<!-- VcdErrorBannerModule&#45;&gt;VcdSharingModalModule -->
<g id="edge11" class="edge">
<title>VcdErrorBannerModule&#45;&gt;VcdSharingModalModule</title>
<path fill="none" stroke="black" d="M100,-122.25C100,-145.02 100,-181 100,-181 100,-181 1102.22,-181 1102.22,-181"/>
<polygon fill="black" stroke="black" points="1102.22,-184.5 1112.22,-181 1102.22,-177.5 1102.22,-184.5"/>
</g>
<!-- RestQueryService -->
<g id="node15" class="node">
<title>RestQueryService</title>
<ellipse fill="#fdb462" stroke="black" cx="2427" cy="-104" rx="81.08" ry="18"/>
<text text-anchor="middle" x="2427" y="-99.8" font-family="Times,serif" font-size="14.00">RestQueryService</text>
</g>
<!-- RestQueryService&#45;&gt;VcdSharingModalModule -->
<g id="edge14" class="edge">
<title>RestQueryService&#45;&gt;VcdSharingModalModule</title>
<path fill="none" stroke="black" d="M2427,-122.25C2427,-145.02 2427,-181 2427,-181 2427,-181 1285.86,-181 1285.86,-181"/>
<polygon fill="black" stroke="black" points="1285.86,-177.5 1275.86,-181 1285.86,-184.5 1285.86,-177.5"/>
</g>
</g>
</svg>
