<?xml version="1.0" encoding="UTF-8" standalone="no"?>
<!DOCTYPE svg PUBLIC "-//W3C//DTD SVG 1.1//EN"
 "http://www.w3.org/Graphics/SVG/1.1/DTD/svg11.dtd">
<!-- Generated by graphviz version 2.47.3 (20210619.1520)
 -->
<!-- Title: dependencies Pages: 1 -->
<svg width="2540pt" height="247pt"
 viewBox="0.00 0.00 2540.00 246.80" xmlns="http://www.w3.org/2000/svg" xmlns:xlink="http://www.w3.org/1999/xlink">
<g id="graph0" class="graph" transform="scale(1 1) rotate(0) translate(4 242.8)">
<title>dependencies</title>
<polygon fill="white" stroke="transparent" points="-4,4 -4,-242.8 2536,-242.8 2536,4 -4,4"/>
<text text-anchor="middle" x="1266" y="-8.2" font-family="sans-serif" font-size="14.00">dependencies</text>
<g id="clust1" class="cluster">
<title>cluster_VcdSharingModalModule</title>
<polygon fill="none" stroke="black" stroke-dasharray="1,5" points="8,-32.8 8,-230.8 2524,-230.8 2524,-32.8 8,-32.8"/>
</g>
<g id="clust12" class="cluster">
<title>cluster_VcdSharingModalModule_exports</title>
<polygon fill="none" stroke="black" points="1126,-170.8 1126,-222.8 1576,-222.8 1576,-170.8 1126,-170.8"/>
</g>
<g id="clust11" class="cluster">
<title>cluster_VcdSharingModalModule_imports</title>
<polygon fill="none" stroke="black" points="2060,-40.8 2060,-92.8 2516,-92.8 2516,-40.8 2060,-40.8"/>
</g>
<g id="clust2" class="cluster">
<title>cluster_VcdSharingModalModule_declarations</title>
<polygon fill="none" stroke="black" points="202,-40.8 202,-92.8 2052,-92.8 2052,-40.8 202,-40.8"/>
</g>
<g id="clust14" class="cluster">
<title>cluster_VcdSharingModalModule_providers</title>
<polygon fill="none" stroke="black" points="16,-40.8 16,-92.8 194,-92.8 194,-40.8 16,-40.8"/>
</g>
<!-- RightsDropdownRendererComponent -->
<g id="node1" class="node">
<title>RightsDropdownRendererComponent</title>
<polygon fill="#ffffb3" stroke="black" points="2043.57,-84.8 1814.43,-84.8 1814.43,-48.8 2043.57,-48.8 2043.57,-84.8"/>
<text text-anchor="middle" x="1929" y="-62.6" font-family="Times,serif" font-size="14.00">RightsDropdownRendererComponent</text>
</g>
<!-- VcdSharingModalModule -->
<g id="node9" class="node">
<title>VcdSharingModalModule</title>
<polygon fill="#8dd3c7" stroke="black" points="1454.47,-149.8 1451.47,-153.8 1430.47,-153.8 1427.47,-149.8 1291.53,-149.8 1291.53,-113.8 1454.47,-113.8 1454.47,-149.8"/>
<text text-anchor="middle" x="1373" y="-127.6" font-family="Times,serif" font-size="14.00">VcdSharingModalModule</text>
</g>
<!-- RightsDropdownRendererComponent&#45;&gt;VcdSharingModalModule -->
<g id="edge1" class="edge">
<title>RightsDropdownRendererComponent&#45;&gt;VcdSharingModalModule</title>
<path fill="none" stroke="black" d="M1929,-84.82C1929,-102.17 1929,-125.8 1929,-125.8 1929,-125.8 1464.74,-125.8 1464.74,-125.8"/>
<polygon fill="black" stroke="black" points="1464.74,-122.3 1454.74,-125.8 1464.74,-129.3 1464.74,-122.3"/>
</g>
<!-- SharingModalComponent -->
<g id="node2" class="node">
<title>SharingModalComponent</title>
<polygon fill="#ffffb3" stroke="black" points="1796.93,-84.8 1635.07,-84.8 1635.07,-48.8 1796.93,-48.8 1796.93,-84.8"/>
<text text-anchor="middle" x="1716" y="-62.6" font-family="Times,serif" font-size="14.00">SharingModalComponent</text>
</g>
<!-- SharingModalComponent&#45;&gt;VcdSharingModalModule -->
<g id="edge2" class="edge">
<title>SharingModalComponent&#45;&gt;VcdSharingModalModule</title>
<path fill="none" stroke="black" d="M1716,-85.04C1716,-100.37 1716,-119.8 1716,-119.8 1716,-119.8 1464.72,-119.8 1464.72,-119.8"/>
<polygon fill="black" stroke="black" points="1464.72,-116.3 1454.72,-119.8 1464.72,-123.3 1464.72,-116.3"/>
</g>
<!-- SharingModalGroupRenderComponent -->
<g id="node3" class="node">
<title>SharingModalGroupRenderComponent</title>
<polygon fill="#ffffb3" stroke="black" points="1616.62,-84.8 1379.38,-84.8 1379.38,-48.8 1616.62,-48.8 1616.62,-84.8"/>
<text text-anchor="middle" x="1498" y="-62.6" font-family="Times,serif" font-size="14.00">SharingModalGroupRenderComponent</text>
</g>
<!-- SharingModalGroupRenderComponent&#45;&gt;VcdSharingModalModule -->
<g id="edge3" class="edge">
<title>SharingModalGroupRenderComponent&#45;&gt;VcdSharingModalModule</title>
<path fill="none" stroke="black" d="M1416.84,-84.91C1416.84,-84.91 1416.84,-103.79 1416.84,-103.79"/>
<polygon fill="black" stroke="black" points="1413.34,-103.79 1416.84,-113.79 1420.34,-103.79 1413.34,-103.79"/>
</g>
<!-- SharingModalOrgRenderComponent -->
<g id="node4" class="node">
<title>SharingModalOrgRenderComponent</title>
<polygon fill="#ffffb3" stroke="black" points="1360.62,-84.8 1137.38,-84.8 1137.38,-48.8 1360.62,-48.8 1360.62,-84.8"/>
<text text-anchor="middle" x="1249" y="-62.6" font-family="Times,serif" font-size="14.00">SharingModalOrgRenderComponent</text>
</g>
<!-- SharingModalOrgRenderComponent&#45;&gt;VcdSharingModalModule -->
<g id="edge4" class="edge">
<title>SharingModalOrgRenderComponent&#45;&gt;VcdSharingModalModule</title>
<path fill="none" stroke="black" d="M1326.16,-84.91C1326.16,-84.91 1326.16,-103.79 1326.16,-103.79"/>
<polygon fill="black" stroke="black" points="1322.66,-103.79 1326.16,-113.79 1329.66,-103.79 1322.66,-103.79"/>
</g>
<!-- SharingModalTabComponent -->
<g id="node5" class="node">
<title>SharingModalTabComponent</title>
<polygon fill="#ffffb3" stroke="black" points="1119.7,-84.8 936.3,-84.8 936.3,-48.8 1119.7,-48.8 1119.7,-84.8"/>
<text text-anchor="middle" x="1028" y="-62.6" font-family="Times,serif" font-size="14.00">SharingModalTabComponent</text>
</g>
<!-- SharingModalTabComponent&#45;&gt;VcdSharingModalModule -->
<g id="edge5" class="edge">
<title>SharingModalTabComponent&#45;&gt;VcdSharingModalModule</title>
<path fill="none" stroke="black" d="M1028,-85.04C1028,-100.37 1028,-119.8 1028,-119.8 1028,-119.8 1281.24,-119.8 1281.24,-119.8"/>
<polygon fill="black" stroke="black" points="1281.24,-123.3 1291.24,-119.8 1281.24,-116.3 1281.24,-123.3"/>
</g>
<!-- SharingModalUserRenderComponent -->
<g id="node6" class="node">
<title>SharingModalUserRenderComponent</title>
<polygon fill="#ffffb3" stroke="black" points="918.28,-84.8 689.72,-84.8 689.72,-48.8 918.28,-48.8 918.28,-84.8"/>
<text text-anchor="middle" x="804" y="-62.6" font-family="Times,serif" font-size="14.00">SharingModalUserRenderComponent</text>
</g>
<!-- SharingModalUserRenderComponent&#45;&gt;VcdSharingModalModule -->
<g id="edge6" class="edge">
<title>SharingModalUserRenderComponent&#45;&gt;VcdSharingModalModule</title>
<path fill="none" stroke="black" d="M804,-84.82C804,-102.17 804,-125.8 804,-125.8 804,-125.8 1281.48,-125.8 1281.48,-125.8"/>
<polygon fill="black" stroke="black" points="1281.48,-129.3 1291.48,-125.8 1281.48,-122.3 1281.48,-129.3"/>
</g>
<!-- UsersGroupsOrgsSharingModalDirective -->
<g id="node7" class="node">
<title>UsersGroupsOrgsSharingModalDirective</title>
<polygon fill="#ffffb3" stroke="black" points="672.48,-84.8 423.52,-84.8 423.52,-48.8 672.48,-48.8 672.48,-84.8"/>
<text text-anchor="middle" x="548" y="-62.6" font-family="Times,serif" font-size="14.00">UsersGroupsOrgsSharingModalDirective</text>
</g>
<!-- UsersGroupsOrgsSharingModalDirective&#45;&gt;VcdSharingModalModule -->
<g id="edge7" class="edge">
<title>UsersGroupsOrgsSharingModalDirective&#45;&gt;VcdSharingModalModule</title>
<path fill="none" stroke="black" d="M548,-84.91C548,-104.14 548,-131.8 548,-131.8 548,-131.8 1281.26,-131.8 1281.26,-131.8"/>
<polygon fill="black" stroke="black" points="1281.26,-135.3 1291.26,-131.8 1281.26,-128.3 1281.26,-135.3"/>
</g>
<!-- VcdSelectAllToggleComponent -->
<g id="node8" class="node">
<title>VcdSelectAllToggleComponent</title>
<polygon fill="#ffffb3" stroke="black" points="406.41,-84.8 209.59,-84.8 209.59,-48.8 406.41,-48.8 406.41,-84.8"/>
<text text-anchor="middle" x="308" y="-62.6" font-family="Times,serif" font-size="14.00">VcdSelectAllToggleComponent</text>
</g>
<!-- VcdSelectAllToggleComponent&#45;&gt;VcdSharingModalModule -->
<g id="edge8" class="edge">
<title>VcdSelectAllToggleComponent&#45;&gt;VcdSharingModalModule</title>
<path fill="none" stroke="black" d="M308,-85.08C308,-106.12 308,-137.8 308,-137.8 308,-137.8 1281.2,-137.8 1281.2,-137.8"/>
<polygon fill="black" stroke="black" points="1281.2,-141.3 1291.2,-137.8 1281.2,-134.3 1281.2,-141.3"/>
</g>
<!-- SharingModalComponent  -->
<g id="node13" class="node">
<title>SharingModalComponent </title>
<polygon fill="#fb8072" stroke="black" points="1568.43,-214.8 1403.57,-214.8 1403.57,-178.8 1568.43,-178.8 1568.43,-214.8"/>
<text text-anchor="middle" x="1486" y="-192.6" font-family="Times,serif" font-size="14.00">SharingModalComponent </text>
</g>
<!-- VcdSharingModalModule&#45;&gt;SharingModalComponent  -->
<g id="edge12" class="edge">
<title>VcdSharingModalModule&#45;&gt;SharingModalComponent </title>
<path fill="none" stroke="black" stroke-dasharray="5,2" d="M1429.01,-149.91C1429.01,-149.91 1429.01,-168.79 1429.01,-168.79"/>
<polygon fill="black" stroke="black" points="1425.51,-168.79 1429.01,-178.79 1432.51,-168.79 1425.51,-168.79"/>
</g>
<!-- UsersGroupsOrgsSharingModalDirective  -->
<g id="node14" class="node">
<title>UsersGroupsOrgsSharingModalDirective </title>
<polygon fill="#fb8072" stroke="black" points="1385.98,-214.8 1134.02,-214.8 1134.02,-178.8 1385.98,-178.8 1385.98,-214.8"/>
<text text-anchor="middle" x="1260" y="-192.6" font-family="Times,serif" font-size="14.00">UsersGroupsOrgsSharingModalDirective </text>
</g>
<!-- VcdSharingModalModule&#45;&gt;UsersGroupsOrgsSharingModalDirective  -->
<g id="edge13" class="edge">
<title>VcdSharingModalModule&#45;&gt;UsersGroupsOrgsSharingModalDirective </title>
<path fill="none" stroke="black" stroke-dasharray="5,2" d="M1338.75,-149.91C1338.75,-149.91 1338.75,-168.79 1338.75,-168.79"/>
<polygon fill="black" stroke="black" points="1335.25,-168.79 1338.75,-178.79 1342.25,-168.79 1335.25,-168.79"/>
</g>
<!-- DropdownModule -->
<g id="node10" class="node">
<title>DropdownModule</title>
<polygon fill="#8dd3c7" stroke="black" points="2507.92,-84.8 2504.92,-88.8 2483.92,-88.8 2480.92,-84.8 2388.08,-84.8 2388.08,-48.8 2507.92,-48.8 2507.92,-84.8"/>
<text text-anchor="middle" x="2448" y="-62.6" font-family="Times,serif" font-size="14.00">DropdownModule</text>
</g>
<!-- DropdownModule&#45;&gt;VcdSharingModalModule -->
<g id="edge9" class="edge">
<title>DropdownModule&#45;&gt;VcdSharingModalModule</title>
<path fill="none" stroke="black" d="M2448,-85.05C2448,-107.82 2448,-143.8 2448,-143.8 2448,-143.8 1464.68,-143.8 1464.68,-143.8"/>
<polygon fill="black" stroke="black" points="1464.68,-140.3 1454.68,-143.8 1464.68,-147.3 1464.68,-140.3"/>
</g>
<!-- VcdDatagridModule -->
<g id="node11" class="node">
<title>VcdDatagridModule</title>
<polygon fill="#8dd3c7" stroke="black" points="2369.85,-84.8 2366.85,-88.8 2345.85,-88.8 2342.85,-84.8 2238.15,-84.8 2238.15,-48.8 2369.85,-48.8 2369.85,-84.8"/>
<text text-anchor="middle" x="2304" y="-62.6" font-family="Times,serif" font-size="14.00">VcdDatagridModule</text>
</g>
<!-- VcdDatagridModule&#45;&gt;VcdSharingModalModule -->
<g id="edge10" class="edge">
<title>VcdDatagridModule&#45;&gt;VcdSharingModalModule</title>
<path fill="none" stroke="black" d="M2304,-85.08C2304,-106.12 2304,-137.8 2304,-137.8 2304,-137.8 1464.8,-137.8 1464.8,-137.8"/>
<polygon fill="black" stroke="black" points="1464.8,-134.3 1454.8,-137.8 1464.8,-141.3 1464.8,-134.3"/>
</g>
<!-- VcdErrorBannerModule -->
<g id="node12" class="node">
<title>VcdErrorBannerModule</title>
<polygon fill="#8dd3c7" stroke="black" points="2220.33,-84.8 2217.33,-88.8 2196.33,-88.8 2193.33,-84.8 2067.67,-84.8 2067.67,-48.8 2220.33,-48.8 2220.33,-84.8"/>
<text text-anchor="middle" x="2144" y="-62.6" font-family="Times,serif" font-size="14.00">VcdErrorBannerModule</text>
</g>
<!-- VcdErrorBannerModule&#45;&gt;VcdSharingModalModule -->
<g id="edge11" class="edge">
<title>VcdErrorBannerModule&#45;&gt;VcdSharingModalModule</title>
<path fill="none" stroke="black" d="M2144,-84.91C2144,-104.14 2144,-131.8 2144,-131.8 2144,-131.8 1464.78,-131.8 1464.78,-131.8"/>
<polygon fill="black" stroke="black" points="1464.78,-128.3 1454.78,-131.8 1464.78,-135.3 1464.78,-128.3"/>
</g>
<!-- RestQueryService -->
<g id="node15" class="node">
<title>RestQueryService</title>
<ellipse fill="#fdb462" stroke="black" cx="105" cy="-66.8" rx="81.08" ry="18"/>
<text text-anchor="middle" x="105" y="-62.6" font-family="Times,serif" font-size="14.00">RestQueryService</text>
</g>
<!-- RestQueryService&#45;&gt;VcdSharingModalModule -->
<g id="edge14" class="edge">
<title>RestQueryService&#45;&gt;VcdSharingModalModule</title>
<path fill="none" stroke="black" d="M105,-85.05C105,-107.82 105,-143.8 105,-143.8 105,-143.8 1281.27,-143.8 1281.27,-143.8"/>
<polygon fill="black" stroke="black" points="1281.27,-147.3 1291.27,-143.8 1281.27,-140.3 1281.27,-147.3"/>
</g>
</g>
</svg>
