<?xml version="1.0" encoding="UTF-8" standalone="no"?>
<!DOCTYPE svg PUBLIC "-//W3C//DTD SVG 1.1//EN"
 "http://www.w3.org/Graphics/SVG/1.1/DTD/svg11.dtd">
<!-- Generated by graphviz version 5.0.0 (20220707.1540)
 -->
<!-- Title: dependencies Pages: 1 -->
<svg width="2540pt" height="247pt"
 viewBox="0.00 0.00 2540.00 246.80" xmlns="http://www.w3.org/2000/svg" xmlns:xlink="http://www.w3.org/1999/xlink">
<g id="graph0" class="graph" transform="scale(1 1) rotate(0) translate(4 242.8)">
<title>dependencies</title>
<polygon fill="white" stroke="transparent" points="-4,4 -4,-242.8 2536,-242.8 2536,4 -4,4"/>
<text text-anchor="middle" x="1266" y="-8.2" font-family="sans-serif" font-size="14.00">dependencies</text>
<g id="clust1" class="cluster">
<title>cluster_VcdSharingModalModule</title>
<polygon fill="none" stroke="black" stroke-dasharray="1,5" points="8,-32.8 8,-230.8 2524,-230.8 2524,-32.8 8,-32.8"/>
</g>
<g id="clust12" class="cluster">
<title>cluster_VcdSharingModalModule_exports</title>
<polygon fill="none" stroke="black" points="947,-170.8 947,-222.8 1397,-222.8 1397,-170.8 947,-170.8"/>
</g>
<g id="clust14" class="cluster">
<title>cluster_VcdSharingModalModule_providers</title>
<polygon fill="none" stroke="black" points="2338,-40.8 2338,-92.8 2516,-92.8 2516,-40.8 2338,-40.8"/>
</g>
<g id="clust2" class="cluster">
<title>cluster_VcdSharingModalModule_declarations</title>
<polygon fill="none" stroke="black" points="480,-40.8 480,-92.8 2330,-92.8 2330,-40.8 480,-40.8"/>
</g>
<g id="clust11" class="cluster">
<title>cluster_VcdSharingModalModule_imports</title>
<polygon fill="none" stroke="black" points="16,-40.8 16,-92.8 472,-92.8 472,-40.8 16,-40.8"/>
</g>
<!-- RightsDropdownRendererComponent -->
<g id="node1" class="node">
<title>RightsDropdownRendererComponent</title>
<polygon fill="#ffffb3" stroke="black" points="2321.58,-84.8 2092.42,-84.8 2092.42,-48.8 2321.58,-48.8 2321.58,-84.8"/>
<text text-anchor="middle" x="2207" y="-62.6" font-family="Times,serif" font-size="14.00">RightsDropdownRendererComponent</text>
</g>
<!-- VcdSharingModalModule -->
<g id="node9" class="node">
<title>VcdSharingModalModule</title>
<polygon fill="#8dd3c7" stroke="black" points="1275.48,-149.8 1272.48,-153.8 1251.48,-153.8 1248.48,-149.8 1112.52,-149.8 1112.52,-113.8 1275.48,-113.8 1275.48,-149.8"/>
<text text-anchor="middle" x="1194" y="-127.6" font-family="Times,serif" font-size="14.00">VcdSharingModalModule</text>
</g>
<!-- RightsDropdownRendererComponent&#45;&gt;VcdSharingModalModule -->
<g id="edge1" class="edge">
<title>RightsDropdownRendererComponent&#45;&gt;VcdSharingModalModule</title>
<path fill="none" stroke="black" d="M2207,-85.08C2207,-106.12 2207,-137.8 2207,-137.8 2207,-137.8 1285.61,-137.8 1285.61,-137.8"/>
<polygon fill="black" stroke="black" points="1285.61,-134.3 1275.61,-137.8 1285.61,-141.3 1285.61,-134.3"/>
</g>
<!-- SharingModalComponent -->
<g id="node2" class="node">
<title>SharingModalComponent</title>
<polygon fill="#ffffb3" stroke="black" points="2074.94,-84.8 1913.06,-84.8 1913.06,-48.8 2074.94,-48.8 2074.94,-84.8"/>
<text text-anchor="middle" x="1994" y="-62.6" font-family="Times,serif" font-size="14.00">SharingModalComponent</text>
</g>
<!-- SharingModalComponent&#45;&gt;VcdSharingModalModule -->
<g id="edge2" class="edge">
<title>SharingModalComponent&#45;&gt;VcdSharingModalModule</title>
<path fill="none" stroke="black" d="M1994,-84.91C1994,-104.14 1994,-131.8 1994,-131.8 1994,-131.8 1285.48,-131.8 1285.48,-131.8"/>
<polygon fill="black" stroke="black" points="1285.48,-128.3 1275.48,-131.8 1285.48,-135.3 1285.48,-128.3"/>
</g>
<!-- SharingModalGroupRenderComponent -->
<g id="node3" class="node">
<title>SharingModalGroupRenderComponent</title>
<polygon fill="#ffffb3" stroke="black" points="1894.64,-84.8 1657.36,-84.8 1657.36,-48.8 1894.64,-48.8 1894.64,-84.8"/>
<text text-anchor="middle" x="1776" y="-62.6" font-family="Times,serif" font-size="14.00">SharingModalGroupRenderComponent</text>
</g>
<!-- SharingModalGroupRenderComponent&#45;&gt;VcdSharingModalModule -->
<g id="edge3" class="edge">
<title>SharingModalGroupRenderComponent&#45;&gt;VcdSharingModalModule</title>
<path fill="none" stroke="black" d="M1776,-84.82C1776,-102.17 1776,-125.8 1776,-125.8 1776,-125.8 1285.54,-125.8 1285.54,-125.8"/>
<polygon fill="black" stroke="black" points="1285.54,-122.3 1275.54,-125.8 1285.54,-129.3 1285.54,-122.3"/>
</g>
<!-- SharingModalOrgRenderComponent -->
<g id="node4" class="node">
<title>SharingModalOrgRenderComponent</title>
<polygon fill="#ffffb3" stroke="black" points="1638.64,-84.8 1415.36,-84.8 1415.36,-48.8 1638.64,-48.8 1638.64,-84.8"/>
<text text-anchor="middle" x="1527" y="-62.6" font-family="Times,serif" font-size="14.00">SharingModalOrgRenderComponent</text>
</g>
<!-- SharingModalOrgRenderComponent&#45;&gt;VcdSharingModalModule -->
<g id="edge4" class="edge">
<title>SharingModalOrgRenderComponent&#45;&gt;VcdSharingModalModule</title>
<path fill="none" stroke="black" d="M1527,-85.04C1527,-100.37 1527,-119.8 1527,-119.8 1527,-119.8 1285.89,-119.8 1285.89,-119.8"/>
<polygon fill="black" stroke="black" points="1285.89,-116.3 1275.89,-119.8 1285.89,-123.3 1285.89,-116.3"/>
</g>
<!-- SharingModalTabComponent -->
<g id="node5" class="node">
<title>SharingModalTabComponent</title>
<polygon fill="#ffffb3" stroke="black" points="1397.7,-84.8 1214.3,-84.8 1214.3,-48.8 1397.7,-48.8 1397.7,-84.8"/>
<text text-anchor="middle" x="1306" y="-62.6" font-family="Times,serif" font-size="14.00">SharingModalTabComponent</text>
</g>
<!-- SharingModalTabComponent&#45;&gt;VcdSharingModalModule -->
<g id="edge5" class="edge">
<title>SharingModalTabComponent&#45;&gt;VcdSharingModalModule</title>
<path fill="none" stroke="black" d="M1244.94,-84.91C1244.94,-84.91 1244.94,-103.79 1244.94,-103.79"/>
<polygon fill="black" stroke="black" points="1241.44,-103.79 1244.94,-113.79 1248.44,-103.79 1241.44,-103.79"/>
</g>
<!-- SharingModalUserRenderComponent -->
<g id="node6" class="node">
<title>SharingModalUserRenderComponent</title>
<polygon fill="#ffffb3" stroke="black" points="1196.3,-84.8 967.7,-84.8 967.7,-48.8 1196.3,-48.8 1196.3,-84.8"/>
<text text-anchor="middle" x="1082" y="-62.6" font-family="Times,serif" font-size="14.00">SharingModalUserRenderComponent</text>
</g>
<!-- SharingModalUserRenderComponent&#45;&gt;VcdSharingModalModule -->
<g id="edge6" class="edge">
<title>SharingModalUserRenderComponent&#45;&gt;VcdSharingModalModule</title>
<path fill="none" stroke="black" d="M1154.33,-84.91C1154.33,-84.91 1154.33,-103.79 1154.33,-103.79"/>
<polygon fill="black" stroke="black" points="1150.83,-103.79 1154.33,-113.79 1157.83,-103.79 1150.83,-103.79"/>
</g>
<!-- UsersGroupsOrgsSharingModalDirective -->
<g id="node7" class="node">
<title>UsersGroupsOrgsSharingModalDirective</title>
<polygon fill="#ffffb3" stroke="black" points="950.01,-84.8 701.99,-84.8 701.99,-48.8 950.01,-48.8 950.01,-84.8"/>
<text text-anchor="middle" x="826" y="-62.6" font-family="Times,serif" font-size="14.00">UsersGroupsOrgsSharingModalDirective</text>
</g>
<!-- UsersGroupsOrgsSharingModalDirective&#45;&gt;VcdSharingModalModule -->
<g id="edge7" class="edge">
<title>UsersGroupsOrgsSharingModalDirective&#45;&gt;VcdSharingModalModule</title>
<path fill="none" stroke="black" d="M826,-85.04C826,-100.37 826,-119.8 826,-119.8 826,-119.8 1102.33,-119.8 1102.33,-119.8"/>
<polygon fill="black" stroke="black" points="1102.33,-123.3 1112.33,-119.8 1102.33,-116.3 1102.33,-123.3"/>
</g>
<!-- VcdSelectAllToggleComponent -->
<g id="node8" class="node">
<title>VcdSelectAllToggleComponent</title>
<polygon fill="#ffffb3" stroke="black" points="684.41,-84.8 487.59,-84.8 487.59,-48.8 684.41,-48.8 684.41,-84.8"/>
<text text-anchor="middle" x="586" y="-62.6" font-family="Times,serif" font-size="14.00">VcdSelectAllToggleComponent</text>
</g>
<!-- VcdSelectAllToggleComponent&#45;&gt;VcdSharingModalModule -->
<g id="edge8" class="edge">
<title>VcdSelectAllToggleComponent&#45;&gt;VcdSharingModalModule</title>
<path fill="none" stroke="black" d="M586,-84.82C586,-102.17 586,-125.8 586,-125.8 586,-125.8 1102.32,-125.8 1102.32,-125.8"/>
<polygon fill="black" stroke="black" points="1102.32,-129.3 1112.32,-125.8 1102.32,-122.3 1102.32,-129.3"/>
</g>
<!-- SharingModalComponent  -->
<g id="node13" class="node">
<title>SharingModalComponent </title>
<polygon fill="#fb8072" stroke="black" points="1389.43,-214.8 1224.57,-214.8 1224.57,-178.8 1389.43,-178.8 1389.43,-214.8"/>
<text text-anchor="middle" x="1307" y="-192.6" font-family="Times,serif" font-size="14.00">SharingModalComponent </text>
</g>
<!-- VcdSharingModalModule&#45;&gt;SharingModalComponent  -->
<g id="edge12" class="edge">
<title>VcdSharingModalModule&#45;&gt;SharingModalComponent </title>
<path fill="none" stroke="black" stroke-dasharray="5,2" d="M1250.01,-149.91C1250.01,-149.91 1250.01,-168.79 1250.01,-168.79"/>
<polygon fill="black" stroke="black" points="1246.51,-168.79 1250.01,-178.79 1253.51,-168.79 1246.51,-168.79"/>
</g>
<!-- UsersGroupsOrgsSharingModalDirective  -->
<g id="node14" class="node">
<title>UsersGroupsOrgsSharingModalDirective </title>
<polygon fill="#fb8072" stroke="black" points="1207.01,-214.8 954.99,-214.8 954.99,-178.8 1207.01,-178.8 1207.01,-214.8"/>
<text text-anchor="middle" x="1081" y="-192.6" font-family="Times,serif" font-size="14.00">UsersGroupsOrgsSharingModalDirective </text>
</g>
<!-- VcdSharingModalModule&#45;&gt;UsersGroupsOrgsSharingModalDirective  -->
<g id="edge13" class="edge">
<title>VcdSharingModalModule&#45;&gt;UsersGroupsOrgsSharingModalDirective </title>
<path fill="none" stroke="black" stroke-dasharray="5,2" d="M1159.76,-149.91C1159.76,-149.91 1159.76,-168.79 1159.76,-168.79"/>
<polygon fill="black" stroke="black" points="1156.26,-168.79 1159.76,-178.79 1163.26,-168.79 1156.26,-168.79"/>
</g>
<!-- DropdownModule -->
<g id="node10" class="node">
<title>DropdownModule</title>
<polygon fill="#8dd3c7" stroke="black" points="463.94,-84.8 460.94,-88.8 439.94,-88.8 436.94,-84.8 344.06,-84.8 344.06,-48.8 463.94,-48.8 463.94,-84.8"/>
<text text-anchor="middle" x="404" y="-62.6" font-family="Times,serif" font-size="14.00">DropdownModule</text>
</g>
<!-- DropdownModule&#45;&gt;VcdSharingModalModule -->
<g id="edge9" class="edge">
<title>DropdownModule&#45;&gt;VcdSharingModalModule</title>
<path fill="none" stroke="black" d="M404,-84.91C404,-104.14 404,-131.8 404,-131.8 404,-131.8 1102.43,-131.8 1102.43,-131.8"/>
<polygon fill="black" stroke="black" points="1102.43,-135.3 1112.43,-131.8 1102.43,-128.3 1102.43,-135.3"/>
</g>
<!-- VcdDatagridModule -->
<g id="node11" class="node">
<title>VcdDatagridModule</title>
<polygon fill="#8dd3c7" stroke="black" points="325.86,-84.8 322.86,-88.8 301.86,-88.8 298.86,-84.8 194.14,-84.8 194.14,-48.8 325.86,-48.8 325.86,-84.8"/>
<text text-anchor="middle" x="260" y="-62.6" font-family="Times,serif" font-size="14.00">VcdDatagridModule</text>
</g>
<!-- VcdDatagridModule&#45;&gt;VcdSharingModalModule -->
<g id="edge10" class="edge">
<title>VcdDatagridModule&#45;&gt;VcdSharingModalModule</title>
<path fill="none" stroke="black" d="M260,-85.08C260,-106.12 260,-137.8 260,-137.8 260,-137.8 1102.34,-137.8 1102.34,-137.8"/>
<polygon fill="black" stroke="black" points="1102.34,-141.3 1112.34,-137.8 1102.34,-134.3 1102.34,-141.3"/>
</g>
<!-- VcdErrorBannerModule -->
<g id="node12" class="node">
<title>VcdErrorBannerModule</title>
<polygon fill="#8dd3c7" stroke="black" points="176.34,-84.8 173.34,-88.8 152.34,-88.8 149.34,-84.8 23.66,-84.8 23.66,-48.8 176.34,-48.8 176.34,-84.8"/>
<text text-anchor="middle" x="100" y="-62.6" font-family="Times,serif" font-size="14.00">VcdErrorBannerModule</text>
</g>
<!-- VcdErrorBannerModule&#45;&gt;VcdSharingModalModule -->
<g id="edge11" class="edge">
<title>VcdErrorBannerModule&#45;&gt;VcdSharingModalModule</title>
<path fill="none" stroke="black" d="M100,-85.05C100,-107.82 100,-143.8 100,-143.8 100,-143.8 1102.22,-143.8 1102.22,-143.8"/>
<polygon fill="black" stroke="black" points="1102.22,-147.3 1112.22,-143.8 1102.22,-140.3 1102.22,-147.3"/>
</g>
<!-- RestQueryService -->
<g id="node15" class="node">
<title>RestQueryService</title>
<ellipse fill="#fdb462" stroke="black" cx="2427" cy="-66.8" rx="81.09" ry="18"/>
<text text-anchor="middle" x="2427" y="-62.6" font-family="Times,serif" font-size="14.00">RestQueryService</text>
</g>
<!-- RestQueryService&#45;&gt;VcdSharingModalModule -->
<g id="edge14" class="edge">
<title>RestQueryService&#45;&gt;VcdSharingModalModule</title>
<path fill="none" stroke="black" d="M2427,-85.05C2427,-107.82 2427,-143.8 2427,-143.8 2427,-143.8 1285.86,-143.8 1285.86,-143.8"/>
<polygon fill="black" stroke="black" points="1285.86,-140.3 1275.86,-143.8 1285.86,-147.3 1285.86,-140.3"/>
</g>
</g>
</svg>
