<?xml version="1.0" encoding="UTF-8" standalone="no"?>
<!DOCTYPE svg PUBLIC "-//W3C//DTD SVG 1.1//EN"
 "http://www.w3.org/Graphics/SVG/1.1/DTD/svg11.dtd">
<!-- Generated by graphviz version 5.0.0 (20220707.1540)
 -->
<!-- Title: dependencies Pages: 1 -->
<svg width="2540pt" height="247pt"
 viewBox="0.00 0.00 2540.00 246.80" xmlns="http://www.w3.org/2000/svg" xmlns:xlink="http://www.w3.org/1999/xlink">
<g id="graph0" class="graph" transform="scale(1 1) rotate(0) translate(4 242.8)">
<title>dependencies</title>
<polygon fill="white" stroke="transparent" points="-4,4 -4,-242.8 2536,-242.8 2536,4 -4,4"/>
<text text-anchor="middle" x="1266" y="-8.2" font-family="sans-serif" font-size="14.00">dependencies</text>
<g id="clust1" class="cluster">
<title>cluster_VcdSharingModalModule</title>
<polygon fill="none" stroke="black" stroke-dasharray="1,5" points="8,-32.8 8,-230.8 2524,-230.8 2524,-32.8 8,-32.8"/>
</g>
<g id="clust12" class="cluster">
<title>cluster_VcdSharingModalModule_exports</title>
<polygon fill="none" stroke="black" points="1174,-170.8 1174,-222.8 1624,-222.8 1624,-170.8 1174,-170.8"/>
</g>
<g id="clust14" class="cluster">
<title>cluster_VcdSharingModalModule_providers</title>
<polygon fill="none" stroke="black" points="2338,-40.8 2338,-92.8 2516,-92.8 2516,-40.8 2338,-40.8"/>
</g>
<g id="clust11" class="cluster">
<title>cluster_VcdSharingModalModule_imports</title>
<polygon fill="none" stroke="black" points="1874,-40.8 1874,-92.8 2330,-92.8 2330,-40.8 1874,-40.8"/>
</g>
<g id="clust2" class="cluster">
<title>cluster_VcdSharingModalModule_declarations</title>
<polygon fill="none" stroke="black" points="16,-40.8 16,-92.8 1866,-92.8 1866,-40.8 16,-40.8"/>
</g>
<!-- RightsDropdownRendererComponent -->
<g id="node1" class="node">
<title>RightsDropdownRendererComponent</title>
<polygon fill="#ffffb3" stroke="black" points="1857.58,-84.8 1628.42,-84.8 1628.42,-48.8 1857.58,-48.8 1857.58,-84.8"/>
<text text-anchor="middle" x="1743" y="-62.6" font-family="Times,serif" font-size="14.00">RightsDropdownRendererComponent</text>
</g>
<!-- VcdSharingModalModule -->
<g id="node9" class="node">
<title>VcdSharingModalModule</title>
<polygon fill="#8dd3c7" stroke="black" points="1502.48,-149.8 1499.48,-153.8 1478.48,-153.8 1475.48,-149.8 1339.52,-149.8 1339.52,-113.8 1502.48,-113.8 1502.48,-149.8"/>
<text text-anchor="middle" x="1421" y="-127.6" font-family="Times,serif" font-size="14.00">VcdSharingModalModule</text>
</g>
<!-- RightsDropdownRendererComponent&#45;&gt;VcdSharingModalModule -->
<g id="edge1" class="edge">
<title>RightsDropdownRendererComponent&#45;&gt;VcdSharingModalModule</title>
<path fill="none" stroke="black" d="M1743,-85.04C1743,-100.37 1743,-119.8 1743,-119.8 1743,-119.8 1512.67,-119.8 1512.67,-119.8"/>
<polygon fill="black" stroke="black" points="1512.67,-116.3 1502.67,-119.8 1512.67,-123.3 1512.67,-116.3"/>
</g>
<!-- SharingModalComponent -->
<g id="node2" class="node">
<title>SharingModalComponent</title>
<polygon fill="#ffffb3" stroke="black" points="1610.94,-84.8 1449.06,-84.8 1449.06,-48.8 1610.94,-48.8 1610.94,-84.8"/>
<text text-anchor="middle" x="1530" y="-62.6" font-family="Times,serif" font-size="14.00">SharingModalComponent</text>
</g>
<!-- SharingModalComponent&#45;&gt;VcdSharingModalModule -->
<g id="edge2" class="edge">
<title>SharingModalComponent&#45;&gt;VcdSharingModalModule</title>
<path fill="none" stroke="black" d="M1475.89,-84.91C1475.89,-84.91 1475.89,-103.79 1475.89,-103.79"/>
<polygon fill="black" stroke="black" points="1472.39,-103.79 1475.89,-113.79 1479.39,-103.79 1472.39,-103.79"/>
</g>
<!-- SharingModalGroupRenderComponent -->
<g id="node3" class="node">
<title>SharingModalGroupRenderComponent</title>
<polygon fill="#ffffb3" stroke="black" points="1430.64,-84.8 1193.36,-84.8 1193.36,-48.8 1430.64,-48.8 1430.64,-84.8"/>
<text text-anchor="middle" x="1312" y="-62.6" font-family="Times,serif" font-size="14.00">SharingModalGroupRenderComponent</text>
</g>
<!-- SharingModalGroupRenderComponent&#45;&gt;VcdSharingModalModule -->
<g id="edge3" class="edge">
<title>SharingModalGroupRenderComponent&#45;&gt;VcdSharingModalModule</title>
<path fill="none" stroke="black" d="M1385.16,-84.91C1385.16,-84.91 1385.16,-103.79 1385.16,-103.79"/>
<polygon fill="black" stroke="black" points="1381.66,-103.79 1385.16,-113.79 1388.66,-103.79 1381.66,-103.79"/>
</g>
<!-- SharingModalOrgRenderComponent -->
<g id="node4" class="node">
<title>SharingModalOrgRenderComponent</title>
<polygon fill="#ffffb3" stroke="black" points="1174.64,-84.8 951.36,-84.8 951.36,-48.8 1174.64,-48.8 1174.64,-84.8"/>
<text text-anchor="middle" x="1063" y="-62.6" font-family="Times,serif" font-size="14.00">SharingModalOrgRenderComponent</text>
</g>
<!-- SharingModalOrgRenderComponent&#45;&gt;VcdSharingModalModule -->
<g id="edge4" class="edge">
<title>SharingModalOrgRenderComponent&#45;&gt;VcdSharingModalModule</title>
<path fill="none" stroke="black" d="M1063,-85.04C1063,-100.37 1063,-119.8 1063,-119.8 1063,-119.8 1329.32,-119.8 1329.32,-119.8"/>
<polygon fill="black" stroke="black" points="1329.32,-123.3 1339.32,-119.8 1329.32,-116.3 1329.32,-123.3"/>
</g>
<!-- SharingModalTabComponent -->
<g id="node5" class="node">
<title>SharingModalTabComponent</title>
<polygon fill="#ffffb3" stroke="black" points="933.7,-84.8 750.3,-84.8 750.3,-48.8 933.7,-48.8 933.7,-84.8"/>
<text text-anchor="middle" x="842" y="-62.6" font-family="Times,serif" font-size="14.00">SharingModalTabComponent</text>
</g>
<!-- SharingModalTabComponent&#45;&gt;VcdSharingModalModule -->
<g id="edge5" class="edge">
<title>SharingModalTabComponent&#45;&gt;VcdSharingModalModule</title>
<path fill="none" stroke="black" d="M842,-84.82C842,-102.17 842,-125.8 842,-125.8 842,-125.8 1329.27,-125.8 1329.27,-125.8"/>
<polygon fill="black" stroke="black" points="1329.27,-129.3 1339.27,-125.8 1329.27,-122.3 1329.27,-129.3"/>
</g>
<!-- SharingModalUserRenderComponent -->
<g id="node6" class="node">
<title>SharingModalUserRenderComponent</title>
<polygon fill="#ffffb3" stroke="black" points="732.3,-84.8 503.7,-84.8 503.7,-48.8 732.3,-48.8 732.3,-84.8"/>
<text text-anchor="middle" x="618" y="-62.6" font-family="Times,serif" font-size="14.00">SharingModalUserRenderComponent</text>
</g>
<!-- SharingModalUserRenderComponent&#45;&gt;VcdSharingModalModule -->
<g id="edge6" class="edge">
<title>SharingModalUserRenderComponent&#45;&gt;VcdSharingModalModule</title>
<path fill="none" stroke="black" d="M618,-84.91C618,-104.14 618,-131.8 618,-131.8 618,-131.8 1329.21,-131.8 1329.21,-131.8"/>
<polygon fill="black" stroke="black" points="1329.21,-135.3 1339.21,-131.8 1329.21,-128.3 1329.21,-135.3"/>
</g>
<!-- UsersGroupsOrgsSharingModalDirective -->
<g id="node7" class="node">
<title>UsersGroupsOrgsSharingModalDirective</title>
<polygon fill="#ffffb3" stroke="black" points="486.01,-84.8 237.99,-84.8 237.99,-48.8 486.01,-48.8 486.01,-84.8"/>
<text text-anchor="middle" x="362" y="-62.6" font-family="Times,serif" font-size="14.00">UsersGroupsOrgsSharingModalDirective</text>
</g>
<!-- UsersGroupsOrgsSharingModalDirective&#45;&gt;VcdSharingModalModule -->
<g id="edge7" class="edge">
<title>UsersGroupsOrgsSharingModalDirective&#45;&gt;VcdSharingModalModule</title>
<path fill="none" stroke="black" d="M362,-85.08C362,-106.12 362,-137.8 362,-137.8 362,-137.8 1329.22,-137.8 1329.22,-137.8"/>
<polygon fill="black" stroke="black" points="1329.22,-141.3 1339.22,-137.8 1329.22,-134.3 1329.22,-141.3"/>
</g>
<!-- VcdSelectAllToggleComponent -->
<g id="node8" class="node">
<title>VcdSelectAllToggleComponent</title>
<polygon fill="#ffffb3" stroke="black" points="220.41,-84.8 23.59,-84.8 23.59,-48.8 220.41,-48.8 220.41,-84.8"/>
<text text-anchor="middle" x="122" y="-62.6" font-family="Times,serif" font-size="14.00">VcdSelectAllToggleComponent</text>
</g>
<!-- VcdSelectAllToggleComponent&#45;&gt;VcdSharingModalModule -->
<g id="edge8" class="edge">
<title>VcdSelectAllToggleComponent&#45;&gt;VcdSharingModalModule</title>
<path fill="none" stroke="black" d="M122,-85.05C122,-107.82 122,-143.8 122,-143.8 122,-143.8 1329.25,-143.8 1329.25,-143.8"/>
<polygon fill="black" stroke="black" points="1329.25,-147.3 1339.25,-143.8 1329.25,-140.3 1329.25,-147.3"/>
</g>
<!-- SharingModalComponent  -->
<g id="node13" class="node">
<title>SharingModalComponent </title>
<polygon fill="#fb8072" stroke="black" points="1616.43,-214.8 1451.57,-214.8 1451.57,-178.8 1616.43,-178.8 1616.43,-214.8"/>
<text text-anchor="middle" x="1534" y="-192.6" font-family="Times,serif" font-size="14.00">SharingModalComponent </text>
</g>
<!-- VcdSharingModalModule&#45;&gt;SharingModalComponent  -->
<g id="edge12" class="edge">
<title>VcdSharingModalModule&#45;&gt;SharingModalComponent </title>
<path fill="none" stroke="black" stroke-dasharray="5,2" d="M1477.01,-149.91C1477.01,-149.91 1477.01,-168.79 1477.01,-168.79"/>
<polygon fill="black" stroke="black" points="1473.51,-168.79 1477.01,-178.79 1480.51,-168.79 1473.51,-168.79"/>
</g>
<!-- UsersGroupsOrgsSharingModalDirective  -->
<g id="node14" class="node">
<title>UsersGroupsOrgsSharingModalDirective </title>
<polygon fill="#fb8072" stroke="black" points="1434.01,-214.8 1181.99,-214.8 1181.99,-178.8 1434.01,-178.8 1434.01,-214.8"/>
<text text-anchor="middle" x="1308" y="-192.6" font-family="Times,serif" font-size="14.00">UsersGroupsOrgsSharingModalDirective </text>
</g>
<!-- VcdSharingModalModule&#45;&gt;UsersGroupsOrgsSharingModalDirective  -->
<g id="edge13" class="edge">
<title>VcdSharingModalModule&#45;&gt;UsersGroupsOrgsSharingModalDirective </title>
<path fill="none" stroke="black" stroke-dasharray="5,2" d="M1386.76,-149.91C1386.76,-149.91 1386.76,-168.79 1386.76,-168.79"/>
<polygon fill="black" stroke="black" points="1383.26,-168.79 1386.76,-178.79 1390.26,-168.79 1383.26,-168.79"/>
</g>
<!-- DropdownModule -->
<g id="node10" class="node">
<title>DropdownModule</title>
<polygon fill="#8dd3c7" stroke="black" points="2321.94,-84.8 2318.94,-88.8 2297.94,-88.8 2294.94,-84.8 2202.06,-84.8 2202.06,-48.8 2321.94,-48.8 2321.94,-84.8"/>
<text text-anchor="middle" x="2262" y="-62.6" font-family="Times,serif" font-size="14.00">DropdownModule</text>
</g>
<!-- DropdownModule&#45;&gt;VcdSharingModalModule -->
<g id="edge9" class="edge">
<title>DropdownModule&#45;&gt;VcdSharingModalModule</title>
<path fill="none" stroke="black" d="M2262,-85.08C2262,-106.12 2262,-137.8 2262,-137.8 2262,-137.8 1512.79,-137.8 1512.79,-137.8"/>
<polygon fill="black" stroke="black" points="1512.79,-134.3 1502.79,-137.8 1512.79,-141.3 1512.79,-134.3"/>
</g>
<!-- VcdDatagridModule -->
<g id="node11" class="node">
<title>VcdDatagridModule</title>
<polygon fill="#8dd3c7" stroke="black" points="2183.86,-84.8 2180.86,-88.8 2159.86,-88.8 2156.86,-84.8 2052.14,-84.8 2052.14,-48.8 2183.86,-48.8 2183.86,-84.8"/>
<text text-anchor="middle" x="2118" y="-62.6" font-family="Times,serif" font-size="14.00">VcdDatagridModule</text>
</g>
<!-- VcdDatagridModule&#45;&gt;VcdSharingModalModule -->
<g id="edge10" class="edge">
<title>VcdDatagridModule&#45;&gt;VcdSharingModalModule</title>
<path fill="none" stroke="black" d="M2118,-84.91C2118,-104.14 2118,-131.8 2118,-131.8 2118,-131.8 1512.66,-131.8 1512.66,-131.8"/>
<polygon fill="black" stroke="black" points="1512.66,-128.3 1502.66,-131.8 1512.66,-135.3 1512.66,-128.3"/>
</g>
<!-- VcdErrorBannerModule -->
<g id="node12" class="node">
<title>VcdErrorBannerModule</title>
<polygon fill="#8dd3c7" stroke="black" points="2034.34,-84.8 2031.34,-88.8 2010.34,-88.8 2007.34,-84.8 1881.66,-84.8 1881.66,-48.8 2034.34,-48.8 2034.34,-84.8"/>
<text text-anchor="middle" x="1958" y="-62.6" font-family="Times,serif" font-size="14.00">VcdErrorBannerModule</text>
</g>
<!-- VcdErrorBannerModule&#45;&gt;VcdSharingModalModule -->
<g id="edge11" class="edge">
<title>VcdErrorBannerModule&#45;&gt;VcdSharingModalModule</title>
<path fill="none" stroke="black" d="M1958,-84.82C1958,-102.17 1958,-125.8 1958,-125.8 1958,-125.8 1512.56,-125.8 1512.56,-125.8"/>
<polygon fill="black" stroke="black" points="1512.56,-122.3 1502.56,-125.8 1512.56,-129.3 1512.56,-122.3"/>
</g>
<!-- RestQueryService -->
<g id="node15" class="node">
<title>RestQueryService</title>
<ellipse fill="#fdb462" stroke="black" cx="2427" cy="-66.8" rx="81.09" ry="18"/>
<text text-anchor="middle" x="2427" y="-62.6" font-family="Times,serif" font-size="14.00">RestQueryService</text>
</g>
<!-- RestQueryService&#45;&gt;VcdSharingModalModule -->
<g id="edge14" class="edge">
<title>RestQueryService&#45;&gt;VcdSharingModalModule</title>
<path fill="none" stroke="black" d="M2427,-85.05C2427,-107.82 2427,-143.8 2427,-143.8 2427,-143.8 1512.9,-143.8 1512.9,-143.8"/>
<polygon fill="black" stroke="black" points="1512.9,-140.3 1502.9,-143.8 1512.9,-147.3 1512.9,-140.3"/>
</g>
</g>
</svg>
