<?xml version="1.0" encoding="UTF-8" standalone="no"?>
<!DOCTYPE svg PUBLIC "-//W3C//DTD SVG 1.1//EN"
 "http://www.w3.org/Graphics/SVG/1.1/DTD/svg11.dtd">
<!-- Generated by graphviz version 2.40.1 (20161225.0304)
 -->
<!-- Title: dependencies Pages: 1 -->
<svg width="2540pt" height="284pt"
 viewBox="0.00 0.00 2540.00 284.00" xmlns="http://www.w3.org/2000/svg" xmlns:xlink="http://www.w3.org/1999/xlink">
<g id="graph0" class="graph" transform="scale(1 1) rotate(0) translate(4 280)">
<title>dependencies</title>
<polygon fill="#ffffff" stroke="transparent" points="-4,4 -4,-280 2536,-280 2536,4 -4,4"/>
<text text-anchor="start" x="1245.0091" y="-42.4" font-family="sans-serif" font-weight="bold" font-size="14.00" fill="#000000">Legend</text>
<polygon fill="#ffffb3" stroke="transparent" points="1032,-10 1032,-30 1052,-30 1052,-10 1032,-10"/>
<text text-anchor="start" x="1055.629" y="-15.4" font-family="sans-serif" font-size="14.00" fill="#000000"> &#160;Declarations</text>
<polygon fill="#8dd3c7" stroke="transparent" points="1145,-10 1145,-30 1165,-30 1165,-10 1145,-10"/>
<text text-anchor="start" x="1168.7251" y="-15.4" font-family="sans-serif" font-size="14.00" fill="#000000"> &#160;Module</text>
<polygon fill="#80b1d3" stroke="transparent" points="1231,-10 1231,-30 1251,-30 1251,-10 1231,-10"/>
<text text-anchor="start" x="1254.7812" y="-15.4" font-family="sans-serif" font-size="14.00" fill="#000000"> &#160;Bootstrap</text>
<polygon fill="#fdb462" stroke="transparent" points="1328,-10 1328,-30 1348,-30 1348,-10 1328,-10"/>
<text text-anchor="start" x="1351.6732" y="-15.4" font-family="sans-serif" font-size="14.00" fill="#000000"> &#160;Providers</text>
<polygon fill="#fb8072" stroke="transparent" points="1424,-10 1424,-30 1444,-30 1444,-10 1424,-10"/>
<text text-anchor="start" x="1447.7258" y="-15.4" font-family="sans-serif" font-size="14.00" fill="#000000"> &#160;Exports</text>
<g id="clust1" class="cluster">
<title>cluster_VcdSharingModalModule</title>
<polygon fill="none" stroke="#000000" stroke-dasharray="1,5" points="8,-70 8,-268 2524,-268 2524,-70 8,-70"/>
</g>
<g id="clust2" class="cluster">
<title>cluster_VcdSharingModalModule_declarations</title>
<polygon fill="none" stroke="#000000" points="666,-78 666,-130 2516,-130 2516,-78 666,-78"/>
</g>
<g id="clust11" class="cluster">
<title>cluster_VcdSharingModalModule_imports</title>
<polygon fill="none" stroke="#000000" points="202,-78 202,-130 658,-130 658,-78 202,-78"/>
</g>
<g id="clust12" class="cluster">
<title>cluster_VcdSharingModalModule_exports</title>
<polygon fill="none" stroke="#000000" points="893,-208 893,-260 1343,-260 1343,-208 893,-208"/>
</g>
<g id="clust14" class="cluster">
<title>cluster_VcdSharingModalModule_providers</title>
<polygon fill="none" stroke="#000000" points="16,-78 16,-130 194,-130 194,-78 16,-78"/>
</g>
<!-- RightsDropdownRendererComponent -->
<g id="node1" class="node">
<title>RightsDropdownRendererComponent</title>
<polygon fill="#ffffb3" stroke="#000000" points="2507.5702,-122 2278.4298,-122 2278.4298,-86 2507.5702,-86 2507.5702,-122"/>
<text text-anchor="middle" x="2393" y="-99.8" font-family="Times,serif" font-size="14.00" fill="#000000">RightsDropdownRendererComponent</text>
</g>
<!-- VcdSharingModalModule -->
<g id="node9" class="node">
<title>VcdSharingModalModule</title>
<polygon fill="#8dd3c7" stroke="#000000" points="1221.4692,-187 1218.4692,-191 1197.4692,-191 1194.4692,-187 1058.5308,-187 1058.5308,-151 1221.4692,-151 1221.4692,-187"/>
<text text-anchor="middle" x="1140" y="-164.8" font-family="Times,serif" font-size="14.00" fill="#000000">VcdSharingModalModule</text>
</g>
<!-- RightsDropdownRendererComponent&#45;&gt;VcdSharingModalModule -->
<g id="edge1" class="edge">
<title>RightsDropdownRendererComponent&#45;&gt;VcdSharingModalModule</title>
<path fill="none" stroke="#000000" d="M2393,-122.2479C2393,-145.0179 2393,-181 2393,-181 2393,-181 1231.7295,-181 1231.7295,-181"/>
<polygon fill="#000000" stroke="#000000" points="1231.7295,-177.5001 1221.7295,-181 1231.7295,-184.5001 1231.7295,-177.5001"/>
</g>
<!-- SharingModalComponent -->
<g id="node2" class="node">
<title>SharingModalComponent</title>
<polygon fill="#ffffb3" stroke="#000000" points="2260.9312,-122 2099.0688,-122 2099.0688,-86 2260.9312,-86 2260.9312,-122"/>
<text text-anchor="middle" x="2180" y="-99.8" font-family="Times,serif" font-size="14.00" fill="#000000">SharingModalComponent</text>
</g>
<!-- SharingModalComponent&#45;&gt;VcdSharingModalModule -->
<g id="edge2" class="edge">
<title>SharingModalComponent&#45;&gt;VcdSharingModalModule</title>
<path fill="none" stroke="#000000" d="M2180,-122.2843C2180,-143.3211 2180,-175 2180,-175 2180,-175 1231.6071,-175 1231.6071,-175"/>
<polygon fill="#000000" stroke="#000000" points="1231.6071,-171.5001 1221.6071,-175 1231.607,-178.5001 1231.6071,-171.5001"/>
</g>
<!-- SharingModalGroupRenderComponent -->
<g id="node3" class="node">
<title>SharingModalGroupRenderComponent</title>
<polygon fill="#ffffb3" stroke="#000000" points="2080.6245,-122 1843.3755,-122 1843.3755,-86 2080.6245,-86 2080.6245,-122"/>
<text text-anchor="middle" x="1962" y="-99.8" font-family="Times,serif" font-size="14.00" fill="#000000">SharingModalGroupRenderComponent</text>
</g>
<!-- SharingModalGroupRenderComponent&#45;&gt;VcdSharingModalModule -->
<g id="edge3" class="edge">
<title>SharingModalGroupRenderComponent&#45;&gt;VcdSharingModalModule</title>
<path fill="none" stroke="#000000" d="M1962,-122.1061C1962,-141.3391 1962,-169 1962,-169 1962,-169 1231.8217,-169 1231.8217,-169"/>
<polygon fill="#000000" stroke="#000000" points="1231.8217,-165.5001 1221.8217,-169 1231.8216,-172.5001 1231.8217,-165.5001"/>
</g>
<!-- SharingModalOrgRenderComponent -->
<g id="node4" class="node">
<title>SharingModalOrgRenderComponent</title>
<polygon fill="#ffffb3" stroke="#000000" points="1824.6245,-122 1601.3755,-122 1601.3755,-86 1824.6245,-86 1824.6245,-122"/>
<text text-anchor="middle" x="1713" y="-99.8" font-family="Times,serif" font-size="14.00" fill="#000000">SharingModalOrgRenderComponent</text>
</g>
<!-- SharingModalOrgRenderComponent&#45;&gt;VcdSharingModalModule -->
<g id="edge4" class="edge">
<title>SharingModalOrgRenderComponent&#45;&gt;VcdSharingModalModule</title>
<path fill="none" stroke="#000000" d="M1713,-122.0225C1713,-139.3734 1713,-163 1713,-163 1713,-163 1231.4884,-163 1231.4884,-163"/>
<polygon fill="#000000" stroke="#000000" points="1231.4884,-159.5001 1221.4884,-163 1231.4884,-166.5001 1231.4884,-159.5001"/>
</g>
<!-- SharingModalTabComponent -->
<g id="node5" class="node">
<title>SharingModalTabComponent</title>
<polygon fill="#ffffb3" stroke="#000000" points="1583.6979,-122 1400.3021,-122 1400.3021,-86 1583.6979,-86 1583.6979,-122"/>
<text text-anchor="middle" x="1492" y="-99.8" font-family="Times,serif" font-size="14.00" fill="#000000">SharingModalTabComponent</text>
</g>
<!-- SharingModalTabComponent&#45;&gt;VcdSharingModalModule -->
<g id="edge5" class="edge">
<title>SharingModalTabComponent&#45;&gt;VcdSharingModalModule</title>
<path fill="none" stroke="#000000" d="M1492,-122.2396C1492,-137.5706 1492,-157 1492,-157 1492,-157 1231.6406,-157 1231.6406,-157"/>
<polygon fill="#000000" stroke="#000000" points="1231.6407,-153.5001 1221.6406,-157 1231.6406,-160.5001 1231.6407,-153.5001"/>
</g>
<!-- SharingModalUserRenderComponent -->
<g id="node6" class="node">
<title>SharingModalUserRenderComponent</title>
<polygon fill="#ffffb3" stroke="#000000" points="1382.2836,-122 1153.7164,-122 1153.7164,-86 1382.2836,-86 1382.2836,-122"/>
<text text-anchor="middle" x="1268" y="-99.8" font-family="Times,serif" font-size="14.00" fill="#000000">SharingModalUserRenderComponent</text>
</g>
<!-- SharingModalUserRenderComponent&#45;&gt;VcdSharingModalModule -->
<g id="edge6" class="edge">
<title>SharingModalUserRenderComponent&#45;&gt;VcdSharingModalModule</title>
<path fill="none" stroke="#000000" d="M1187.6715,-122.1061C1187.6715,-122.1061 1187.6715,-140.991 1187.6715,-140.991"/>
<polygon fill="#000000" stroke="#000000" points="1184.1715,-140.9909 1187.6715,-150.991 1191.1715,-140.991 1184.1715,-140.9909"/>
</g>
<!-- UsersGroupsOrgsSharingModalDirective -->
<g id="node7" class="node">
<title>UsersGroupsOrgsSharingModalDirective</title>
<polygon fill="#ffffb3" stroke="#000000" points="1136.4761,-122 887.5239,-122 887.5239,-86 1136.4761,-86 1136.4761,-122"/>
<text text-anchor="middle" x="1012" y="-99.8" font-family="Times,serif" font-size="14.00" fill="#000000">UsersGroupsOrgsSharingModalDirective</text>
</g>
<!-- UsersGroupsOrgsSharingModalDirective&#45;&gt;VcdSharingModalModule -->
<g id="edge7" class="edge">
<title>UsersGroupsOrgsSharingModalDirective&#45;&gt;VcdSharingModalModule</title>
<path fill="none" stroke="#000000" d="M1097.3766,-122.1061C1097.3766,-122.1061 1097.3766,-140.991 1097.3766,-140.991"/>
<polygon fill="#000000" stroke="#000000" points="1093.8767,-140.9909 1097.3766,-150.991 1100.8767,-140.991 1093.8767,-140.9909"/>
</g>
<!-- VcdSelectAllToggleComponent -->
<g id="node8" class="node">
<title>VcdSelectAllToggleComponent</title>
<polygon fill="#ffffb3" stroke="#000000" points="870.4072,-122 673.5928,-122 673.5928,-86 870.4072,-86 870.4072,-122"/>
<text text-anchor="middle" x="772" y="-99.8" font-family="Times,serif" font-size="14.00" fill="#000000">VcdSelectAllToggleComponent</text>
</g>
<!-- VcdSelectAllToggleComponent&#45;&gt;VcdSharingModalModule -->
<g id="edge8" class="edge">
<title>VcdSelectAllToggleComponent&#45;&gt;VcdSharingModalModule</title>
<path fill="none" stroke="#000000" d="M772,-122.2396C772,-137.5706 772,-157 772,-157 772,-157 1048.3289,-157 1048.3289,-157"/>
<polygon fill="#000000" stroke="#000000" points="1048.3289,-160.5001 1058.3289,-157 1048.3288,-153.5001 1048.3289,-160.5001"/>
</g>
<!-- SharingModalComponent  -->
<g id="node13" class="node">
<title>SharingModalComponent </title>
<polygon fill="#fb8072" stroke="#000000" points="1335.4306,-252 1170.5694,-252 1170.5694,-216 1335.4306,-216 1335.4306,-252"/>
<text text-anchor="middle" x="1253" y="-229.8" font-family="Times,serif" font-size="14.00" fill="#000000">SharingModalComponent </text>
</g>
<!-- VcdSharingModalModule&#45;&gt;SharingModalComponent  -->
<g id="edge12" class="edge">
<title>VcdSharingModalModule&#45;&gt;SharingModalComponent </title>
<path fill="none" stroke="#000000" stroke-dasharray="5,2" d="M1196.0097,-187.1061C1196.0097,-187.1061 1196.0097,-205.991 1196.0097,-205.991"/>
<polygon fill="#000000" stroke="#000000" points="1192.5097,-205.9909 1196.0097,-215.991 1199.5097,-205.991 1192.5097,-205.9909"/>
</g>
<!-- UsersGroupsOrgsSharingModalDirective  -->
<g id="node14" class="node">
<title>UsersGroupsOrgsSharingModalDirective </title>
<polygon fill="#fb8072" stroke="#000000" points="1152.9756,-252 901.0244,-252 901.0244,-216 1152.9756,-216 1152.9756,-252"/>
<text text-anchor="middle" x="1027" y="-229.8" font-family="Times,serif" font-size="14.00" fill="#000000">UsersGroupsOrgsSharingModalDirective </text>
</g>
<!-- VcdSharingModalModule&#45;&gt;UsersGroupsOrgsSharingModalDirective  -->
<g id="edge13" class="edge">
<title>VcdSharingModalModule&#45;&gt;UsersGroupsOrgsSharingModalDirective </title>
<path fill="none" stroke="#000000" stroke-dasharray="5,2" d="M1105.7516,-187.1061C1105.7516,-187.1061 1105.7516,-205.991 1105.7516,-205.991"/>
<polygon fill="#000000" stroke="#000000" points="1102.2517,-205.9909 1105.7516,-215.991 1109.2517,-205.991 1102.2517,-205.9909"/>
</g>
<!-- DropdownModule -->
<g id="node10" class="node">
<title>DropdownModule</title>
<polygon fill="#8dd3c7" stroke="#000000" points="649.9244,-122 646.9244,-126 625.9244,-126 622.9244,-122 530.0756,-122 530.0756,-86 649.9244,-86 649.9244,-122"/>
<text text-anchor="middle" x="590" y="-99.8" font-family="Times,serif" font-size="14.00" fill="#000000">DropdownModule</text>
</g>
<!-- DropdownModule&#45;&gt;VcdSharingModalModule -->
<g id="edge9" class="edge">
<title>DropdownModule&#45;&gt;VcdSharingModalModule</title>
<path fill="none" stroke="#000000" d="M590,-122.0225C590,-139.3734 590,-163 590,-163 590,-163 1048.2533,-163 1048.2533,-163"/>
<polygon fill="#000000" stroke="#000000" points="1048.2534,-166.5001 1058.2533,-163 1048.2533,-159.5001 1048.2534,-166.5001"/>
</g>
<!-- VcdDatagridModule -->
<g id="node11" class="node">
<title>VcdDatagridModule</title>
<polygon fill="#8dd3c7" stroke="#000000" points="511.8487,-122 508.8487,-126 487.8487,-126 484.8487,-122 380.1513,-122 380.1513,-86 511.8487,-86 511.8487,-122"/>
<text text-anchor="middle" x="446" y="-99.8" font-family="Times,serif" font-size="14.00" fill="#000000">VcdDatagridModule</text>
</g>
<!-- VcdDatagridModule&#45;&gt;VcdSharingModalModule -->
<g id="edge10" class="edge">
<title>VcdDatagridModule&#45;&gt;VcdSharingModalModule</title>
<path fill="none" stroke="#000000" d="M446,-122.1061C446,-141.3391 446,-169 446,-169 446,-169 1048.3486,-169 1048.3486,-169"/>
<polygon fill="#000000" stroke="#000000" points="1048.3486,-172.5001 1058.3486,-169 1048.3486,-165.5001 1048.3486,-172.5001"/>
</g>
<!-- VcdErrorBannerModule -->
<g id="node12" class="node">
<title>VcdErrorBannerModule</title>
<polygon fill="#8dd3c7" stroke="#000000" points="362.3319,-122 359.3319,-126 338.3319,-126 335.3319,-122 209.6681,-122 209.6681,-86 362.3319,-86 362.3319,-122"/>
<text text-anchor="middle" x="286" y="-99.8" font-family="Times,serif" font-size="14.00" fill="#000000">VcdErrorBannerModule</text>
</g>
<!-- VcdErrorBannerModule&#45;&gt;VcdSharingModalModule -->
<g id="edge11" class="edge">
<title>VcdErrorBannerModule&#45;&gt;VcdSharingModalModule</title>
<path fill="none" stroke="#000000" d="M286,-122.2843C286,-143.3211 286,-175 286,-175 286,-175 1048.5017,-175 1048.5017,-175"/>
<polygon fill="#000000" stroke="#000000" points="1048.5018,-178.5001 1058.5017,-175 1048.5017,-171.5001 1048.5018,-178.5001"/>
</g>
<!-- RestQueryService -->
<g id="node15" class="node">
<title>RestQueryService</title>
<ellipse fill="#fdb462" stroke="#000000" cx="105" cy="-104" rx="81.0763" ry="18"/>
<text text-anchor="middle" x="105" y="-99.8" font-family="Times,serif" font-size="14.00" fill="#000000">RestQueryService</text>
</g>
<!-- RestQueryService&#45;&gt;VcdSharingModalModule -->
<g id="edge14" class="edge">
<title>RestQueryService&#45;&gt;VcdSharingModalModule</title>
<path fill="none" stroke="#000000" d="M105,-122.2479C105,-145.0179 105,-181 105,-181 105,-181 1048.3532,-181 1048.3532,-181"/>
<polygon fill="#000000" stroke="#000000" points="1048.3532,-184.5001 1058.3532,-181 1048.3532,-177.5001 1048.3532,-184.5001"/>
</g>
</g>
</svg>
