<?xml version="1.0" encoding="UTF-8" standalone="no"?>
<!DOCTYPE svg PUBLIC "-//W3C//DTD SVG 1.1//EN"
 "http://www.w3.org/Graphics/SVG/1.1/DTD/svg11.dtd">
<!-- Generated by graphviz version 2.40.1 (20161225.0304)
 -->
<!-- Title: dependencies Pages: 1 -->
<svg width="504pt" height="284pt"
 viewBox="0.00 0.00 504.00 284.00" xmlns="http://www.w3.org/2000/svg" xmlns:xlink="http://www.w3.org/1999/xlink">
<g id="graph0" class="graph" transform="scale(1 1) rotate(0) translate(4 280)">
<title>dependencies</title>
<polygon fill="#ffffff" stroke="transparent" points="-4,4 -4,-280 500,-280 500,4 -4,4"/>
<text text-anchor="start" x="227.0091" y="-42.4" font-family="sans-serif" font-weight="bold" font-size="14.00" fill="#000000">Legend</text>
<polygon fill="#ffffb3" stroke="transparent" points="14,-10 14,-30 34,-30 34,-10 14,-10"/>
<text text-anchor="start" x="37.629" y="-15.4" font-family="sans-serif" font-size="14.00" fill="#000000"> &#160;Declarations</text>
<polygon fill="#8dd3c7" stroke="transparent" points="127,-10 127,-30 147,-30 147,-10 127,-10"/>
<text text-anchor="start" x="150.7251" y="-15.4" font-family="sans-serif" font-size="14.00" fill="#000000"> &#160;Module</text>
<polygon fill="#80b1d3" stroke="transparent" points="213,-10 213,-30 233,-30 233,-10 213,-10"/>
<text text-anchor="start" x="236.7812" y="-15.4" font-family="sans-serif" font-size="14.00" fill="#000000"> &#160;Bootstrap</text>
<polygon fill="#fdb462" stroke="transparent" points="310,-10 310,-30 330,-30 330,-10 310,-10"/>
<text text-anchor="start" x="333.6732" y="-15.4" font-family="sans-serif" font-size="14.00" fill="#000000"> &#160;Providers</text>
<polygon fill="#fb8072" stroke="transparent" points="406,-10 406,-30 426,-30 426,-10 406,-10"/>
<text text-anchor="start" x="429.7258" y="-15.4" font-family="sans-serif" font-size="14.00" fill="#000000"> &#160;Exports</text>
<g id="clust1" class="cluster">
<title>cluster_SpotlightSearchModule</title>
<polygon fill="none" stroke="#000000" stroke-dasharray="1,5" points="33,-70 33,-268 463,-268 463,-70 33,-70"/>
</g>
<g id="clust2" class="cluster">
<title>cluster_SpotlightSearchModule_declarations</title>
<polygon fill="none" stroke="#000000" points="269,-78 269,-130 455,-130 455,-78 269,-78"/>
</g>
<g id="clust5" class="cluster">
<title>cluster_SpotlightSearchModule_exports</title>
<polygon fill="none" stroke="#000000" points="160,-208 160,-260 350,-260 350,-208 160,-208"/>
</g>
<g id="clust7" class="cluster">
<title>cluster_SpotlightSearchModule_providers</title>
<polygon fill="none" stroke="#000000" points="41,-78 41,-130 261,-130 261,-78 41,-78"/>
</g>
<!-- SpotlightSearchComponent -->
<g id="node1" class="node">
<title>SpotlightSearchComponent</title>
<polygon fill="#ffffb3" stroke="#000000" points="447.2646,-122 276.7354,-122 276.7354,-86 447.2646,-86 447.2646,-122"/>
<text text-anchor="middle" x="362" y="-99.8" font-family="Times,serif" font-size="14.00" fill="#000000">SpotlightSearchComponent</text>
</g>
<!-- SpotlightSearchModule -->
<g id="node2" class="node">
<title>SpotlightSearchModule</title>
<polygon fill="#8dd3c7" stroke="#000000" points="329.4818,-187 326.4818,-191 305.4818,-191 302.4818,-187 180.5182,-187 180.5182,-151 329.4818,-151 329.4818,-187"/>
<text text-anchor="middle" x="255" y="-164.8" font-family="Times,serif" font-size="14.00" fill="#000000">SpotlightSearchModule</text>
</g>
<!-- SpotlightSearchComponent&#45;&gt;SpotlightSearchModule -->
<g id="edge1" class="edge">
<title>SpotlightSearchComponent&#45;&gt;SpotlightSearchModule</title>
<path fill="none" stroke="#000000" d="M303.0544,-122.1061C303.0544,-122.1061 303.0544,-140.991 303.0544,-140.991"/>
<polygon fill="#000000" stroke="#000000" points="299.5544,-140.9909 303.0544,-150.991 306.5544,-140.991 299.5544,-140.9909"/>
</g>
<!-- SpotlightSearchComponent  -->
<g id="node3" class="node">
<title>SpotlightSearchComponent </title>
<polygon fill="#fb8072" stroke="#000000" points="342.2646,-252 167.7354,-252 167.7354,-216 342.2646,-216 342.2646,-252"/>
<text text-anchor="middle" x="255" y="-229.8" font-family="Times,serif" font-size="14.00" fill="#000000">SpotlightSearchComponent </text>
</g>
<!-- SpotlightSearchModule&#45;&gt;SpotlightSearchComponent  -->
<g id="edge2" class="edge">
<title>SpotlightSearchModule&#45;&gt;SpotlightSearchComponent </title>
<path fill="none" stroke="#000000" stroke-dasharray="5,2" d="M255,-187.1061C255,-187.1061 255,-205.991 255,-205.991"/>
<polygon fill="#000000" stroke="#000000" points="251.5001,-205.9909 255,-215.991 258.5001,-205.991 251.5001,-205.9909"/>
</g>
<!-- SpotlightSearchService -->
<g id="node4" class="node">
<title>SpotlightSearchService</title>
<ellipse fill="#fdb462" stroke="#000000" cx="151" cy="-104" rx="101.8612" ry="18"/>
<text text-anchor="middle" x="151" y="-99.8" font-family="Times,serif" font-size="14.00" fill="#000000">SpotlightSearchService</text>
</g>
<!-- SpotlightSearchService&#45;&gt;SpotlightSearchModule -->
<g id="edge3" class="edge">
<title>SpotlightSearchService&#45;&gt;SpotlightSearchModule</title>
<path fill="none" stroke="#000000" d="M216.5948,-117.7848C216.5948,-117.7848 216.5948,-140.5475 216.5948,-140.5475"/>
<polygon fill="#000000" stroke="#000000" points="213.0949,-140.5474 216.5948,-150.5475 220.0949,-140.5475 213.0949,-140.5474"/>
</g>
</g>
</svg>
