<?xml version="1.0" encoding="UTF-8" standalone="no"?>
<!DOCTYPE svg PUBLIC "-//W3C//DTD SVG 1.1//EN"
 "http://www.w3.org/Graphics/SVG/1.1/DTD/svg11.dtd">
<!-- Generated by graphviz version 5.0.0 (20220707.1540)
 -->
<!-- Title: dependencies Pages: 1 -->
<svg width="1358pt" height="247pt"
 viewBox="0.00 0.00 1358.00 246.80" xmlns="http://www.w3.org/2000/svg" xmlns:xlink="http://www.w3.org/1999/xlink">
<g id="graph0" class="graph" transform="scale(1 1) rotate(0) translate(4 242.8)">
<title>dependencies</title>
<polygon fill="white" stroke="transparent" points="-4,4 -4,-242.8 1354,-242.8 1354,4 -4,4"/>
<text text-anchor="middle" x="675" y="-8.2" font-family="sans-serif" font-size="14.00">dependencies</text>
<g id="clust1" class="cluster">
<title>cluster_VcdFormModule</title>
<polygon fill="none" stroke="black" stroke-dasharray="1,5" points="8,-32.8 8,-230.8 1342,-230.8 1342,-32.8 8,-32.8"/>
</g>
<g id="clust2" class="cluster">
<title>cluster_VcdFormModule_declarations</title>
<polygon fill="none" stroke="black" points="568,-40.8 568,-92.8 1334,-92.8 1334,-40.8 568,-40.8"/>
</g>
<g id="clust7" class="cluster">
<title>cluster_VcdFormModule_imports</title>
<polygon fill="none" stroke="black" points="172,-40.8 172,-92.8 560,-92.8 560,-40.8 172,-40.8"/>
</g>
<g id="clust10" class="cluster">
<title>cluster_VcdFormModule_providers</title>
<polygon fill="none" stroke="black" points="16,-40.8 16,-92.8 164,-92.8 164,-40.8 16,-40.8"/>
</g>
<g id="clust8" class="cluster">
<title>cluster_VcdFormModule_exports</title>
<polygon fill="none" stroke="black" points="125,-170.8 125,-222.8 1131,-222.8 1131,-170.8 125,-170.8"/>
</g>
<!-- FormCheckboxComponent -->
<g id="node1" class="node">
<title>FormCheckboxComponent</title>
<polygon fill="#ffffb3" stroke="black" points="1326.44,-84.8 1157.56,-84.8 1157.56,-48.8 1326.44,-48.8 1326.44,-84.8"/>
<text text-anchor="middle" x="1242" y="-62.6" font-family="Times,serif" font-size="14.00">FormCheckboxComponent</text>
</g>
<!-- VcdFormModule -->
<g id="node5" class="node">
<title>VcdFormModule</title>
<polygon fill="#8dd3c7" stroke="black" points="752.71,-149.8 749.71,-153.8 728.71,-153.8 725.71,-149.8 639.29,-149.8 639.29,-113.8 752.71,-113.8 752.71,-149.8"/>
<text text-anchor="middle" x="696" y="-127.6" font-family="Times,serif" font-size="14.00">VcdFormModule</text>
</g>
<!-- FormCheckboxComponent&#45;&gt;VcdFormModule -->
<g id="edge1" class="edge">
<title>FormCheckboxComponent&#45;&gt;VcdFormModule</title>
<path fill="none" stroke="black" d="M1242,-84.91C1242,-104.14 1242,-131.8 1242,-131.8 1242,-131.8 762.63,-131.8 762.63,-131.8"/>
<polygon fill="black" stroke="black" points="762.63,-128.3 752.63,-131.8 762.63,-135.3 762.63,-128.3"/>
</g>
<!-- FormInputComponent -->
<g id="node2" class="node">
<title>FormInputComponent</title>
<polygon fill="#ffffb3" stroke="black" points="1139.72,-84.8 998.28,-84.8 998.28,-48.8 1139.72,-48.8 1139.72,-84.8"/>
<text text-anchor="middle" x="1069" y="-62.6" font-family="Times,serif" font-size="14.00">FormInputComponent</text>
</g>
<!-- FormInputComponent&#45;&gt;VcdFormModule -->
<g id="edge2" class="edge">
<title>FormInputComponent&#45;&gt;VcdFormModule</title>
<path fill="none" stroke="black" d="M1060.68,-84.82C1060.68,-102.17 1060.68,-125.8 1060.68,-125.8 1060.68,-125.8 762.98,-125.8 762.98,-125.8"/>
<polygon fill="black" stroke="black" points="762.98,-122.3 752.98,-125.8 762.98,-129.3 762.98,-122.3"/>
</g>
<!-- FormSelectComponent -->
<g id="node3" class="node">
<title>FormSelectComponent</title>
<polygon fill="#ffffb3" stroke="black" points="979.88,-84.8 834.12,-84.8 834.12,-48.8 979.88,-48.8 979.88,-84.8"/>
<text text-anchor="middle" x="907" y="-62.6" font-family="Times,serif" font-size="14.00">FormSelectComponent</text>
</g>
<!-- FormSelectComponent&#45;&gt;VcdFormModule -->
<g id="edge3" class="edge">
<title>FormSelectComponent&#45;&gt;VcdFormModule</title>
<path fill="none" stroke="black" d="M883.71,-85.04C883.71,-100.37 883.71,-119.8 883.71,-119.8 883.71,-119.8 762.83,-119.8 762.83,-119.8"/>
<polygon fill="black" stroke="black" points="762.83,-116.3 752.83,-119.8 762.83,-123.3 762.83,-116.3"/>
</g>
<!-- NumberWithUnitFormInputComponent -->
<g id="node4" class="node">
<title>NumberWithUnitFormInputComponent</title>
<polygon fill="#ffffb3" stroke="black" points="815.98,-84.8 576.02,-84.8 576.02,-48.8 815.98,-48.8 815.98,-84.8"/>
<text text-anchor="middle" x="696" y="-62.6" font-family="Times,serif" font-size="14.00">NumberWithUnitFormInputComponent</text>
</g>
<!-- NumberWithUnitFormInputComponent&#45;&gt;VcdFormModule -->
<g id="edge4" class="edge">
<title>NumberWithUnitFormInputComponent&#45;&gt;VcdFormModule</title>
<path fill="none" stroke="black" d="M696,-84.91C696,-84.91 696,-103.79 696,-103.79"/>
<polygon fill="black" stroke="black" points="692.5,-103.79 696,-113.79 699.5,-103.79 692.5,-103.79"/>
</g>
<!-- FormCheckboxComponent  -->
<g id="node8" class="node">
<title>FormCheckboxComponent </title>
<polygon fill="#fb8072" stroke="black" points="1122.93,-214.8 951.07,-214.8 951.07,-178.8 1122.93,-178.8 1122.93,-214.8"/>
<text text-anchor="middle" x="1037" y="-192.6" font-family="Times,serif" font-size="14.00">FormCheckboxComponent </text>
</g>
<!-- VcdFormModule&#45;&gt;FormCheckboxComponent  -->
<g id="edge7" class="edge">
<title>VcdFormModule&#45;&gt;FormCheckboxComponent </title>
<path fill="none" stroke="black" stroke-dasharray="5,2" d="M752.82,-137.8C831.89,-137.8 965.49,-137.8 965.49,-137.8 965.49,-137.8 965.49,-168.78 965.49,-168.78"/>
<polygon fill="black" stroke="black" points="961.99,-168.78 965.49,-178.78 968.99,-168.78 961.99,-168.78"/>
</g>
<!-- FormInputComponent  -->
<g id="node9" class="node">
<title>FormInputComponent </title>
<polygon fill="#fb8072" stroke="black" points="933.22,-214.8 788.78,-214.8 788.78,-178.8 933.22,-178.8 933.22,-214.8"/>
<text text-anchor="middle" x="861" y="-192.6" font-family="Times,serif" font-size="14.00">FormInputComponent </text>
</g>
<!-- VcdFormModule&#45;&gt;FormInputComponent  -->
<g id="edge8" class="edge">
<title>VcdFormModule&#45;&gt;FormInputComponent </title>
<path fill="none" stroke="black" stroke-dasharray="5,2" d="M752.89,-143.8C778.17,-143.8 802.31,-143.8 802.31,-143.8 802.31,-143.8 802.31,-168.56 802.31,-168.56"/>
<polygon fill="black" stroke="black" points="798.81,-168.56 802.31,-178.56 805.81,-168.56 798.81,-168.56"/>
</g>
<!-- FormSelectComponent  -->
<g id="node10" class="node">
<title>FormSelectComponent </title>
<polygon fill="#fb8072" stroke="black" points="770.88,-214.8 621.12,-214.8 621.12,-178.8 770.88,-178.8 770.88,-214.8"/>
<text text-anchor="middle" x="696" y="-192.6" font-family="Times,serif" font-size="14.00">FormSelectComponent </text>
</g>
<!-- VcdFormModule&#45;&gt;FormSelectComponent  -->
<g id="edge9" class="edge">
<title>VcdFormModule&#45;&gt;FormSelectComponent </title>
<path fill="none" stroke="black" stroke-dasharray="5,2" d="M696,-149.91C696,-149.91 696,-168.79 696,-168.79"/>
<polygon fill="black" stroke="black" points="692.5,-168.79 696,-178.79 699.5,-168.79 692.5,-168.79"/>
</g>
<!-- NumberWithUnitFormInputComponent  -->
<g id="node11" class="node">
<title>NumberWithUnitFormInputComponent </title>
<polygon fill="#fb8072" stroke="black" points="603.98,-214.8 360.02,-214.8 360.02,-178.8 603.98,-178.8 603.98,-214.8"/>
<text text-anchor="middle" x="482" y="-192.6" font-family="Times,serif" font-size="14.00">NumberWithUnitFormInputComponent </text>
</g>
<!-- VcdFormModule&#45;&gt;NumberWithUnitFormInputComponent  -->
<g id="edge10" class="edge">
<title>VcdFormModule&#45;&gt;NumberWithUnitFormInputComponent </title>
<path fill="none" stroke="black" stroke-dasharray="5,2" d="M639.21,-143.8C613.98,-143.8 589.88,-143.8 589.88,-143.8 589.88,-143.8 589.88,-168.56 589.88,-168.56"/>
<polygon fill="black" stroke="black" points="586.38,-168.56 589.88,-178.56 593.38,-168.56 586.38,-168.56"/>
</g>
<!-- ResponsiveInputDirectiveModule  -->
<g id="node12" class="node">
<title>ResponsiveInputDirectiveModule </title>
<polygon fill="#fb8072" stroke="black" points="342.74,-214.8 133.26,-214.8 133.26,-178.8 342.74,-178.8 342.74,-214.8"/>
<text text-anchor="middle" x="238" y="-192.6" font-family="Times,serif" font-size="14.00">ResponsiveInputDirectiveModule </text>
</g>
<!-- VcdFormModule&#45;&gt;ResponsiveInputDirectiveModule  -->
<g id="edge11" class="edge">
<title>VcdFormModule&#45;&gt;ResponsiveInputDirectiveModule </title>
<path fill="none" stroke="black" stroke-dasharray="5,2" d="M639.18,-137.8C521.37,-137.8 261.38,-137.8 261.38,-137.8 261.38,-137.8 261.38,-168.78 261.38,-168.78"/>
<polygon fill="black" stroke="black" points="257.88,-168.78 261.38,-178.78 264.88,-168.78 257.88,-168.78"/>
</g>
<!-- AlternativeTextModule -->
<g id="node6" class="node">
<title>AlternativeTextModule</title>
<polygon fill="#8dd3c7" stroke="black" points="552.18,-84.8 549.18,-88.8 528.18,-88.8 525.18,-84.8 403.82,-84.8 403.82,-48.8 552.18,-48.8 552.18,-84.8"/>
<text text-anchor="middle" x="478" y="-62.6" font-family="Times,serif" font-size="14.00">AlternativeTextModule</text>
</g>
<!-- AlternativeTextModule&#45;&gt;VcdFormModule -->
<g id="edge5" class="edge">
<title>AlternativeTextModule&#45;&gt;VcdFormModule</title>
<path fill="none" stroke="black" d="M478,-85.04C478,-100.37 478,-119.8 478,-119.8 478,-119.8 629.29,-119.8 629.29,-119.8"/>
<polygon fill="black" stroke="black" points="629.29,-123.3 639.29,-119.8 629.29,-116.3 629.29,-123.3"/>
</g>
<!-- ResponsiveInputDirectiveModule -->
<g id="node7" class="node">
<title>ResponsiveInputDirectiveModule</title>
<polygon fill="#8dd3c7" stroke="black" points="385.74,-84.8 382.74,-88.8 361.74,-88.8 358.74,-84.8 180.26,-84.8 180.26,-48.8 385.74,-48.8 385.74,-84.8"/>
<text text-anchor="middle" x="283" y="-62.6" font-family="Times,serif" font-size="14.00">ResponsiveInputDirectiveModule</text>
</g>
<!-- ResponsiveInputDirectiveModule&#45;&gt;VcdFormModule -->
<g id="edge6" class="edge">
<title>ResponsiveInputDirectiveModule&#45;&gt;VcdFormModule</title>
<path fill="none" stroke="black" d="M373.06,-84.82C373.06,-102.17 373.06,-125.8 373.06,-125.8 373.06,-125.8 629.38,-125.8 629.38,-125.8"/>
<polygon fill="black" stroke="black" points="629.38,-129.3 639.38,-125.8 629.38,-122.3 629.38,-129.3"/>
</g>
<!-- UnitFormatter -->
<g id="node13" class="node">
<title>UnitFormatter</title>
<ellipse fill="#fdb462" stroke="black" cx="90" cy="-66.8" rx="66.07" ry="18"/>
<text text-anchor="middle" x="90" y="-62.6" font-family="Times,serif" font-size="14.00">UnitFormatter</text>
</g>
<!-- UnitFormatter&#45;&gt;VcdFormModule -->
<g id="edge12" class="edge">
<title>UnitFormatter&#45;&gt;VcdFormModule</title>
<path fill="none" stroke="black" d="M144.83,-76.96C144.83,-95.24 144.83,-131.8 144.83,-131.8 144.83,-131.8 629.35,-131.8 629.35,-131.8"/>
<polygon fill="black" stroke="black" points="629.35,-135.3 639.35,-131.8 629.35,-128.3 629.35,-135.3"/>
</g>
</g>
</svg>
