<?xml version="1.0" encoding="UTF-8" standalone="no"?>
<!DOCTYPE svg PUBLIC "-//W3C//DTD SVG 1.1//EN"
 "http://www.w3.org/Graphics/SVG/1.1/DTD/svg11.dtd">
<!-- Generated by graphviz version 2.40.1 (20161225.0304)
 -->
<!-- Title: dependencies Pages: 1 -->
<svg width="962pt" height="284pt"
 viewBox="0.00 0.00 962.00 284.00" xmlns="http://www.w3.org/2000/svg" xmlns:xlink="http://www.w3.org/1999/xlink">
<g id="graph0" class="graph" transform="scale(1 1) rotate(0) translate(4 280)">
<title>dependencies</title>
<polygon fill="#ffffff" stroke="transparent" points="-4,4 -4,-280 958,-280 958,4 -4,4"/>
<text text-anchor="start" x="456.0091" y="-42.4" font-family="sans-serif" font-weight="bold" font-size="14.00" fill="#000000">Legend</text>
<polygon fill="#ffffb3" stroke="transparent" points="243,-10 243,-30 263,-30 263,-10 243,-10"/>
<text text-anchor="start" x="266.629" y="-15.4" font-family="sans-serif" font-size="14.00" fill="#000000"> &#160;Declarations</text>
<polygon fill="#8dd3c7" stroke="transparent" points="356,-10 356,-30 376,-30 376,-10 356,-10"/>
<text text-anchor="start" x="379.7251" y="-15.4" font-family="sans-serif" font-size="14.00" fill="#000000"> &#160;Module</text>
<polygon fill="#80b1d3" stroke="transparent" points="442,-10 442,-30 462,-30 462,-10 442,-10"/>
<text text-anchor="start" x="465.7812" y="-15.4" font-family="sans-serif" font-size="14.00" fill="#000000"> &#160;Bootstrap</text>
<polygon fill="#fdb462" stroke="transparent" points="539,-10 539,-30 559,-30 559,-10 539,-10"/>
<text text-anchor="start" x="562.6732" y="-15.4" font-family="sans-serif" font-size="14.00" fill="#000000"> &#160;Providers</text>
<polygon fill="#fb8072" stroke="transparent" points="635,-10 635,-30 655,-30 655,-10 635,-10"/>
<text text-anchor="start" x="658.7258" y="-15.4" font-family="sans-serif" font-size="14.00" fill="#000000"> &#160;Exports</text>
<g id="clust1" class="cluster">
<title>cluster_VcdFormModule</title>
<polygon fill="none" stroke="#000000" stroke-dasharray="1,5" points="8,-70 8,-268 946,-268 946,-70 8,-70"/>
</g>
<g id="clust2" class="cluster">
<title>cluster_VcdFormModule_declarations</title>
<polygon fill="none" stroke="#000000" points="172,-78 172,-130 938,-130 938,-78 172,-78"/>
</g>
<g id="clust8" class="cluster">
<title>cluster_VcdFormModule_exports</title>
<polygon fill="none" stroke="#000000" points="88,-208 88,-260 867,-260 867,-208 88,-208"/>
</g>
<g id="clust10" class="cluster">
<title>cluster_VcdFormModule_providers</title>
<polygon fill="none" stroke="#000000" points="16,-78 16,-130 164,-130 164,-78 16,-78"/>
</g>
<!-- FormCheckboxComponent -->
<g id="node1" class="node">
<title>FormCheckboxComponent</title>
<polygon fill="#ffffb3" stroke="#000000" points="930.4326,-122 761.5674,-122 761.5674,-86 930.4326,-86 930.4326,-122"/>
<text text-anchor="middle" x="846" y="-99.8" font-family="Times,serif" font-size="14.00" fill="#000000">FormCheckboxComponent</text>
</g>
<!-- VcdFormModule -->
<g id="node5" class="node">
<title>VcdFormModule</title>
<polygon fill="#8dd3c7" stroke="#000000" points="567.705,-187 564.705,-191 543.705,-191 540.705,-187 454.295,-187 454.295,-151 567.705,-151 567.705,-187"/>
<text text-anchor="middle" x="511" y="-164.8" font-family="Times,serif" font-size="14.00" fill="#000000">VcdFormModule</text>
</g>
<!-- FormCheckboxComponent&#45;&gt;VcdFormModule -->
<g id="edge1" class="edge">
<title>FormCheckboxComponent&#45;&gt;VcdFormModule</title>
<path fill="none" stroke="#000000" d="M810.375,-122.1061C810.375,-141.3391 810.375,-169 810.375,-169 810.375,-169 577.6621,-169 577.6621,-169"/>
<polygon fill="#000000" stroke="#000000" points="577.6621,-165.5001 567.6621,-169 577.6621,-172.5001 577.6621,-165.5001"/>
</g>
<!-- FormInputComponent -->
<g id="node2" class="node">
<title>FormInputComponent</title>
<polygon fill="#ffffb3" stroke="#000000" points="743.7176,-122 602.2824,-122 602.2824,-86 743.7176,-86 743.7176,-122"/>
<text text-anchor="middle" x="673" y="-99.8" font-family="Times,serif" font-size="14.00" fill="#000000">FormInputComponent</text>
</g>
<!-- FormInputComponent&#45;&gt;VcdFormModule -->
<g id="edge2" class="edge">
<title>FormInputComponent&#45;&gt;VcdFormModule</title>
<path fill="none" stroke="#000000" d="M635.875,-122.027C635.875,-138.3976 635.875,-160 635.875,-160 635.875,-160 577.9561,-160 577.9561,-160"/>
<polygon fill="#000000" stroke="#000000" points="577.9561,-156.5001 567.9561,-160 577.9561,-163.5001 577.9561,-156.5001"/>
</g>
<!-- FormSelectComponent -->
<g id="node3" class="node">
<title>FormSelectComponent</title>
<polygon fill="#ffffb3" stroke="#000000" points="583.8739,-122 438.1261,-122 438.1261,-86 583.8739,-86 583.8739,-122"/>
<text text-anchor="middle" x="511" y="-99.8" font-family="Times,serif" font-size="14.00" fill="#000000">FormSelectComponent</text>
</g>
<!-- FormSelectComponent&#45;&gt;VcdFormModule -->
<g id="edge3" class="edge">
<title>FormSelectComponent&#45;&gt;VcdFormModule</title>
<path fill="none" stroke="#000000" d="M511,-122.1061C511,-122.1061 511,-140.991 511,-140.991"/>
<polygon fill="#000000" stroke="#000000" points="507.5001,-140.9909 511,-150.991 514.5001,-140.991 507.5001,-140.9909"/>
</g>
<!-- NumberWithUnitFormInputComponent -->
<g id="node4" class="node">
<title>NumberWithUnitFormInputComponent</title>
<polygon fill="#ffffb3" stroke="#000000" points="419.9734,-122 180.0266,-122 180.0266,-86 419.9734,-86 419.9734,-122"/>
<text text-anchor="middle" x="300" y="-99.8" font-family="Times,serif" font-size="14.00" fill="#000000">NumberWithUnitFormInputComponent</text>
</g>
<!-- NumberWithUnitFormInputComponent&#45;&gt;VcdFormModule -->
<g id="edge4" class="edge">
<title>NumberWithUnitFormInputComponent&#45;&gt;VcdFormModule</title>
<path fill="none" stroke="#000000" d="M388.6499,-122.027C388.6499,-138.3976 388.6499,-160 388.6499,-160 388.6499,-160 444.1232,-160 444.1232,-160"/>
<polygon fill="#000000" stroke="#000000" points="444.1232,-163.5001 454.1232,-160 444.1231,-156.5001 444.1232,-163.5001"/>
</g>
<!-- FormCheckboxComponent  -->
<g id="node6" class="node">
<title>FormCheckboxComponent </title>
<polygon fill="#fb8072" stroke="#000000" points="858.932,-252 687.068,-252 687.068,-216 858.932,-216 858.932,-252"/>
<text text-anchor="middle" x="773" y="-229.8" font-family="Times,serif" font-size="14.00" fill="#000000">FormCheckboxComponent </text>
</g>
<!-- VcdFormModule&#45;&gt;FormCheckboxComponent  -->
<g id="edge5" class="edge">
<title>VcdFormModule&#45;&gt;FormCheckboxComponent </title>
<path fill="none" stroke="#000000" stroke-dasharray="5,2" d="M567.6436,-178C628.1114,-178 715.3213,-178 715.3213,-178 715.3213,-178 715.3213,-205.973 715.3213,-205.973"/>
<polygon fill="#000000" stroke="#000000" points="711.8214,-205.973 715.3213,-215.973 718.8214,-205.973 711.8214,-205.973"/>
</g>
<!-- FormInputComponent  -->
<g id="node7" class="node">
<title>FormInputComponent </title>
<polygon fill="#fb8072" stroke="#000000" points="669.2177,-252 524.7823,-252 524.7823,-216 669.2177,-216 669.2177,-252"/>
<text text-anchor="middle" x="597" y="-229.8" font-family="Times,serif" font-size="14.00" fill="#000000">FormInputComponent </text>
</g>
<!-- VcdFormModule&#45;&gt;FormInputComponent  -->
<g id="edge6" class="edge">
<title>VcdFormModule&#45;&gt;FormInputComponent </title>
<path fill="none" stroke="#000000" stroke-dasharray="5,2" d="M546.1219,-187.1061C546.1219,-187.1061 546.1219,-205.991 546.1219,-205.991"/>
<polygon fill="#000000" stroke="#000000" points="542.6219,-205.9909 546.1219,-215.991 549.6219,-205.991 542.6219,-205.9909"/>
</g>
<!-- FormSelectComponent  -->
<g id="node8" class="node">
<title>FormSelectComponent </title>
<polygon fill="#fb8072" stroke="#000000" points="506.8743,-252 357.1257,-252 357.1257,-216 506.8743,-216 506.8743,-252"/>
<text text-anchor="middle" x="432" y="-229.8" font-family="Times,serif" font-size="14.00" fill="#000000">FormSelectComponent </text>
</g>
<!-- VcdFormModule&#45;&gt;FormSelectComponent  -->
<g id="edge7" class="edge">
<title>VcdFormModule&#45;&gt;FormSelectComponent </title>
<path fill="none" stroke="#000000" stroke-dasharray="5,2" d="M480.5423,-187.1061C480.5423,-187.1061 480.5423,-205.991 480.5423,-205.991"/>
<polygon fill="#000000" stroke="#000000" points="477.0423,-205.9909 480.5423,-215.991 484.0423,-205.991 477.0423,-205.9909"/>
</g>
<!-- NumberWithUnitFormInputComponent  -->
<g id="node9" class="node">
<title>NumberWithUnitFormInputComponent </title>
<polygon fill="#fb8072" stroke="#000000" points="339.9739,-252 96.0261,-252 96.0261,-216 339.9739,-216 339.9739,-252"/>
<text text-anchor="middle" x="218" y="-229.8" font-family="Times,serif" font-size="14.00" fill="#000000">NumberWithUnitFormInputComponent </text>
</g>
<!-- VcdFormModule&#45;&gt;NumberWithUnitFormInputComponent  -->
<g id="edge8" class="edge">
<title>VcdFormModule&#45;&gt;NumberWithUnitFormInputComponent </title>
<path fill="none" stroke="#000000" stroke-dasharray="5,2" d="M454.3295,-178C380.2628,-178 259.875,-178 259.875,-178 259.875,-178 259.875,-205.973 259.875,-205.973"/>
<polygon fill="#000000" stroke="#000000" points="256.3751,-205.973 259.875,-215.973 263.3751,-205.973 256.3751,-205.973"/>
</g>
<!-- UnitFormatter -->
<g id="node10" class="node">
<title>UnitFormatter</title>
<ellipse fill="#fdb462" stroke="#000000" cx="90" cy="-104" rx="66.0666" ry="18"/>
<text text-anchor="middle" x="90" y="-99.8" font-family="Times,serif" font-size="14.00" fill="#000000">UnitFormatter</text>
</g>
<!-- UnitFormatter&#45;&gt;VcdFormModule -->
<g id="edge9" class="edge">
<title>UnitFormatter&#45;&gt;VcdFormModule</title>
<path fill="none" stroke="#000000" d="M126.2731,-119.0757C126.2731,-138.2773 126.2731,-169 126.2731,-169 126.2731,-169 444.2322,-169 444.2322,-169"/>
<polygon fill="#000000" stroke="#000000" points="444.2323,-172.5001 454.2322,-169 444.2322,-165.5001 444.2323,-172.5001"/>
</g>
</g>
</svg>
