<?xml version="1.0" encoding="UTF-8" standalone="no"?>
<!DOCTYPE svg PUBLIC "-//W3C//DTD SVG 1.1//EN"
 "http://www.w3.org/Graphics/SVG/1.1/DTD/svg11.dtd">
<!-- Generated by graphviz version 2.47.0 (20210316.0004)
 -->
<!-- Title: dependencies Pages: 1 -->
<svg width="1358pt" height="284pt"
 viewBox="0.00 0.00 1358.00 284.00" xmlns="http://www.w3.org/2000/svg" xmlns:xlink="http://www.w3.org/1999/xlink">
<g id="graph0" class="graph" transform="scale(1 1) rotate(0) translate(4 280)">
<title>dependencies</title>
<polygon fill="white" stroke="transparent" points="-4,4 -4,-280 1354,-280 1354,4 -4,4"/>
<text text-anchor="start" x="654.01" y="-42.4" font-family="Times-12" font-weight="bold" font-size="14.00">Legend</text>
<polygon fill="#ffffb3" stroke="transparent" points="441,-10 441,-30 461,-30 461,-10 441,-10"/>
<text text-anchor="start" x="464.63" y="-15.4" font-family="Times-12" font-size="14.00"> &#160;Declarations</text>
<polygon fill="#8dd3c7" stroke="transparent" points="554,-10 554,-30 574,-30 574,-10 554,-10"/>
<text text-anchor="start" x="577.73" y="-15.4" font-family="Times-12" font-size="14.00"> &#160;Module</text>
<polygon fill="#80b1d3" stroke="transparent" points="640,-10 640,-30 660,-30 660,-10 640,-10"/>
<text text-anchor="start" x="663.78" y="-15.4" font-family="Times-12" font-size="14.00"> &#160;Bootstrap</text>
<polygon fill="#fdb462" stroke="transparent" points="737,-10 737,-30 757,-30 757,-10 737,-10"/>
<text text-anchor="start" x="760.67" y="-15.4" font-family="Times-12" font-size="14.00"> &#160;Providers</text>
<polygon fill="#fb8072" stroke="transparent" points="833,-10 833,-30 853,-30 853,-10 833,-10"/>
<text text-anchor="start" x="856.73" y="-15.4" font-family="Times-12" font-size="14.00"> &#160;Exports</text>
<g id="clust1" class="cluster">
<title>cluster_VcdFormModule</title>
<polygon fill="none" stroke="black" stroke-dasharray="1,5" points="8,-70 8,-268 1342,-268 1342,-70 8,-70"/>
</g>
<g id="clust7" class="cluster">
<title>cluster_VcdFormModule_imports</title>
<polygon fill="none" stroke="black" points="946,-78 946,-130 1334,-130 1334,-78 946,-78"/>
</g>
<g id="clust8" class="cluster">
<title>cluster_VcdFormModule_exports</title>
<polygon fill="none" stroke="black" points="102,-208 102,-260 1108,-260 1108,-208 102,-208"/>
</g>
<g id="clust2" class="cluster">
<title>cluster_VcdFormModule_declarations</title>
<polygon fill="none" stroke="black" points="172,-78 172,-130 938,-130 938,-78 172,-78"/>
</g>
<g id="clust10" class="cluster">
<title>cluster_VcdFormModule_providers</title>
<polygon fill="none" stroke="black" points="16,-78 16,-130 164,-130 164,-78 16,-78"/>
</g>
<!-- FormCheckboxComponent -->
<g id="node1" class="node">
<title>FormCheckboxComponent</title>
<polygon fill="#ffffb3" stroke="black" points="930.43,-122 761.57,-122 761.57,-86 930.43,-86 930.43,-122"/>
<text text-anchor="middle" x="846" y="-99.8" font-family="Times,serif" font-size="14.00">FormCheckboxComponent</text>
</g>
<!-- VcdFormModule -->
<g id="node5" class="node">
<title>VcdFormModule</title>
<polygon fill="#8dd3c7" stroke="black" points="729.7,-187 726.7,-191 705.7,-191 702.7,-187 616.3,-187 616.3,-151 729.7,-151 729.7,-187"/>
<text text-anchor="middle" x="673" y="-164.8" font-family="Times,serif" font-size="14.00">VcdFormModule</text>
</g>
<!-- FormCheckboxComponent&#45;&gt;VcdFormModule -->
<g id="edge1" class="edge">
<title>FormCheckboxComponent&#45;&gt;VcdFormModule</title>
<path fill="none" stroke="black" d="M813.88,-122.24C813.88,-137.57 813.88,-157 813.88,-157 813.88,-157 739.9,-157 739.9,-157"/>
<polygon fill="black" stroke="black" points="739.9,-153.5 729.9,-157 739.9,-160.5 739.9,-153.5"/>
</g>
<!-- FormInputComponent -->
<g id="node2" class="node">
<title>FormInputComponent</title>
<polygon fill="#ffffb3" stroke="black" points="743.72,-122 602.28,-122 602.28,-86 743.72,-86 743.72,-122"/>
<text text-anchor="middle" x="673" y="-99.8" font-family="Times,serif" font-size="14.00">FormInputComponent</text>
</g>
<!-- FormInputComponent&#45;&gt;VcdFormModule -->
<g id="edge2" class="edge">
<title>FormInputComponent&#45;&gt;VcdFormModule</title>
<path fill="none" stroke="black" d="M673,-122.11C673,-122.11 673,-140.99 673,-140.99"/>
<polygon fill="black" stroke="black" points="669.5,-140.99 673,-150.99 676.5,-140.99 669.5,-140.99"/>
</g>
<!-- FormSelectComponent -->
<g id="node3" class="node">
<title>FormSelectComponent</title>
<polygon fill="#ffffb3" stroke="black" points="583.87,-122 438.13,-122 438.13,-86 583.87,-86 583.87,-122"/>
<text text-anchor="middle" x="511" y="-99.8" font-family="Times,serif" font-size="14.00">FormSelectComponent</text>
</g>
<!-- FormSelectComponent&#45;&gt;VcdFormModule -->
<g id="edge3" class="edge">
<title>FormSelectComponent&#45;&gt;VcdFormModule</title>
<path fill="none" stroke="black" d="M533.18,-122.24C533.18,-137.57 533.18,-157 533.18,-157 533.18,-157 606.13,-157 606.13,-157"/>
<polygon fill="black" stroke="black" points="606.13,-160.5 616.13,-157 606.13,-153.5 606.13,-160.5"/>
</g>
<!-- NumberWithUnitFormInputComponent -->
<g id="node4" class="node">
<title>NumberWithUnitFormInputComponent</title>
<polygon fill="#ffffb3" stroke="black" points="419.97,-122 180.03,-122 180.03,-86 419.97,-86 419.97,-122"/>
<text text-anchor="middle" x="300" y="-99.8" font-family="Times,serif" font-size="14.00">NumberWithUnitFormInputComponent</text>
</g>
<!-- NumberWithUnitFormInputComponent&#45;&gt;VcdFormModule -->
<g id="edge4" class="edge">
<title>NumberWithUnitFormInputComponent&#45;&gt;VcdFormModule</title>
<path fill="none" stroke="black" d="M378.62,-122.02C378.62,-139.37 378.62,-163 378.62,-163 378.62,-163 606.24,-163 606.24,-163"/>
<polygon fill="black" stroke="black" points="606.24,-166.5 616.24,-163 606.24,-159.5 606.24,-166.5"/>
</g>
<!-- FormCheckboxComponent  -->
<g id="node8" class="node">
<title>FormCheckboxComponent </title>
<polygon fill="#fb8072" stroke="black" points="1099.93,-252 928.07,-252 928.07,-216 1099.93,-216 1099.93,-252"/>
<text text-anchor="middle" x="1014" y="-229.8" font-family="Times,serif" font-size="14.00">FormCheckboxComponent </text>
</g>
<!-- VcdFormModule&#45;&gt;FormCheckboxComponent  -->
<g id="edge7" class="edge">
<title>VcdFormModule&#45;&gt;FormCheckboxComponent </title>
<path fill="none" stroke="black" stroke-dasharray="5,2" d="M729.76,-175C808.73,-175 942.18,-175 942.18,-175 942.18,-175 942.18,-205.98 942.18,-205.98"/>
<polygon fill="black" stroke="black" points="938.68,-205.98 942.18,-215.98 945.68,-205.98 938.68,-205.98"/>
</g>
<!-- FormInputComponent  -->
<g id="node9" class="node">
<title>FormInputComponent </title>
<polygon fill="#fb8072" stroke="black" points="910.22,-252 765.78,-252 765.78,-216 910.22,-216 910.22,-252"/>
<text text-anchor="middle" x="838" y="-229.8" font-family="Times,serif" font-size="14.00">FormInputComponent </text>
</g>
<!-- VcdFormModule&#45;&gt;FormInputComponent  -->
<g id="edge8" class="edge">
<title>VcdFormModule&#45;&gt;FormInputComponent </title>
<path fill="none" stroke="black" stroke-dasharray="5,2" d="M729.74,-181C785.45,-181 862.12,-181 862.12,-181 862.12,-181 862.12,-205.76 862.12,-205.76"/>
<polygon fill="black" stroke="black" points="858.62,-205.76 862.12,-215.76 865.62,-205.76 858.62,-205.76"/>
</g>
<!-- FormSelectComponent  -->
<g id="node10" class="node">
<title>FormSelectComponent </title>
<polygon fill="#fb8072" stroke="black" points="747.87,-252 598.13,-252 598.13,-216 747.87,-216 747.87,-252"/>
<text text-anchor="middle" x="673" y="-229.8" font-family="Times,serif" font-size="14.00">FormSelectComponent </text>
</g>
<!-- VcdFormModule&#45;&gt;FormSelectComponent  -->
<g id="edge9" class="edge">
<title>VcdFormModule&#45;&gt;FormSelectComponent </title>
<path fill="none" stroke="black" stroke-dasharray="5,2" d="M673,-187.11C673,-187.11 673,-205.99 673,-205.99"/>
<polygon fill="black" stroke="black" points="669.5,-205.99 673,-215.99 676.5,-205.99 669.5,-205.99"/>
</g>
<!-- NumberWithUnitFormInputComponent  -->
<g id="node11" class="node">
<title>NumberWithUnitFormInputComponent </title>
<polygon fill="#fb8072" stroke="black" points="580.97,-252 337.03,-252 337.03,-216 580.97,-216 580.97,-252"/>
<text text-anchor="middle" x="459" y="-229.8" font-family="Times,serif" font-size="14.00">NumberWithUnitFormInputComponent </text>
</g>
<!-- VcdFormModule&#45;&gt;NumberWithUnitFormInputComponent  -->
<g id="edge10" class="edge">
<title>VcdFormModule&#45;&gt;NumberWithUnitFormInputComponent </title>
<path fill="none" stroke="black" stroke-dasharray="5,2" d="M616.27,-181C561.12,-181 485.62,-181 485.62,-181 485.62,-181 485.62,-205.76 485.62,-205.76"/>
<polygon fill="black" stroke="black" points="482.12,-205.76 485.62,-215.76 489.12,-205.76 482.12,-205.76"/>
</g>
<!-- ResponsiveInputDirectiveModule  -->
<g id="node12" class="node">
<title>ResponsiveInputDirectiveModule </title>
<polygon fill="#fb8072" stroke="black" points="319.73,-252 110.27,-252 110.27,-216 319.73,-216 319.73,-252"/>
<text text-anchor="middle" x="215" y="-229.8" font-family="Times,serif" font-size="14.00">ResponsiveInputDirectiveModule </text>
</g>
<!-- VcdFormModule&#45;&gt;ResponsiveInputDirectiveModule  -->
<g id="edge11" class="edge">
<title>VcdFormModule&#45;&gt;ResponsiveInputDirectiveModule </title>
<path fill="none" stroke="black" stroke-dasharray="5,2" d="M616.37,-175C501.05,-175 249.81,-175 249.81,-175 249.81,-175 249.81,-205.98 249.81,-205.98"/>
<polygon fill="black" stroke="black" points="246.31,-205.98 249.81,-215.98 253.31,-205.98 246.31,-205.98"/>
</g>
<!-- AlternativeTextModule -->
<g id="node6" class="node">
<title>AlternativeTextModule</title>
<polygon fill="#8dd3c7" stroke="black" points="1326.18,-122 1323.18,-126 1302.18,-126 1299.18,-122 1177.82,-122 1177.82,-86 1326.18,-86 1326.18,-122"/>
<text text-anchor="middle" x="1252" y="-99.8" font-family="Times,serif" font-size="14.00">AlternativeTextModule</text>
</g>
<!-- AlternativeTextModule&#45;&gt;VcdFormModule -->
<g id="edge5" class="edge">
<title>AlternativeTextModule&#45;&gt;VcdFormModule</title>
<path fill="none" stroke="black" d="M1252,-122.11C1252,-141.34 1252,-169 1252,-169 1252,-169 739.84,-169 739.84,-169"/>
<polygon fill="black" stroke="black" points="739.84,-165.5 729.84,-169 739.84,-172.5 739.84,-165.5"/>
</g>
<!-- ResponsiveInputDirectiveModule -->
<g id="node7" class="node">
<title>ResponsiveInputDirectiveModule</title>
<polygon fill="#8dd3c7" stroke="black" points="1159.73,-122 1156.73,-126 1135.73,-126 1132.73,-122 954.27,-122 954.27,-86 1159.73,-86 1159.73,-122"/>
<text text-anchor="middle" x="1057" y="-99.8" font-family="Times,serif" font-size="14.00">ResponsiveInputDirectiveModule</text>
</g>
<!-- ResponsiveInputDirectiveModule&#45;&gt;VcdFormModule -->
<g id="edge6" class="edge">
<title>ResponsiveInputDirectiveModule&#45;&gt;VcdFormModule</title>
<path fill="none" stroke="black" d="M1027.05,-122.02C1027.05,-139.37 1027.05,-163 1027.05,-163 1027.05,-163 739.88,-163 739.88,-163"/>
<polygon fill="black" stroke="black" points="739.88,-159.5 729.88,-163 739.88,-166.5 739.88,-159.5"/>
</g>
<!-- UnitFormatter -->
<g id="node13" class="node">
<title>UnitFormatter</title>
<ellipse fill="#fdb462" stroke="black" cx="90" cy="-104" rx="66.07" ry="18"/>
<text text-anchor="middle" x="90" y="-99.8" font-family="Times,serif" font-size="14.00">UnitFormatter</text>
</g>
<!-- UnitFormatter&#45;&gt;VcdFormModule -->
<g id="edge12" class="edge">
<title>UnitFormatter&#45;&gt;VcdFormModule</title>
<path fill="none" stroke="black" d="M133.33,-117.78C133.33,-136.86 133.33,-169 133.33,-169 133.33,-169 606.27,-169 606.27,-169"/>
<polygon fill="black" stroke="black" points="606.27,-172.5 616.27,-169 606.27,-165.5 606.27,-172.5"/>
</g>
</g>
</svg>
