<?xml version="1.0" encoding="UTF-8" standalone="no"?>
<!DOCTYPE svg PUBLIC "-//W3C//DTD SVG 1.1//EN"
 "http://www.w3.org/Graphics/SVG/1.1/DTD/svg11.dtd">
<!-- Generated by graphviz version 5.0.0 (20220707.1540)
 -->
<!-- Title: dependencies Pages: 1 -->
<svg width="1358pt" height="247pt"
 viewBox="0.00 0.00 1358.00 246.80" xmlns="http://www.w3.org/2000/svg" xmlns:xlink="http://www.w3.org/1999/xlink">
<g id="graph0" class="graph" transform="scale(1 1) rotate(0) translate(4 242.8)">
<title>dependencies</title>
<polygon fill="white" stroke="transparent" points="-4,4 -4,-242.8 1354,-242.8 1354,4 -4,4"/>
<text text-anchor="middle" x="675" y="-8.2" font-family="sans-serif" font-size="14.00">dependencies</text>
<g id="clust1" class="cluster">
<title>cluster_VcdFormModule</title>
<polygon fill="none" stroke="black" stroke-dasharray="1,5" points="8,-32.8 8,-230.8 1342,-230.8 1342,-32.8 8,-32.8"/>
</g>
<g id="clust8" class="cluster">
<title>cluster_VcdFormModule_exports</title>
<polygon fill="none" stroke="black" points="102,-170.8 102,-222.8 1108,-222.8 1108,-170.8 102,-170.8"/>
</g>
<g id="clust7" class="cluster">
<title>cluster_VcdFormModule_imports</title>
<polygon fill="none" stroke="black" points="946,-40.8 946,-92.8 1334,-92.8 1334,-40.8 946,-40.8"/>
</g>
<g id="clust2" class="cluster">
<title>cluster_VcdFormModule_declarations</title>
<polygon fill="none" stroke="black" points="172,-40.8 172,-92.8 938,-92.8 938,-40.8 172,-40.8"/>
</g>
<g id="clust10" class="cluster">
<title>cluster_VcdFormModule_providers</title>
<polygon fill="none" stroke="black" points="16,-40.8 16,-92.8 164,-92.8 164,-40.8 16,-40.8"/>
</g>
<!-- FormCheckboxComponent -->
<g id="node1" class="node">
<title>FormCheckboxComponent</title>
<polygon fill="#ffffb3" stroke="black" points="930.44,-84.8 761.56,-84.8 761.56,-48.8 930.44,-48.8 930.44,-84.8"/>
<text text-anchor="middle" x="846" y="-62.6" font-family="Times,serif" font-size="14.00">FormCheckboxComponent</text>
</g>
<!-- VcdFormModule -->
<g id="node5" class="node">
<title>VcdFormModule</title>
<polygon fill="#8dd3c7" stroke="black" points="729.71,-149.8 726.71,-153.8 705.71,-153.8 702.71,-149.8 616.29,-149.8 616.29,-113.8 729.71,-113.8 729.71,-149.8"/>
<text text-anchor="middle" x="673" y="-127.6" font-family="Times,serif" font-size="14.00">VcdFormModule</text>
</g>
<!-- FormCheckboxComponent&#45;&gt;VcdFormModule -->
<g id="edge1" class="edge">
<title>FormCheckboxComponent&#45;&gt;VcdFormModule</title>
<path fill="none" stroke="black" d="M813.88,-85.04C813.88,-100.37 813.88,-119.8 813.88,-119.8 813.88,-119.8 739.9,-119.8 739.9,-119.8"/>
<polygon fill="black" stroke="black" points="739.9,-116.3 729.9,-119.8 739.9,-123.3 739.9,-116.3"/>
</g>
<!-- FormInputComponent -->
<g id="node2" class="node">
<title>FormInputComponent</title>
<polygon fill="#ffffb3" stroke="black" points="743.72,-84.8 602.28,-84.8 602.28,-48.8 743.72,-48.8 743.72,-84.8"/>
<text text-anchor="middle" x="673" y="-62.6" font-family="Times,serif" font-size="14.00">FormInputComponent</text>
</g>
<!-- FormInputComponent&#45;&gt;VcdFormModule -->
<g id="edge2" class="edge">
<title>FormInputComponent&#45;&gt;VcdFormModule</title>
<path fill="none" stroke="black" d="M673,-84.91C673,-84.91 673,-103.79 673,-103.79"/>
<polygon fill="black" stroke="black" points="669.5,-103.79 673,-113.79 676.5,-103.79 669.5,-103.79"/>
</g>
<!-- FormSelectComponent -->
<g id="node3" class="node">
<title>FormSelectComponent</title>
<polygon fill="#ffffb3" stroke="black" points="583.88,-84.8 438.12,-84.8 438.12,-48.8 583.88,-48.8 583.88,-84.8"/>
<text text-anchor="middle" x="511" y="-62.6" font-family="Times,serif" font-size="14.00">FormSelectComponent</text>
</g>
<!-- FormSelectComponent&#45;&gt;VcdFormModule -->
<g id="edge3" class="edge">
<title>FormSelectComponent&#45;&gt;VcdFormModule</title>
<path fill="none" stroke="black" d="M533.18,-85.04C533.18,-100.37 533.18,-119.8 533.18,-119.8 533.18,-119.8 606.13,-119.8 606.13,-119.8"/>
<polygon fill="black" stroke="black" points="606.13,-123.3 616.13,-119.8 606.13,-116.3 606.13,-123.3"/>
</g>
<!-- NumberWithUnitFormInputComponent -->
<g id="node4" class="node">
<title>NumberWithUnitFormInputComponent</title>
<polygon fill="#ffffb3" stroke="black" points="419.98,-84.8 180.02,-84.8 180.02,-48.8 419.98,-48.8 419.98,-84.8"/>
<text text-anchor="middle" x="300" y="-62.6" font-family="Times,serif" font-size="14.00">NumberWithUnitFormInputComponent</text>
</g>
<!-- NumberWithUnitFormInputComponent&#45;&gt;VcdFormModule -->
<g id="edge4" class="edge">
<title>NumberWithUnitFormInputComponent&#45;&gt;VcdFormModule</title>
<path fill="none" stroke="black" d="M378.62,-84.82C378.62,-102.17 378.62,-125.8 378.62,-125.8 378.62,-125.8 606.24,-125.8 606.24,-125.8"/>
<polygon fill="black" stroke="black" points="606.24,-129.3 616.24,-125.8 606.24,-122.3 606.24,-129.3"/>
</g>
<!-- FormCheckboxComponent  -->
<g id="node8" class="node">
<title>FormCheckboxComponent </title>
<polygon fill="#fb8072" stroke="black" points="1099.93,-214.8 928.07,-214.8 928.07,-178.8 1099.93,-178.8 1099.93,-214.8"/>
<text text-anchor="middle" x="1014" y="-192.6" font-family="Times,serif" font-size="14.00">FormCheckboxComponent </text>
</g>
<!-- VcdFormModule&#45;&gt;FormCheckboxComponent  -->
<g id="edge7" class="edge">
<title>VcdFormModule&#45;&gt;FormCheckboxComponent </title>
<path fill="none" stroke="black" stroke-dasharray="5,2" d="M729.76,-137.8C808.73,-137.8 942.17,-137.8 942.17,-137.8 942.17,-137.8 942.17,-168.78 942.17,-168.78"/>
<polygon fill="black" stroke="black" points="938.67,-168.78 942.17,-178.78 945.67,-168.78 938.67,-168.78"/>
</g>
<!-- FormInputComponent  -->
<g id="node9" class="node">
<title>FormInputComponent </title>
<polygon fill="#fb8072" stroke="black" points="910.22,-214.8 765.78,-214.8 765.78,-178.8 910.22,-178.8 910.22,-214.8"/>
<text text-anchor="middle" x="838" y="-192.6" font-family="Times,serif" font-size="14.00">FormInputComponent </text>
</g>
<!-- VcdFormModule&#45;&gt;FormInputComponent  -->
<g id="edge8" class="edge">
<title>VcdFormModule&#45;&gt;FormInputComponent </title>
<path fill="none" stroke="black" stroke-dasharray="5,2" d="M729.74,-143.8C785.45,-143.8 862.12,-143.8 862.12,-143.8 862.12,-143.8 862.12,-168.56 862.12,-168.56"/>
<polygon fill="black" stroke="black" points="858.62,-168.56 862.12,-178.56 865.62,-168.56 858.62,-168.56"/>
</g>
<!-- FormSelectComponent  -->
<g id="node10" class="node">
<title>FormSelectComponent </title>
<polygon fill="#fb8072" stroke="black" points="747.88,-214.8 598.12,-214.8 598.12,-178.8 747.88,-178.8 747.88,-214.8"/>
<text text-anchor="middle" x="673" y="-192.6" font-family="Times,serif" font-size="14.00">FormSelectComponent </text>
</g>
<!-- VcdFormModule&#45;&gt;FormSelectComponent  -->
<g id="edge9" class="edge">
<title>VcdFormModule&#45;&gt;FormSelectComponent </title>
<path fill="none" stroke="black" stroke-dasharray="5,2" d="M673,-149.91C673,-149.91 673,-168.79 673,-168.79"/>
<polygon fill="black" stroke="black" points="669.5,-168.79 673,-178.79 676.5,-168.79 669.5,-168.79"/>
</g>
<!-- NumberWithUnitFormInputComponent  -->
<g id="node11" class="node">
<title>NumberWithUnitFormInputComponent </title>
<polygon fill="#fb8072" stroke="black" points="580.98,-214.8 337.02,-214.8 337.02,-178.8 580.98,-178.8 580.98,-214.8"/>
<text text-anchor="middle" x="459" y="-192.6" font-family="Times,serif" font-size="14.00">NumberWithUnitFormInputComponent </text>
</g>
<!-- VcdFormModule&#45;&gt;NumberWithUnitFormInputComponent  -->
<g id="edge10" class="edge">
<title>VcdFormModule&#45;&gt;NumberWithUnitFormInputComponent </title>
<path fill="none" stroke="black" stroke-dasharray="5,2" d="M616.27,-143.8C561.12,-143.8 485.62,-143.8 485.62,-143.8 485.62,-143.8 485.62,-168.56 485.62,-168.56"/>
<polygon fill="black" stroke="black" points="482.12,-168.56 485.62,-178.56 489.12,-168.56 482.12,-168.56"/>
</g>
<!-- ResponsiveInputDirectiveModule  -->
<g id="node12" class="node">
<title>ResponsiveInputDirectiveModule </title>
<polygon fill="#fb8072" stroke="black" points="319.74,-214.8 110.26,-214.8 110.26,-178.8 319.74,-178.8 319.74,-214.8"/>
<text text-anchor="middle" x="215" y="-192.6" font-family="Times,serif" font-size="14.00">ResponsiveInputDirectiveModule </text>
</g>
<!-- VcdFormModule&#45;&gt;ResponsiveInputDirectiveModule  -->
<g id="edge11" class="edge">
<title>VcdFormModule&#45;&gt;ResponsiveInputDirectiveModule </title>
<path fill="none" stroke="black" stroke-dasharray="5,2" d="M616.37,-137.8C501.05,-137.8 249.81,-137.8 249.81,-137.8 249.81,-137.8 249.81,-168.78 249.81,-168.78"/>
<polygon fill="black" stroke="black" points="246.31,-168.78 249.81,-178.78 253.31,-168.78 246.31,-168.78"/>
</g>
<!-- AlternativeTextModule -->
<g id="node6" class="node">
<title>AlternativeTextModule</title>
<polygon fill="#8dd3c7" stroke="black" points="1326.18,-84.8 1323.18,-88.8 1302.18,-88.8 1299.18,-84.8 1177.82,-84.8 1177.82,-48.8 1326.18,-48.8 1326.18,-84.8"/>
<text text-anchor="middle" x="1252" y="-62.6" font-family="Times,serif" font-size="14.00">AlternativeTextModule</text>
</g>
<!-- AlternativeTextModule&#45;&gt;VcdFormModule -->
<g id="edge5" class="edge">
<title>AlternativeTextModule&#45;&gt;VcdFormModule</title>
<path fill="none" stroke="black" d="M1252,-84.91C1252,-104.14 1252,-131.8 1252,-131.8 1252,-131.8 739.84,-131.8 739.84,-131.8"/>
<polygon fill="black" stroke="black" points="739.84,-128.3 729.84,-131.8 739.84,-135.3 739.84,-128.3"/>
</g>
<!-- ResponsiveInputDirectiveModule -->
<g id="node7" class="node">
<title>ResponsiveInputDirectiveModule</title>
<polygon fill="#8dd3c7" stroke="black" points="1159.74,-84.8 1156.74,-88.8 1135.74,-88.8 1132.74,-84.8 954.26,-84.8 954.26,-48.8 1159.74,-48.8 1159.74,-84.8"/>
<text text-anchor="middle" x="1057" y="-62.6" font-family="Times,serif" font-size="14.00">ResponsiveInputDirectiveModule</text>
</g>
<!-- ResponsiveInputDirectiveModule&#45;&gt;VcdFormModule -->
<g id="edge6" class="edge">
<title>ResponsiveInputDirectiveModule&#45;&gt;VcdFormModule</title>
<path fill="none" stroke="black" d="M1027.05,-84.82C1027.05,-102.17 1027.05,-125.8 1027.05,-125.8 1027.05,-125.8 739.88,-125.8 739.88,-125.8"/>
<polygon fill="black" stroke="black" points="739.88,-122.3 729.88,-125.8 739.88,-129.3 739.88,-122.3"/>
</g>
<!-- UnitFormatter -->
<g id="node13" class="node">
<title>UnitFormatter</title>
<ellipse fill="#fdb462" stroke="black" cx="90" cy="-66.8" rx="66.07" ry="18"/>
<text text-anchor="middle" x="90" y="-62.6" font-family="Times,serif" font-size="14.00">UnitFormatter</text>
</g>
<!-- UnitFormatter&#45;&gt;VcdFormModule -->
<g id="edge12" class="edge">
<title>UnitFormatter&#45;&gt;VcdFormModule</title>
<path fill="none" stroke="black" d="M133.33,-80.58C133.33,-99.66 133.33,-131.8 133.33,-131.8 133.33,-131.8 606.27,-131.8 606.27,-131.8"/>
<polygon fill="black" stroke="black" points="606.27,-135.3 616.27,-131.8 606.27,-128.3 606.27,-135.3"/>
</g>
</g>
</svg>
