<?xml version="1.0" encoding="UTF-8" standalone="no"?>
<!DOCTYPE svg PUBLIC "-//W3C//DTD SVG 1.1//EN"
 "http://www.w3.org/Graphics/SVG/1.1/DTD/svg11.dtd">
<!-- Generated by graphviz version 5.0.0 (20220707.1540)
 -->
<!-- Title: dependencies Pages: 1 -->
<svg width="1358pt" height="247pt"
 viewBox="0.00 0.00 1358.00 246.80" xmlns="http://www.w3.org/2000/svg" xmlns:xlink="http://www.w3.org/1999/xlink">
<g id="graph0" class="graph" transform="scale(1 1) rotate(0) translate(4 242.8)">
<title>dependencies</title>
<polygon fill="white" stroke="transparent" points="-4,4 -4,-242.8 1354,-242.8 1354,4 -4,4"/>
<text text-anchor="middle" x="675" y="-8.2" font-family="sans-serif" font-size="14.00">dependencies</text>
<g id="clust1" class="cluster">
<title>cluster_VcdFormModule</title>
<polygon fill="none" stroke="black" stroke-dasharray="1,5" points="8,-32.8 8,-230.8 1342,-230.8 1342,-32.8 8,-32.8"/>
</g>
<g id="clust10" class="cluster">
<title>cluster_VcdFormModule_providers</title>
<polygon fill="none" stroke="black" points="1186,-40.8 1186,-92.8 1334,-92.8 1334,-40.8 1186,-40.8"/>
</g>
<g id="clust8" class="cluster">
<title>cluster_VcdFormModule_exports</title>
<polygon fill="none" stroke="black" points="119,-170.8 119,-222.8 1125,-222.8 1125,-170.8 119,-170.8"/>
</g>
<g id="clust7" class="cluster">
<title>cluster_VcdFormModule_imports</title>
<polygon fill="none" stroke="black" points="790,-40.8 790,-92.8 1178,-92.8 1178,-40.8 790,-40.8"/>
</g>
<g id="clust2" class="cluster">
<title>cluster_VcdFormModule_declarations</title>
<polygon fill="none" stroke="black" points="16,-40.8 16,-92.8 782,-92.8 782,-40.8 16,-40.8"/>
</g>
<!-- FormCheckboxComponent -->
<g id="node1" class="node">
<title>FormCheckboxComponent</title>
<polygon fill="#ffffb3" stroke="black" points="774.44,-84.8 605.56,-84.8 605.56,-48.8 774.44,-48.8 774.44,-84.8"/>
<text text-anchor="middle" x="690" y="-62.6" font-family="Times,serif" font-size="14.00">FormCheckboxComponent</text>
</g>
<!-- VcdFormModule -->
<g id="node5" class="node">
<title>VcdFormModule</title>
<polygon fill="#8dd3c7" stroke="black" points="746.71,-149.8 743.71,-153.8 722.71,-153.8 719.71,-149.8 633.29,-149.8 633.29,-113.8 746.71,-113.8 746.71,-149.8"/>
<text text-anchor="middle" x="690" y="-127.6" font-family="Times,serif" font-size="14.00">VcdFormModule</text>
</g>
<!-- FormCheckboxComponent&#45;&gt;VcdFormModule -->
<g id="edge1" class="edge">
<title>FormCheckboxComponent&#45;&gt;VcdFormModule</title>
<path fill="none" stroke="black" d="M690,-84.91C690,-84.91 690,-103.79 690,-103.79"/>
<polygon fill="black" stroke="black" points="686.5,-103.79 690,-113.79 693.5,-103.79 686.5,-103.79"/>
</g>
<!-- FormInputComponent -->
<g id="node2" class="node">
<title>FormInputComponent</title>
<polygon fill="#ffffb3" stroke="black" points="587.72,-84.8 446.28,-84.8 446.28,-48.8 587.72,-48.8 587.72,-84.8"/>
<text text-anchor="middle" x="517" y="-62.6" font-family="Times,serif" font-size="14.00">FormInputComponent</text>
</g>
<!-- FormInputComponent&#45;&gt;VcdFormModule -->
<g id="edge2" class="edge">
<title>FormInputComponent&#45;&gt;VcdFormModule</title>
<path fill="none" stroke="black" d="M517,-85.04C517,-100.37 517,-119.8 517,-119.8 517,-119.8 623.35,-119.8 623.35,-119.8"/>
<polygon fill="black" stroke="black" points="623.35,-123.3 633.35,-119.8 623.35,-116.3 623.35,-123.3"/>
</g>
<!-- FormSelectComponent -->
<g id="node3" class="node">
<title>FormSelectComponent</title>
<polygon fill="#ffffb3" stroke="black" points="427.88,-84.8 282.12,-84.8 282.12,-48.8 427.88,-48.8 427.88,-84.8"/>
<text text-anchor="middle" x="355" y="-62.6" font-family="Times,serif" font-size="14.00">FormSelectComponent</text>
</g>
<!-- FormSelectComponent&#45;&gt;VcdFormModule -->
<g id="edge3" class="edge">
<title>FormSelectComponent&#45;&gt;VcdFormModule</title>
<path fill="none" stroke="black" d="M391.1,-84.82C391.1,-102.17 391.1,-125.8 391.1,-125.8 391.1,-125.8 623.08,-125.8 623.08,-125.8"/>
<polygon fill="black" stroke="black" points="623.08,-129.3 633.08,-125.8 623.08,-122.3 623.08,-129.3"/>
</g>
<!-- NumberWithUnitFormInputComponent -->
<g id="node4" class="node">
<title>NumberWithUnitFormInputComponent</title>
<polygon fill="#ffffb3" stroke="black" points="263.98,-84.8 24.02,-84.8 24.02,-48.8 263.98,-48.8 263.98,-84.8"/>
<text text-anchor="middle" x="144" y="-62.6" font-family="Times,serif" font-size="14.00">NumberWithUnitFormInputComponent</text>
</g>
<!-- NumberWithUnitFormInputComponent&#45;&gt;VcdFormModule -->
<g id="edge4" class="edge">
<title>NumberWithUnitFormInputComponent&#45;&gt;VcdFormModule</title>
<path fill="none" stroke="black" d="M195.69,-84.91C195.69,-104.14 195.69,-131.8 195.69,-131.8 195.69,-131.8 623.3,-131.8 623.3,-131.8"/>
<polygon fill="black" stroke="black" points="623.3,-135.3 633.3,-131.8 623.3,-128.3 623.3,-135.3"/>
</g>
<!-- FormCheckboxComponent  -->
<g id="node8" class="node">
<title>FormCheckboxComponent </title>
<polygon fill="#fb8072" stroke="black" points="1116.93,-214.8 945.07,-214.8 945.07,-178.8 1116.93,-178.8 1116.93,-214.8"/>
<text text-anchor="middle" x="1031" y="-192.6" font-family="Times,serif" font-size="14.00">FormCheckboxComponent </text>
</g>
<!-- VcdFormModule&#45;&gt;FormCheckboxComponent  -->
<g id="edge7" class="edge">
<title>VcdFormModule&#45;&gt;FormCheckboxComponent </title>
<path fill="none" stroke="black" stroke-dasharray="5,2" d="M746.88,-137.8C829.89,-137.8 974.45,-137.8 974.45,-137.8 974.45,-137.8 974.45,-168.78 974.45,-168.78"/>
<polygon fill="black" stroke="black" points="970.95,-168.78 974.45,-178.78 977.95,-168.78 970.95,-168.78"/>
</g>
<!-- FormInputComponent  -->
<g id="node9" class="node">
<title>FormInputComponent </title>
<polygon fill="#fb8072" stroke="black" points="927.22,-214.8 782.78,-214.8 782.78,-178.8 927.22,-178.8 927.22,-214.8"/>
<text text-anchor="middle" x="855" y="-192.6" font-family="Times,serif" font-size="14.00">FormInputComponent </text>
</g>
<!-- VcdFormModule&#45;&gt;FormInputComponent  -->
<g id="edge8" class="edge">
<title>VcdFormModule&#45;&gt;FormInputComponent </title>
<path fill="none" stroke="black" stroke-dasharray="5,2" d="M746.65,-143.8C769.42,-143.8 790.39,-143.8 790.39,-143.8 790.39,-143.8 790.39,-168.56 790.39,-168.56"/>
<polygon fill="black" stroke="black" points="786.89,-168.56 790.39,-178.56 793.89,-168.56 786.89,-168.56"/>
</g>
<!-- FormSelectComponent  -->
<g id="node10" class="node">
<title>FormSelectComponent </title>
<polygon fill="#fb8072" stroke="black" points="764.88,-214.8 615.12,-214.8 615.12,-178.8 764.88,-178.8 764.88,-214.8"/>
<text text-anchor="middle" x="690" y="-192.6" font-family="Times,serif" font-size="14.00">FormSelectComponent </text>
</g>
<!-- VcdFormModule&#45;&gt;FormSelectComponent  -->
<g id="edge9" class="edge">
<title>VcdFormModule&#45;&gt;FormSelectComponent </title>
<path fill="none" stroke="black" stroke-dasharray="5,2" d="M690,-149.91C690,-149.91 690,-168.79 690,-168.79"/>
<polygon fill="black" stroke="black" points="686.5,-168.79 690,-178.79 693.5,-168.79 686.5,-168.79"/>
</g>
<!-- NumberWithUnitFormInputComponent  -->
<g id="node11" class="node">
<title>NumberWithUnitFormInputComponent </title>
<polygon fill="#fb8072" stroke="black" points="597.98,-214.8 354.02,-214.8 354.02,-178.8 597.98,-178.8 597.98,-214.8"/>
<text text-anchor="middle" x="476" y="-192.6" font-family="Times,serif" font-size="14.00">NumberWithUnitFormInputComponent </text>
</g>
<!-- VcdFormModule&#45;&gt;NumberWithUnitFormInputComponent  -->
<g id="edge10" class="edge">
<title>VcdFormModule&#45;&gt;NumberWithUnitFormInputComponent </title>
<path fill="none" stroke="black" stroke-dasharray="5,2" d="M633.39,-143.8C611.97,-143.8 592.68,-143.8 592.68,-143.8 592.68,-143.8 592.68,-168.56 592.68,-168.56"/>
<polygon fill="black" stroke="black" points="589.18,-168.56 592.68,-178.56 596.18,-168.56 589.18,-168.56"/>
</g>
<!-- ResponsiveInputDirectiveModule  -->
<g id="node12" class="node">
<title>ResponsiveInputDirectiveModule </title>
<polygon fill="#fb8072" stroke="black" points="336.74,-214.8 127.26,-214.8 127.26,-178.8 336.74,-178.8 336.74,-214.8"/>
<text text-anchor="middle" x="232" y="-192.6" font-family="Times,serif" font-size="14.00">ResponsiveInputDirectiveModule </text>
</g>
<!-- VcdFormModule&#45;&gt;ResponsiveInputDirectiveModule  -->
<g id="edge11" class="edge">
<title>VcdFormModule&#45;&gt;ResponsiveInputDirectiveModule </title>
<path fill="none" stroke="black" stroke-dasharray="5,2" d="M633.01,-137.8C526.82,-137.8 309.34,-137.8 309.34,-137.8 309.34,-137.8 309.34,-168.78 309.34,-168.78"/>
<polygon fill="black" stroke="black" points="305.84,-168.78 309.34,-178.78 312.84,-168.78 305.84,-168.78"/>
</g>
<!-- AlternativeTextModule -->
<g id="node6" class="node">
<title>AlternativeTextModule</title>
<polygon fill="#8dd3c7" stroke="black" points="1170.18,-84.8 1167.18,-88.8 1146.18,-88.8 1143.18,-84.8 1021.82,-84.8 1021.82,-48.8 1170.18,-48.8 1170.18,-84.8"/>
<text text-anchor="middle" x="1096" y="-62.6" font-family="Times,serif" font-size="14.00">AlternativeTextModule</text>
</g>
<!-- AlternativeTextModule&#45;&gt;VcdFormModule -->
<g id="edge5" class="edge">
<title>AlternativeTextModule&#45;&gt;VcdFormModule</title>
<path fill="none" stroke="black" d="M1069.44,-84.82C1069.44,-102.17 1069.44,-125.8 1069.44,-125.8 1069.44,-125.8 756.81,-125.8 756.81,-125.8"/>
<polygon fill="black" stroke="black" points="756.81,-122.3 746.81,-125.8 756.81,-129.3 756.81,-122.3"/>
</g>
<!-- ResponsiveInputDirectiveModule -->
<g id="node7" class="node">
<title>ResponsiveInputDirectiveModule</title>
<polygon fill="#8dd3c7" stroke="black" points="1003.74,-84.8 1000.74,-88.8 979.74,-88.8 976.74,-84.8 798.26,-84.8 798.26,-48.8 1003.74,-48.8 1003.74,-84.8"/>
<text text-anchor="middle" x="901" y="-62.6" font-family="Times,serif" font-size="14.00">ResponsiveInputDirectiveModule</text>
</g>
<!-- ResponsiveInputDirectiveModule&#45;&gt;VcdFormModule -->
<g id="edge6" class="edge">
<title>ResponsiveInputDirectiveModule&#45;&gt;VcdFormModule</title>
<path fill="none" stroke="black" d="M862.75,-85.04C862.75,-100.37 862.75,-119.8 862.75,-119.8 862.75,-119.8 757.04,-119.8 757.04,-119.8"/>
<polygon fill="black" stroke="black" points="757.04,-116.3 747.04,-119.8 757.04,-123.3 757.04,-116.3"/>
</g>
<!-- UnitFormatter -->
<g id="node13" class="node">
<title>UnitFormatter</title>
<ellipse fill="#fdb462" stroke="black" cx="1260" cy="-66.8" rx="66.07" ry="18"/>
<text text-anchor="middle" x="1260" y="-62.6" font-family="Times,serif" font-size="14.00">UnitFormatter</text>
</g>
<!-- UnitFormatter&#45;&gt;VcdFormModule -->
<g id="edge12" class="edge">
<title>UnitFormatter&#45;&gt;VcdFormModule</title>
<path fill="none" stroke="black" d="M1260,-84.91C1260,-104.14 1260,-131.8 1260,-131.8 1260,-131.8 756.74,-131.8 756.74,-131.8"/>
<polygon fill="black" stroke="black" points="756.74,-128.3 746.74,-131.8 756.74,-135.3 756.74,-128.3"/>
</g>
</g>
</svg>
