<?xml version="1.0" encoding="UTF-8" standalone="no"?>
<!DOCTYPE svg PUBLIC "-//W3C//DTD SVG 1.1//EN"
 "http://www.w3.org/Graphics/SVG/1.1/DTD/svg11.dtd">
<!-- Generated by graphviz version 2.40.1 (20161225.0304)
 -->
<!-- Title: dependencies Pages: 1 -->
<svg width="1358pt" height="284pt"
 viewBox="0.00 0.00 1358.00 284.00" xmlns="http://www.w3.org/2000/svg" xmlns:xlink="http://www.w3.org/1999/xlink">
<g id="graph0" class="graph" transform="scale(1 1) rotate(0) translate(4 280)">
<title>dependencies</title>
<polygon fill="#ffffff" stroke="transparent" points="-4,4 -4,-280 1354,-280 1354,4 -4,4"/>
<text text-anchor="start" x="654.0091" y="-42.4" font-family="sans-serif" font-weight="bold" font-size="14.00" fill="#000000">Legend</text>
<polygon fill="#ffffb3" stroke="transparent" points="441,-10 441,-30 461,-30 461,-10 441,-10"/>
<text text-anchor="start" x="464.629" y="-15.4" font-family="sans-serif" font-size="14.00" fill="#000000"> &#160;Declarations</text>
<polygon fill="#8dd3c7" stroke="transparent" points="554,-10 554,-30 574,-30 574,-10 554,-10"/>
<text text-anchor="start" x="577.7251" y="-15.4" font-family="sans-serif" font-size="14.00" fill="#000000"> &#160;Module</text>
<polygon fill="#80b1d3" stroke="transparent" points="640,-10 640,-30 660,-30 660,-10 640,-10"/>
<text text-anchor="start" x="663.7812" y="-15.4" font-family="sans-serif" font-size="14.00" fill="#000000"> &#160;Bootstrap</text>
<polygon fill="#fdb462" stroke="transparent" points="737,-10 737,-30 757,-30 757,-10 737,-10"/>
<text text-anchor="start" x="760.6732" y="-15.4" font-family="sans-serif" font-size="14.00" fill="#000000"> &#160;Providers</text>
<polygon fill="#fb8072" stroke="transparent" points="833,-10 833,-30 853,-30 853,-10 833,-10"/>
<text text-anchor="start" x="856.7258" y="-15.4" font-family="sans-serif" font-size="14.00" fill="#000000"> &#160;Exports</text>
<g id="clust1" class="cluster">
<title>cluster_VcdFormModule</title>
<polygon fill="none" stroke="#000000" stroke-dasharray="1,5" points="8,-70 8,-268 1342,-268 1342,-70 8,-70"/>
</g>
<g id="clust2" class="cluster">
<title>cluster_VcdFormModule_declarations</title>
<polygon fill="none" stroke="#000000" points="568,-78 568,-130 1334,-130 1334,-78 568,-78"/>
</g>
<g id="clust7" class="cluster">
<title>cluster_VcdFormModule_imports</title>
<polygon fill="none" stroke="#000000" points="172,-78 172,-130 560,-130 560,-78 172,-78"/>
</g>
<g id="clust8" class="cluster">
<title>cluster_VcdFormModule_exports</title>
<polygon fill="none" stroke="#000000" points="125,-208 125,-260 1131,-260 1131,-208 125,-208"/>
</g>
<g id="clust10" class="cluster">
<title>cluster_VcdFormModule_providers</title>
<polygon fill="none" stroke="#000000" points="16,-78 16,-130 164,-130 164,-78 16,-78"/>
</g>
<!-- FormCheckboxComponent -->
<g id="node1" class="node">
<title>FormCheckboxComponent</title>
<polygon fill="#ffffb3" stroke="#000000" points="1326.4326,-122 1157.5674,-122 1157.5674,-86 1326.4326,-86 1326.4326,-122"/>
<text text-anchor="middle" x="1242" y="-99.8" font-family="Times,serif" font-size="14.00" fill="#000000">FormCheckboxComponent</text>
</g>
<!-- VcdFormModule -->
<g id="node5" class="node">
<title>VcdFormModule</title>
<polygon fill="#8dd3c7" stroke="#000000" points="752.705,-187 749.705,-191 728.705,-191 725.705,-187 639.295,-187 639.295,-151 752.705,-151 752.705,-187"/>
<text text-anchor="middle" x="696" y="-164.8" font-family="Times,serif" font-size="14.00" fill="#000000">VcdFormModule</text>
</g>
<!-- FormCheckboxComponent&#45;&gt;VcdFormModule -->
<g id="edge1" class="edge">
<title>FormCheckboxComponent&#45;&gt;VcdFormModule</title>
<path fill="none" stroke="#000000" d="M1242,-122.1061C1242,-141.3391 1242,-169 1242,-169 1242,-169 762.6305,-169 762.6305,-169"/>
<polygon fill="#000000" stroke="#000000" points="762.6306,-165.5001 752.6305,-169 762.6305,-172.5001 762.6306,-165.5001"/>
</g>
<!-- FormInputComponent -->
<g id="node2" class="node">
<title>FormInputComponent</title>
<polygon fill="#ffffb3" stroke="#000000" points="1139.7176,-122 998.2824,-122 998.2824,-86 1139.7176,-86 1139.7176,-122"/>
<text text-anchor="middle" x="1069" y="-99.8" font-family="Times,serif" font-size="14.00" fill="#000000">FormInputComponent</text>
</g>
<!-- FormInputComponent&#45;&gt;VcdFormModule -->
<g id="edge2" class="edge">
<title>FormInputComponent&#45;&gt;VcdFormModule</title>
<path fill="none" stroke="#000000" d="M1060.6786,-122.0225C1060.6786,-139.3734 1060.6786,-163 1060.6786,-163 1060.6786,-163 762.981,-163 762.981,-163"/>
<polygon fill="#000000" stroke="#000000" points="762.9811,-159.5001 752.981,-163 762.981,-166.5001 762.9811,-159.5001"/>
</g>
<!-- FormSelectComponent -->
<g id="node3" class="node">
<title>FormSelectComponent</title>
<polygon fill="#ffffb3" stroke="#000000" points="979.8739,-122 834.1261,-122 834.1261,-86 979.8739,-86 979.8739,-122"/>
<text text-anchor="middle" x="907" y="-99.8" font-family="Times,serif" font-size="14.00" fill="#000000">FormSelectComponent</text>
</g>
<!-- FormSelectComponent&#45;&gt;VcdFormModule -->
<g id="edge3" class="edge">
<title>FormSelectComponent&#45;&gt;VcdFormModule</title>
<path fill="none" stroke="#000000" d="M883.7109,-122.2396C883.7109,-137.5706 883.7109,-157 883.7109,-157 883.7109,-157 762.8289,-157 762.8289,-157"/>
<polygon fill="#000000" stroke="#000000" points="762.8289,-153.5001 752.8289,-157 762.8288,-160.5001 762.8289,-153.5001"/>
</g>
<!-- NumberWithUnitFormInputComponent -->
<g id="node4" class="node">
<title>NumberWithUnitFormInputComponent</title>
<polygon fill="#ffffb3" stroke="#000000" points="815.9734,-122 576.0266,-122 576.0266,-86 815.9734,-86 815.9734,-122"/>
<text text-anchor="middle" x="696" y="-99.8" font-family="Times,serif" font-size="14.00" fill="#000000">NumberWithUnitFormInputComponent</text>
</g>
<!-- NumberWithUnitFormInputComponent&#45;&gt;VcdFormModule -->
<g id="edge4" class="edge">
<title>NumberWithUnitFormInputComponent&#45;&gt;VcdFormModule</title>
<path fill="none" stroke="#000000" d="M696,-122.1061C696,-122.1061 696,-140.991 696,-140.991"/>
<polygon fill="#000000" stroke="#000000" points="692.5001,-140.9909 696,-150.991 699.5001,-140.991 692.5001,-140.9909"/>
</g>
<!-- FormCheckboxComponent  -->
<g id="node8" class="node">
<title>FormCheckboxComponent </title>
<polygon fill="#fb8072" stroke="#000000" points="1122.932,-252 951.068,-252 951.068,-216 1122.932,-216 1122.932,-252"/>
<text text-anchor="middle" x="1037" y="-229.8" font-family="Times,serif" font-size="14.00" fill="#000000">FormCheckboxComponent </text>
</g>
<!-- VcdFormModule&#45;&gt;FormCheckboxComponent  -->
<g id="edge7" class="edge">
<title>VcdFormModule&#45;&gt;FormCheckboxComponent </title>
<path fill="none" stroke="#000000" stroke-dasharray="5,2" d="M752.8216,-175C831.8856,-175 965.4855,-175 965.4855,-175 965.4855,-175 965.4855,-205.9775 965.4855,-205.9775"/>
<polygon fill="#000000" stroke="#000000" points="961.9855,-205.9774 965.4855,-215.9775 968.9855,-205.9775 961.9855,-205.9774"/>
</g>
<!-- FormInputComponent  -->
<g id="node9" class="node">
<title>FormInputComponent </title>
<polygon fill="#fb8072" stroke="#000000" points="933.2177,-252 788.7823,-252 788.7823,-216 933.2177,-216 933.2177,-252"/>
<text text-anchor="middle" x="861" y="-229.8" font-family="Times,serif" font-size="14.00" fill="#000000">FormInputComponent </text>
</g>
<!-- VcdFormModule&#45;&gt;FormInputComponent  -->
<g id="edge8" class="edge">
<title>VcdFormModule&#45;&gt;FormInputComponent </title>
<path fill="none" stroke="#000000" stroke-dasharray="5,2" d="M752.8919,-181C778.1688,-181 802.314,-181 802.314,-181 802.314,-181 802.314,-205.7604 802.314,-205.7604"/>
<polygon fill="#000000" stroke="#000000" points="798.8141,-205.7604 802.314,-215.7604 805.8141,-205.7604 798.8141,-205.7604"/>
</g>
<!-- FormSelectComponent  -->
<g id="node10" class="node">
<title>FormSelectComponent </title>
<polygon fill="#fb8072" stroke="#000000" points="770.8743,-252 621.1257,-252 621.1257,-216 770.8743,-216 770.8743,-252"/>
<text text-anchor="middle" x="696" y="-229.8" font-family="Times,serif" font-size="14.00" fill="#000000">FormSelectComponent </text>
</g>
<!-- VcdFormModule&#45;&gt;FormSelectComponent  -->
<g id="edge9" class="edge">
<title>VcdFormModule&#45;&gt;FormSelectComponent </title>
<path fill="none" stroke="#000000" stroke-dasharray="5,2" d="M696,-187.1061C696,-187.1061 696,-205.991 696,-205.991"/>
<polygon fill="#000000" stroke="#000000" points="692.5001,-205.9909 696,-215.991 699.5001,-205.991 692.5001,-205.9909"/>
</g>
<!-- NumberWithUnitFormInputComponent  -->
<g id="node11" class="node">
<title>NumberWithUnitFormInputComponent </title>
<polygon fill="#fb8072" stroke="#000000" points="603.9739,-252 360.0261,-252 360.0261,-216 603.9739,-216 603.9739,-252"/>
<text text-anchor="middle" x="482" y="-229.8" font-family="Times,serif" font-size="14.00" fill="#000000">NumberWithUnitFormInputComponent </text>
</g>
<!-- VcdFormModule&#45;&gt;NumberWithUnitFormInputComponent  -->
<g id="edge10" class="edge">
<title>VcdFormModule&#45;&gt;NumberWithUnitFormInputComponent </title>
<path fill="none" stroke="#000000" stroke-dasharray="5,2" d="M639.2093,-181C613.9772,-181 589.875,-181 589.875,-181 589.875,-181 589.875,-205.7604 589.875,-205.7604"/>
<polygon fill="#000000" stroke="#000000" points="586.3751,-205.7604 589.875,-215.7604 593.3751,-205.7604 586.3751,-205.7604"/>
</g>
<!-- ResponsiveInputDirectiveModule  -->
<g id="node12" class="node">
<title>ResponsiveInputDirectiveModule </title>
<polygon fill="#fb8072" stroke="#000000" points="342.7295,-252 133.2705,-252 133.2705,-216 342.7295,-216 342.7295,-252"/>
<text text-anchor="middle" x="238" y="-229.8" font-family="Times,serif" font-size="14.00" fill="#000000">ResponsiveInputDirectiveModule </text>
</g>
<!-- VcdFormModule&#45;&gt;ResponsiveInputDirectiveModule  -->
<g id="edge11" class="edge">
<title>VcdFormModule&#45;&gt;ResponsiveInputDirectiveModule </title>
<path fill="none" stroke="#000000" stroke-dasharray="5,2" d="M639.1804,-175C521.3701,-175 261.375,-175 261.375,-175 261.375,-175 261.375,-205.9775 261.375,-205.9775"/>
<polygon fill="#000000" stroke="#000000" points="257.8751,-205.9774 261.375,-215.9775 264.8751,-205.9775 257.8751,-205.9774"/>
</g>
<!-- AlternativeTextModule -->
<g id="node6" class="node">
<title>AlternativeTextModule</title>
<polygon fill="#8dd3c7" stroke="#000000" points="552.1811,-122 549.1811,-126 528.1811,-126 525.1811,-122 403.8189,-122 403.8189,-86 552.1811,-86 552.1811,-122"/>
<text text-anchor="middle" x="478" y="-99.8" font-family="Times,serif" font-size="14.00" fill="#000000">AlternativeTextModule</text>
</g>
<!-- AlternativeTextModule&#45;&gt;VcdFormModule -->
<g id="edge5" class="edge">
<title>AlternativeTextModule&#45;&gt;VcdFormModule</title>
<path fill="none" stroke="#000000" d="M478,-122.2396C478,-137.5706 478,-157 478,-157 478,-157 629.2922,-157 629.2922,-157"/>
<polygon fill="#000000" stroke="#000000" points="629.2922,-160.5001 639.2922,-157 629.2921,-153.5001 629.2922,-160.5001"/>
</g>
<!-- ResponsiveInputDirectiveModule -->
<g id="node7" class="node">
<title>ResponsiveInputDirectiveModule</title>
<polygon fill="#8dd3c7" stroke="#000000" points="385.7296,-122 382.7296,-126 361.7296,-126 358.7296,-122 180.2704,-122 180.2704,-86 385.7296,-86 385.7296,-122"/>
<text text-anchor="middle" x="283" y="-99.8" font-family="Times,serif" font-size="14.00" fill="#000000">ResponsiveInputDirectiveModule</text>
</g>
<!-- ResponsiveInputDirectiveModule&#45;&gt;VcdFormModule -->
<g id="edge6" class="edge">
<title>ResponsiveInputDirectiveModule&#45;&gt;VcdFormModule</title>
<path fill="none" stroke="#000000" d="M373.064,-122.0225C373.064,-139.3734 373.064,-163 373.064,-163 373.064,-163 629.3793,-163 629.3793,-163"/>
<polygon fill="#000000" stroke="#000000" points="629.3793,-166.5001 639.3793,-163 629.3793,-159.5001 629.3793,-166.5001"/>
</g>
<!-- UnitFormatter -->
<g id="node13" class="node">
<title>UnitFormatter</title>
<ellipse fill="#fdb462" stroke="#000000" cx="90" cy="-104" rx="66.0666" ry="18"/>
<text text-anchor="middle" x="90" y="-99.8" font-family="Times,serif" font-size="14.00" fill="#000000">UnitFormatter</text>
</g>
<!-- UnitFormatter&#45;&gt;VcdFormModule -->
<g id="edge12" class="edge">
<title>UnitFormatter&#45;&gt;VcdFormModule</title>
<path fill="none" stroke="#000000" d="M144.8341,-114.1563C144.8341,-132.4375 144.8341,-169 144.8341,-169 144.8341,-169 629.3489,-169 629.3489,-169"/>
<polygon fill="#000000" stroke="#000000" points="629.3489,-172.5001 639.3489,-169 629.3488,-165.5001 629.3489,-172.5001"/>
</g>
</g>
</svg>
