<?xml version="1.0" encoding="UTF-8" standalone="no"?>
<!DOCTYPE svg PUBLIC "-//W3C//DTD SVG 1.1//EN"
 "http://www.w3.org/Graphics/SVG/1.1/DTD/svg11.dtd">
<!-- Generated by graphviz version 2.40.1 (20161225.0304)
 -->
<!-- Title: dependencies Pages: 1 -->
<svg width="504pt" height="284pt"
 viewBox="0.00 0.00 504.00 284.00" xmlns="http://www.w3.org/2000/svg" xmlns:xlink="http://www.w3.org/1999/xlink">
<g id="graph0" class="graph" transform="scale(1 1) rotate(0) translate(4 280)">
<title>dependencies</title>
<polygon fill="#ffffff" stroke="transparent" points="-4,4 -4,-280 500,-280 500,4 -4,4"/>
<text text-anchor="start" x="227.0091" y="-42.4" font-family="sans-serif" font-weight="bold" font-size="14.00" fill="#000000">Legend</text>
<polygon fill="#ffffb3" stroke="transparent" points="14,-10 14,-30 34,-30 34,-10 14,-10"/>
<text text-anchor="start" x="37.629" y="-15.4" font-family="sans-serif" font-size="14.00" fill="#000000"> &#160;Declarations</text>
<polygon fill="#8dd3c7" stroke="transparent" points="127,-10 127,-30 147,-30 147,-10 127,-10"/>
<text text-anchor="start" x="150.7251" y="-15.4" font-family="sans-serif" font-size="14.00" fill="#000000"> &#160;Module</text>
<polygon fill="#80b1d3" stroke="transparent" points="213,-10 213,-30 233,-30 233,-10 213,-10"/>
<text text-anchor="start" x="236.7812" y="-15.4" font-family="sans-serif" font-size="14.00" fill="#000000"> &#160;Bootstrap</text>
<polygon fill="#fdb462" stroke="transparent" points="310,-10 310,-30 330,-30 330,-10 310,-10"/>
<text text-anchor="start" x="333.6732" y="-15.4" font-family="sans-serif" font-size="14.00" fill="#000000"> &#160;Providers</text>
<polygon fill="#fb8072" stroke="transparent" points="406,-10 406,-30 426,-30 426,-10 406,-10"/>
<text text-anchor="start" x="429.7258" y="-15.4" font-family="sans-serif" font-size="14.00" fill="#000000"> &#160;Exports</text>
<g id="clust1" class="cluster">
<title>cluster_QuickSearchModule</title>
<polygon fill="none" stroke="#000000" stroke-dasharray="1,5" points="84.5,-70 84.5,-268 411.5,-268 411.5,-70 84.5,-70"/>
</g>
<g id="clust2" class="cluster">
<title>cluster_QuickSearchModule_declarations</title>
<polygon fill="none" stroke="#000000" points="92.5,-78 92.5,-130 403.5,-130 403.5,-78 92.5,-78"/>
</g>
<g id="clust6" class="cluster">
<title>cluster_QuickSearchModule_exports</title>
<polygon fill="none" stroke="#000000" points="160.5,-208 160.5,-260 334.5,-260 334.5,-208 160.5,-208"/>
</g>
<!-- DrawerComponent -->
<g id="node1" class="node">
<title>DrawerComponent</title>
<polygon fill="#ffffb3" stroke="#000000" points="395.2964,-122 271.7036,-122 271.7036,-86 395.2964,-86 395.2964,-122"/>
<text text-anchor="middle" x="333.5" y="-99.8" font-family="Times,serif" font-size="14.00" fill="#000000">DrawerComponent</text>
</g>
<!-- QuickSearchModule -->
<g id="node3" class="node">
<title>QuickSearchModule</title>
<polygon fill="#8dd3c7" stroke="#000000" points="313.3487,-187 310.3487,-191 289.3487,-191 286.3487,-187 181.6513,-187 181.6513,-151 313.3487,-151 313.3487,-187"/>
<text text-anchor="middle" x="247.5" y="-164.8" font-family="Times,serif" font-size="14.00" fill="#000000">QuickSearchModule</text>
</g>
<!-- DrawerComponent&#45;&gt;QuickSearchModule -->
<g id="edge1" class="edge">
<title>DrawerComponent&#45;&gt;QuickSearchModule</title>
<path fill="none" stroke="#000000" d="M292.6382,-122.1061C292.6382,-122.1061 292.6382,-140.991 292.6382,-140.991"/>
<polygon fill="#000000" stroke="#000000" points="289.1382,-140.9909 292.6382,-150.991 296.1382,-140.991 289.1382,-140.9909"/>
</g>
<!-- QuickSearchComponent -->
<g id="node2" class="node">
<title>QuickSearchComponent</title>
<polygon fill="#ffffb3" stroke="#000000" points="254.1316,-122 100.8684,-122 100.8684,-86 254.1316,-86 254.1316,-122"/>
<text text-anchor="middle" x="177.5" y="-99.8" font-family="Times,serif" font-size="14.00" fill="#000000">QuickSearchComponent</text>
</g>
<!-- QuickSearchComponent&#45;&gt;QuickSearchModule -->
<g id="edge2" class="edge">
<title>QuickSearchComponent&#45;&gt;QuickSearchModule</title>
<path fill="none" stroke="#000000" d="M217.9457,-122.1061C217.9457,-122.1061 217.9457,-140.991 217.9457,-140.991"/>
<polygon fill="#000000" stroke="#000000" points="214.4457,-140.9909 217.9457,-150.991 221.4457,-140.991 214.4457,-140.9909"/>
</g>
<!-- QuickSearchComponent  -->
<g id="node4" class="node">
<title>QuickSearchComponent </title>
<polygon fill="#fb8072" stroke="#000000" points="326.1313,-252 168.8687,-252 168.8687,-216 326.1313,-216 326.1313,-252"/>
<text text-anchor="middle" x="247.5" y="-229.8" font-family="Times,serif" font-size="14.00" fill="#000000">QuickSearchComponent </text>
</g>
<!-- QuickSearchModule&#45;&gt;QuickSearchComponent  -->
<g id="edge3" class="edge">
<title>QuickSearchModule&#45;&gt;QuickSearchComponent </title>
<path fill="none" stroke="#000000" stroke-dasharray="5,2" d="M247.5,-187.1061C247.5,-187.1061 247.5,-205.991 247.5,-205.991"/>
<polygon fill="#000000" stroke="#000000" points="244.0001,-205.9909 247.5,-215.991 251.0001,-205.991 244.0001,-205.9909"/>
</g>
</g>
</svg>
