<?xml version="1.0" encoding="UTF-8" standalone="no"?>
<!DOCTYPE svg PUBLIC "-//W3C//DTD SVG 1.1//EN"
 "http://www.w3.org/Graphics/SVG/1.1/DTD/svg11.dtd">
<!-- Generated by graphviz version 2.40.1 (20161225.0304)
 -->
<!-- Title: dependencies Pages: 1 -->
<svg width="589pt" height="284pt"
 viewBox="0.00 0.00 589.00 284.00" xmlns="http://www.w3.org/2000/svg" xmlns:xlink="http://www.w3.org/1999/xlink">
<g id="graph0" class="graph" transform="scale(1 1) rotate(0) translate(4 280)">
<title>dependencies</title>
<polygon fill="#ffffff" stroke="transparent" points="-4,4 -4,-280 585,-280 585,4 -4,4"/>
<text text-anchor="start" x="269.5091" y="-42.4" font-family="sans-serif" font-weight="bold" font-size="14.00" fill="#000000">Legend</text>
<polygon fill="#ffffb3" stroke="transparent" points="56.5,-10 56.5,-30 76.5,-30 76.5,-10 56.5,-10"/>
<text text-anchor="start" x="80.129" y="-15.4" font-family="sans-serif" font-size="14.00" fill="#000000"> &#160;Declarations</text>
<polygon fill="#8dd3c7" stroke="transparent" points="169.5,-10 169.5,-30 189.5,-30 189.5,-10 169.5,-10"/>
<text text-anchor="start" x="193.2251" y="-15.4" font-family="sans-serif" font-size="14.00" fill="#000000"> &#160;Module</text>
<polygon fill="#80b1d3" stroke="transparent" points="255.5,-10 255.5,-30 275.5,-30 275.5,-10 255.5,-10"/>
<text text-anchor="start" x="279.2812" y="-15.4" font-family="sans-serif" font-size="14.00" fill="#000000"> &#160;Bootstrap</text>
<polygon fill="#fdb462" stroke="transparent" points="352.5,-10 352.5,-30 372.5,-30 372.5,-10 352.5,-10"/>
<text text-anchor="start" x="376.1732" y="-15.4" font-family="sans-serif" font-size="14.00" fill="#000000"> &#160;Providers</text>
<polygon fill="#fb8072" stroke="transparent" points="448.5,-10 448.5,-30 468.5,-30 468.5,-10 448.5,-10"/>
<text text-anchor="start" x="472.2258" y="-15.4" font-family="sans-serif" font-size="14.00" fill="#000000"> &#160;Exports</text>
<g id="clust1" class="cluster">
<title>cluster_QuickSearchModule</title>
<polygon fill="none" stroke="#000000" stroke-dasharray="1,5" points="8,-70 8,-268 573,-268 573,-70 8,-70"/>
</g>
<g id="clust2" class="cluster">
<title>cluster_QuickSearchModule_declarations</title>
<polygon fill="none" stroke="#000000" points="254,-78 254,-130 565,-130 565,-78 254,-78"/>
</g>
<g id="clust5" class="cluster">
<title>cluster_QuickSearchModule_imports</title>
<polygon fill="none" stroke="#000000" points="16,-78 16,-130 246,-130 246,-78 16,-78"/>
</g>
<g id="clust6" class="cluster">
<title>cluster_QuickSearchModule_exports</title>
<polygon fill="none" stroke="#000000" points="252,-208 252,-260 426,-260 426,-208 252,-208"/>
</g>
<!-- DrawerComponent -->
<g id="node1" class="node">
<title>DrawerComponent</title>
<polygon fill="#ffffb3" stroke="#000000" points="556.7964,-122 433.2036,-122 433.2036,-86 556.7964,-86 556.7964,-122"/>
<text text-anchor="middle" x="495" y="-99.8" font-family="Times,serif" font-size="14.00" fill="#000000">DrawerComponent</text>
</g>
<!-- QuickSearchModule -->
<g id="node3" class="node">
<title>QuickSearchModule</title>
<polygon fill="#8dd3c7" stroke="#000000" points="404.8487,-187 401.8487,-191 380.8487,-191 377.8487,-187 273.1513,-187 273.1513,-151 404.8487,-151 404.8487,-187"/>
<text text-anchor="middle" x="339" y="-164.8" font-family="Times,serif" font-size="14.00" fill="#000000">QuickSearchModule</text>
</g>
<!-- DrawerComponent&#45;&gt;QuickSearchModule -->
<g id="edge1" class="edge">
<title>DrawerComponent&#45;&gt;QuickSearchModule</title>
<path fill="none" stroke="#000000" d="M495,-122.1061C495,-141.3391 495,-169 495,-169 495,-169 415.158,-169 415.158,-169"/>
<polygon fill="#000000" stroke="#000000" points="415.1581,-165.5001 405.158,-169 415.158,-172.5001 415.1581,-165.5001"/>
</g>
<!-- QuickSearchComponent -->
<g id="node2" class="node">
<title>QuickSearchComponent</title>
<polygon fill="#ffffb3" stroke="#000000" points="415.6316,-122 262.3684,-122 262.3684,-86 415.6316,-86 415.6316,-122"/>
<text text-anchor="middle" x="339" y="-99.8" font-family="Times,serif" font-size="14.00" fill="#000000">QuickSearchComponent</text>
</g>
<!-- QuickSearchComponent&#45;&gt;QuickSearchModule -->
<g id="edge2" class="edge">
<title>QuickSearchComponent&#45;&gt;QuickSearchModule</title>
<path fill="none" stroke="#000000" d="M339,-122.1061C339,-122.1061 339,-140.991 339,-140.991"/>
<polygon fill="#000000" stroke="#000000" points="335.5001,-140.9909 339,-150.991 342.5001,-140.991 335.5001,-140.9909"/>
</g>
<!-- QuickSearchComponent  -->
<g id="node5" class="node">
<title>QuickSearchComponent </title>
<polygon fill="#fb8072" stroke="#000000" points="417.6313,-252 260.3687,-252 260.3687,-216 417.6313,-216 417.6313,-252"/>
<text text-anchor="middle" x="339" y="-229.8" font-family="Times,serif" font-size="14.00" fill="#000000">QuickSearchComponent </text>
</g>
<!-- QuickSearchModule&#45;&gt;QuickSearchComponent  -->
<g id="edge4" class="edge">
<title>QuickSearchModule&#45;&gt;QuickSearchComponent </title>
<path fill="none" stroke="#000000" stroke-dasharray="5,2" d="M339,-187.1061C339,-187.1061 339,-205.991 339,-205.991"/>
<polygon fill="#000000" stroke="#000000" points="335.5001,-205.9909 339,-215.991 342.5001,-205.991 335.5001,-205.9909"/>
</g>
<!-- ShowClippedTextDirectiveModule -->
<g id="node4" class="node">
<title>ShowClippedTextDirectiveModule</title>
<polygon fill="#8dd3c7" stroke="#000000" points="237.5126,-122 234.5126,-126 213.5126,-126 210.5126,-122 24.4874,-122 24.4874,-86 237.5126,-86 237.5126,-122"/>
<text text-anchor="middle" x="131" y="-99.8" font-family="Times,serif" font-size="14.00" fill="#000000">ShowClippedTextDirectiveModule</text>
</g>
<!-- ShowClippedTextDirectiveModule&#45;&gt;QuickSearchModule -->
<g id="edge3" class="edge">
<title>ShowClippedTextDirectiveModule&#45;&gt;QuickSearchModule</title>
<path fill="none" stroke="#000000" d="M131,-122.1061C131,-141.3391 131,-169 131,-169 131,-169 262.9017,-169 262.9017,-169"/>
<polygon fill="#000000" stroke="#000000" points="262.9017,-172.5001 272.9017,-169 262.9017,-165.5001 262.9017,-172.5001"/>
</g>
</g>
</svg>
