<?xml version="1.0" encoding="UTF-8" standalone="no"?>
<!DOCTYPE svg PUBLIC "-//W3C//DTD SVG 1.1//EN"
 "http://www.w3.org/Graphics/SVG/1.1/DTD/svg11.dtd">
<!-- Generated by graphviz version 5.0.0 (20220707.1540)
 -->
<!-- Title: dependencies Pages: 1 -->
<svg width="589pt" height="247pt"
 viewBox="0.00 0.00 589.00 246.80" xmlns="http://www.w3.org/2000/svg" xmlns:xlink="http://www.w3.org/1999/xlink">
<g id="graph0" class="graph" transform="scale(1 1) rotate(0) translate(4 242.8)">
<title>dependencies</title>
<polygon fill="white" stroke="transparent" points="-4,4 -4,-242.8 585,-242.8 585,4 -4,4"/>
<text text-anchor="middle" x="290.5" y="-8.2" font-family="sans-serif" font-size="14.00">dependencies</text>
<g id="clust1" class="cluster">
<title>cluster_QuickSearchModule</title>
<polygon fill="none" stroke="black" stroke-dasharray="1,5" points="8,-32.8 8,-230.8 573,-230.8 573,-32.8 8,-32.8"/>
</g>
<g id="clust6" class="cluster">
<title>cluster_QuickSearchModule_exports</title>
<polygon fill="none" stroke="black" points="170,-170.8 170,-222.8 344,-222.8 344,-170.8 170,-170.8"/>
</g>
<g id="clust5" class="cluster">
<title>cluster_QuickSearchModule_imports</title>
<polygon fill="none" stroke="black" points="335,-40.8 335,-92.8 565,-92.8 565,-40.8 335,-40.8"/>
</g>
<g id="clust2" class="cluster">
<title>cluster_QuickSearchModule_declarations</title>
<polygon fill="none" stroke="black" points="16,-40.8 16,-92.8 327,-92.8 327,-40.8 16,-40.8"/>
</g>
<!-- DrawerComponent -->
<g id="node1" class="node">
<title>DrawerComponent</title>
<polygon fill="#ffffb3" stroke="black" points="318.8,-84.8 195.2,-84.8 195.2,-48.8 318.8,-48.8 318.8,-84.8"/>
<text text-anchor="middle" x="257" y="-62.6" font-family="Times,serif" font-size="14.00">DrawerComponent</text>
</g>
<!-- QuickSearchModule -->
<g id="node3" class="node">
<title>QuickSearchModule</title>
<polygon fill="#8dd3c7" stroke="black" points="322.86,-149.8 319.86,-153.8 298.86,-153.8 295.86,-149.8 191.14,-149.8 191.14,-113.8 322.86,-113.8 322.86,-149.8"/>
<text text-anchor="middle" x="257" y="-127.6" font-family="Times,serif" font-size="14.00">QuickSearchModule</text>
</g>
<!-- DrawerComponent&#45;&gt;QuickSearchModule -->
<g id="edge1" class="edge">
<title>DrawerComponent&#45;&gt;QuickSearchModule</title>
<path fill="none" stroke="black" d="M257,-84.91C257,-84.91 257,-103.79 257,-103.79"/>
<polygon fill="black" stroke="black" points="253.5,-103.79 257,-113.79 260.5,-103.79 253.5,-103.79"/>
</g>
<!-- QuickSearchComponent -->
<g id="node2" class="node">
<title>QuickSearchComponent</title>
<polygon fill="#ffffb3" stroke="black" points="177.64,-84.8 24.36,-84.8 24.36,-48.8 177.64,-48.8 177.64,-84.8"/>
<text text-anchor="middle" x="101" y="-62.6" font-family="Times,serif" font-size="14.00">QuickSearchComponent</text>
</g>
<!-- QuickSearchComponent&#45;&gt;QuickSearchModule -->
<g id="edge2" class="edge">
<title>QuickSearchComponent&#45;&gt;QuickSearchModule</title>
<path fill="none" stroke="black" d="M101,-84.91C101,-104.14 101,-131.8 101,-131.8 101,-131.8 180.84,-131.8 180.84,-131.8"/>
<polygon fill="black" stroke="black" points="180.84,-135.3 190.84,-131.8 180.84,-128.3 180.84,-135.3"/>
</g>
<!-- QuickSearchComponent  -->
<g id="node5" class="node">
<title>QuickSearchComponent </title>
<polygon fill="#fb8072" stroke="black" points="335.63,-214.8 178.37,-214.8 178.37,-178.8 335.63,-178.8 335.63,-214.8"/>
<text text-anchor="middle" x="257" y="-192.6" font-family="Times,serif" font-size="14.00">QuickSearchComponent </text>
</g>
<!-- QuickSearchModule&#45;&gt;QuickSearchComponent  -->
<g id="edge4" class="edge">
<title>QuickSearchModule&#45;&gt;QuickSearchComponent </title>
<path fill="none" stroke="black" stroke-dasharray="5,2" d="M257,-149.91C257,-149.91 257,-168.79 257,-168.79"/>
<polygon fill="black" stroke="black" points="253.5,-168.79 257,-178.79 260.5,-168.79 253.5,-168.79"/>
</g>
<!-- ShowClippedTextDirectiveModule -->
<g id="node4" class="node">
<title>ShowClippedTextDirectiveModule</title>
<polygon fill="#8dd3c7" stroke="black" points="556.52,-84.8 553.52,-88.8 532.52,-88.8 529.52,-84.8 343.48,-84.8 343.48,-48.8 556.52,-48.8 556.52,-84.8"/>
<text text-anchor="middle" x="450" y="-62.6" font-family="Times,serif" font-size="14.00">ShowClippedTextDirectiveModule</text>
</g>
<!-- ShowClippedTextDirectiveModule&#45;&gt;QuickSearchModule -->
<g id="edge3" class="edge">
<title>ShowClippedTextDirectiveModule&#45;&gt;QuickSearchModule</title>
<path fill="none" stroke="black" d="M450,-84.91C450,-104.14 450,-131.8 450,-131.8 450,-131.8 332.88,-131.8 332.88,-131.8"/>
<polygon fill="black" stroke="black" points="332.88,-128.3 322.88,-131.8 332.88,-135.3 332.88,-128.3"/>
</g>
</g>
</svg>
