<?xml version="1.0" encoding="UTF-8" standalone="no"?>
<!DOCTYPE svg PUBLIC "-//W3C//DTD SVG 1.1//EN"
 "http://www.w3.org/Graphics/SVG/1.1/DTD/svg11.dtd">
<!-- Generated by graphviz version 5.0.0 (20220707.1540)
 -->
<!-- Title: dependencies Pages: 1 -->
<svg width="622pt" height="312pt"
 viewBox="0.00 0.00 622.00 311.80" xmlns="http://www.w3.org/2000/svg" xmlns:xlink="http://www.w3.org/1999/xlink">
<g id="graph0" class="graph" transform="scale(1 1) rotate(0) translate(4 307.8)">
<title>dependencies</title>
<polygon fill="white" stroke="transparent" points="-4,4 -4,-307.8 618,-307.8 618,4 -4,4"/>
<text text-anchor="middle" x="307" y="-8.2" font-family="sans-serif" font-size="14.00">dependencies</text>
<g id="clust1" class="cluster">
<title>cluster_QuickSearchModule</title>
<polygon fill="none" stroke="black" stroke-dasharray="1,5" points="8,-32.8 8,-295.8 606,-295.8 606,-32.8 8,-32.8"/>
</g>
<g id="clust6" class="cluster">
<title>cluster_QuickSearchModule_exports</title>
<polygon fill="none" stroke="black" points="192,-235.8 192,-287.8 366,-287.8 366,-235.8 192,-235.8"/>
</g>
<g id="clust4" class="cluster">
<title>cluster_QuickSearchModule_QuickSearchComponent_providers</title>
<polygon fill="none" stroke="black" points="402,-40.8 402,-157.8 598,-157.8 598,-40.8 402,-40.8"/>
</g>
<g id="clust5" class="cluster">
<title>cluster_QuickSearchModule_imports</title>
<polygon fill="none" stroke="black" points="164,-105.8 164,-157.8 394,-157.8 394,-105.8 164,-105.8"/>
</g>
<g id="clust2" class="cluster">
<title>cluster_QuickSearchModule_declarations</title>
<polygon fill="none" stroke="black" points="16,-105.8 16,-157.8 156,-157.8 156,-105.8 16,-105.8"/>
</g>
<!-- DrawerComponent -->
<g id="node1" class="node">
<title>DrawerComponent</title>
<polygon fill="#ffffb3" stroke="black" points="147.8,-149.8 24.2,-149.8 24.2,-113.8 147.8,-113.8 147.8,-149.8"/>
<text text-anchor="middle" x="86" y="-127.6" font-family="Times,serif" font-size="14.00">DrawerComponent</text>
</g>
<!-- QuickSearchModule -->
<g id="node3" class="node">
<title>QuickSearchModule</title>
<polygon fill="#8dd3c7" stroke="black" points="344.86,-214.8 341.86,-218.8 320.86,-218.8 317.86,-214.8 213.14,-214.8 213.14,-178.8 344.86,-178.8 344.86,-214.8"/>
<text text-anchor="middle" x="279" y="-192.6" font-family="Times,serif" font-size="14.00">QuickSearchModule</text>
</g>
<!-- DrawerComponent&#45;&gt;QuickSearchModule -->
<g id="edge1" class="edge">
<title>DrawerComponent&#45;&gt;QuickSearchModule</title>
<path fill="none" stroke="black" d="M86,-149.91C86,-169.14 86,-196.8 86,-196.8 86,-196.8 203.12,-196.8 203.12,-196.8"/>
<polygon fill="black" stroke="black" points="203.12,-200.3 213.12,-196.8 203.12,-193.3 203.12,-200.3"/>
</g>
<!-- QuickSearchComponent -->
<g id="node2" class="node">
<title>QuickSearchComponent</title>
<polygon fill="#ffffb3" stroke="black" points="569.64,-149.8 416.36,-149.8 416.36,-113.8 569.64,-113.8 569.64,-149.8"/>
<text text-anchor="middle" x="493" y="-127.6" font-family="Times,serif" font-size="14.00">QuickSearchComponent</text>
</g>
<!-- QuickSearchComponent&#45;&gt;QuickSearchModule -->
<g id="edge2" class="edge">
<title>QuickSearchComponent&#45;&gt;QuickSearchModule</title>
<path fill="none" stroke="black" d="M493,-149.91C493,-169.14 493,-196.8 493,-196.8 493,-196.8 354.95,-196.8 354.95,-196.8"/>
<polygon fill="black" stroke="black" points="354.95,-193.3 344.95,-196.8 354.95,-200.3 354.95,-193.3"/>
</g>
<!-- QuickSearchComponent  -->
<g id="node6" class="node">
<title>QuickSearchComponent </title>
<polygon fill="#fb8072" stroke="black" points="357.63,-279.8 200.37,-279.8 200.37,-243.8 357.63,-243.8 357.63,-279.8"/>
<text text-anchor="middle" x="279" y="-257.6" font-family="Times,serif" font-size="14.00">QuickSearchComponent </text>
</g>
<!-- QuickSearchModule&#45;&gt;QuickSearchComponent  -->
<g id="edge5" class="edge">
<title>QuickSearchModule&#45;&gt;QuickSearchComponent </title>
<path fill="none" stroke="black" stroke-dasharray="5,2" d="M279,-214.91C279,-214.91 279,-233.79 279,-233.79"/>
<polygon fill="black" stroke="black" points="275.5,-233.79 279,-243.79 282.5,-233.79 275.5,-233.79"/>
</g>
<!-- SubscriptionTracker -->
<g id="node4" class="node">
<title>SubscriptionTracker</title>
<ellipse fill="#fdb462" stroke="black" cx="500" cy="-66.8" rx="89.75" ry="18"/>
<text text-anchor="middle" x="500" y="-62.6" font-family="Times,serif" font-size="14.00">SubscriptionTracker</text>
</g>
<!-- SubscriptionTracker&#45;&gt;QuickSearchComponent -->
<g id="edge3" class="edge">
<title>SubscriptionTracker&#45;&gt;QuickSearchComponent</title>
<path fill="none" stroke="black" d="M493,-84.91C493,-84.91 493,-103.79 493,-103.79"/>
<polygon fill="black" stroke="black" points="489.5,-103.79 493,-113.79 496.5,-103.79 489.5,-103.79"/>
</g>
<!-- ShowClippedTextDirectiveModule -->
<g id="node5" class="node">
<title>ShowClippedTextDirectiveModule</title>
<polygon fill="#8dd3c7" stroke="black" points="385.52,-149.8 382.52,-153.8 361.52,-153.8 358.52,-149.8 172.48,-149.8 172.48,-113.8 385.52,-113.8 385.52,-149.8"/>
<text text-anchor="middle" x="279" y="-127.6" font-family="Times,serif" font-size="14.00">ShowClippedTextDirectiveModule</text>
</g>
<!-- ShowClippedTextDirectiveModule&#45;&gt;QuickSearchModule -->
<g id="edge4" class="edge">
<title>ShowClippedTextDirectiveModule&#45;&gt;QuickSearchModule</title>
<path fill="none" stroke="black" d="M279,-149.91C279,-149.91 279,-168.79 279,-168.79"/>
<polygon fill="black" stroke="black" points="275.5,-168.79 279,-178.79 282.5,-168.79 275.5,-168.79"/>
</g>
</g>
</svg>
