<?xml version="1.0" encoding="UTF-8" standalone="no"?>
<!DOCTYPE svg PUBLIC "-//W3C//DTD SVG 1.1//EN"
 "http://www.w3.org/Graphics/SVG/1.1/DTD/svg11.dtd">
<!-- Generated by graphviz version 2.47.3 (20210619.1520)
 -->
<!-- Title: dependencies Pages: 1 -->
<svg width="589pt" height="312pt"
 viewBox="0.00 0.00 589.00 311.80" xmlns="http://www.w3.org/2000/svg" xmlns:xlink="http://www.w3.org/1999/xlink">
<g id="graph0" class="graph" transform="scale(1 1) rotate(0) translate(4 307.8)">
<title>dependencies</title>
<polygon fill="white" stroke="transparent" points="-4,4 -4,-307.8 585,-307.8 585,4 -4,4"/>
<text text-anchor="middle" x="290.5" y="-8.2" font-family="sans-serif" font-size="14.00">dependencies</text>
<g id="clust1" class="cluster">
<title>cluster_QuickSearchModule</title>
<polygon fill="none" stroke="black" stroke-dasharray="1,5" points="8,-32.8 8,-295.8 573,-295.8 573,-32.8 8,-32.8"/>
</g>
<g id="clust2" class="cluster">
<title>cluster_QuickSearchModule_declarations</title>
<polygon fill="none" stroke="black" points="254,-105.8 254,-157.8 565,-157.8 565,-105.8 254,-105.8"/>
</g>
<g id="clust4" class="cluster">
<title>cluster_QuickSearchModule_QuickSearchComponent_providers</title>
<polygon fill="none" stroke="black" points="241,-40.8 241,-92.8 437,-92.8 437,-40.8 241,-40.8"/>
</g>
<g id="clust5" class="cluster">
<title>cluster_QuickSearchModule_imports</title>
<polygon fill="none" stroke="black" points="16,-105.8 16,-157.8 246,-157.8 246,-105.8 16,-105.8"/>
</g>
<g id="clust6" class="cluster">
<title>cluster_QuickSearchModule_exports</title>
<polygon fill="none" stroke="black" points="252,-235.8 252,-287.8 426,-287.8 426,-235.8 252,-235.8"/>
</g>
<!-- DrawerComponent -->
<g id="node1" class="node">
<title>DrawerComponent</title>
<polygon fill="#ffffb3" stroke="black" points="556.8,-149.8 433.2,-149.8 433.2,-113.8 556.8,-113.8 556.8,-149.8"/>
<text text-anchor="middle" x="495" y="-127.6" font-family="Times,serif" font-size="14.00">DrawerComponent</text>
</g>
<!-- QuickSearchModule -->
<g id="node3" class="node">
<title>QuickSearchModule</title>
<polygon fill="#8dd3c7" stroke="black" points="404.85,-214.8 401.85,-218.8 380.85,-218.8 377.85,-214.8 273.15,-214.8 273.15,-178.8 404.85,-178.8 404.85,-214.8"/>
<text text-anchor="middle" x="339" y="-192.6" font-family="Times,serif" font-size="14.00">QuickSearchModule</text>
</g>
<!-- DrawerComponent&#45;&gt;QuickSearchModule -->
<g id="edge1" class="edge">
<title>DrawerComponent&#45;&gt;QuickSearchModule</title>
<path fill="none" stroke="black" d="M495,-149.91C495,-169.14 495,-196.8 495,-196.8 495,-196.8 415.16,-196.8 415.16,-196.8"/>
<polygon fill="black" stroke="black" points="415.16,-193.3 405.16,-196.8 415.16,-200.3 415.16,-193.3"/>
</g>
<!-- QuickSearchComponent -->
<g id="node2" class="node">
<title>QuickSearchComponent</title>
<polygon fill="#ffffb3" stroke="black" points="415.63,-149.8 262.37,-149.8 262.37,-113.8 415.63,-113.8 415.63,-149.8"/>
<text text-anchor="middle" x="339" y="-127.6" font-family="Times,serif" font-size="14.00">QuickSearchComponent</text>
</g>
<!-- QuickSearchComponent&#45;&gt;QuickSearchModule -->
<g id="edge2" class="edge">
<title>QuickSearchComponent&#45;&gt;QuickSearchModule</title>
<path fill="none" stroke="black" d="M339,-149.91C339,-149.91 339,-168.79 339,-168.79"/>
<polygon fill="black" stroke="black" points="335.5,-168.79 339,-178.79 342.5,-168.79 335.5,-168.79"/>
</g>
<!-- QuickSearchComponent  -->
<g id="node6" class="node">
<title>QuickSearchComponent </title>
<polygon fill="#fb8072" stroke="black" points="417.63,-279.8 260.37,-279.8 260.37,-243.8 417.63,-243.8 417.63,-279.8"/>
<text text-anchor="middle" x="339" y="-257.6" font-family="Times,serif" font-size="14.00">QuickSearchComponent </text>
</g>
<!-- QuickSearchModule&#45;&gt;QuickSearchComponent  -->
<g id="edge5" class="edge">
<title>QuickSearchModule&#45;&gt;QuickSearchComponent </title>
<path fill="none" stroke="black" stroke-dasharray="5,2" d="M339,-214.91C339,-214.91 339,-233.79 339,-233.79"/>
<polygon fill="black" stroke="black" points="335.5,-233.79 339,-243.79 342.5,-233.79 335.5,-233.79"/>
</g>
<!-- SubscriptionTracker -->
<g id="node4" class="node">
<title>SubscriptionTracker</title>
<ellipse fill="#fdb462" stroke="black" cx="339" cy="-66.8" rx="89.75" ry="18"/>
<text text-anchor="middle" x="339" y="-62.6" font-family="Times,serif" font-size="14.00">SubscriptionTracker</text>
</g>
<!-- SubscriptionTracker&#45;&gt;QuickSearchComponent -->
<g id="edge3" class="edge">
<title>SubscriptionTracker&#45;&gt;QuickSearchComponent</title>
<path fill="none" stroke="black" d="M339,-84.91C339,-84.91 339,-103.79 339,-103.79"/>
<polygon fill="black" stroke="black" points="335.5,-103.79 339,-113.79 342.5,-103.79 335.5,-103.79"/>
</g>
<!-- ShowClippedTextDirectiveModule -->
<g id="node5" class="node">
<title>ShowClippedTextDirectiveModule</title>
<polygon fill="#8dd3c7" stroke="black" points="237.51,-149.8 234.51,-153.8 213.51,-153.8 210.51,-149.8 24.49,-149.8 24.49,-113.8 237.51,-113.8 237.51,-149.8"/>
<text text-anchor="middle" x="131" y="-127.6" font-family="Times,serif" font-size="14.00">ShowClippedTextDirectiveModule</text>
</g>
<!-- ShowClippedTextDirectiveModule&#45;&gt;QuickSearchModule -->
<g id="edge4" class="edge">
<title>ShowClippedTextDirectiveModule&#45;&gt;QuickSearchModule</title>
<path fill="none" stroke="black" d="M131,-149.91C131,-169.14 131,-196.8 131,-196.8 131,-196.8 262.9,-196.8 262.9,-196.8"/>
<polygon fill="black" stroke="black" points="262.9,-200.3 272.9,-196.8 262.9,-193.3 262.9,-200.3"/>
</g>
</g>
</svg>
