<?xml version="1.0" encoding="UTF-8" standalone="no"?>
<!DOCTYPE svg PUBLIC "-//W3C//DTD SVG 1.1//EN"
 "http://www.w3.org/Graphics/SVG/1.1/DTD/svg11.dtd">
<!-- Generated by graphviz version 5.0.0 (20220707.1540)
 -->
<!-- Title: dependencies Pages: 1 -->
<svg width="982pt" height="358pt"
 viewBox="0.00 0.00 982.00 358.39" xmlns="http://www.w3.org/2000/svg" xmlns:xlink="http://www.w3.org/1999/xlink">
<g id="graph0" class="graph" transform="scale(1 1) rotate(0) translate(4 354.39)">
<title>dependencies</title>
<polygon fill="white" stroke="transparent" points="-4,4 -4,-354.39 978,-354.39 978,4 -4,4"/>
<text text-anchor="middle" x="487" y="-8.2" font-family="sans-serif" font-size="14.00">dependencies</text>
<g id="clust1" class="cluster">
<title>cluster_QuickSearchModule</title>
<polygon fill="none" stroke="black" stroke-dasharray="1,5" points="8,-32.8 8,-342.39 966,-342.39 966,-32.8 8,-32.8"/>
</g>
<g id="clust6" class="cluster">
<title>cluster_QuickSearchModule_exports</title>
<polygon fill="none" stroke="black" points="457,-282.39 457,-334.39 631,-334.39 631,-282.39 457,-282.39"/>
</g>
<g id="clust5" class="cluster">
<title>cluster_QuickSearchModule_imports</title>
<polygon fill="none" stroke="black" points="526,-152.39 526,-204.39 958,-204.39 958,-152.39 526,-152.39"/>
</g>
<g id="clust2" class="cluster">
<title>cluster_QuickSearchModule_declarations</title>
<polygon fill="none" stroke="black" points="207,-152.39 207,-204.39 518,-204.39 518,-152.39 207,-152.39"/>
</g>
<g id="clust4" class="cluster">
<title>cluster_QuickSearchModule_QuickSearchComponent_providers</title>
<polygon fill="none" stroke="black" points="16,-40.8 16,-139.39 958,-139.39 958,-40.8 16,-40.8"/>
</g>
<!-- DrawerComponent -->
<g id="node1" class="node">
<title>DrawerComponent</title>
<polygon fill="#ffffb3" stroke="black" points="509.8,-196.39 386.2,-196.39 386.2,-160.39 509.8,-160.39 509.8,-196.39"/>
<text text-anchor="middle" x="448" y="-174.19" font-family="Times,serif" font-size="14.00">DrawerComponent</text>
</g>
<!-- QuickSearchModule -->
<g id="node3" class="node">
<title>QuickSearchModule</title>
<polygon fill="#8dd3c7" stroke="black" points="609.86,-261.39 606.86,-265.39 585.86,-265.39 582.86,-261.39 478.14,-261.39 478.14,-225.39 609.86,-225.39 609.86,-261.39"/>
<text text-anchor="middle" x="544" y="-239.19" font-family="Times,serif" font-size="14.00">QuickSearchModule</text>
</g>
<!-- DrawerComponent&#45;&gt;QuickSearchModule -->
<g id="edge1" class="edge">
<title>DrawerComponent&#45;&gt;QuickSearchModule</title>
<path fill="none" stroke="black" d="M493.86,-196.5C493.86,-196.5 493.86,-215.38 493.86,-215.38"/>
<polygon fill="black" stroke="black" points="490.36,-215.38 493.86,-225.38 497.36,-215.38 490.36,-215.38"/>
</g>
<!-- QuickSearchComponent -->
<g id="node2" class="node">
<title>QuickSearchComponent</title>
<polygon fill="#ffffb3" stroke="black" points="368.64,-196.39 215.36,-196.39 215.36,-160.39 368.64,-160.39 368.64,-196.39"/>
<text text-anchor="middle" x="292" y="-174.19" font-family="Times,serif" font-size="14.00">QuickSearchComponent</text>
</g>
<!-- QuickSearchComponent&#45;&gt;QuickSearchModule -->
<g id="edge2" class="edge">
<title>QuickSearchComponent&#45;&gt;QuickSearchModule</title>
<path fill="none" stroke="black" d="M292,-196.5C292,-215.73 292,-243.39 292,-243.39 292,-243.39 468.12,-243.39 468.12,-243.39"/>
<polygon fill="black" stroke="black" points="468.12,-246.89 478.12,-243.39 468.12,-239.89 468.12,-246.89"/>
</g>
<!-- QuickSearchComponent  -->
<g id="node9" class="node">
<title>QuickSearchComponent </title>
<polygon fill="#fb8072" stroke="black" points="622.63,-326.39 465.37,-326.39 465.37,-290.39 622.63,-290.39 622.63,-326.39"/>
<text text-anchor="middle" x="544" y="-304.19" font-family="Times,serif" font-size="14.00">QuickSearchComponent </text>
</g>
<!-- QuickSearchModule&#45;&gt;QuickSearchComponent  -->
<g id="edge8" class="edge">
<title>QuickSearchModule&#45;&gt;QuickSearchComponent </title>
<path fill="none" stroke="black" stroke-dasharray="5,2" d="M544,-261.5C544,-261.5 544,-280.38 544,-280.38"/>
<polygon fill="black" stroke="black" points="540.5,-280.38 544,-290.38 547.5,-280.38 540.5,-280.38"/>
</g>
<!-- SubscriptionTracker -->
<g id="node4" class="node">
<title>SubscriptionTracker</title>
<ellipse fill="#fdb462" stroke="black" cx="860" cy="-90.1" rx="89.75" ry="18"/>
<text text-anchor="middle" x="860" y="-85.9" font-family="Times,serif" font-size="14.00">SubscriptionTracker</text>
</g>
<!-- SubscriptionTracker&#45;&gt;QuickSearchComponent -->
<g id="edge3" class="edge">
<title>SubscriptionTracker&#45;&gt;QuickSearchComponent</title>
<path fill="none" stroke="black" d="M860,-108.15C860,-126.23 860,-151.39 860,-151.39 860,-151.39 330.41,-151.39 330.41,-151.39 330.41,-151.39 330.41,-152.27 330.41,-152.27"/>
<polygon fill="black" stroke="black" points="326.91,-150.23 330.41,-160.23 333.91,-150.23 326.91,-150.23"/>
</g>
<!-- AriaActiveDescendantService -->
<g id="node5" class="node">
<title>AriaActiveDescendantService</title>
<ellipse fill="#fdb462" stroke="black" cx="624" cy="-90.1" rx="127.88" ry="18"/>
<text text-anchor="middle" x="624" y="-85.9" font-family="Times,serif" font-size="14.00">AriaActiveDescendantService</text>
</g>
<!-- AriaActiveDescendantService&#45;&gt;QuickSearchComponent -->
<g id="edge4" class="edge">
<title>AriaActiveDescendantService&#45;&gt;QuickSearchComponent</title>
<path fill="none" stroke="black" d="M502.86,-95.98C502.86,-109.45 502.86,-141.39 502.86,-141.39 502.86,-141.39 292,-141.39 292,-141.39 292,-141.39 292,-150.32 292,-150.32"/>
<polygon fill="black" stroke="black" points="288.5,-150.32 292,-160.32 295.5,-150.32 288.5,-150.32"/>
</g>
<!-- {
 &#160;&#160;&#160;provide: IdGenerator, useValue: new IdGenerator(),
} -->
<g id="node6" class="node">
<title>{
 &#160;&#160;&#160;provide: IdGenerator, useValue: new IdGenerator(),
}</title>
<ellipse fill="#fdb462" stroke="black" cx="251" cy="-90.1" rx="227.22" ry="41.09"/>
<text text-anchor="middle" x="251" y="-102.7" font-family="Times,serif" font-size="14.00">{</text>
<text text-anchor="middle" x="251" y="-85.9" font-family="Times,serif" font-size="14.00"> &#160;&#160;&#160;provide: IdGenerator, useValue: new IdGenerator(),</text>
<text text-anchor="middle" x="251" y="-69.1" font-family="Times,serif" font-size="14.00">}</text>
</g>
<!-- {
 &#160;&#160;&#160;provide: IdGenerator, useValue: new IdGenerator(),
}&#45;&gt;QuickSearchComponent -->
<g id="edge5" class="edge">
<title>{
 &#160;&#160;&#160;provide: IdGenerator, useValue: new IdGenerator(),
}&#45;&gt;QuickSearchComponent</title>
<path fill="none" stroke="black" d="M253.59,-131.4C253.59,-131.4 253.59,-150.06 253.59,-150.06"/>
<polygon fill="black" stroke="black" points="250.09,-150.06 253.59,-160.06 257.09,-150.06 250.09,-150.06"/>
</g>
<!-- AriaActivedescendantModule -->
<g id="node7" class="node">
<title>AriaActivedescendantModule</title>
<polygon fill="#8dd3c7" stroke="black" points="949.94,-196.39 946.94,-200.39 925.94,-200.39 922.94,-196.39 766.06,-196.39 766.06,-160.39 949.94,-160.39 949.94,-196.39"/>
<text text-anchor="middle" x="858" y="-174.19" font-family="Times,serif" font-size="14.00">AriaActivedescendantModule</text>
</g>
<!-- AriaActivedescendantModule&#45;&gt;QuickSearchModule -->
<g id="edge6" class="edge">
<title>AriaActivedescendantModule&#45;&gt;QuickSearchModule</title>
<path fill="none" stroke="black" d="M858,-196.5C858,-215.73 858,-243.39 858,-243.39 858,-243.39 620.21,-243.39 620.21,-243.39"/>
<polygon fill="black" stroke="black" points="620.21,-239.89 610.21,-243.39 620.21,-246.89 620.21,-239.89"/>
</g>
<!-- ShowClippedTextDirectiveModule -->
<g id="node8" class="node">
<title>ShowClippedTextDirectiveModule</title>
<polygon fill="#8dd3c7" stroke="black" points="747.52,-196.39 744.52,-200.39 723.52,-200.39 720.52,-196.39 534.48,-196.39 534.48,-160.39 747.52,-160.39 747.52,-196.39"/>
<text text-anchor="middle" x="641" y="-174.19" font-family="Times,serif" font-size="14.00">ShowClippedTextDirectiveModule</text>
</g>
<!-- ShowClippedTextDirectiveModule&#45;&gt;QuickSearchModule -->
<g id="edge7" class="edge">
<title>ShowClippedTextDirectiveModule&#45;&gt;QuickSearchModule</title>
<path fill="none" stroke="black" d="M572.08,-196.5C572.08,-196.5 572.08,-215.38 572.08,-215.38"/>
<polygon fill="black" stroke="black" points="568.58,-215.38 572.08,-225.38 575.58,-215.38 568.58,-215.38"/>
</g>
</g>
</svg>
