<?xml version="1.0" encoding="UTF-8" standalone="no"?>
<!DOCTYPE svg PUBLIC "-//W3C//DTD SVG 1.1//EN"
 "http://www.w3.org/Graphics/SVG/1.1/DTD/svg11.dtd">
<!-- Generated by graphviz version 2.47.0 (20210316.0004)
 -->
<!-- Title: dependencies Pages: 1 -->
<svg width="1570pt" height="396pt"
 viewBox="0.00 0.00 1570.00 395.59" xmlns="http://www.w3.org/2000/svg" xmlns:xlink="http://www.w3.org/1999/xlink">
<g id="graph0" class="graph" transform="scale(1 1) rotate(0) translate(4 391.59)">
<title>dependencies</title>
<polygon fill="white" stroke="transparent" points="-4,4 -4,-391.59 1566,-391.59 1566,4 -4,4"/>
<text text-anchor="start" x="760.01" y="-42.4" font-family="Times-12" font-weight="bold" font-size="14.00">Legend</text>
<polygon fill="#ffffb3" stroke="transparent" points="547,-10 547,-30 567,-30 567,-10 547,-10"/>
<text text-anchor="start" x="570.63" y="-15.4" font-family="Times-12" font-size="14.00"> &#160;Declarations</text>
<polygon fill="#8dd3c7" stroke="transparent" points="660,-10 660,-30 680,-30 680,-10 660,-10"/>
<text text-anchor="start" x="683.73" y="-15.4" font-family="Times-12" font-size="14.00"> &#160;Module</text>
<polygon fill="#80b1d3" stroke="transparent" points="746,-10 746,-30 766,-30 766,-10 746,-10"/>
<text text-anchor="start" x="769.78" y="-15.4" font-family="Times-12" font-size="14.00"> &#160;Bootstrap</text>
<polygon fill="#fdb462" stroke="transparent" points="843,-10 843,-30 863,-30 863,-10 843,-10"/>
<text text-anchor="start" x="866.67" y="-15.4" font-family="Times-12" font-size="14.00"> &#160;Providers</text>
<polygon fill="#fb8072" stroke="transparent" points="939,-10 939,-30 959,-30 959,-10 939,-10"/>
<text text-anchor="start" x="962.73" y="-15.4" font-family="Times-12" font-size="14.00"> &#160;Exports</text>
<g id="clust1" class="cluster">
<title>cluster_QuickSearchModule</title>
<polygon fill="none" stroke="black" stroke-dasharray="1,5" points="8,-70 8,-379.59 1554,-379.59 1554,-70 8,-70"/>
</g>
<g id="clust4" class="cluster">
<title>cluster_QuickSearchModule_QuickSearchComponent_providers</title>
<polygon fill="none" stroke="black" points="604,-78 604,-241.59 1546,-241.59 1546,-78 604,-78"/>
</g>
<g id="clust5" class="cluster">
<title>cluster_QuickSearchModule_imports</title>
<polygon fill="none" stroke="black" points="164,-189.59 164,-241.59 596,-241.59 596,-189.59 164,-189.59"/>
</g>
<g id="clust2" class="cluster">
<title>cluster_QuickSearchModule_declarations</title>
<polygon fill="none" stroke="black" points="16,-189.59 16,-241.59 156,-241.59 156,-189.59 16,-189.59"/>
</g>
<g id="clust6" class="cluster">
<title>cluster_QuickSearchModule_exports</title>
<polygon fill="none" stroke="black" points="300,-319.59 300,-371.59 474,-371.59 474,-319.59 300,-319.59"/>
</g>
<!-- DrawerComponent -->
<g id="node1" class="node">
<title>DrawerComponent</title>
<polygon fill="#ffffb3" stroke="black" points="147.8,-233.59 24.2,-233.59 24.2,-197.59 147.8,-197.59 147.8,-233.59"/>
<text text-anchor="middle" x="86" y="-211.39" font-family="Times,serif" font-size="14.00">DrawerComponent</text>
</g>
<!-- QuickSearchModule -->
<g id="node3" class="node">
<title>QuickSearchModule</title>
<polygon fill="#8dd3c7" stroke="black" points="452.85,-298.59 449.85,-302.59 428.85,-302.59 425.85,-298.59 321.15,-298.59 321.15,-262.59 452.85,-262.59 452.85,-298.59"/>
<text text-anchor="middle" x="387" y="-276.39" font-family="Times,serif" font-size="14.00">QuickSearchModule</text>
</g>
<!-- DrawerComponent&#45;&gt;QuickSearchModule -->
<g id="edge1" class="edge">
<title>DrawerComponent&#45;&gt;QuickSearchModule</title>
<path fill="none" stroke="black" d="M86,-233.7C86,-252.93 86,-280.59 86,-280.59 86,-280.59 310.94,-280.59 310.94,-280.59"/>
<polygon fill="black" stroke="black" points="310.94,-284.09 320.94,-280.59 310.94,-277.09 310.94,-284.09"/>
</g>
<!-- QuickSearchComponent -->
<g id="node2" class="node">
<title>QuickSearchComponent</title>
<polygon fill="#ffffb3" stroke="black" points="1101.63,-233.59 948.37,-233.59 948.37,-197.59 1101.63,-197.59 1101.63,-233.59"/>
<text text-anchor="middle" x="1025" y="-211.39" font-family="Times,serif" font-size="14.00">QuickSearchComponent</text>
</g>
<!-- QuickSearchComponent&#45;&gt;QuickSearchModule -->
<g id="edge2" class="edge">
<title>QuickSearchComponent&#45;&gt;QuickSearchModule</title>
<path fill="none" stroke="black" d="M1025,-233.7C1025,-252.93 1025,-280.59 1025,-280.59 1025,-280.59 462.87,-280.59 462.87,-280.59"/>
<polygon fill="black" stroke="black" points="462.87,-277.09 452.87,-280.59 462.87,-284.09 462.87,-277.09"/>
</g>
<!-- QuickSearchComponent  -->
<g id="node9" class="node">
<title>QuickSearchComponent </title>
<polygon fill="#fb8072" stroke="black" points="465.63,-363.59 308.37,-363.59 308.37,-327.59 465.63,-327.59 465.63,-363.59"/>
<text text-anchor="middle" x="387" y="-341.39" font-family="Times,serif" font-size="14.00">QuickSearchComponent </text>
</g>
<!-- QuickSearchModule&#45;&gt;QuickSearchComponent  -->
<g id="edge8" class="edge">
<title>QuickSearchModule&#45;&gt;QuickSearchComponent </title>
<path fill="none" stroke="black" stroke-dasharray="5,2" d="M387,-298.7C387,-298.7 387,-317.58 387,-317.58"/>
<polygon fill="black" stroke="black" points="383.5,-317.58 387,-327.58 390.5,-317.58 383.5,-317.58"/>
</g>
<!-- SubscriptionTracker -->
<g id="node4" class="node">
<title>SubscriptionTracker</title>
<ellipse fill="#fdb462" stroke="black" cx="1448" cy="-127.3" rx="89.75" ry="18"/>
<text text-anchor="middle" x="1448" y="-123.1" font-family="Times,serif" font-size="14.00">SubscriptionTracker</text>
</g>
<!-- SubscriptionTracker&#45;&gt;QuickSearchComponent -->
<g id="edge3" class="edge">
<title>SubscriptionTracker&#45;&gt;QuickSearchComponent</title>
<path fill="none" stroke="black" d="M1448,-145.59C1448,-171.45 1448,-215.59 1448,-215.59 1448,-215.59 1112.09,-215.59 1112.09,-215.59"/>
<polygon fill="black" stroke="black" points="1112.09,-212.09 1102.09,-215.59 1112.09,-219.09 1112.09,-212.09"/>
</g>
<!-- AriaActiveDescendantService -->
<g id="node5" class="node">
<title>AriaActiveDescendantService</title>
<ellipse fill="#fdb462" stroke="black" cx="1212" cy="-127.3" rx="127.86" ry="18"/>
<text text-anchor="middle" x="1212" y="-123.1" font-family="Times,serif" font-size="14.00">AriaActiveDescendantService</text>
</g>
<!-- AriaActiveDescendantService&#45;&gt;QuickSearchComponent -->
<g id="edge4" class="edge">
<title>AriaActiveDescendantService&#45;&gt;QuickSearchComponent</title>
<path fill="none" stroke="black" d="M1092.94,-133.93C1092.94,-133.93 1092.94,-187.35 1092.94,-187.35"/>
<polygon fill="black" stroke="black" points="1089.44,-187.35 1092.94,-197.35 1096.44,-187.35 1089.44,-187.35"/>
</g>
<!-- {
 &#160;&#160;&#160;provide: IdGenerator, useValue: new IdGenerator(),
} -->
<g id="node6" class="node">
<title>{
 &#160;&#160;&#160;provide: IdGenerator, useValue: new IdGenerator(),
}</title>
<ellipse fill="#fdb462" stroke="black" cx="839" cy="-127.3" rx="227.2" ry="41.09"/>
<text text-anchor="middle" x="839" y="-139.9" font-family="Times,serif" font-size="14.00">{</text>
<text text-anchor="middle" x="839" y="-123.1" font-family="Times,serif" font-size="14.00"> &#160;&#160;&#160;provide: IdGenerator, useValue: new IdGenerator(),</text>
<text text-anchor="middle" x="839" y="-106.3" font-family="Times,serif" font-size="14.00">}</text>
</g>
<!-- {
 &#160;&#160;&#160;provide: IdGenerator, useValue: new IdGenerator(),
}&#45;&gt;QuickSearchComponent -->
<g id="edge5" class="edge">
<title>{
 &#160;&#160;&#160;provide: IdGenerator, useValue: new IdGenerator(),
}&#45;&gt;QuickSearchComponent</title>
<path fill="none" stroke="black" d="M1007.27,-155.23C1007.27,-155.23 1007.27,-187.56 1007.27,-187.56"/>
<polygon fill="black" stroke="black" points="1003.77,-187.56 1007.27,-197.56 1010.77,-187.56 1003.77,-187.56"/>
</g>
<!-- AriaActivedescendantModule -->
<g id="node7" class="node">
<title>AriaActivedescendantModule</title>
<polygon fill="#8dd3c7" stroke="black" points="587.93,-233.59 584.93,-237.59 563.93,-237.59 560.93,-233.59 404.07,-233.59 404.07,-197.59 587.93,-197.59 587.93,-233.59"/>
<text text-anchor="middle" x="496" y="-211.39" font-family="Times,serif" font-size="14.00">AriaActivedescendantModule</text>
</g>
<!-- AriaActivedescendantModule&#45;&gt;QuickSearchModule -->
<g id="edge6" class="edge">
<title>AriaActivedescendantModule&#45;&gt;QuickSearchModule</title>
<path fill="none" stroke="black" d="M428.48,-233.7C428.48,-233.7 428.48,-252.58 428.48,-252.58"/>
<polygon fill="black" stroke="black" points="424.98,-252.58 428.48,-262.58 431.98,-252.58 424.98,-252.58"/>
</g>
<!-- ShowClippedTextDirectiveModule -->
<g id="node8" class="node">
<title>ShowClippedTextDirectiveModule</title>
<polygon fill="#8dd3c7" stroke="black" points="385.51,-233.59 382.51,-237.59 361.51,-237.59 358.51,-233.59 172.49,-233.59 172.49,-197.59 385.51,-197.59 385.51,-233.59"/>
<text text-anchor="middle" x="279" y="-211.39" font-family="Times,serif" font-size="14.00">ShowClippedTextDirectiveModule</text>
</g>
<!-- ShowClippedTextDirectiveModule&#45;&gt;QuickSearchModule -->
<g id="edge7" class="edge">
<title>ShowClippedTextDirectiveModule&#45;&gt;QuickSearchModule</title>
<path fill="none" stroke="black" d="M353.42,-233.7C353.42,-233.7 353.42,-252.58 353.42,-252.58"/>
<polygon fill="black" stroke="black" points="349.92,-252.58 353.42,-262.58 356.92,-252.58 349.92,-252.58"/>
</g>
</g>
</svg>
