<?xml version="1.0" encoding="UTF-8" standalone="no"?>
<!DOCTYPE svg PUBLIC "-//W3C//DTD SVG 1.1//EN"
 "http://www.w3.org/Graphics/SVG/1.1/DTD/svg11.dtd">
<!-- Generated by graphviz version 2.47.0 (20210316.0004)
 -->
<!-- Title: dependencies Pages: 1 -->
<svg width="819pt" height="284pt"
 viewBox="0.00 0.00 819.00 284.00" xmlns="http://www.w3.org/2000/svg" xmlns:xlink="http://www.w3.org/1999/xlink">
<g id="graph0" class="graph" transform="scale(1 1) rotate(0) translate(4 280)">
<title>dependencies</title>
<polygon fill="white" stroke="transparent" points="-4,4 -4,-280 815,-280 815,4 -4,4"/>
<text text-anchor="start" x="384.51" y="-42.4" font-family="Times-12" font-weight="bold" font-size="14.00">Legend</text>
<polygon fill="#ffffb3" stroke="transparent" points="171.5,-10 171.5,-30 191.5,-30 191.5,-10 171.5,-10"/>
<text text-anchor="start" x="195.13" y="-15.4" font-family="Times-12" font-size="14.00"> &#160;Declarations</text>
<polygon fill="#8dd3c7" stroke="transparent" points="284.5,-10 284.5,-30 304.5,-30 304.5,-10 284.5,-10"/>
<text text-anchor="start" x="308.23" y="-15.4" font-family="Times-12" font-size="14.00"> &#160;Module</text>
<polygon fill="#80b1d3" stroke="transparent" points="370.5,-10 370.5,-30 390.5,-30 390.5,-10 370.5,-10"/>
<text text-anchor="start" x="394.28" y="-15.4" font-family="Times-12" font-size="14.00"> &#160;Bootstrap</text>
<polygon fill="#fdb462" stroke="transparent" points="467.5,-10 467.5,-30 487.5,-30 487.5,-10 467.5,-10"/>
<text text-anchor="start" x="491.17" y="-15.4" font-family="Times-12" font-size="14.00"> &#160;Providers</text>
<polygon fill="#fb8072" stroke="transparent" points="563.5,-10 563.5,-30 583.5,-30 583.5,-10 563.5,-10"/>
<text text-anchor="start" x="587.23" y="-15.4" font-family="Times-12" font-size="14.00"> &#160;Exports</text>
<g id="clust1" class="cluster">
<title>cluster_PipesModule</title>
<polygon fill="none" stroke="black" stroke-dasharray="1,5" points="8,-70 8,-268 803,-268 803,-70 8,-70"/>
</g>
<g id="clust2" class="cluster">
<title>cluster_PipesModule_declarations</title>
<polygon fill="none" stroke="black" points="370,-78 370,-130 514,-130 514,-78 370,-78"/>
</g>
<g id="clust5" class="cluster">
<title>cluster_PipesModule_exports</title>
<polygon fill="none" stroke="black" points="16,-208 16,-260 795,-260 795,-208 16,-208"/>
</g>
<!-- NestedPropertyPipe -->
<g id="node1" class="node">
<title>NestedPropertyPipe</title>
<polygon fill="#ffffb3" stroke="black" points="505.97,-122 378.03,-122 378.03,-86 505.97,-86 505.97,-122"/>
<text text-anchor="middle" x="442" y="-99.8" font-family="Times,serif" font-size="14.00">NestedPropertyPipe</text>
</g>
<!-- PipesModule -->
<g id="node2" class="node">
<title>PipesModule</title>
<polygon fill="#8dd3c7" stroke="black" points="486.88,-187 483.88,-191 462.88,-191 459.88,-187 397.12,-187 397.12,-151 486.88,-151 486.88,-187"/>
<text text-anchor="middle" x="442" y="-164.8" font-family="Times,serif" font-size="14.00">PipesModule</text>
</g>
<!-- NestedPropertyPipe&#45;&gt;PipesModule -->
<g id="edge1" class="edge">
<title>NestedPropertyPipe&#45;&gt;PipesModule</title>
<path fill="none" stroke="black" d="M442,-122.11C442,-122.11 442,-140.99 442,-140.99"/>
<polygon fill="black" stroke="black" points="438.5,-140.99 442,-150.99 445.5,-140.99 438.5,-140.99"/>
</g>
<!-- FormCheckboxComponent  -->
<g id="node3" class="node">
<title>FormCheckboxComponent </title>
<polygon fill="#fb8072" stroke="black" points="786.93,-252 615.07,-252 615.07,-216 786.93,-216 786.93,-252"/>
<text text-anchor="middle" x="701" y="-229.8" font-family="Times,serif" font-size="14.00">FormCheckboxComponent </text>
</g>
<!-- PipesModule&#45;&gt;FormCheckboxComponent  -->
<g id="edge2" class="edge">
<title>PipesModule&#45;&gt;FormCheckboxComponent </title>
<path fill="none" stroke="black" stroke-dasharray="5,2" d="M487.11,-169C561.32,-169 701,-169 701,-169 701,-169 701,-205.89 701,-205.89"/>
<polygon fill="black" stroke="black" points="697.5,-205.89 701,-215.89 704.5,-205.89 697.5,-205.89"/>
</g>
<!-- FormInputComponent  -->
<g id="node4" class="node">
<title>FormInputComponent </title>
<polygon fill="#fb8072" stroke="black" points="597.22,-252 452.78,-252 452.78,-216 597.22,-216 597.22,-252"/>
<text text-anchor="middle" x="525" y="-229.8" font-family="Times,serif" font-size="14.00">FormInputComponent </text>
</g>
<!-- PipesModule&#45;&gt;FormInputComponent  -->
<g id="edge3" class="edge">
<title>PipesModule&#45;&gt;FormInputComponent </title>
<path fill="none" stroke="black" stroke-dasharray="5,2" d="M469.79,-187.11C469.79,-187.11 469.79,-205.99 469.79,-205.99"/>
<polygon fill="black" stroke="black" points="466.29,-205.99 469.79,-215.99 473.29,-205.99 466.29,-205.99"/>
</g>
<!-- FormSelectComponent  -->
<g id="node5" class="node">
<title>FormSelectComponent </title>
<polygon fill="#fb8072" stroke="black" points="434.87,-252 285.13,-252 285.13,-216 434.87,-216 434.87,-252"/>
<text text-anchor="middle" x="360" y="-229.8" font-family="Times,serif" font-size="14.00">FormSelectComponent </text>
</g>
<!-- PipesModule&#45;&gt;FormSelectComponent  -->
<g id="edge4" class="edge">
<title>PipesModule&#45;&gt;FormSelectComponent </title>
<path fill="none" stroke="black" stroke-dasharray="5,2" d="M415.87,-187.11C415.87,-187.11 415.87,-205.99 415.87,-205.99"/>
<polygon fill="black" stroke="black" points="412.37,-205.99 415.87,-215.99 419.37,-205.99 412.37,-205.99"/>
</g>
<!-- NumberWithUnitFormInputComponent  -->
<g id="node6" class="node">
<title>NumberWithUnitFormInputComponent </title>
<polygon fill="#fb8072" stroke="black" points="267.97,-252 24.03,-252 24.03,-216 267.97,-216 267.97,-252"/>
<text text-anchor="middle" x="146" y="-229.8" font-family="Times,serif" font-size="14.00">NumberWithUnitFormInputComponent </text>
</g>
<!-- PipesModule&#45;&gt;NumberWithUnitFormInputComponent  -->
<g id="edge5" class="edge">
<title>PipesModule&#45;&gt;NumberWithUnitFormInputComponent </title>
<path fill="none" stroke="black" stroke-dasharray="5,2" d="M397.04,-169C314.24,-169 146,-169 146,-169 146,-169 146,-205.89 146,-205.89"/>
<polygon fill="black" stroke="black" points="142.5,-205.89 146,-215.89 149.5,-205.89 142.5,-205.89"/>
</g>
</g>
</svg>
