<?xml version="1.0" encoding="UTF-8" standalone="no"?>
<!DOCTYPE svg PUBLIC "-//W3C//DTD SVG 1.1//EN"
 "http://www.w3.org/Graphics/SVG/1.1/DTD/svg11.dtd">
<!-- Generated by graphviz version 5.0.0 (20220707.1540)
 -->
<!-- Title: dependencies Pages: 1 -->
<svg width="819pt" height="247pt"
 viewBox="0.00 0.00 819.00 246.80" xmlns="http://www.w3.org/2000/svg" xmlns:xlink="http://www.w3.org/1999/xlink">
<g id="graph0" class="graph" transform="scale(1 1) rotate(0) translate(4 242.8)">
<title>dependencies</title>
<polygon fill="white" stroke="transparent" points="-4,4 -4,-242.8 815,-242.8 815,4 -4,4"/>
<text text-anchor="middle" x="405.5" y="-8.2" font-family="sans-serif" font-size="14.00">dependencies</text>
<g id="clust1" class="cluster">
<title>cluster_PipesModule</title>
<polygon fill="none" stroke="black" stroke-dasharray="1,5" points="8,-32.8 8,-230.8 803,-230.8 803,-32.8 8,-32.8"/>
</g>
<g id="clust2" class="cluster">
<title>cluster_PipesModule_declarations</title>
<polygon fill="none" stroke="black" points="370,-40.8 370,-92.8 514,-92.8 514,-40.8 370,-40.8"/>
</g>
<g id="clust5" class="cluster">
<title>cluster_PipesModule_exports</title>
<polygon fill="none" stroke="black" points="16,-170.8 16,-222.8 795,-222.8 795,-170.8 16,-170.8"/>
</g>
<!-- NestedPropertyPipe -->
<g id="node1" class="node">
<title>NestedPropertyPipe</title>
<polygon fill="#ffffb3" stroke="black" points="505.98,-84.8 378.02,-84.8 378.02,-48.8 505.98,-48.8 505.98,-84.8"/>
<text text-anchor="middle" x="442" y="-62.6" font-family="Times,serif" font-size="14.00">NestedPropertyPipe</text>
</g>
<!-- PipesModule -->
<g id="node2" class="node">
<title>PipesModule</title>
<polygon fill="#8dd3c7" stroke="black" points="486.89,-149.8 483.89,-153.8 462.89,-153.8 459.89,-149.8 397.11,-149.8 397.11,-113.8 486.89,-113.8 486.89,-149.8"/>
<text text-anchor="middle" x="442" y="-127.6" font-family="Times,serif" font-size="14.00">PipesModule</text>
</g>
<!-- NestedPropertyPipe&#45;&gt;PipesModule -->
<g id="edge1" class="edge">
<title>NestedPropertyPipe&#45;&gt;PipesModule</title>
<path fill="none" stroke="black" d="M442,-84.91C442,-84.91 442,-103.79 442,-103.79"/>
<polygon fill="black" stroke="black" points="438.5,-103.79 442,-113.79 445.5,-103.79 438.5,-103.79"/>
</g>
<!-- FormCheckboxComponent  -->
<g id="node3" class="node">
<title>FormCheckboxComponent </title>
<polygon fill="#fb8072" stroke="black" points="786.93,-214.8 615.07,-214.8 615.07,-178.8 786.93,-178.8 786.93,-214.8"/>
<text text-anchor="middle" x="701" y="-192.6" font-family="Times,serif" font-size="14.00">FormCheckboxComponent </text>
</g>
<!-- PipesModule&#45;&gt;FormCheckboxComponent  -->
<g id="edge2" class="edge">
<title>PipesModule&#45;&gt;FormCheckboxComponent </title>
<path fill="none" stroke="black" stroke-dasharray="5,2" d="M487.11,-131.8C561.32,-131.8 701,-131.8 701,-131.8 701,-131.8 701,-168.69 701,-168.69"/>
<polygon fill="black" stroke="black" points="697.5,-168.69 701,-178.69 704.5,-168.69 697.5,-168.69"/>
</g>
<!-- FormInputComponent  -->
<g id="node4" class="node">
<title>FormInputComponent </title>
<polygon fill="#fb8072" stroke="black" points="597.22,-214.8 452.78,-214.8 452.78,-178.8 597.22,-178.8 597.22,-214.8"/>
<text text-anchor="middle" x="525" y="-192.6" font-family="Times,serif" font-size="14.00">FormInputComponent </text>
</g>
<!-- PipesModule&#45;&gt;FormInputComponent  -->
<g id="edge3" class="edge">
<title>PipesModule&#45;&gt;FormInputComponent </title>
<path fill="none" stroke="black" stroke-dasharray="5,2" d="M469.79,-149.91C469.79,-149.91 469.79,-168.79 469.79,-168.79"/>
<polygon fill="black" stroke="black" points="466.29,-168.79 469.79,-178.79 473.29,-168.79 466.29,-168.79"/>
</g>
<!-- FormSelectComponent  -->
<g id="node5" class="node">
<title>FormSelectComponent </title>
<polygon fill="#fb8072" stroke="black" points="434.88,-214.8 285.12,-214.8 285.12,-178.8 434.88,-178.8 434.88,-214.8"/>
<text text-anchor="middle" x="360" y="-192.6" font-family="Times,serif" font-size="14.00">FormSelectComponent </text>
</g>
<!-- PipesModule&#45;&gt;FormSelectComponent  -->
<g id="edge4" class="edge">
<title>PipesModule&#45;&gt;FormSelectComponent </title>
<path fill="none" stroke="black" stroke-dasharray="5,2" d="M415.87,-149.91C415.87,-149.91 415.87,-168.79 415.87,-168.79"/>
<polygon fill="black" stroke="black" points="412.37,-168.79 415.87,-178.79 419.37,-168.79 412.37,-168.79"/>
</g>
<!-- NumberWithUnitFormInputComponent  -->
<g id="node6" class="node">
<title>NumberWithUnitFormInputComponent </title>
<polygon fill="#fb8072" stroke="black" points="267.98,-214.8 24.02,-214.8 24.02,-178.8 267.98,-178.8 267.98,-214.8"/>
<text text-anchor="middle" x="146" y="-192.6" font-family="Times,serif" font-size="14.00">NumberWithUnitFormInputComponent </text>
</g>
<!-- PipesModule&#45;&gt;NumberWithUnitFormInputComponent  -->
<g id="edge5" class="edge">
<title>PipesModule&#45;&gt;NumberWithUnitFormInputComponent </title>
<path fill="none" stroke="black" stroke-dasharray="5,2" d="M397.04,-131.8C314.24,-131.8 146,-131.8 146,-131.8 146,-131.8 146,-168.69 146,-168.69"/>
<polygon fill="black" stroke="black" points="142.5,-168.69 146,-178.69 149.5,-168.69 142.5,-168.69"/>
</g>
</g>
</svg>
