<?xml version="1.0" encoding="UTF-8" standalone="no"?>
<!DOCTYPE svg PUBLIC "-//W3C//DTD SVG 1.1//EN"
 "http://www.w3.org/Graphics/SVG/1.1/DTD/svg11.dtd">
<!-- Generated by graphviz version 2.40.1 (20161225.0304)
 -->
<!-- Title: dependencies Pages: 1 -->
<svg width="819pt" height="284pt"
 viewBox="0.00 0.00 819.00 284.00" xmlns="http://www.w3.org/2000/svg" xmlns:xlink="http://www.w3.org/1999/xlink">
<g id="graph0" class="graph" transform="scale(1 1) rotate(0) translate(4 280)">
<title>dependencies</title>
<polygon fill="#ffffff" stroke="transparent" points="-4,4 -4,-280 815,-280 815,4 -4,4"/>
<text text-anchor="start" x="384.5091" y="-42.4" font-family="sans-serif" font-weight="bold" font-size="14.00" fill="#000000">Legend</text>
<polygon fill="#ffffb3" stroke="transparent" points="171.5,-10 171.5,-30 191.5,-30 191.5,-10 171.5,-10"/>
<text text-anchor="start" x="195.129" y="-15.4" font-family="sans-serif" font-size="14.00" fill="#000000"> &#160;Declarations</text>
<polygon fill="#8dd3c7" stroke="transparent" points="284.5,-10 284.5,-30 304.5,-30 304.5,-10 284.5,-10"/>
<text text-anchor="start" x="308.2251" y="-15.4" font-family="sans-serif" font-size="14.00" fill="#000000"> &#160;Module</text>
<polygon fill="#80b1d3" stroke="transparent" points="370.5,-10 370.5,-30 390.5,-30 390.5,-10 370.5,-10"/>
<text text-anchor="start" x="394.2812" y="-15.4" font-family="sans-serif" font-size="14.00" fill="#000000"> &#160;Bootstrap</text>
<polygon fill="#fdb462" stroke="transparent" points="467.5,-10 467.5,-30 487.5,-30 487.5,-10 467.5,-10"/>
<text text-anchor="start" x="491.1732" y="-15.4" font-family="sans-serif" font-size="14.00" fill="#000000"> &#160;Providers</text>
<polygon fill="#fb8072" stroke="transparent" points="563.5,-10 563.5,-30 583.5,-30 583.5,-10 563.5,-10"/>
<text text-anchor="start" x="587.2258" y="-15.4" font-family="sans-serif" font-size="14.00" fill="#000000"> &#160;Exports</text>
<g id="clust1" class="cluster">
<title>cluster_PipesModule</title>
<polygon fill="none" stroke="#000000" stroke-dasharray="1,5" points="8,-70 8,-268 803,-268 803,-70 8,-70"/>
</g>
<g id="clust2" class="cluster">
<title>cluster_PipesModule_declarations</title>
<polygon fill="none" stroke="#000000" points="370,-78 370,-130 514,-130 514,-78 370,-78"/>
</g>
<g id="clust5" class="cluster">
<title>cluster_PipesModule_exports</title>
<polygon fill="none" stroke="#000000" points="16,-208 16,-260 795,-260 795,-208 16,-208"/>
</g>
<!-- NestedPropertyPipe -->
<g id="node1" class="node">
<title>NestedPropertyPipe</title>
<polygon fill="#ffffb3" stroke="#000000" points="505.9678,-122 378.0322,-122 378.0322,-86 505.9678,-86 505.9678,-122"/>
<text text-anchor="middle" x="442" y="-99.8" font-family="Times,serif" font-size="14.00" fill="#000000">NestedPropertyPipe</text>
</g>
<!-- PipesModule -->
<g id="node2" class="node">
<title>PipesModule</title>
<polygon fill="#8dd3c7" stroke="#000000" points="486.8823,-187 483.8823,-191 462.8823,-191 459.8823,-187 397.1177,-187 397.1177,-151 486.8823,-151 486.8823,-187"/>
<text text-anchor="middle" x="442" y="-164.8" font-family="Times,serif" font-size="14.00" fill="#000000">PipesModule</text>
</g>
<!-- NestedPropertyPipe&#45;&gt;PipesModule -->
<g id="edge1" class="edge">
<title>NestedPropertyPipe&#45;&gt;PipesModule</title>
<path fill="none" stroke="#000000" d="M442,-122.1061C442,-122.1061 442,-140.991 442,-140.991"/>
<polygon fill="#000000" stroke="#000000" points="438.5001,-140.9909 442,-150.991 445.5001,-140.991 438.5001,-140.9909"/>
</g>
<!-- FormCheckboxComponent  -->
<g id="node3" class="node">
<title>FormCheckboxComponent </title>
<polygon fill="#fb8072" stroke="#000000" points="786.932,-252 615.068,-252 615.068,-216 786.932,-216 786.932,-252"/>
<text text-anchor="middle" x="701" y="-229.8" font-family="Times,serif" font-size="14.00" fill="#000000">FormCheckboxComponent </text>
</g>
<!-- PipesModule&#45;&gt;FormCheckboxComponent  -->
<g id="edge2" class="edge">
<title>PipesModule&#45;&gt;FormCheckboxComponent </title>
<path fill="none" stroke="#000000" stroke-dasharray="5,2" d="M487.1144,-169C561.3196,-169 701,-169 701,-169 701,-169 701,-205.8939 701,-205.8939"/>
<polygon fill="#000000" stroke="#000000" points="697.5001,-205.8938 701,-215.8939 704.5001,-205.8939 697.5001,-205.8938"/>
</g>
<!-- FormInputComponent  -->
<g id="node4" class="node">
<title>FormInputComponent </title>
<polygon fill="#fb8072" stroke="#000000" points="597.2177,-252 452.7823,-252 452.7823,-216 597.2177,-216 597.2177,-252"/>
<text text-anchor="middle" x="525" y="-229.8" font-family="Times,serif" font-size="14.00" fill="#000000">FormInputComponent </text>
</g>
<!-- PipesModule&#45;&gt;FormInputComponent  -->
<g id="edge3" class="edge">
<title>PipesModule&#45;&gt;FormInputComponent </title>
<path fill="none" stroke="#000000" stroke-dasharray="5,2" d="M469.7912,-187.1061C469.7912,-187.1061 469.7912,-205.991 469.7912,-205.991"/>
<polygon fill="#000000" stroke="#000000" points="466.2913,-205.9909 469.7912,-215.991 473.2913,-205.991 466.2913,-205.9909"/>
</g>
<!-- FormSelectComponent  -->
<g id="node5" class="node">
<title>FormSelectComponent </title>
<polygon fill="#fb8072" stroke="#000000" points="434.8743,-252 285.1257,-252 285.1257,-216 434.8743,-216 434.8743,-252"/>
<text text-anchor="middle" x="360" y="-229.8" font-family="Times,serif" font-size="14.00" fill="#000000">FormSelectComponent </text>
</g>
<!-- PipesModule&#45;&gt;FormSelectComponent  -->
<g id="edge4" class="edge">
<title>PipesModule&#45;&gt;FormSelectComponent </title>
<path fill="none" stroke="#000000" stroke-dasharray="5,2" d="M415.8729,-187.1061C415.8729,-187.1061 415.8729,-205.991 415.8729,-205.991"/>
<polygon fill="#000000" stroke="#000000" points="412.373,-205.9909 415.8729,-215.991 419.373,-205.991 412.373,-205.9909"/>
</g>
<!-- NumberWithUnitFormInputComponent  -->
<g id="node6" class="node">
<title>NumberWithUnitFormInputComponent </title>
<polygon fill="#fb8072" stroke="#000000" points="267.9739,-252 24.0261,-252 24.0261,-216 267.9739,-216 267.9739,-252"/>
<text text-anchor="middle" x="146" y="-229.8" font-family="Times,serif" font-size="14.00" fill="#000000">NumberWithUnitFormInputComponent </text>
</g>
<!-- PipesModule&#45;&gt;NumberWithUnitFormInputComponent  -->
<g id="edge5" class="edge">
<title>PipesModule&#45;&gt;NumberWithUnitFormInputComponent </title>
<path fill="none" stroke="#000000" stroke-dasharray="5,2" d="M397.044,-169C314.2389,-169 146,-169 146,-169 146,-169 146,-205.8939 146,-205.8939"/>
<polygon fill="#000000" stroke="#000000" points="142.5001,-205.8938 146,-215.8939 149.5001,-205.8939 142.5001,-205.8938"/>
</g>
</g>
</svg>
