<?xml version="1.0" encoding="UTF-8" standalone="no"?>
<!DOCTYPE svg PUBLIC "-//W3C//DTD SVG 1.1//EN"
 "http://www.w3.org/Graphics/SVG/1.1/DTD/svg11.dtd">
<!-- Generated by graphviz version 2.40.1 (20161225.0304)
 -->
<!-- Title: dependencies Pages: 1 -->
<svg width="958pt" height="284pt"
 viewBox="0.00 0.00 958.00 284.00" xmlns="http://www.w3.org/2000/svg" xmlns:xlink="http://www.w3.org/1999/xlink">
<g id="graph0" class="graph" transform="scale(1 1) rotate(0) translate(4 280)">
<title>dependencies</title>
<polygon fill="#ffffff" stroke="transparent" points="-4,4 -4,-280 954,-280 954,4 -4,4"/>
<text text-anchor="start" x="454.0091" y="-42.4" font-family="sans-serif" font-weight="bold" font-size="14.00" fill="#000000">Legend</text>
<polygon fill="#ffffb3" stroke="transparent" points="241,-10 241,-30 261,-30 261,-10 241,-10"/>
<text text-anchor="start" x="264.629" y="-15.4" font-family="sans-serif" font-size="14.00" fill="#000000"> &#160;Declarations</text>
<polygon fill="#8dd3c7" stroke="transparent" points="354,-10 354,-30 374,-30 374,-10 354,-10"/>
<text text-anchor="start" x="377.7251" y="-15.4" font-family="sans-serif" font-size="14.00" fill="#000000"> &#160;Module</text>
<polygon fill="#80b1d3" stroke="transparent" points="440,-10 440,-30 460,-30 460,-10 440,-10"/>
<text text-anchor="start" x="463.7812" y="-15.4" font-family="sans-serif" font-size="14.00" fill="#000000"> &#160;Bootstrap</text>
<polygon fill="#fdb462" stroke="transparent" points="537,-10 537,-30 557,-30 557,-10 537,-10"/>
<text text-anchor="start" x="560.6732" y="-15.4" font-family="sans-serif" font-size="14.00" fill="#000000"> &#160;Providers</text>
<polygon fill="#fb8072" stroke="transparent" points="633,-10 633,-30 653,-30 653,-10 633,-10"/>
<text text-anchor="start" x="656.7258" y="-15.4" font-family="sans-serif" font-size="14.00" fill="#000000"> &#160;Exports</text>
<g id="clust1" class="cluster">
<title>cluster_PipesModule</title>
<polygon fill="none" stroke="#000000" stroke-dasharray="1,5" points="8,-70 8,-268 942,-268 942,-70 8,-70"/>
</g>
<g id="clust2" class="cluster">
<title>cluster_PipesModule_declarations</title>
<polygon fill="none" stroke="#000000" points="427,-78 427,-130 571,-130 571,-78 427,-78"/>
</g>
<g id="clust5" class="cluster">
<title>cluster_PipesModule_exports</title>
<polygon fill="none" stroke="#000000" points="16,-208 16,-260 934,-260 934,-208 16,-208"/>
</g>
<!-- NestedPropertyPipe -->
<g id="node1" class="node">
<title>NestedPropertyPipe</title>
<polygon fill="#ffffb3" stroke="#000000" points="562.9678,-122 435.0322,-122 435.0322,-86 562.9678,-86 562.9678,-122"/>
<text text-anchor="middle" x="499" y="-99.8" font-family="Times,serif" font-size="14.00" fill="#000000">NestedPropertyPipe</text>
</g>
<!-- PipesModule -->
<g id="node2" class="node">
<title>PipesModule</title>
<polygon fill="#8dd3c7" stroke="#000000" points="543.8823,-187 540.8823,-191 519.8823,-191 516.8823,-187 454.1177,-187 454.1177,-151 543.8823,-151 543.8823,-187"/>
<text text-anchor="middle" x="499" y="-164.8" font-family="Times,serif" font-size="14.00" fill="#000000">PipesModule</text>
</g>
<!-- NestedPropertyPipe&#45;&gt;PipesModule -->
<g id="edge1" class="edge">
<title>NestedPropertyPipe&#45;&gt;PipesModule</title>
<path fill="none" stroke="#000000" d="M499,-122.1061C499,-122.1061 499,-140.991 499,-140.991"/>
<polygon fill="#000000" stroke="#000000" points="495.5001,-140.9909 499,-150.991 502.5001,-140.991 495.5001,-140.9909"/>
</g>
<!-- FormCheckboxComponent  -->
<g id="node3" class="node">
<title>FormCheckboxComponent </title>
<polygon fill="#fb8072" stroke="#000000" points="925.932,-252 754.068,-252 754.068,-216 925.932,-216 925.932,-252"/>
<text text-anchor="middle" x="840" y="-229.8" font-family="Times,serif" font-size="14.00" fill="#000000">FormCheckboxComponent </text>
</g>
<!-- PipesModule&#45;&gt;FormCheckboxComponent  -->
<g id="edge2" class="edge">
<title>PipesModule&#45;&gt;FormCheckboxComponent </title>
<path fill="none" stroke="#000000" stroke-dasharray="5,2" d="M543.9304,-163C636.5267,-163 840,-163 840,-163 840,-163 840,-205.7157 840,-205.7157"/>
<polygon fill="#000000" stroke="#000000" points="836.5001,-205.7157 840,-215.7157 843.5001,-205.7158 836.5001,-205.7157"/>
</g>
<!-- FormInputComponent  -->
<g id="node4" class="node">
<title>FormInputComponent </title>
<polygon fill="#fb8072" stroke="#000000" points="736.2177,-252 591.7823,-252 591.7823,-216 736.2177,-216 736.2177,-252"/>
<text text-anchor="middle" x="664" y="-229.8" font-family="Times,serif" font-size="14.00" fill="#000000">FormInputComponent </text>
</g>
<!-- PipesModule&#45;&gt;FormInputComponent  -->
<g id="edge3" class="edge">
<title>PipesModule&#45;&gt;FormInputComponent </title>
<path fill="none" stroke="#000000" stroke-dasharray="5,2" d="M544.087,-175C592.9404,-175 664,-175 664,-175 664,-175 664,-205.9775 664,-205.9775"/>
<polygon fill="#000000" stroke="#000000" points="660.5001,-205.9774 664,-215.9775 667.5001,-205.9775 660.5001,-205.9774"/>
</g>
<!-- FormSelectComponent  -->
<g id="node5" class="node">
<title>FormSelectComponent </title>
<polygon fill="#fb8072" stroke="#000000" points="573.8743,-252 424.1257,-252 424.1257,-216 573.8743,-216 573.8743,-252"/>
<text text-anchor="middle" x="499" y="-229.8" font-family="Times,serif" font-size="14.00" fill="#000000">FormSelectComponent </text>
</g>
<!-- PipesModule&#45;&gt;FormSelectComponent  -->
<g id="edge4" class="edge">
<title>PipesModule&#45;&gt;FormSelectComponent </title>
<path fill="none" stroke="#000000" stroke-dasharray="5,2" d="M499,-187.1061C499,-187.1061 499,-205.991 499,-205.991"/>
<polygon fill="#000000" stroke="#000000" points="495.5001,-205.9909 499,-215.991 502.5001,-205.991 495.5001,-205.9909"/>
</g>
<!-- MinMaxValidator  -->
<g id="node6" class="node">
<title>MinMaxValidator </title>
<polygon fill="#fb8072" stroke="#000000" points="406.8631,-252 285.1369,-252 285.1369,-216 406.8631,-216 406.8631,-252"/>
<text text-anchor="middle" x="346" y="-229.8" font-family="Times,serif" font-size="14.00" fill="#000000">MinMaxValidator </text>
</g>
<!-- PipesModule&#45;&gt;MinMaxValidator  -->
<g id="edge5" class="edge">
<title>PipesModule&#45;&gt;MinMaxValidator </title>
<path fill="none" stroke="#000000" stroke-dasharray="5,2" d="M453.9225,-175C408.7913,-175 346,-175 346,-175 346,-175 346,-205.9775 346,-205.9775"/>
<polygon fill="#000000" stroke="#000000" points="342.5001,-205.9774 346,-215.9775 349.5001,-205.9775 342.5001,-205.9774"/>
</g>
<!-- NumberWithUnitFormInputComponent  -->
<g id="node7" class="node">
<title>NumberWithUnitFormInputComponent </title>
<polygon fill="#fb8072" stroke="#000000" points="267.9739,-252 24.0261,-252 24.0261,-216 267.9739,-216 267.9739,-252"/>
<text text-anchor="middle" x="146" y="-229.8" font-family="Times,serif" font-size="14.00" fill="#000000">NumberWithUnitFormInputComponent </text>
</g>
<!-- PipesModule&#45;&gt;NumberWithUnitFormInputComponent  -->
<g id="edge6" class="edge">
<title>PipesModule&#45;&gt;NumberWithUnitFormInputComponent </title>
<path fill="none" stroke="#000000" stroke-dasharray="5,2" d="M453.9338,-163C358.7693,-163 146,-163 146,-163 146,-163 146,-205.7157 146,-205.7157"/>
<polygon fill="#000000" stroke="#000000" points="142.5001,-205.7157 146,-215.7157 149.5001,-205.7158 142.5001,-205.7157"/>
</g>
</g>
</svg>
