<?xml version="1.0" encoding="UTF-8" standalone="no"?>
<!DOCTYPE svg PUBLIC "-//W3C//DTD SVG 1.1//EN"
 "http://www.w3.org/Graphics/SVG/1.1/DTD/svg11.dtd">
<!-- Generated by graphviz version 5.0.0 (20220707.1540)
 -->
<!-- Title: dependencies Pages: 1 -->
<svg width="210pt" height="247pt"
 viewBox="0.00 0.00 210.00 246.80" xmlns="http://www.w3.org/2000/svg" xmlns:xlink="http://www.w3.org/1999/xlink">
<g id="graph0" class="graph" transform="scale(1 1) rotate(0) translate(4 242.8)">
<title>dependencies</title>
<polygon fill="white" stroke="transparent" points="-4,4 -4,-242.8 206,-242.8 206,4 -4,4"/>
<text text-anchor="middle" x="101" y="-8.2" font-family="sans-serif" font-size="14.00">dependencies</text>
<g id="clust1" class="cluster">
<title>cluster_VcdErrorBannerModule</title>
<polygon fill="none" stroke="black" stroke-dasharray="1,5" points="8,-32.8 8,-230.8 194,-230.8 194,-32.8 8,-32.8"/>
</g>
<g id="clust2" class="cluster">
<title>cluster_VcdErrorBannerModule_declarations</title>
<polygon fill="none" stroke="black" points="17,-40.8 17,-92.8 185,-92.8 185,-40.8 17,-40.8"/>
</g>
<g id="clust5" class="cluster">
<title>cluster_VcdErrorBannerModule_exports</title>
<polygon fill="none" stroke="black" points="16,-170.8 16,-222.8 186,-222.8 186,-170.8 16,-170.8"/>
</g>
<!-- ErrorBannerComponent -->
<g id="node1" class="node">
<title>ErrorBannerComponent</title>
<polygon fill="#ffffb3" stroke="black" points="176.8,-84.8 25.2,-84.8 25.2,-48.8 176.8,-48.8 176.8,-84.8"/>
<text text-anchor="middle" x="101" y="-62.6" font-family="Times,serif" font-size="14.00">ErrorBannerComponent</text>
</g>
<!-- VcdErrorBannerModule -->
<g id="node2" class="node">
<title>VcdErrorBannerModule</title>
<polygon fill="#8dd3c7" stroke="black" points="177.34,-149.8 174.34,-153.8 153.34,-153.8 150.34,-149.8 24.66,-149.8 24.66,-113.8 177.34,-113.8 177.34,-149.8"/>
<text text-anchor="middle" x="101" y="-127.6" font-family="Times,serif" font-size="14.00">VcdErrorBannerModule</text>
</g>
<!-- ErrorBannerComponent&#45;&gt;VcdErrorBannerModule -->
<g id="edge1" class="edge">
<title>ErrorBannerComponent&#45;&gt;VcdErrorBannerModule</title>
<path fill="none" stroke="black" d="M101,-84.91C101,-84.91 101,-103.79 101,-103.79"/>
<polygon fill="black" stroke="black" points="97.5,-103.79 101,-113.79 104.5,-103.79 97.5,-103.79"/>
</g>
<!-- ErrorBannerComponent  -->
<g id="node3" class="node">
<title>ErrorBannerComponent </title>
<polygon fill="#fb8072" stroke="black" points="178.3,-214.8 23.7,-214.8 23.7,-178.8 178.3,-178.8 178.3,-214.8"/>
<text text-anchor="middle" x="101" y="-192.6" font-family="Times,serif" font-size="14.00">ErrorBannerComponent </text>
</g>
<!-- VcdErrorBannerModule&#45;&gt;ErrorBannerComponent  -->
<g id="edge2" class="edge">
<title>VcdErrorBannerModule&#45;&gt;ErrorBannerComponent </title>
<path fill="none" stroke="black" stroke-dasharray="5,2" d="M101,-149.91C101,-149.91 101,-168.79 101,-168.79"/>
<polygon fill="black" stroke="black" points="97.5,-168.79 101,-178.79 104.5,-168.79 97.5,-168.79"/>
</g>
</g>
</svg>
