<?xml version="1.0" encoding="UTF-8" standalone="no"?>
<!DOCTYPE svg PUBLIC "-//W3C//DTD SVG 1.1//EN"
 "http://www.w3.org/Graphics/SVG/1.1/DTD/svg11.dtd">
<!-- Generated by graphviz version 2.40.1 (20161225.0304)
 -->
<!-- Title: dependencies Pages: 1 -->
<svg width="6176pt" height="366pt"
 viewBox="0.00 0.00 6176.00 366.00" xmlns="http://www.w3.org/2000/svg" xmlns:xlink="http://www.w3.org/1999/xlink">
<g id="graph0" class="graph" transform="scale(1 1) rotate(0) translate(4 362)">
<title>dependencies</title>
<polygon fill="#ffffff" stroke="transparent" points="-4,4 -4,-362 6172,-362 6172,4 -4,4"/>
<text text-anchor="start" x="3063.0091" y="-42.4" font-family="sans-serif" font-weight="bold" font-size="14.00" fill="#000000">Legend</text>
<polygon fill="#ffffb3" stroke="transparent" points="2850,-10 2850,-30 2870,-30 2870,-10 2850,-10"/>
<text text-anchor="start" x="2873.629" y="-15.4" font-family="sans-serif" font-size="14.00" fill="#000000"> &#160;Declarations</text>
<polygon fill="#8dd3c7" stroke="transparent" points="2963,-10 2963,-30 2983,-30 2983,-10 2963,-10"/>
<text text-anchor="start" x="2986.7251" y="-15.4" font-family="sans-serif" font-size="14.00" fill="#000000"> &#160;Module</text>
<polygon fill="#80b1d3" stroke="transparent" points="3049,-10 3049,-30 3069,-30 3069,-10 3049,-10"/>
<text text-anchor="start" x="3072.7812" y="-15.4" font-family="sans-serif" font-size="14.00" fill="#000000"> &#160;Bootstrap</text>
<polygon fill="#fdb462" stroke="transparent" points="3146,-10 3146,-30 3166,-30 3166,-10 3146,-10"/>
<text text-anchor="start" x="3169.6732" y="-15.4" font-family="sans-serif" font-size="14.00" fill="#000000"> &#160;Providers</text>
<polygon fill="#fb8072" stroke="transparent" points="3242,-10 3242,-30 3262,-30 3262,-10 3242,-10"/>
<text text-anchor="start" x="3265.7258" y="-15.4" font-family="sans-serif" font-size="14.00" fill="#000000"> &#160;Exports</text>
<g id="clust1" class="cluster">
<title>cluster_PipesModule</title>
<polygon fill="none" stroke="#000000" stroke-dasharray="1,5" points="8,-70 8,-282 942,-282 942,-70 8,-70"/>
</g>
<g id="clust2" class="cluster">
<title>cluster_PipesModule_declarations</title>
<polygon fill="none" stroke="#000000" points="426,-78 426,-130 570,-130 570,-78 426,-78"/>
</g>
<g id="clust5" class="cluster">
<title>cluster_PipesModule_exports</title>
<polygon fill="none" stroke="#000000" points="16,-222 16,-274 934,-274 934,-222 16,-222"/>
</g>
<g id="clust8" class="cluster">
<title>cluster_ShowClippedTextDirectiveModule</title>
<polygon fill="none" stroke="#000000" stroke-dasharray="1,5" points="2766,-70 2766,-282 2996,-282 2996,-70 2766,-70"/>
</g>
<g id="clust9" class="cluster">
<title>cluster_ShowClippedTextDirectiveModule_declarations</title>
<polygon fill="none" stroke="#000000" points="2788,-78 2788,-130 2974,-130 2974,-78 2788,-78"/>
</g>
<g id="clust12" class="cluster">
<title>cluster_ShowClippedTextDirectiveModule_exports</title>
<polygon fill="none" stroke="#000000" points="2786,-222 2786,-274 2976,-274 2976,-222 2786,-222"/>
</g>
<g id="clust15" class="cluster">
<title>cluster_VcdActivityReporterModule</title>
<polygon fill="none" stroke="#000000" stroke-dasharray="1,5" points="3004,-70 3004,-282 3864,-282 3864,-70 3004,-70"/>
</g>
<g id="clust16" class="cluster">
<title>cluster_VcdActivityReporterModule_declarations</title>
<polygon fill="none" stroke="#000000" points="3012,-78 3012,-130 3482,-130 3482,-78 3012,-78"/>
</g>
<g id="clust19" class="cluster">
<title>cluster_VcdActivityReporterModule_imports</title>
<polygon fill="none" stroke="#000000" points="3490,-78 3490,-130 3856,-130 3856,-78 3490,-78"/>
</g>
<g id="clust20" class="cluster">
<title>cluster_VcdActivityReporterModule_exports</title>
<polygon fill="none" stroke="#000000" points="3129,-222 3129,-274 3607,-274 3607,-222 3129,-222"/>
</g>
<g id="clust23" class="cluster">
<title>cluster_VcdComponentsModule</title>
<polygon fill="none" stroke="#000000" stroke-dasharray="1,5" points="4666,-78 4666,-214 5960,-214 5960,-78 4666,-78"/>
</g>
<g id="clust26" class="cluster">
<title>cluster_VcdComponentsModule_exports</title>
<polygon fill="none" stroke="#000000" points="4674,-154 4674,-206 5952,-206 5952,-154 4674,-154"/>
</g>
<g id="clust29" class="cluster">
<title>cluster_VcdDataExporterModule</title>
<polygon fill="none" stroke="#000000" stroke-dasharray="1,5" points="5968,-70 5968,-282 6160,-282 6160,-70 5968,-70"/>
</g>
<g id="clust30" class="cluster">
<title>cluster_VcdDataExporterModule_declarations</title>
<polygon fill="none" stroke="#000000" points="5978,-78 5978,-130 6150,-130 6150,-78 5978,-78"/>
</g>
<g id="clust33" class="cluster">
<title>cluster_VcdDataExporterModule_exports</title>
<polygon fill="none" stroke="#000000" points="5976,-222 5976,-274 6152,-274 6152,-222 5976,-222"/>
</g>
<g id="clust36" class="cluster">
<title>cluster_VcdDatagridModule</title>
<polygon fill="none" stroke="#000000" stroke-dasharray="1,5" points="959,-146 959,-350 2758,-350 2758,-146 959,-146"/>
</g>
<g id="clust37" class="cluster">
<title>cluster_VcdDatagridModule_declarations</title>
<polygon fill="none" stroke="#000000" points="1105,-154 1105,-206 2750,-206 2750,-154 1105,-154"/>
</g>
<g id="clust46" class="cluster">
<title>cluster_VcdDatagridModule_imports</title>
<polygon fill="none" stroke="#000000" points="967,-154 967,-206 1097,-206 1097,-154 967,-154"/>
</g>
<g id="clust47" class="cluster">
<title>cluster_VcdDatagridModule_exports</title>
<polygon fill="none" stroke="#000000" points="1875,-290 1875,-342 2232,-342 2232,-290 1875,-290"/>
</g>
<g id="clust50" class="cluster">
<title>cluster_VcdErrorBannerModule</title>
<polygon fill="none" stroke="#000000" stroke-dasharray="1,5" points="3872,-146 3872,-214 4234,-214 4234,-146 3872,-146"/>
</g>
<g id="clust51" class="cluster">
<title>cluster_VcdErrorBannerModule_declarations</title>
<polygon fill="none" stroke="#000000" points="4058,-154 4058,-206 4226,-206 4226,-154 4058,-154"/>
</g>
<g id="clust54" class="cluster">
<title>cluster_VcdErrorBannerModule_exports</title>
<polygon fill="none" stroke="#000000" points="3880,-154 3880,-206 4050,-206 4050,-154 3880,-154"/>
</g>
<g id="clust57" class="cluster">
<title>cluster_VcdFormModule</title>
<polygon fill="none" stroke="#000000" stroke-dasharray="1,5" points="950,-70 950,-138 2024,-138 2024,-70 950,-70"/>
</g>
<g id="clust58" class="cluster">
<title>cluster_VcdFormModule_declarations</title>
<polygon fill="none" stroke="#000000" points="1114,-78 1114,-130 2016,-130 2016,-78 1114,-78"/>
</g>
<g id="clust67" class="cluster">
<title>cluster_VcdFormModule_providers</title>
<polygon fill="none" stroke="#000000" points="958,-78 958,-130 1106,-130 1106,-78 958,-78"/>
</g>
<g id="clust68" class="cluster">
<title>cluster_VcdLoadingIndicatorModule</title>
<polygon fill="none" stroke="#000000" stroke-dasharray="1,5" points="4242,-146 4242,-214 4658,-214 4658,-146 4242,-146"/>
</g>
<g id="clust69" class="cluster">
<title>cluster_VcdLoadingIndicatorModule_declarations</title>
<polygon fill="none" stroke="#000000" points="4456,-154 4456,-206 4650,-206 4650,-154 4456,-154"/>
</g>
<g id="clust72" class="cluster">
<title>cluster_VcdLoadingIndicatorModule_exports</title>
<polygon fill="none" stroke="#000000" points="4250,-154 4250,-206 4448,-206 4448,-154 4250,-154"/>
</g>
<!-- NestedPropertyPipe -->
<g id="node1" class="node">
<title>NestedPropertyPipe</title>
<polygon fill="#ffffb3" stroke="#000000" points="561.9678,-122 434.0322,-122 434.0322,-86 561.9678,-86 561.9678,-122"/>
<text text-anchor="middle" x="498" y="-99.8" font-family="Times,serif" font-size="14.00" fill="#000000">NestedPropertyPipe</text>
</g>
<!-- PipesModule -->
<g id="node2" class="node">
<title>PipesModule</title>
<polygon fill="#8dd3c7" stroke="#000000" points="542.8823,-198 539.8823,-202 518.8823,-202 515.8823,-198 453.1177,-198 453.1177,-162 542.8823,-162 542.8823,-198"/>
<text text-anchor="middle" x="498" y="-175.8" font-family="Times,serif" font-size="14.00" fill="#000000">PipesModule</text>
</g>
<!-- NestedPropertyPipe&#45;&gt;PipesModule -->
<g id="edge1" class="edge">
<title>NestedPropertyPipe&#45;&gt;PipesModule</title>
<path fill="none" stroke="#000000" d="M498,-122.0109C498,-122.0109 498,-151.855 498,-151.855"/>
<polygon fill="#000000" stroke="#000000" points="494.5001,-151.8549 498,-161.855 501.5001,-151.855 494.5001,-151.8549"/>
</g>
<!-- FormCheckboxComponent  -->
<g id="node3" class="node">
<title>FormCheckboxComponent </title>
<polygon fill="#fb8072" stroke="#000000" points="357.932,-266 186.068,-266 186.068,-230 357.932,-230 357.932,-266"/>
<text text-anchor="middle" x="272" y="-243.8" font-family="Times,serif" font-size="14.00" fill="#000000">FormCheckboxComponent </text>
</g>
<!-- PipesModule&#45;&gt;FormCheckboxComponent  -->
<g id="edge2" class="edge">
<title>PipesModule&#45;&gt;FormCheckboxComponent </title>
<path fill="none" stroke="#000000" stroke-dasharray="5,2" d="M453.0589,-186C379.9524,-186 243.3447,-186 243.3447,-186 243.3447,-186 243.3447,-219.7333 243.3447,-219.7333"/>
<polygon fill="#000000" stroke="#000000" points="239.8448,-219.7333 243.3447,-229.7333 246.8448,-219.7333 239.8448,-219.7333"/>
</g>
<!-- FormInputComponent  -->
<g id="node4" class="node">
<title>FormInputComponent </title>
<polygon fill="#fb8072" stroke="#000000" points="168.2177,-266 23.7823,-266 23.7823,-230 168.2177,-230 168.2177,-266"/>
<text text-anchor="middle" x="96" y="-243.8" font-family="Times,serif" font-size="14.00" fill="#000000">FormInputComponent </text>
</g>
<!-- PipesModule&#45;&gt;FormInputComponent  -->
<g id="edge3" class="edge">
<title>PipesModule&#45;&gt;FormInputComponent </title>
<path fill="none" stroke="#000000" stroke-dasharray="5,2" d="M452.8012,-174C343.1341,-174 71.8804,-174 71.8804,-174 71.8804,-174 71.8804,-219.7079 71.8804,-219.7079"/>
<polygon fill="#000000" stroke="#000000" points="68.3803,-219.7079 71.8804,-229.7079 75.3803,-219.7078 68.3803,-219.7079"/>
</g>
<!-- FormSelectComponent  -->
<g id="node5" class="node">
<title>FormSelectComponent </title>
<polygon fill="#fb8072" stroke="#000000" points="925.8743,-266 776.1257,-266 776.1257,-230 925.8743,-230 925.8743,-266"/>
<text text-anchor="middle" x="851" y="-243.8" font-family="Times,serif" font-size="14.00" fill="#000000">FormSelectComponent </text>
</g>
<!-- PipesModule&#45;&gt;FormSelectComponent  -->
<g id="edge4" class="edge">
<title>PipesModule&#45;&gt;FormSelectComponent </title>
<path fill="none" stroke="#000000" stroke-dasharray="5,2" d="M543.0662,-177C638.2307,-177 851,-177 851,-177 851,-177 851,-219.7157 851,-219.7157"/>
<polygon fill="#000000" stroke="#000000" points="847.5001,-219.7157 851,-229.7157 854.5001,-219.7158 847.5001,-219.7157"/>
</g>
<!-- MinMaxValidator  -->
<g id="node6" class="node">
<title>MinMaxValidator </title>
<polygon fill="#fb8072" stroke="#000000" points="758.8631,-266 637.1369,-266 637.1369,-230 758.8631,-230 758.8631,-266"/>
<text text-anchor="middle" x="698" y="-243.8" font-family="Times,serif" font-size="14.00" fill="#000000">MinMaxValidator </text>
</g>
<!-- PipesModule&#45;&gt;MinMaxValidator  -->
<g id="edge5" class="edge">
<title>PipesModule&#45;&gt;MinMaxValidator </title>
<path fill="none" stroke="#000000" stroke-dasharray="5,2" d="M542.9006,-191C596.148,-191 677.7729,-191 677.7729,-191 677.7729,-191 677.7729,-219.9648 677.7729,-219.9648"/>
<polygon fill="#000000" stroke="#000000" points="674.273,-219.9648 677.7729,-229.9648 681.273,-219.9649 674.273,-219.9648"/>
</g>
<!-- NumberWithUnitFormInputComponent  -->
<g id="node7" class="node">
<title>NumberWithUnitFormInputComponent </title>
<polygon fill="#fb8072" stroke="#000000" points="619.9739,-266 376.0261,-266 376.0261,-230 619.9739,-230 619.9739,-266"/>
<text text-anchor="middle" x="498" y="-243.8" font-family="Times,serif" font-size="14.00" fill="#000000">NumberWithUnitFormInputComponent </text>
</g>
<!-- PipesModule&#45;&gt;NumberWithUnitFormInputComponent  -->
<g id="edge6" class="edge">
<title>PipesModule&#45;&gt;NumberWithUnitFormInputComponent </title>
<path fill="none" stroke="#000000" stroke-dasharray="5,2" d="M498,-198.2228C498,-198.2228 498,-219.7269 498,-219.7269"/>
<polygon fill="#000000" stroke="#000000" points="494.5001,-219.7269 498,-229.7269 501.5001,-219.727 494.5001,-219.7269"/>
</g>
<!-- ShowClippedTextDirective -->
<g id="node8" class="node">
<title>ShowClippedTextDirective</title>
<polygon fill="#ffffb3" stroke="#000000" points="2965.9622,-122 2796.0378,-122 2796.0378,-86 2965.9622,-86 2965.9622,-122"/>
<text text-anchor="middle" x="2881" y="-99.8" font-family="Times,serif" font-size="14.00" fill="#000000">ShowClippedTextDirective</text>
</g>
<!-- ShowClippedTextDirectiveModule -->
<g id="node9" class="node">
<title>ShowClippedTextDirectiveModule</title>
<polygon fill="#8dd3c7" stroke="#000000" points="2987.5126,-198 2984.5126,-202 2963.5126,-202 2960.5126,-198 2774.4874,-198 2774.4874,-162 2987.5126,-162 2987.5126,-198"/>
<text text-anchor="middle" x="2881" y="-175.8" font-family="Times,serif" font-size="14.00" fill="#000000">ShowClippedTextDirectiveModule</text>
</g>
<!-- ShowClippedTextDirective&#45;&gt;ShowClippedTextDirectiveModule -->
<g id="edge7" class="edge">
<title>ShowClippedTextDirective&#45;&gt;ShowClippedTextDirectiveModule</title>
<path fill="none" stroke="#000000" d="M2881,-122.0109C2881,-122.0109 2881,-151.855 2881,-151.855"/>
<polygon fill="#000000" stroke="#000000" points="2877.5001,-151.8549 2881,-161.855 2884.5001,-151.855 2877.5001,-151.8549"/>
</g>
<!-- ShowClippedTextDirective  -->
<g id="node10" class="node">
<title>ShowClippedTextDirective </title>
<polygon fill="#fb8072" stroke="#000000" points="2967.9628,-266 2794.0372,-266 2794.0372,-230 2967.9628,-230 2967.9628,-266"/>
<text text-anchor="middle" x="2881" y="-243.8" font-family="Times,serif" font-size="14.00" fill="#000000">ShowClippedTextDirective </text>
</g>
<!-- ShowClippedTextDirectiveModule&#45;&gt;ShowClippedTextDirective  -->
<g id="edge8" class="edge">
<title>ShowClippedTextDirectiveModule&#45;&gt;ShowClippedTextDirective </title>
<path fill="none" stroke="#000000" stroke-dasharray="5,2" d="M2881,-198.2228C2881,-198.2228 2881,-219.7269 2881,-219.7269"/>
<polygon fill="#000000" stroke="#000000" points="2877.5001,-219.7269 2881,-229.7269 2884.5001,-219.727 2877.5001,-219.7269"/>
</g>
<!-- VcdDatagridModule -->
<g id="node37" class="node">
<title>VcdDatagridModule</title>
<polygon fill="#8dd3c7" stroke="#000000" points="2104.8487,-266 2101.8487,-270 2080.8487,-270 2077.8487,-266 1973.1513,-266 1973.1513,-230 2104.8487,-230 2104.8487,-266"/>
<text text-anchor="middle" x="2039" y="-243.8" font-family="Times,serif" font-size="14.00" fill="#000000">VcdDatagridModule</text>
</g>
<!-- ShowClippedTextDirectiveModule&#45;&gt;VcdDatagridModule -->
<g id="edge32" class="edge">
<title>ShowClippedTextDirectiveModule&#45;&gt;VcdDatagridModule</title>
<path fill="none" stroke="#000000" d="M2784.2565,-198.3228C2784.2565,-221.6602 2784.2565,-259 2784.2565,-259 2784.2565,-259 2115.1365,-259 2115.1365,-259"/>
<polygon fill="#000000" stroke="#000000" points="2115.1366,-255.5001 2105.1365,-259 2115.1365,-262.5001 2115.1366,-255.5001"/>
</g>
<!-- BannerActivityReporterComponent -->
<g id="node11" class="node">
<title>BannerActivityReporterComponent</title>
<polygon fill="#ffffb3" stroke="#000000" points="3474.1203,-122 3257.8797,-122 3257.8797,-86 3474.1203,-86 3474.1203,-122"/>
<text text-anchor="middle" x="3366" y="-99.8" font-family="Times,serif" font-size="14.00" fill="#000000">BannerActivityReporterComponent</text>
</g>
<!-- VcdActivityReporterModule -->
<g id="node13" class="node">
<title>VcdActivityReporterModule</title>
<polygon fill="#8dd3c7" stroke="#000000" points="3454.7324,-198 3451.7324,-202 3430.7324,-202 3427.7324,-198 3277.2676,-198 3277.2676,-162 3454.7324,-162 3454.7324,-198"/>
<text text-anchor="middle" x="3366" y="-175.8" font-family="Times,serif" font-size="14.00" fill="#000000">VcdActivityReporterModule</text>
</g>
<!-- BannerActivityReporterComponent&#45;&gt;VcdActivityReporterModule -->
<g id="edge9" class="edge">
<title>BannerActivityReporterComponent&#45;&gt;VcdActivityReporterModule</title>
<path fill="none" stroke="#000000" d="M3366,-122.0109C3366,-122.0109 3366,-151.855 3366,-151.855"/>
<polygon fill="#000000" stroke="#000000" points="3362.5001,-151.8549 3366,-161.855 3369.5001,-151.855 3362.5001,-151.8549"/>
</g>
<!-- SpinnerActivityReporterComponent -->
<g id="node12" class="node">
<title>SpinnerActivityReporterComponent</title>
<polygon fill="#ffffb3" stroke="#000000" points="3239.7422,-122 3020.2578,-122 3020.2578,-86 3239.7422,-86 3239.7422,-122"/>
<text text-anchor="middle" x="3130" y="-99.8" font-family="Times,serif" font-size="14.00" fill="#000000">SpinnerActivityReporterComponent</text>
</g>
<!-- SpinnerActivityReporterComponent&#45;&gt;VcdActivityReporterModule -->
<g id="edge10" class="edge">
<title>SpinnerActivityReporterComponent&#45;&gt;VcdActivityReporterModule</title>
<path fill="none" stroke="#000000" d="M3188.625,-122.0109C3188.625,-144.4852 3188.625,-180 3188.625,-180 3188.625,-180 3267.0527,-180 3267.0527,-180"/>
<polygon fill="#000000" stroke="#000000" points="3267.0527,-183.5001 3277.0527,-180 3267.0526,-176.5001 3267.0527,-183.5001"/>
</g>
<!-- BannerActivityReporterComponent  -->
<g id="node16" class="node">
<title>BannerActivityReporterComponent </title>
<polygon fill="#fb8072" stroke="#000000" points="3599.12,-266 3378.88,-266 3378.88,-230 3599.12,-230 3599.12,-266"/>
<text text-anchor="middle" x="3489" y="-243.8" font-family="Times,serif" font-size="14.00" fill="#000000">BannerActivityReporterComponent </text>
</g>
<!-- VcdActivityReporterModule&#45;&gt;BannerActivityReporterComponent  -->
<g id="edge13" class="edge">
<title>VcdActivityReporterModule&#45;&gt;BannerActivityReporterComponent </title>
<path fill="none" stroke="#000000" stroke-dasharray="5,2" d="M3416.9031,-198.2228C3416.9031,-198.2228 3416.9031,-219.7269 3416.9031,-219.7269"/>
<polygon fill="#000000" stroke="#000000" points="3413.4031,-219.7269 3416.9031,-229.7269 3420.4031,-219.727 3413.4031,-219.7269"/>
</g>
<!-- SpinnerActivityReporterComponent  -->
<g id="node17" class="node">
<title>SpinnerActivityReporterComponent </title>
<polygon fill="#fb8072" stroke="#000000" points="3360.7421,-266 3137.2579,-266 3137.2579,-230 3360.7421,-230 3360.7421,-266"/>
<text text-anchor="middle" x="3249" y="-243.8" font-family="Times,serif" font-size="14.00" fill="#000000">SpinnerActivityReporterComponent </text>
</g>
<!-- VcdActivityReporterModule&#45;&gt;SpinnerActivityReporterComponent  -->
<g id="edge14" class="edge">
<title>VcdActivityReporterModule&#45;&gt;SpinnerActivityReporterComponent </title>
<path fill="none" stroke="#000000" stroke-dasharray="5,2" d="M3332.792,-198.2228C3332.792,-198.2228 3332.792,-219.7269 3332.792,-219.7269"/>
<polygon fill="#000000" stroke="#000000" points="3329.2921,-219.7269 3332.792,-229.7269 3336.2921,-219.727 3329.2921,-219.7269"/>
</g>
<!-- VcdActivityReporterModule&#45;&gt;VcdDatagridModule -->
<g id="edge33" class="edge">
<title>VcdActivityReporterModule&#45;&gt;VcdDatagridModule</title>
<path fill="none" stroke="#000000" d="M3304.9629,-198.0579C3304.9629,-202.4945 3304.9629,-206 3304.9629,-206 3304.9629,-206 2060.9748,-206 2060.9748,-206 2060.9748,-206 2060.9748,-219.9445 2060.9748,-219.9445"/>
<polygon fill="#000000" stroke="#000000" points="2057.4749,-219.9444 2060.9748,-229.9445 2064.4749,-219.9445 2057.4749,-219.9444"/>
</g>
<!-- VcdErrorBannerModule -->
<g id="node14" class="node">
<title>VcdErrorBannerModule</title>
<polygon fill="#8dd3c7" stroke="#000000" points="3650.3319,-122 3647.3319,-126 3626.3319,-126 3623.3319,-122 3497.6681,-122 3497.6681,-86 3650.3319,-86 3650.3319,-122"/>
<text text-anchor="middle" x="3574" y="-99.8" font-family="Times,serif" font-size="14.00" fill="#000000">VcdErrorBannerModule</text>
</g>
<!-- VcdErrorBannerModule&#45;&gt;VcdActivityReporterModule -->
<g id="edge11" class="edge">
<title>VcdErrorBannerModule&#45;&gt;VcdActivityReporterModule</title>
<path fill="none" stroke="#000000" d="M3548.3221,-122.0109C3548.3221,-144.4852 3548.3221,-180 3548.3221,-180 3548.3221,-180 3464.7576,-180 3464.7576,-180"/>
<polygon fill="#000000" stroke="#000000" points="3464.7576,-176.5001 3454.7576,-180 3464.7576,-183.5001 3464.7576,-176.5001"/>
</g>
<!-- ErrorBannerComponent  -->
<g id="node42" class="node">
<title>ErrorBannerComponent </title>
<polygon fill="#fb8072" stroke="#000000" points="4042.2933,-198 3887.7067,-198 3887.7067,-162 4042.2933,-162 4042.2933,-198"/>
<text text-anchor="middle" x="3965" y="-175.8" font-family="Times,serif" font-size="14.00" fill="#000000">ErrorBannerComponent </text>
</g>
<!-- VcdErrorBannerModule&#45;&gt;ErrorBannerComponent  -->
<g id="edge38" class="edge">
<title>VcdErrorBannerModule&#45;&gt;ErrorBannerComponent </title>
<path fill="none" stroke="#000000" stroke-dasharray="5,2" d="M3633.2973,-122.308C3633.2973,-142.1455 3633.2973,-171 3633.2973,-171 3633.2973,-171 3877.6491,-171 3877.6491,-171"/>
<polygon fill="#000000" stroke="#000000" points="3877.6491,-174.5001 3887.6491,-171 3877.649,-167.5001 3877.6491,-174.5001"/>
</g>
<!-- VcdLoadingIndicatorModule -->
<g id="node15" class="node">
<title>VcdLoadingIndicatorModule</title>
<polygon fill="#8dd3c7" stroke="#000000" points="3848.0604,-122 3845.0604,-126 3824.0604,-126 3821.0604,-122 3667.9396,-122 3667.9396,-86 3848.0604,-86 3848.0604,-122"/>
<text text-anchor="middle" x="3758" y="-99.8" font-family="Times,serif" font-size="14.00" fill="#000000">VcdLoadingIndicatorModule</text>
</g>
<!-- VcdLoadingIndicatorModule&#45;&gt;VcdActivityReporterModule -->
<g id="edge12" class="edge">
<title>VcdLoadingIndicatorModule&#45;&gt;VcdActivityReporterModule</title>
<path fill="none" stroke="#000000" d="M3758,-122.0263C3758,-146.9773 3758,-189 3758,-189 3758,-189 3464.9509,-189 3464.9509,-189"/>
<polygon fill="#000000" stroke="#000000" points="3464.9509,-185.5001 3454.9509,-189 3464.9508,-192.5001 3464.9509,-185.5001"/>
</g>
<!-- LoadingIndicatorComponent  -->
<g id="node50" class="node">
<title>LoadingIndicatorComponent </title>
<polygon fill="#fb8072" stroke="#000000" points="4440.0218,-198 4257.9782,-198 4257.9782,-162 4440.0218,-162 4440.0218,-198"/>
<text text-anchor="middle" x="4349" y="-175.8" font-family="Times,serif" font-size="14.00" fill="#000000">LoadingIndicatorComponent </text>
</g>
<!-- VcdLoadingIndicatorModule&#45;&gt;LoadingIndicatorComponent  -->
<g id="edge51" class="edge">
<title>VcdLoadingIndicatorModule&#45;&gt;LoadingIndicatorComponent </title>
<path fill="none" stroke="#000000" stroke-dasharray="5,2" d="M3848.0816,-98C4013.5256,-98 4349,-98 4349,-98 4349,-98 4349,-151.8015 4349,-151.8015"/>
<polygon fill="#000000" stroke="#000000" points="4345.5001,-151.8015 4349,-161.8015 4352.5001,-151.8016 4345.5001,-151.8015"/>
</g>
<!-- ShowClippedTextDirectiveModule  -->
<g id="node18" class="node">
<title>ShowClippedTextDirectiveModule </title>
<polygon fill="#fb8072" stroke="#000000" points="4899.512,-198 4682.488,-198 4682.488,-162 4899.512,-162 4899.512,-198"/>
<text text-anchor="middle" x="4791" y="-175.8" font-family="Times,serif" font-size="14.00" fill="#000000">ShowClippedTextDirectiveModule </text>
</g>
<!-- VcdActivityReporterModule  -->
<g id="node19" class="node">
<title>VcdActivityReporterModule </title>
<polygon fill="#fb8072" stroke="#000000" points="5943.7323,-198 5762.2677,-198 5762.2677,-162 5943.7323,-162 5943.7323,-198"/>
<text text-anchor="middle" x="5853" y="-175.8" font-family="Times,serif" font-size="14.00" fill="#000000">VcdActivityReporterModule </text>
</g>
<!-- VcdDataExporterModule  -->
<g id="node20" class="node">
<title>VcdDataExporterModule </title>
<polygon fill="#fb8072" stroke="#000000" points="5743.7766,-198 5582.2234,-198 5582.2234,-162 5743.7766,-162 5743.7766,-198"/>
<text text-anchor="middle" x="5663" y="-175.8" font-family="Times,serif" font-size="14.00" fill="#000000">VcdDataExporterModule </text>
</g>
<!-- VcdDatagridModule  -->
<g id="node21" class="node">
<title>VcdDatagridModule </title>
<polygon fill="#fb8072" stroke="#000000" points="5563.8491,-198 5428.1509,-198 5428.1509,-162 5563.8491,-162 5563.8491,-198"/>
<text text-anchor="middle" x="5496" y="-175.8" font-family="Times,serif" font-size="14.00" fill="#000000">VcdDatagridModule </text>
</g>
<!-- VcdErrorBannerModule  -->
<g id="node22" class="node">
<title>VcdErrorBannerModule </title>
<polygon fill="#fb8072" stroke="#000000" points="5410.3322,-198 5253.6678,-198 5253.6678,-162 5410.3322,-162 5410.3322,-198"/>
<text text-anchor="middle" x="5332" y="-175.8" font-family="Times,serif" font-size="14.00" fill="#000000">VcdErrorBannerModule </text>
</g>
<!-- VcdFormModule  -->
<g id="node23" class="node">
<title>VcdFormModule </title>
<polygon fill="#fb8072" stroke="#000000" points="5235.2052,-198 5118.7948,-198 5118.7948,-162 5235.2052,-162 5235.2052,-198"/>
<text text-anchor="middle" x="5177" y="-175.8" font-family="Times,serif" font-size="14.00" fill="#000000">VcdFormModule </text>
</g>
<!-- VcdLoadingIndicatorModule  -->
<g id="node24" class="node">
<title>VcdLoadingIndicatorModule </title>
<polygon fill="#fb8072" stroke="#000000" points="5100.5609,-198 4917.4391,-198 4917.4391,-162 5100.5609,-162 5100.5609,-198"/>
<text text-anchor="middle" x="5009" y="-175.8" font-family="Times,serif" font-size="14.00" fill="#000000">VcdLoadingIndicatorModule </text>
</g>
<!-- VcdComponentsModule -->
<g id="node25" class="node">
<title>VcdComponentsModule</title>
<polygon fill="#8dd3c7" stroke="#000000" points="5408.6484,-122 5405.6484,-126 5384.6484,-126 5381.6484,-122 5255.3516,-122 5255.3516,-86 5408.6484,-86 5408.6484,-122"/>
<text text-anchor="middle" x="5332" y="-99.8" font-family="Times,serif" font-size="14.00" fill="#000000">VcdComponentsModule</text>
</g>
<!-- VcdComponentsModule&#45;&gt;ShowClippedTextDirectiveModule  -->
<g id="edge15" class="edge">
<title>VcdComponentsModule&#45;&gt;ShowClippedTextDirectiveModule </title>
<path fill="none" stroke="#000000" stroke-dasharray="5,2" d="M5255.3491,-104C5106.105,-104 4791,-104 4791,-104 4791,-104 4791,-151.9891 4791,-151.9891"/>
<polygon fill="#000000" stroke="#000000" points="4787.5001,-151.989 4791,-161.9891 4794.5001,-151.9891 4787.5001,-151.989"/>
</g>
<!-- VcdComponentsModule&#45;&gt;VcdActivityReporterModule  -->
<g id="edge16" class="edge">
<title>VcdComponentsModule&#45;&gt;VcdActivityReporterModule </title>
<path fill="none" stroke="#000000" stroke-dasharray="5,2" d="M5408.8753,-95C5553.8002,-95 5853,-95 5853,-95 5853,-95 5853,-151.9737 5853,-151.9737"/>
<polygon fill="#000000" stroke="#000000" points="5849.5001,-151.9737 5853,-161.9737 5856.5001,-151.9737 5849.5001,-151.9737"/>
</g>
<!-- VcdComponentsModule&#45;&gt;VcdDataExporterModule  -->
<g id="edge17" class="edge">
<title>VcdComponentsModule&#45;&gt;VcdDataExporterModule </title>
<path fill="none" stroke="#000000" stroke-dasharray="5,2" d="M5408.77,-104C5506.5508,-104 5663,-104 5663,-104 5663,-104 5663,-151.9891 5663,-151.9891"/>
<polygon fill="#000000" stroke="#000000" points="5659.5001,-151.989 5663,-161.9891 5666.5001,-151.9891 5659.5001,-151.989"/>
</g>
<!-- VcdComponentsModule&#45;&gt;VcdDatagridModule  -->
<g id="edge18" class="edge">
<title>VcdComponentsModule&#45;&gt;VcdDatagridModule </title>
<path fill="none" stroke="#000000" stroke-dasharray="5,2" d="M5408.7181,-113C5451.4009,-113 5496,-113 5496,-113 5496,-113 5496,-151.692 5496,-151.692"/>
<polygon fill="#000000" stroke="#000000" points="5492.5001,-151.6919 5496,-161.692 5499.5001,-151.692 5492.5001,-151.6919"/>
</g>
<!-- VcdComponentsModule&#45;&gt;VcdErrorBannerModule  -->
<g id="edge19" class="edge">
<title>VcdComponentsModule&#45;&gt;VcdErrorBannerModule </title>
<path fill="none" stroke="#000000" stroke-dasharray="5,2" d="M5332,-122.0109C5332,-122.0109 5332,-151.855 5332,-151.855"/>
<polygon fill="#000000" stroke="#000000" points="5328.5001,-151.8549 5332,-161.855 5335.5001,-151.855 5328.5001,-151.8549"/>
</g>
<!-- VcdComponentsModule&#45;&gt;VcdFormModule  -->
<g id="edge20" class="edge">
<title>VcdComponentsModule&#45;&gt;VcdFormModule </title>
<path fill="none" stroke="#000000" stroke-dasharray="5,2" d="M5254.9541,-116C5216.0533,-116 5177,-116 5177,-116 5177,-116 5177,-151.8314 5177,-151.8314"/>
<polygon fill="#000000" stroke="#000000" points="5173.5001,-151.8313 5177,-161.8314 5180.5001,-151.8314 5173.5001,-151.8313"/>
</g>
<!-- VcdComponentsModule&#45;&gt;VcdLoadingIndicatorModule  -->
<g id="edge21" class="edge">
<title>VcdComponentsModule&#45;&gt;VcdLoadingIndicatorModule </title>
<path fill="none" stroke="#000000" stroke-dasharray="5,2" d="M5255.0438,-110C5159.5071,-110 5009,-110 5009,-110 5009,-110 5009,-151.9733 5009,-151.9733"/>
<polygon fill="#000000" stroke="#000000" points="5005.5001,-151.9732 5009,-161.9733 5012.5001,-151.9733 5005.5001,-151.9732"/>
</g>
<!-- DataExporterComponent -->
<g id="node26" class="node">
<title>DataExporterComponent</title>
<polygon fill="#ffffb3" stroke="#000000" points="6142.238,-122 5985.762,-122 5985.762,-86 6142.238,-86 6142.238,-122"/>
<text text-anchor="middle" x="6064" y="-99.8" font-family="Times,serif" font-size="14.00" fill="#000000">DataExporterComponent</text>
</g>
<!-- VcdDataExporterModule -->
<g id="node27" class="node">
<title>VcdDataExporterModule</title>
<polygon fill="#8dd3c7" stroke="#000000" points="6143.2766,-198 6140.2766,-202 6119.2766,-202 6116.2766,-198 5984.7234,-198 5984.7234,-162 6143.2766,-162 6143.2766,-198"/>
<text text-anchor="middle" x="6064" y="-175.8" font-family="Times,serif" font-size="14.00" fill="#000000">VcdDataExporterModule</text>
</g>
<!-- DataExporterComponent&#45;&gt;VcdDataExporterModule -->
<g id="edge22" class="edge">
<title>DataExporterComponent&#45;&gt;VcdDataExporterModule</title>
<path fill="none" stroke="#000000" d="M6064,-122.0109C6064,-122.0109 6064,-151.855 6064,-151.855"/>
<polygon fill="#000000" stroke="#000000" points="6060.5001,-151.8549 6064,-161.855 6067.5001,-151.855 6060.5001,-151.8549"/>
</g>
<!-- DataExporterComponent  -->
<g id="node28" class="node">
<title>DataExporterComponent </title>
<polygon fill="#fb8072" stroke="#000000" points="6144.238,-266 5983.762,-266 5983.762,-230 6144.238,-230 6144.238,-266"/>
<text text-anchor="middle" x="6064" y="-243.8" font-family="Times,serif" font-size="14.00" fill="#000000">DataExporterComponent </text>
</g>
<!-- VcdDataExporterModule&#45;&gt;DataExporterComponent  -->
<g id="edge23" class="edge">
<title>VcdDataExporterModule&#45;&gt;DataExporterComponent </title>
<path fill="none" stroke="#000000" stroke-dasharray="5,2" d="M6064,-198.2228C6064,-198.2228 6064,-219.7269 6064,-219.7269"/>
<polygon fill="#000000" stroke="#000000" points="6060.5001,-219.7269 6064,-229.7269 6067.5001,-219.727 6060.5001,-219.7269"/>
</g>
<!-- BoldTextRendererComponent -->
<g id="node29" class="node">
<title>BoldTextRendererComponent</title>
<polygon fill="#ffffb3" stroke="#000000" points="2741.5196,-198 2556.4804,-198 2556.4804,-162 2741.5196,-162 2741.5196,-198"/>
<text text-anchor="middle" x="2649" y="-175.8" font-family="Times,serif" font-size="14.00" fill="#000000">BoldTextRendererComponent</text>
</g>
<!-- BoldTextRendererComponent&#45;&gt;VcdDatagridModule -->
<g id="edge24" class="edge">
<title>BoldTextRendererComponent&#45;&gt;VcdDatagridModule</title>
<path fill="none" stroke="#000000" d="M2649,-198.1686C2649,-219.498 2649,-252 2649,-252 2649,-252 2114.8603,-252 2114.8603,-252"/>
<polygon fill="#000000" stroke="#000000" points="2114.8603,-248.5001 2104.8603,-252 2114.8602,-255.5001 2114.8603,-248.5001"/>
</g>
<!-- ComponentRendererOutletDirective -->
<g id="node30" class="node">
<title>ComponentRendererOutletDirective</title>
<polygon fill="#ffffb3" stroke="#000000" points="2537.71,-198 2318.29,-198 2318.29,-162 2537.71,-162 2537.71,-198"/>
<text text-anchor="middle" x="2428" y="-175.8" font-family="Times,serif" font-size="14.00" fill="#000000">ComponentRendererOutletDirective</text>
</g>
<!-- ComponentRendererOutletDirective&#45;&gt;VcdDatagridModule -->
<g id="edge25" class="edge">
<title>ComponentRendererOutletDirective&#45;&gt;VcdDatagridModule</title>
<path fill="none" stroke="#000000" d="M2428,-198.1061C2428,-217.3391 2428,-245 2428,-245 2428,-245 2114.9885,-245 2114.9885,-245"/>
<polygon fill="#000000" stroke="#000000" points="2114.9886,-241.5001 2104.9885,-245 2114.9885,-248.5001 2114.9886,-241.5001"/>
</g>
<!-- DatagridComponent -->
<g id="node31" class="node">
<title>DatagridComponent</title>
<polygon fill="#ffffb3" stroke="#000000" points="2300.3104,-198 2169.6896,-198 2169.6896,-162 2300.3104,-162 2300.3104,-198"/>
<text text-anchor="middle" x="2235" y="-175.8" font-family="Times,serif" font-size="14.00" fill="#000000">DatagridComponent</text>
</g>
<!-- DatagridComponent&#45;&gt;VcdDatagridModule -->
<g id="edge26" class="edge">
<title>DatagridComponent&#45;&gt;VcdDatagridModule</title>
<path fill="none" stroke="#000000" d="M2196.6772,-198.0336C2196.6772,-215.0597 2196.6772,-238 2196.6772,-238 2196.6772,-238 2114.9557,-238 2114.9557,-238"/>
<polygon fill="#000000" stroke="#000000" points="2114.9558,-234.5001 2104.9557,-238 2114.9557,-241.5001 2114.9558,-234.5001"/>
</g>
<!-- DatagridMultiSelectFilterComponent -->
<g id="node32" class="node">
<title>DatagridMultiSelectFilterComponent</title>
<polygon fill="#ffffb3" stroke="#000000" points="2151.9636,-198 1926.0364,-198 1926.0364,-162 2151.9636,-162 2151.9636,-198"/>
<text text-anchor="middle" x="2039" y="-175.8" font-family="Times,serif" font-size="14.00" fill="#000000">DatagridMultiSelectFilterComponent</text>
</g>
<!-- DatagridMultiSelectFilterComponent&#45;&gt;VcdDatagridModule -->
<g id="edge27" class="edge">
<title>DatagridMultiSelectFilterComponent&#45;&gt;VcdDatagridModule</title>
<path fill="none" stroke="#000000" d="M2017.0252,-198.2228C2017.0252,-198.2228 2017.0252,-219.7269 2017.0252,-219.7269"/>
<polygon fill="#000000" stroke="#000000" points="2013.5253,-219.7269 2017.0252,-229.7269 2020.5253,-219.727 2013.5253,-219.7269"/>
</g>
<!-- DatagridNumericFilterComponent -->
<g id="node33" class="node">
<title>DatagridNumericFilterComponent</title>
<polygon fill="#ffffb3" stroke="#000000" points="1907.6175,-198 1698.3825,-198 1698.3825,-162 1907.6175,-162 1907.6175,-198"/>
<text text-anchor="middle" x="1803" y="-175.8" font-family="Times,serif" font-size="14.00" fill="#000000">DatagridNumericFilterComponent</text>
</g>
<!-- DatagridNumericFilterComponent&#45;&gt;VcdDatagridModule -->
<g id="edge28" class="edge">
<title>DatagridNumericFilterComponent&#45;&gt;VcdDatagridModule</title>
<path fill="none" stroke="#000000" d="M1895.4518,-198.027C1895.4518,-214.3976 1895.4518,-236 1895.4518,-236 1895.4518,-236 1963.1077,-236 1963.1077,-236"/>
<polygon fill="#000000" stroke="#000000" points="1963.1078,-239.5001 1973.1077,-236 1963.1077,-232.5001 1963.1078,-239.5001"/>
</g>
<!-- DatagridSelectFilterComponent -->
<g id="node34" class="node">
<title>DatagridSelectFilterComponent</title>
<polygon fill="#ffffb3" stroke="#000000" points="1680.3473,-198 1485.6527,-198 1485.6527,-162 1680.3473,-162 1680.3473,-198"/>
<text text-anchor="middle" x="1583" y="-175.8" font-family="Times,serif" font-size="14.00" fill="#000000">DatagridSelectFilterComponent</text>
</g>
<!-- DatagridSelectFilterComponent&#45;&gt;VcdDatagridModule -->
<g id="edge29" class="edge">
<title>DatagridSelectFilterComponent&#45;&gt;VcdDatagridModule</title>
<path fill="none" stroke="#000000" d="M1583,-198.302C1583,-216.2699 1583,-241 1583,-241 1583,-241 1962.6937,-241 1962.6937,-241"/>
<polygon fill="#000000" stroke="#000000" points="1962.6937,-244.5001 1972.6937,-241 1962.6936,-237.5001 1962.6937,-244.5001"/>
</g>
<!-- DatagridStringFilterComponent -->
<g id="node35" class="node">
<title>DatagridStringFilterComponent</title>
<polygon fill="#ffffb3" stroke="#000000" points="1467.364,-198 1272.636,-198 1272.636,-162 1467.364,-162 1467.364,-198"/>
<text text-anchor="middle" x="1370" y="-175.8" font-family="Times,serif" font-size="14.00" fill="#000000">DatagridStringFilterComponent</text>
</g>
<!-- DatagridStringFilterComponent&#45;&gt;VcdDatagridModule -->
<g id="edge30" class="edge">
<title>DatagridStringFilterComponent&#45;&gt;VcdDatagridModule</title>
<path fill="none" stroke="#000000" d="M1370,-198.0348C1370,-217.5762 1370,-246 1370,-246 1370,-246 1963.0228,-246 1963.0228,-246"/>
<polygon fill="#000000" stroke="#000000" points="1963.0228,-249.5001 1973.0228,-246 1963.0228,-242.5001 1963.0228,-249.5001"/>
</g>
<!-- FunctionRendererPipe -->
<g id="node36" class="node">
<title>FunctionRendererPipe</title>
<polygon fill="#ffffb3" stroke="#000000" points="1254.9678,-198 1113.0322,-198 1113.0322,-162 1254.9678,-162 1254.9678,-198"/>
<text text-anchor="middle" x="1184" y="-175.8" font-family="Times,serif" font-size="14.00" fill="#000000">FunctionRendererPipe</text>
</g>
<!-- FunctionRendererPipe&#45;&gt;VcdDatagridModule -->
<g id="edge31" class="edge">
<title>FunctionRendererPipe&#45;&gt;VcdDatagridModule</title>
<path fill="none" stroke="#000000" d="M1184,-198.2843C1184,-219.3211 1184,-251 1184,-251 1184,-251 1962.9756,-251 1962.9756,-251"/>
<polygon fill="#000000" stroke="#000000" points="1962.9756,-254.5001 1972.9756,-251 1962.9755,-247.5001 1962.9756,-254.5001"/>
</g>
<!-- BoldTextRendererComponent  -->
<g id="node39" class="node">
<title>BoldTextRendererComponent </title>
<polygon fill="#fb8072" stroke="#000000" points="2223.519,-334 2034.481,-334 2034.481,-298 2223.519,-298 2223.519,-334"/>
<text text-anchor="middle" x="2129" y="-311.8" font-family="Times,serif" font-size="14.00" fill="#000000">BoldTextRendererComponent </text>
</g>
<!-- VcdDatagridModule&#45;&gt;BoldTextRendererComponent  -->
<g id="edge35" class="edge">
<title>VcdDatagridModule&#45;&gt;BoldTextRendererComponent </title>
<path fill="none" stroke="#000000" stroke-dasharray="5,2" d="M2069.7074,-266.2228C2069.7074,-266.2228 2069.7074,-287.7269 2069.7074,-287.7269"/>
<polygon fill="#000000" stroke="#000000" points="2066.2075,-287.7269 2069.7074,-297.7269 2073.2075,-287.727 2066.2075,-287.7269"/>
</g>
<!-- DatagridComponent  -->
<g id="node40" class="node">
<title>DatagridComponent </title>
<polygon fill="#fb8072" stroke="#000000" points="2016.8101,-334 1883.1899,-334 1883.1899,-298 2016.8101,-298 2016.8101,-334"/>
<text text-anchor="middle" x="1950" y="-311.8" font-family="Times,serif" font-size="14.00" fill="#000000">DatagridComponent </text>
</g>
<!-- VcdDatagridModule&#45;&gt;DatagridComponent  -->
<g id="edge36" class="edge">
<title>VcdDatagridModule&#45;&gt;DatagridComponent </title>
<path fill="none" stroke="#000000" stroke-dasharray="5,2" d="M1994.9904,-266.2228C1994.9904,-266.2228 1994.9904,-287.7269 1994.9904,-287.7269"/>
<polygon fill="#000000" stroke="#000000" points="1991.4904,-287.7269 1994.9904,-297.7269 1998.4904,-287.727 1991.4904,-287.7269"/>
</g>
<!-- VcdFormModule -->
<g id="node38" class="node">
<title>VcdFormModule</title>
<polygon fill="#8dd3c7" stroke="#000000" points="1088.705,-198 1085.705,-202 1064.705,-202 1061.705,-198 975.295,-198 975.295,-162 1088.705,-162 1088.705,-198"/>
<text text-anchor="middle" x="1032" y="-175.8" font-family="Times,serif" font-size="14.00" fill="#000000">VcdFormModule</text>
</g>
<!-- VcdFormModule&#45;&gt;FormCheckboxComponent  -->
<g id="edge44" class="edge">
<title>VcdFormModule&#45;&gt;FormCheckboxComponent </title>
<path fill="none" stroke="#000000" stroke-dasharray="5,2" d="M1020.6795,-198.0555C1020.6795,-209.439 1020.6795,-222 1020.6795,-222 1020.6795,-222 300.6553,-222 300.6553,-222 300.6553,-222 300.6553,-222.7942 300.6553,-222.7942"/>
<polygon fill="#000000" stroke="#000000" points="297.1555,-219.9421 300.6553,-229.9421 304.1555,-219.9422 297.1555,-219.9421"/>
</g>
<!-- VcdFormModule&#45;&gt;FormInputComponent  -->
<g id="edge45" class="edge">
<title>VcdFormModule&#45;&gt;FormInputComponent </title>
<path fill="none" stroke="#000000" stroke-dasharray="5,2" d="M998.0386,-198.1944C998.0386,-206.2782 998.0386,-214 998.0386,-214 998.0386,-214 120.1196,-214 120.1196,-214 120.1196,-214 120.1196,-219.8056 120.1196,-219.8056"/>
<polygon fill="#000000" stroke="#000000" points="116.6197,-219.8055 120.1196,-229.8056 123.6197,-219.8056 116.6197,-219.8055"/>
</g>
<!-- VcdFormModule&#45;&gt;FormSelectComponent  -->
<g id="edge46" class="edge">
<title>VcdFormModule&#45;&gt;FormSelectComponent </title>
<path fill="none" stroke="#000000" stroke-dasharray="5,2" d="M1043.3205,-198.3802C1043.3205,-222.2785 1043.3205,-261 1043.3205,-261 1043.3205,-261 935.9068,-261 935.9068,-261"/>
<polygon fill="#000000" stroke="#000000" points="935.9068,-257.5001 925.9068,-261 935.9068,-264.5001 935.9068,-257.5001"/>
</g>
<!-- VcdFormModule&#45;&gt;MinMaxValidator  -->
<g id="edge47" class="edge">
<title>VcdFormModule&#45;&gt;MinMaxValidator </title>
<path fill="none" stroke="#000000" stroke-dasharray="5,2" d="M975.1781,-184C884.7574,-184 718.2271,-184 718.2271,-184 718.2271,-184 718.2271,-219.8314 718.2271,-219.8314"/>
<polygon fill="#000000" stroke="#000000" points="714.7272,-219.8313 718.2271,-229.8314 721.7272,-219.8314 714.7272,-219.8313"/>
</g>
<!-- VcdFormModule&#45;&gt;NumberWithUnitFormInputComponent  -->
<g id="edge48" class="edge">
<title>VcdFormModule&#45;&gt;NumberWithUnitFormInputComponent </title>
<path fill="none" stroke="#000000" stroke-dasharray="5,2" d="M975.2318,-170C856.087,-170 590.8603,-170 590.8603,-170 590.8603,-170 590.8603,-219.9092 590.8603,-219.9092"/>
<polygon fill="#000000" stroke="#000000" points="587.3604,-219.9091 590.8603,-229.9092 594.3604,-219.9092 587.3604,-219.9091"/>
</g>
<!-- VcdFormModule&#45;&gt;VcdDatagridModule -->
<g id="edge34" class="edge">
<title>VcdFormModule&#45;&gt;VcdDatagridModule</title>
<path fill="none" stroke="#000000" d="M1065.9614,-198.0109C1065.9614,-220.4852 1065.9614,-256 1065.9614,-256 1065.9614,-256 1962.8841,-256 1962.8841,-256"/>
<polygon fill="#000000" stroke="#000000" points="1962.8841,-259.5001 1972.8841,-256 1962.8841,-252.5001 1962.8841,-259.5001"/>
</g>
<!-- ErrorBannerComponent -->
<g id="node41" class="node">
<title>ErrorBannerComponent</title>
<polygon fill="#ffffb3" stroke="#000000" points="4217.7935,-198 4066.2065,-198 4066.2065,-162 4217.7935,-162 4217.7935,-198"/>
<text text-anchor="middle" x="4142" y="-175.8" font-family="Times,serif" font-size="14.00" fill="#000000">ErrorBannerComponent</text>
</g>
<!-- ErrorBannerComponent&#45;&gt;VcdErrorBannerModule -->
<g id="edge37" class="edge">
<title>ErrorBannerComponent&#45;&gt;VcdErrorBannerModule</title>
<path fill="none" stroke="#000000" d="M4142,-161.8757C4142,-147.2168 4142,-129 4142,-129 4142,-129 3616.1786,-129 3616.1786,-129 3616.1786,-129 3616.1786,-128.3169 3616.1786,-128.3169"/>
<polygon fill="#000000" stroke="#000000" points="3619.6788,-132.1686 3616.1786,-122.1686 3612.6788,-132.1687 3619.6788,-132.1686"/>
</g>
<!-- FormCheckboxComponent -->
<g id="node43" class="node">
<title>FormCheckboxComponent</title>
<polygon fill="#ffffb3" stroke="#000000" points="1450.4326,-122 1281.5674,-122 1281.5674,-86 1450.4326,-86 1450.4326,-122"/>
<text text-anchor="middle" x="1366" y="-99.8" font-family="Times,serif" font-size="14.00" fill="#000000">FormCheckboxComponent</text>
</g>
<!-- FormCheckboxComponent&#45;&gt;VcdFormModule -->
<g id="edge39" class="edge">
<title>FormCheckboxComponent&#45;&gt;VcdFormModule</title>
<path fill="none" stroke="#000000" d="M1366,-122.2434C1366,-129.4297 1366,-136 1366,-136 1366,-136 1013.1325,-136 1013.1325,-136 1013.1325,-136 1013.1325,-151.8495 1013.1325,-151.8495"/>
<polygon fill="#000000" stroke="#000000" points="1009.6326,-151.8494 1013.1325,-161.8495 1016.6326,-151.8495 1009.6326,-151.8494"/>
</g>
<!-- FormInputComponent -->
<g id="node44" class="node">
<title>FormInputComponent</title>
<polygon fill="#ffffb3" stroke="#000000" points="1263.7176,-122 1122.2824,-122 1122.2824,-86 1263.7176,-86 1263.7176,-122"/>
<text text-anchor="middle" x="1193" y="-99.8" font-family="Times,serif" font-size="14.00" fill="#000000">FormInputComponent</text>
</g>
<!-- FormInputComponent&#45;&gt;VcdFormModule -->
<g id="edge40" class="edge">
<title>FormInputComponent&#45;&gt;VcdFormModule</title>
<path fill="none" stroke="#000000" d="M1122.0795,-104C1112.3685,-104 1105.6495,-104 1105.6495,-104 1105.6495,-104 1105.6495,-180 1105.6495,-180 1105.6495,-180 1098.9373,-180 1098.9373,-180"/>
<polygon fill="#000000" stroke="#000000" points="1098.9373,-176.5001 1088.9373,-180 1098.9373,-183.5001 1098.9373,-176.5001"/>
</g>
<!-- FormSelectComponent -->
<g id="node45" class="node">
<title>FormSelectComponent</title>
<polygon fill="#ffffb3" stroke="#000000" points="2007.8739,-122 1862.1261,-122 1862.1261,-86 2007.8739,-86 2007.8739,-122"/>
<text text-anchor="middle" x="1935" y="-99.8" font-family="Times,serif" font-size="14.00" fill="#000000">FormSelectComponent</text>
</g>
<!-- FormSelectComponent&#45;&gt;VcdFormModule -->
<g id="edge41" class="edge">
<title>FormSelectComponent&#45;&gt;VcdFormModule</title>
<path fill="none" stroke="#000000" d="M1884.9359,-122.1871C1884.9359,-137.1824 1884.9359,-156 1884.9359,-156 1884.9359,-156 1069.7349,-156 1069.7349,-156 1069.7349,-156 1069.7349,-156.581 1069.7349,-156.581"/>
<polygon fill="#000000" stroke="#000000" points="1066.2351,-151.8097 1069.7349,-161.8097 1073.2351,-151.8098 1066.2351,-151.8097"/>
</g>
<!-- MinMaxValidator -->
<g id="node46" class="node">
<title>MinMaxValidator</title>
<polygon fill="#ffffb3" stroke="#000000" points="1843.8627,-122 1726.1373,-122 1726.1373,-86 1843.8627,-86 1843.8627,-122"/>
<text text-anchor="middle" x="1785" y="-99.8" font-family="Times,serif" font-size="14.00" fill="#000000">MinMaxValidator</text>
</g>
<!-- MinMaxValidator&#45;&gt;VcdFormModule -->
<g id="edge42" class="edge">
<title>MinMaxValidator&#45;&gt;VcdFormModule</title>
<path fill="none" stroke="#000000" d="M1785,-122.0439C1785,-134.5633 1785,-149 1785,-149 1785,-149 1050.8675,-149 1050.8675,-149 1050.8675,-149 1050.8675,-151.9672 1050.8675,-151.9672"/>
<polygon fill="#000000" stroke="#000000" points="1047.3676,-151.9671 1050.8675,-161.9672 1054.3676,-151.9672 1047.3676,-151.9671"/>
</g>
<!-- NumberWithUnitFormInputComponent -->
<g id="node47" class="node">
<title>NumberWithUnitFormInputComponent</title>
<polygon fill="#ffffb3" stroke="#000000" points="1707.9734,-122 1468.0266,-122 1468.0266,-86 1707.9734,-86 1707.9734,-122"/>
<text text-anchor="middle" x="1588" y="-99.8" font-family="Times,serif" font-size="14.00" fill="#000000">NumberWithUnitFormInputComponent</text>
</g>
<!-- NumberWithUnitFormInputComponent&#45;&gt;VcdFormModule -->
<g id="edge43" class="edge">
<title>NumberWithUnitFormInputComponent&#45;&gt;VcdFormModule</title>
<path fill="none" stroke="#000000" d="M1476.7949,-122.1097C1476.7949,-131.897 1476.7949,-142 1476.7949,-142 1476.7949,-142 1032,-142 1032,-142 1032,-142 1032,-151.8903 1032,-151.8903"/>
<polygon fill="#000000" stroke="#000000" points="1028.5001,-151.8903 1032,-161.8903 1035.5001,-151.8904 1028.5001,-151.8903"/>
</g>
<!-- UnitFormatter -->
<g id="node48" class="node">
<title>UnitFormatter</title>
<ellipse fill="#fdb462" stroke="#000000" cx="1032" cy="-104" rx="66.0666" ry="18"/>
<text text-anchor="middle" x="1032" y="-99.8" font-family="Times,serif" font-size="14.00" fill="#000000">UnitFormatter</text>
</g>
<!-- UnitFormatter&#45;&gt;VcdFormModule -->
<g id="edge49" class="edge">
<title>UnitFormatter&#45;&gt;VcdFormModule</title>
<path fill="none" stroke="#000000" d="M994.2651,-119.0152C994.2651,-119.0152 994.2651,-151.7991 994.2651,-151.7991"/>
<polygon fill="#000000" stroke="#000000" points="990.7652,-151.7991 994.2651,-161.7991 997.7652,-151.7992 990.7652,-151.7991"/>
</g>
<!-- LoadingIndicatorComponent -->
<g id="node49" class="node">
<title>LoadingIndicatorComponent</title>
<polygon fill="#ffffb3" stroke="#000000" points="4642.0224,-198 4463.9776,-198 4463.9776,-162 4642.0224,-162 4642.0224,-198"/>
<text text-anchor="middle" x="4553" y="-175.8" font-family="Times,serif" font-size="14.00" fill="#000000">LoadingIndicatorComponent</text>
</g>
<!-- LoadingIndicatorComponent&#45;&gt;VcdLoadingIndicatorModule -->
<g id="edge50" class="edge">
<title>LoadingIndicatorComponent&#45;&gt;VcdLoadingIndicatorModule</title>
<path fill="none" stroke="#000000" d="M4553,-161.7663C4553,-135.9906 4553,-92 4553,-92 4553,-92 3858.0366,-92 3858.0366,-92"/>
<polygon fill="#000000" stroke="#000000" points="3858.0366,-88.5001 3848.0366,-92 3858.0366,-95.5001 3858.0366,-88.5001"/>
</g>
</g>
</svg>
