<?xml version="1.0" encoding="UTF-8" standalone="no"?>
<!DOCTYPE svg PUBLIC "-//W3C//DTD SVG 1.1//EN"
 "http://www.w3.org/Graphics/SVG/1.1/DTD/svg11.dtd">
<!-- Generated by graphviz version 5.0.0 (20220707.1540)
 -->
<!-- Title: dependencies Pages: 1 -->
<svg width="789pt" height="174pt"
 viewBox="0.00 0.00 789.00 173.80" xmlns="http://www.w3.org/2000/svg" xmlns:xlink="http://www.w3.org/1999/xlink">
<g id="graph0" class="graph" transform="scale(1 1) rotate(0) translate(4 169.8)">
<title>dependencies</title>
<polygon fill="white" stroke="transparent" points="-4,4 -4,-169.8 785,-169.8 785,4 -4,4"/>
<text text-anchor="middle" x="390.5" y="-8.2" font-family="sans-serif" font-size="14.00">dependencies</text>
<g id="clust1" class="cluster">
<title>cluster_VcdFormlyModule</title>
<polygon fill="none" stroke="black" stroke-dasharray="1,5" points="8,-32.8 8,-157.8 773,-157.8 773,-32.8 8,-32.8"/>
</g>
<g id="clust6" class="cluster">
<title>cluster_VcdFormlyModule_imports</title>
<polygon fill="none" stroke="black" points="635,-40.8 635,-92.8 765,-92.8 765,-40.8 635,-40.8"/>
</g>
<g id="clust2" class="cluster">
<title>cluster_VcdFormlyModule_declarations</title>
<polygon fill="none" stroke="black" points="16,-40.8 16,-92.8 627,-92.8 627,-40.8 16,-40.8"/>
</g>
<!-- FormlyInputComponent -->
<g id="node1" class="node">
<title>FormlyInputComponent</title>
<polygon fill="#ffffb3" stroke="black" points="619.11,-84.8 466.89,-84.8 466.89,-48.8 619.11,-48.8 619.11,-84.8"/>
<text text-anchor="middle" x="543" y="-62.6" font-family="Times,serif" font-size="14.00">FormlyInputComponent</text>
</g>
<!-- VcdFormlyModule -->
<g id="node4" class="node">
<title>VcdFormlyModule</title>
<polygon fill="#8dd3c7" stroke="black" points="495.1,-149.8 492.1,-153.8 471.1,-153.8 468.1,-149.8 370.9,-149.8 370.9,-113.8 495.1,-113.8 495.1,-149.8"/>
<text text-anchor="middle" x="433" y="-127.6" font-family="Times,serif" font-size="14.00">VcdFormlyModule</text>
</g>
<!-- FormlyInputComponent&#45;&gt;VcdFormlyModule -->
<g id="edge1" class="edge">
<title>FormlyInputComponent&#45;&gt;VcdFormlyModule</title>
<path fill="none" stroke="black" d="M481,-84.91C481,-84.91 481,-103.79 481,-103.79"/>
<polygon fill="black" stroke="black" points="477.5,-103.79 481,-113.79 484.5,-103.79 477.5,-103.79"/>
</g>
<!-- FormlyNumberWithUnitInputComponent -->
<g id="node2" class="node">
<title>FormlyNumberWithUnitInputComponent</title>
<polygon fill="#ffffb3" stroke="black" points="449.37,-84.8 198.63,-84.8 198.63,-48.8 449.37,-48.8 449.37,-84.8"/>
<text text-anchor="middle" x="324" y="-62.6" font-family="Times,serif" font-size="14.00">FormlyNumberWithUnitInputComponent</text>
</g>
<!-- FormlyNumberWithUnitInputComponent&#45;&gt;VcdFormlyModule -->
<g id="edge2" class="edge">
<title>FormlyNumberWithUnitInputComponent&#45;&gt;VcdFormlyModule</title>
<path fill="none" stroke="black" d="M410.19,-84.91C410.19,-84.91 410.19,-103.79 410.19,-103.79"/>
<polygon fill="black" stroke="black" points="406.69,-103.79 410.19,-113.79 413.69,-103.79 406.69,-103.79"/>
</g>
<!-- FormlySelectComponent -->
<g id="node3" class="node">
<title>FormlySelectComponent</title>
<polygon fill="#ffffb3" stroke="black" points="180.27,-84.8 23.73,-84.8 23.73,-48.8 180.27,-48.8 180.27,-84.8"/>
<text text-anchor="middle" x="102" y="-62.6" font-family="Times,serif" font-size="14.00">FormlySelectComponent</text>
</g>
<!-- FormlySelectComponent&#45;&gt;VcdFormlyModule -->
<g id="edge3" class="edge">
<title>FormlySelectComponent&#45;&gt;VcdFormlyModule</title>
<path fill="none" stroke="black" d="M102,-84.91C102,-104.14 102,-131.8 102,-131.8 102,-131.8 360.74,-131.8 360.74,-131.8"/>
<polygon fill="black" stroke="black" points="360.74,-135.3 370.74,-131.8 360.74,-128.3 360.74,-135.3"/>
</g>
<!-- VcdFormModule -->
<g id="node5" class="node">
<title>VcdFormModule</title>
<polygon fill="#8dd3c7" stroke="black" points="756.71,-84.8 753.71,-88.8 732.71,-88.8 729.71,-84.8 643.29,-84.8 643.29,-48.8 756.71,-48.8 756.71,-84.8"/>
<text text-anchor="middle" x="700" y="-62.6" font-family="Times,serif" font-size="14.00">VcdFormModule</text>
</g>
<!-- VcdFormModule&#45;&gt;VcdFormlyModule -->
<g id="edge4" class="edge">
<title>VcdFormModule&#45;&gt;VcdFormlyModule</title>
<path fill="none" stroke="black" d="M700,-84.91C700,-104.14 700,-131.8 700,-131.8 700,-131.8 505.26,-131.8 505.26,-131.8"/>
<polygon fill="black" stroke="black" points="505.26,-128.3 495.26,-131.8 505.26,-135.3 505.26,-128.3"/>
</g>
</g>
</svg>
