<?xml version="1.0" encoding="UTF-8" standalone="no"?>
<!DOCTYPE svg PUBLIC "-//W3C//DTD SVG 1.1//EN"
 "http://www.w3.org/Graphics/SVG/1.1/DTD/svg11.dtd">
<!-- Generated by graphviz version 2.40.1 (20161225.0304)
 -->
<!-- Title: dependencies Pages: 1 -->
<svg width="789pt" height="211pt"
 viewBox="0.00 0.00 789.00 211.00" xmlns="http://www.w3.org/2000/svg" xmlns:xlink="http://www.w3.org/1999/xlink">
<g id="graph0" class="graph" transform="scale(1 1) rotate(0) translate(4 207)">
<title>dependencies</title>
<polygon fill="#ffffff" stroke="transparent" points="-4,4 -4,-207 785,-207 785,4 -4,4"/>
<text text-anchor="start" x="369.5091" y="-42.4" font-family="sans-serif" font-weight="bold" font-size="14.00" fill="#000000">Legend</text>
<polygon fill="#ffffb3" stroke="transparent" points="156.5,-10 156.5,-30 176.5,-30 176.5,-10 156.5,-10"/>
<text text-anchor="start" x="180.129" y="-15.4" font-family="sans-serif" font-size="14.00" fill="#000000"> &#160;Declarations</text>
<polygon fill="#8dd3c7" stroke="transparent" points="269.5,-10 269.5,-30 289.5,-30 289.5,-10 269.5,-10"/>
<text text-anchor="start" x="293.2251" y="-15.4" font-family="sans-serif" font-size="14.00" fill="#000000"> &#160;Module</text>
<polygon fill="#80b1d3" stroke="transparent" points="355.5,-10 355.5,-30 375.5,-30 375.5,-10 355.5,-10"/>
<text text-anchor="start" x="379.2812" y="-15.4" font-family="sans-serif" font-size="14.00" fill="#000000"> &#160;Bootstrap</text>
<polygon fill="#fdb462" stroke="transparent" points="452.5,-10 452.5,-30 472.5,-30 472.5,-10 452.5,-10"/>
<text text-anchor="start" x="476.1732" y="-15.4" font-family="sans-serif" font-size="14.00" fill="#000000"> &#160;Providers</text>
<polygon fill="#fb8072" stroke="transparent" points="548.5,-10 548.5,-30 568.5,-30 568.5,-10 548.5,-10"/>
<text text-anchor="start" x="572.2258" y="-15.4" font-family="sans-serif" font-size="14.00" fill="#000000"> &#160;Exports</text>
<g id="clust1" class="cluster">
<title>cluster_VcdFormlyModule</title>
<polygon fill="none" stroke="#000000" stroke-dasharray="1,5" points="8,-70 8,-195 773,-195 773,-70 8,-70"/>
</g>
<g id="clust2" class="cluster">
<title>cluster_VcdFormlyModule_declarations</title>
<polygon fill="none" stroke="#000000" points="154,-78 154,-130 765,-130 765,-78 154,-78"/>
</g>
<g id="clust6" class="cluster">
<title>cluster_VcdFormlyModule_imports</title>
<polygon fill="none" stroke="#000000" points="16,-78 16,-130 146,-130 146,-78 16,-78"/>
</g>
<!-- FormlyInputComponent -->
<g id="node1" class="node">
<title>FormlyInputComponent</title>
<polygon fill="#ffffb3" stroke="#000000" points="757.108,-122 604.892,-122 604.892,-86 757.108,-86 757.108,-122"/>
<text text-anchor="middle" x="681" y="-99.8" font-family="Times,serif" font-size="14.00" fill="#000000">FormlyInputComponent</text>
</g>
<!-- VcdFormlyModule -->
<g id="node4" class="node">
<title>VcdFormlyModule</title>
<polygon fill="#8dd3c7" stroke="#000000" points="413.0954,-187 410.0954,-191 389.0954,-191 386.0954,-187 288.9046,-187 288.9046,-151 413.0954,-151 413.0954,-187"/>
<text text-anchor="middle" x="351" y="-164.8" font-family="Times,serif" font-size="14.00" fill="#000000">VcdFormlyModule</text>
</g>
<!-- FormlyInputComponent&#45;&gt;VcdFormlyModule -->
<g id="edge1" class="edge">
<title>FormlyInputComponent&#45;&gt;VcdFormlyModule</title>
<path fill="none" stroke="#000000" d="M681,-122.1061C681,-141.3391 681,-169 681,-169 681,-169 423.0705,-169 423.0705,-169"/>
<polygon fill="#000000" stroke="#000000" points="423.0705,-165.5001 413.0705,-169 423.0704,-172.5001 423.0705,-165.5001"/>
</g>
<!-- FormlyNumberWithUnitInputComponent -->
<g id="node2" class="node">
<title>FormlyNumberWithUnitInputComponent</title>
<polygon fill="#ffffb3" stroke="#000000" points="587.364,-122 336.636,-122 336.636,-86 587.364,-86 587.364,-122"/>
<text text-anchor="middle" x="462" y="-99.8" font-family="Times,serif" font-size="14.00" fill="#000000">FormlyNumberWithUnitInputComponent</text>
</g>
<!-- FormlyNumberWithUnitInputComponent&#45;&gt;VcdFormlyModule -->
<g id="edge2" class="edge">
<title>FormlyNumberWithUnitInputComponent&#45;&gt;VcdFormlyModule</title>
<path fill="none" stroke="#000000" d="M374.8079,-122.1061C374.8079,-122.1061 374.8079,-140.991 374.8079,-140.991"/>
<polygon fill="#000000" stroke="#000000" points="371.3079,-140.9909 374.8079,-150.991 378.3079,-140.991 371.3079,-140.9909"/>
</g>
<!-- FormlySelectComponent -->
<g id="node3" class="node">
<title>FormlySelectComponent</title>
<polygon fill="#ffffb3" stroke="#000000" points="318.2646,-122 161.7354,-122 161.7354,-86 318.2646,-86 318.2646,-122"/>
<text text-anchor="middle" x="240" y="-99.8" font-family="Times,serif" font-size="14.00" fill="#000000">FormlySelectComponent</text>
</g>
<!-- FormlySelectComponent&#45;&gt;VcdFormlyModule -->
<g id="edge3" class="edge">
<title>FormlySelectComponent&#45;&gt;VcdFormlyModule</title>
<path fill="none" stroke="#000000" d="M303.6672,-122.1061C303.6672,-122.1061 303.6672,-140.991 303.6672,-140.991"/>
<polygon fill="#000000" stroke="#000000" points="300.1673,-140.9909 303.6672,-150.991 307.1673,-140.991 300.1673,-140.9909"/>
</g>
<!-- VcdFormModule -->
<g id="node5" class="node">
<title>VcdFormModule</title>
<polygon fill="#8dd3c7" stroke="#000000" points="137.705,-122 134.705,-126 113.705,-126 110.705,-122 24.295,-122 24.295,-86 137.705,-86 137.705,-122"/>
<text text-anchor="middle" x="81" y="-99.8" font-family="Times,serif" font-size="14.00" fill="#000000">VcdFormModule</text>
</g>
<!-- VcdFormModule&#45;&gt;VcdFormlyModule -->
<g id="edge4" class="edge">
<title>VcdFormModule&#45;&gt;VcdFormlyModule</title>
<path fill="none" stroke="#000000" d="M81,-122.1061C81,-141.3391 81,-169 81,-169 81,-169 278.7175,-169 278.7175,-169"/>
<polygon fill="#000000" stroke="#000000" points="278.7176,-172.5001 288.7175,-169 278.7175,-165.5001 278.7176,-172.5001"/>
</g>
</g>
</svg>
