<?xml version="1.0" encoding="UTF-8" standalone="no"?>
<!DOCTYPE svg PUBLIC "-//W3C//DTD SVG 1.1//EN"
 "http://www.w3.org/Graphics/SVG/1.1/DTD/svg11.dtd">
<!-- Generated by graphviz version 2.47.0 (20210316.0004)
 -->
<!-- Title: dependencies Pages: 1 -->
<svg width="789pt" height="211pt"
 viewBox="0.00 0.00 789.00 211.00" xmlns="http://www.w3.org/2000/svg" xmlns:xlink="http://www.w3.org/1999/xlink">
<g id="graph0" class="graph" transform="scale(1 1) rotate(0) translate(4 207)">
<title>dependencies</title>
<polygon fill="white" stroke="transparent" points="-4,4 -4,-207 785,-207 785,4 -4,4"/>
<text text-anchor="start" x="369.51" y="-42.4" font-family="Times-12" font-weight="bold" font-size="14.00">Legend</text>
<polygon fill="#ffffb3" stroke="transparent" points="156.5,-10 156.5,-30 176.5,-30 176.5,-10 156.5,-10"/>
<text text-anchor="start" x="180.13" y="-15.4" font-family="Times-12" font-size="14.00"> &#160;Declarations</text>
<polygon fill="#8dd3c7" stroke="transparent" points="269.5,-10 269.5,-30 289.5,-30 289.5,-10 269.5,-10"/>
<text text-anchor="start" x="293.23" y="-15.4" font-family="Times-12" font-size="14.00"> &#160;Module</text>
<polygon fill="#80b1d3" stroke="transparent" points="355.5,-10 355.5,-30 375.5,-30 375.5,-10 355.5,-10"/>
<text text-anchor="start" x="379.28" y="-15.4" font-family="Times-12" font-size="14.00"> &#160;Bootstrap</text>
<polygon fill="#fdb462" stroke="transparent" points="452.5,-10 452.5,-30 472.5,-30 472.5,-10 452.5,-10"/>
<text text-anchor="start" x="476.17" y="-15.4" font-family="Times-12" font-size="14.00"> &#160;Providers</text>
<polygon fill="#fb8072" stroke="transparent" points="548.5,-10 548.5,-30 568.5,-30 568.5,-10 548.5,-10"/>
<text text-anchor="start" x="572.23" y="-15.4" font-family="Times-12" font-size="14.00"> &#160;Exports</text>
<g id="clust1" class="cluster">
<title>cluster_VcdFormlyModule</title>
<polygon fill="none" stroke="black" stroke-dasharray="1,5" points="8,-70 8,-195 773,-195 773,-70 8,-70"/>
</g>
<g id="clust6" class="cluster">
<title>cluster_VcdFormlyModule_imports</title>
<polygon fill="none" stroke="black" points="635,-78 635,-130 765,-130 765,-78 635,-78"/>
</g>
<g id="clust2" class="cluster">
<title>cluster_VcdFormlyModule_declarations</title>
<polygon fill="none" stroke="black" points="16,-78 16,-130 627,-130 627,-78 16,-78"/>
</g>
<!-- FormlyInputComponent -->
<g id="node1" class="node">
<title>FormlyInputComponent</title>
<polygon fill="#ffffb3" stroke="black" points="619.11,-122 466.89,-122 466.89,-86 619.11,-86 619.11,-122"/>
<text text-anchor="middle" x="543" y="-99.8" font-family="Times,serif" font-size="14.00">FormlyInputComponent</text>
</g>
<!-- VcdFormlyModule -->
<g id="node4" class="node">
<title>VcdFormlyModule</title>
<polygon fill="#8dd3c7" stroke="black" points="495.1,-187 492.1,-191 471.1,-191 468.1,-187 370.9,-187 370.9,-151 495.1,-151 495.1,-187"/>
<text text-anchor="middle" x="433" y="-164.8" font-family="Times,serif" font-size="14.00">VcdFormlyModule</text>
</g>
<!-- FormlyInputComponent&#45;&gt;VcdFormlyModule -->
<g id="edge1" class="edge">
<title>FormlyInputComponent&#45;&gt;VcdFormlyModule</title>
<path fill="none" stroke="black" d="M481,-122.11C481,-122.11 481,-140.99 481,-140.99"/>
<polygon fill="black" stroke="black" points="477.5,-140.99 481,-150.99 484.5,-140.99 477.5,-140.99"/>
</g>
<!-- FormlyNumberWithUnitInputComponent -->
<g id="node2" class="node">
<title>FormlyNumberWithUnitInputComponent</title>
<polygon fill="#ffffb3" stroke="black" points="449.36,-122 198.64,-122 198.64,-86 449.36,-86 449.36,-122"/>
<text text-anchor="middle" x="324" y="-99.8" font-family="Times,serif" font-size="14.00">FormlyNumberWithUnitInputComponent</text>
</g>
<!-- FormlyNumberWithUnitInputComponent&#45;&gt;VcdFormlyModule -->
<g id="edge2" class="edge">
<title>FormlyNumberWithUnitInputComponent&#45;&gt;VcdFormlyModule</title>
<path fill="none" stroke="black" d="M410.19,-122.11C410.19,-122.11 410.19,-140.99 410.19,-140.99"/>
<polygon fill="black" stroke="black" points="406.69,-140.99 410.19,-150.99 413.69,-140.99 406.69,-140.99"/>
</g>
<!-- FormlySelectComponent -->
<g id="node3" class="node">
<title>FormlySelectComponent</title>
<polygon fill="#ffffb3" stroke="black" points="180.26,-122 23.74,-122 23.74,-86 180.26,-86 180.26,-122"/>
<text text-anchor="middle" x="102" y="-99.8" font-family="Times,serif" font-size="14.00">FormlySelectComponent</text>
</g>
<!-- FormlySelectComponent&#45;&gt;VcdFormlyModule -->
<g id="edge3" class="edge">
<title>FormlySelectComponent&#45;&gt;VcdFormlyModule</title>
<path fill="none" stroke="black" d="M102,-122.11C102,-141.34 102,-169 102,-169 102,-169 360.74,-169 360.74,-169"/>
<polygon fill="black" stroke="black" points="360.74,-172.5 370.74,-169 360.74,-165.5 360.74,-172.5"/>
</g>
<!-- VcdFormModule -->
<g id="node5" class="node">
<title>VcdFormModule</title>
<polygon fill="#8dd3c7" stroke="black" points="756.7,-122 753.7,-126 732.7,-126 729.7,-122 643.3,-122 643.3,-86 756.7,-86 756.7,-122"/>
<text text-anchor="middle" x="700" y="-99.8" font-family="Times,serif" font-size="14.00">VcdFormModule</text>
</g>
<!-- VcdFormModule&#45;&gt;VcdFormlyModule -->
<g id="edge4" class="edge">
<title>VcdFormModule&#45;&gt;VcdFormlyModule</title>
<path fill="none" stroke="black" d="M700,-122.11C700,-141.34 700,-169 700,-169 700,-169 505.26,-169 505.26,-169"/>
<polygon fill="black" stroke="black" points="505.26,-165.5 495.26,-169 505.26,-172.5 505.26,-165.5"/>
</g>
</g>
</svg>
