<?xml version="1.0" encoding="UTF-8" standalone="no"?>
<!DOCTYPE svg PUBLIC "-//W3C//DTD SVG 1.1//EN"
 "http://www.w3.org/Graphics/SVG/1.1/DTD/svg11.dtd">
<!-- Generated by graphviz version 5.0.0 (20220707.1540)
 -->
<!-- Title: dependencies Pages: 1 -->
<svg width="789pt" height="174pt"
 viewBox="0.00 0.00 789.00 173.80" xmlns="http://www.w3.org/2000/svg" xmlns:xlink="http://www.w3.org/1999/xlink">
<g id="graph0" class="graph" transform="scale(1 1) rotate(0) translate(4 169.8)">
<title>dependencies</title>
<polygon fill="white" stroke="transparent" points="-4,4 -4,-169.8 785,-169.8 785,4 -4,4"/>
<text text-anchor="middle" x="390.5" y="-8.2" font-family="sans-serif" font-size="14.00">dependencies</text>
<g id="clust1" class="cluster">
<title>cluster_VcdFormlyModule</title>
<polygon fill="none" stroke="black" stroke-dasharray="1,5" points="8,-32.8 8,-157.8 773,-157.8 773,-32.8 8,-32.8"/>
</g>
<g id="clust2" class="cluster">
<title>cluster_VcdFormlyModule_declarations</title>
<polygon fill="none" stroke="black" points="154,-40.8 154,-92.8 765,-92.8 765,-40.8 154,-40.8"/>
</g>
<g id="clust6" class="cluster">
<title>cluster_VcdFormlyModule_imports</title>
<polygon fill="none" stroke="black" points="16,-40.8 16,-92.8 146,-92.8 146,-40.8 16,-40.8"/>
</g>
<!-- FormlyInputComponent -->
<g id="node1" class="node">
<title>FormlyInputComponent</title>
<polygon fill="#ffffb3" stroke="black" points="757.11,-84.8 604.89,-84.8 604.89,-48.8 757.11,-48.8 757.11,-84.8"/>
<text text-anchor="middle" x="681" y="-62.6" font-family="Times,serif" font-size="14.00">FormlyInputComponent</text>
</g>
<!-- VcdFormlyModule -->
<g id="node4" class="node">
<title>VcdFormlyModule</title>
<polygon fill="#8dd3c7" stroke="black" points="413.1,-149.8 410.1,-153.8 389.1,-153.8 386.1,-149.8 288.9,-149.8 288.9,-113.8 413.1,-113.8 413.1,-149.8"/>
<text text-anchor="middle" x="351" y="-127.6" font-family="Times,serif" font-size="14.00">VcdFormlyModule</text>
</g>
<!-- FormlyInputComponent&#45;&gt;VcdFormlyModule -->
<g id="edge1" class="edge">
<title>FormlyInputComponent&#45;&gt;VcdFormlyModule</title>
<path fill="none" stroke="black" d="M681,-84.91C681,-104.14 681,-131.8 681,-131.8 681,-131.8 423.07,-131.8 423.07,-131.8"/>
<polygon fill="black" stroke="black" points="423.07,-128.3 413.07,-131.8 423.07,-135.3 423.07,-128.3"/>
</g>
<!-- FormlyNumberWithUnitInputComponent -->
<g id="node2" class="node">
<title>FormlyNumberWithUnitInputComponent</title>
<polygon fill="#ffffb3" stroke="black" points="587.37,-84.8 336.63,-84.8 336.63,-48.8 587.37,-48.8 587.37,-84.8"/>
<text text-anchor="middle" x="462" y="-62.6" font-family="Times,serif" font-size="14.00">FormlyNumberWithUnitInputComponent</text>
</g>
<!-- FormlyNumberWithUnitInputComponent&#45;&gt;VcdFormlyModule -->
<g id="edge2" class="edge">
<title>FormlyNumberWithUnitInputComponent&#45;&gt;VcdFormlyModule</title>
<path fill="none" stroke="black" d="M374.81,-84.91C374.81,-84.91 374.81,-103.79 374.81,-103.79"/>
<polygon fill="black" stroke="black" points="371.31,-103.79 374.81,-113.79 378.31,-103.79 371.31,-103.79"/>
</g>
<!-- FormlySelectComponent -->
<g id="node3" class="node">
<title>FormlySelectComponent</title>
<polygon fill="#ffffb3" stroke="black" points="318.27,-84.8 161.73,-84.8 161.73,-48.8 318.27,-48.8 318.27,-84.8"/>
<text text-anchor="middle" x="240" y="-62.6" font-family="Times,serif" font-size="14.00">FormlySelectComponent</text>
</g>
<!-- FormlySelectComponent&#45;&gt;VcdFormlyModule -->
<g id="edge3" class="edge">
<title>FormlySelectComponent&#45;&gt;VcdFormlyModule</title>
<path fill="none" stroke="black" d="M303.67,-84.91C303.67,-84.91 303.67,-103.79 303.67,-103.79"/>
<polygon fill="black" stroke="black" points="300.17,-103.79 303.67,-113.79 307.17,-103.79 300.17,-103.79"/>
</g>
<!-- VcdFormModule -->
<g id="node5" class="node">
<title>VcdFormModule</title>
<polygon fill="#8dd3c7" stroke="black" points="137.71,-84.8 134.71,-88.8 113.71,-88.8 110.71,-84.8 24.29,-84.8 24.29,-48.8 137.71,-48.8 137.71,-84.8"/>
<text text-anchor="middle" x="81" y="-62.6" font-family="Times,serif" font-size="14.00">VcdFormModule</text>
</g>
<!-- VcdFormModule&#45;&gt;VcdFormlyModule -->
<g id="edge4" class="edge">
<title>VcdFormModule&#45;&gt;VcdFormlyModule</title>
<path fill="none" stroke="black" d="M81,-84.91C81,-104.14 81,-131.8 81,-131.8 81,-131.8 278.72,-131.8 278.72,-131.8"/>
<polygon fill="black" stroke="black" points="278.72,-135.3 288.72,-131.8 278.72,-128.3 278.72,-135.3"/>
</g>
</g>
</svg>
