<?xml version="1.0" encoding="UTF-8" standalone="no"?>
<!DOCTYPE svg PUBLIC "-//W3C//DTD SVG 1.1//EN"
 "http://www.w3.org/Graphics/SVG/1.1/DTD/svg11.dtd">
<!-- Generated by graphviz version 2.40.1 (20161225.0304)
 -->
<!-- Title: dependencies Pages: 1 -->
<svg width="1318pt" height="211pt"
 viewBox="0.00 0.00 1318.00 211.00" xmlns="http://www.w3.org/2000/svg" xmlns:xlink="http://www.w3.org/1999/xlink">
<g id="graph0" class="graph" transform="scale(1 1) rotate(0) translate(4 207)">
<title>dependencies</title>
<polygon fill="#ffffff" stroke="transparent" points="-4,4 -4,-207 1314,-207 1314,4 -4,4"/>
<text text-anchor="start" x="634.0091" y="-42.4" font-family="sans-serif" font-weight="bold" font-size="14.00" fill="#000000">Legend</text>
<polygon fill="#ffffb3" stroke="transparent" points="421,-10 421,-30 441,-30 441,-10 421,-10"/>
<text text-anchor="start" x="444.629" y="-15.4" font-family="sans-serif" font-size="14.00" fill="#000000"> &#160;Declarations</text>
<polygon fill="#8dd3c7" stroke="transparent" points="534,-10 534,-30 554,-30 554,-10 534,-10"/>
<text text-anchor="start" x="557.7251" y="-15.4" font-family="sans-serif" font-size="14.00" fill="#000000"> &#160;Module</text>
<polygon fill="#80b1d3" stroke="transparent" points="620,-10 620,-30 640,-30 640,-10 620,-10"/>
<text text-anchor="start" x="643.7812" y="-15.4" font-family="sans-serif" font-size="14.00" fill="#000000"> &#160;Bootstrap</text>
<polygon fill="#fdb462" stroke="transparent" points="717,-10 717,-30 737,-30 737,-10 717,-10"/>
<text text-anchor="start" x="740.6732" y="-15.4" font-family="sans-serif" font-size="14.00" fill="#000000"> &#160;Providers</text>
<polygon fill="#fb8072" stroke="transparent" points="813,-10 813,-30 833,-30 833,-10 813,-10"/>
<text text-anchor="start" x="836.7258" y="-15.4" font-family="sans-serif" font-size="14.00" fill="#000000"> &#160;Exports</text>
<g id="clust1" class="cluster">
<title>cluster_VcdComponentsModule</title>
<polygon fill="none" stroke="#000000" stroke-dasharray="1,5" points="8,-70 8,-195 1302,-195 1302,-70 8,-70"/>
</g>
<g id="clust4" class="cluster">
<title>cluster_VcdComponentsModule_exports</title>
<polygon fill="none" stroke="#000000" points="16,-135 16,-187 1294,-187 1294,-135 16,-135"/>
</g>
<!-- ShowClippedTextDirectiveModule  -->
<g id="node1" class="node">
<title>ShowClippedTextDirectiveModule </title>
<polygon fill="#fb8072" stroke="#000000" points="1285.512,-179 1068.488,-179 1068.488,-143 1285.512,-143 1285.512,-179"/>
<text text-anchor="middle" x="1177" y="-156.8" font-family="Times,serif" font-size="14.00" fill="#000000">ShowClippedTextDirectiveModule </text>
</g>
<!-- VcdActivityReporterModule  -->
<g id="node2" class="node">
<title>VcdActivityReporterModule </title>
<polygon fill="#fb8072" stroke="#000000" points="1050.7323,-179 869.2677,-179 869.2677,-143 1050.7323,-143 1050.7323,-179"/>
<text text-anchor="middle" x="960" y="-156.8" font-family="Times,serif" font-size="14.00" fill="#000000">VcdActivityReporterModule </text>
</g>
<!-- VcdDataExporterModule  -->
<g id="node3" class="node">
<title>VcdDataExporterModule </title>
<polygon fill="#fb8072" stroke="#000000" points="850.7766,-179 689.2234,-179 689.2234,-143 850.7766,-143 850.7766,-179"/>
<text text-anchor="middle" x="770" y="-156.8" font-family="Times,serif" font-size="14.00" fill="#000000">VcdDataExporterModule </text>
</g>
<!-- VcdDatagridModule  -->
<g id="node4" class="node">
<title>VcdDatagridModule </title>
<polygon fill="#fb8072" stroke="#000000" points="670.8491,-179 535.1509,-179 535.1509,-143 670.8491,-143 670.8491,-179"/>
<text text-anchor="middle" x="603" y="-156.8" font-family="Times,serif" font-size="14.00" fill="#000000">VcdDatagridModule </text>
</g>
<!-- VcdErrorBannerModule  -->
<g id="node5" class="node">
<title>VcdErrorBannerModule </title>
<polygon fill="#fb8072" stroke="#000000" points="517.3322,-179 360.6678,-179 360.6678,-143 517.3322,-143 517.3322,-179"/>
<text text-anchor="middle" x="439" y="-156.8" font-family="Times,serif" font-size="14.00" fill="#000000">VcdErrorBannerModule </text>
</g>
<!-- VcdFormModule  -->
<g id="node6" class="node">
<title>VcdFormModule </title>
<polygon fill="#fb8072" stroke="#000000" points="342.2052,-179 225.7948,-179 225.7948,-143 342.2052,-143 342.2052,-179"/>
<text text-anchor="middle" x="284" y="-156.8" font-family="Times,serif" font-size="14.00" fill="#000000">VcdFormModule </text>
</g>
<!-- VcdLoadingIndicatorModule  -->
<g id="node7" class="node">
<title>VcdLoadingIndicatorModule </title>
<polygon fill="#fb8072" stroke="#000000" points="207.5609,-179 24.4391,-179 24.4391,-143 207.5609,-143 207.5609,-179"/>
<text text-anchor="middle" x="116" y="-156.8" font-family="Times,serif" font-size="14.00" fill="#000000">VcdLoadingIndicatorModule </text>
</g>
<!-- VcdComponentsModule -->
<g id="node8" class="node">
<title>VcdComponentsModule</title>
<polygon fill="#8dd3c7" stroke="#000000" points="679.6484,-114 676.6484,-118 655.6484,-118 652.6484,-114 526.3516,-114 526.3516,-78 679.6484,-78 679.6484,-114"/>
<text text-anchor="middle" x="603" y="-91.8" font-family="Times,serif" font-size="14.00" fill="#000000">VcdComponentsModule</text>
</g>
<!-- VcdComponentsModule&#45;&gt;ShowClippedTextDirectiveModule  -->
<g id="edge1" class="edge">
<title>VcdComponentsModule&#45;&gt;ShowClippedTextDirectiveModule </title>
<path fill="none" stroke="#000000" stroke-dasharray="5,2" d="M679.8166,-90C836.2264,-90 1177,-90 1177,-90 1177,-90 1177,-132.7157 1177,-132.7157"/>
<polygon fill="#000000" stroke="#000000" points="1173.5001,-132.7157 1177,-142.7157 1180.5001,-132.7158 1173.5001,-132.7157"/>
</g>
<!-- VcdComponentsModule&#45;&gt;VcdActivityReporterModule  -->
<g id="edge2" class="edge">
<title>VcdComponentsModule&#45;&gt;VcdActivityReporterModule </title>
<path fill="none" stroke="#000000" stroke-dasharray="5,2" d="M680.0242,-102C784.9724,-102 960,-102 960,-102 960,-102 960,-132.9775 960,-132.9775"/>
<polygon fill="#000000" stroke="#000000" points="956.5001,-132.9774 960,-142.9775 963.5001,-132.9775 956.5001,-132.9774"/>
</g>
<!-- VcdComponentsModule&#45;&gt;VcdDataExporterModule  -->
<g id="edge3" class="edge">
<title>VcdComponentsModule&#45;&gt;VcdDataExporterModule </title>
<path fill="none" stroke="#000000" stroke-dasharray="5,2" d="M675.2492,-114.1061C675.2492,-133.3391 675.2492,-161 675.2492,-161 675.2492,-161 678.8246,-161 678.8246,-161"/>
<polygon fill="#000000" stroke="#000000" points="678.8247,-164.5001 688.8246,-161 678.8246,-157.5001 678.8247,-164.5001"/>
</g>
<!-- VcdComponentsModule&#45;&gt;VcdDatagridModule  -->
<g id="edge4" class="edge">
<title>VcdComponentsModule&#45;&gt;VcdDatagridModule </title>
<path fill="none" stroke="#000000" stroke-dasharray="5,2" d="M603,-114.1061C603,-114.1061 603,-132.991 603,-132.991"/>
<polygon fill="#000000" stroke="#000000" points="599.5001,-132.9909 603,-142.991 606.5001,-132.991 599.5001,-132.9909"/>
</g>
<!-- VcdComponentsModule&#45;&gt;VcdErrorBannerModule  -->
<g id="edge5" class="edge">
<title>VcdComponentsModule&#45;&gt;VcdErrorBannerModule </title>
<path fill="none" stroke="#000000" stroke-dasharray="5,2" d="M530.7509,-114.1061C530.7509,-133.3391 530.7509,-161 530.7509,-161 530.7509,-161 527.2127,-161 527.2127,-161"/>
<polygon fill="#000000" stroke="#000000" points="527.2127,-157.5001 517.2127,-161 527.2127,-164.5001 527.2127,-157.5001"/>
</g>
<!-- VcdComponentsModule&#45;&gt;VcdFormModule  -->
<g id="edge6" class="edge">
<title>VcdComponentsModule&#45;&gt;VcdFormModule </title>
<path fill="none" stroke="#000000" stroke-dasharray="5,2" d="M526.1856,-102C431.7938,-102 284,-102 284,-102 284,-102 284,-132.9775 284,-132.9775"/>
<polygon fill="#000000" stroke="#000000" points="280.5001,-132.9774 284,-142.9775 287.5001,-132.9775 280.5001,-132.9774"/>
</g>
<!-- VcdComponentsModule&#45;&gt;VcdLoadingIndicatorModule  -->
<g id="edge7" class="edge">
<title>VcdComponentsModule&#45;&gt;VcdLoadingIndicatorModule </title>
<path fill="none" stroke="#000000" stroke-dasharray="5,2" d="M526.1021,-90C388.8685,-90 116,-90 116,-90 116,-90 116,-132.7157 116,-132.7157"/>
<polygon fill="#000000" stroke="#000000" points="112.5001,-132.7157 116,-142.7157 119.5001,-132.7158 112.5001,-132.7157"/>
</g>
</g>
</svg>
