<?xml version="1.0" encoding="UTF-8" standalone="no"?>
<!DOCTYPE svg PUBLIC "-//W3C//DTD SVG 1.1//EN"
 "http://www.w3.org/Graphics/SVG/1.1/DTD/svg11.dtd">
<!-- Generated by graphviz version 2.40.1 (20161225.0304)
 -->
<!-- Title: dependencies Pages: 1 -->
<svg width="1786pt" height="211pt"
 viewBox="0.00 0.00 1786.00 211.00" xmlns="http://www.w3.org/2000/svg" xmlns:xlink="http://www.w3.org/1999/xlink">
<g id="graph0" class="graph" transform="scale(1 1) rotate(0) translate(4 207)">
<title>dependencies</title>
<polygon fill="#ffffff" stroke="transparent" points="-4,4 -4,-207 1782,-207 1782,4 -4,4"/>
<text text-anchor="start" x="868.0091" y="-42.4" font-family="sans-serif" font-weight="bold" font-size="14.00" fill="#000000">Legend</text>
<polygon fill="#ffffb3" stroke="transparent" points="655,-10 655,-30 675,-30 675,-10 655,-10"/>
<text text-anchor="start" x="678.629" y="-15.4" font-family="sans-serif" font-size="14.00" fill="#000000"> &#160;Declarations</text>
<polygon fill="#8dd3c7" stroke="transparent" points="768,-10 768,-30 788,-30 788,-10 768,-10"/>
<text text-anchor="start" x="791.7251" y="-15.4" font-family="sans-serif" font-size="14.00" fill="#000000"> &#160;Module</text>
<polygon fill="#80b1d3" stroke="transparent" points="854,-10 854,-30 874,-30 874,-10 854,-10"/>
<text text-anchor="start" x="877.7812" y="-15.4" font-family="sans-serif" font-size="14.00" fill="#000000"> &#160;Bootstrap</text>
<polygon fill="#fdb462" stroke="transparent" points="951,-10 951,-30 971,-30 971,-10 951,-10"/>
<text text-anchor="start" x="974.6732" y="-15.4" font-family="sans-serif" font-size="14.00" fill="#000000"> &#160;Providers</text>
<polygon fill="#fb8072" stroke="transparent" points="1047,-10 1047,-30 1067,-30 1067,-10 1047,-10"/>
<text text-anchor="start" x="1070.7258" y="-15.4" font-family="sans-serif" font-size="14.00" fill="#000000"> &#160;Exports</text>
<g id="clust1" class="cluster">
<title>cluster_VcdComponentsModule</title>
<polygon fill="none" stroke="#000000" stroke-dasharray="1,5" points="8,-70 8,-195 1770,-195 1770,-70 8,-70"/>
</g>
<g id="clust4" class="cluster">
<title>cluster_VcdComponentsModule_exports</title>
<polygon fill="none" stroke="#000000" points="16,-135 16,-187 1762,-187 1762,-135 16,-135"/>
</g>
<!-- DropdownModule  -->
<g id="node1" class="node">
<title>DropdownModule </title>
<polygon fill="#fb8072" stroke="#000000" points="1754.4236,-179 1631.5764,-179 1631.5764,-143 1754.4236,-143 1754.4236,-179"/>
<text text-anchor="middle" x="1693" y="-156.8" font-family="Times,serif" font-size="14.00" fill="#000000">DropdownModule </text>
</g>
<!-- QuickSearchModule  -->
<g id="node2" class="node">
<title>QuickSearchModule </title>
<polygon fill="#fb8072" stroke="#000000" points="1613.8491,-179 1478.1509,-179 1478.1509,-143 1613.8491,-143 1613.8491,-179"/>
<text text-anchor="middle" x="1546" y="-156.8" font-family="Times,serif" font-size="14.00" fill="#000000">QuickSearchModule </text>
</g>
<!-- ShowClippedTextDirectiveModule  -->
<g id="node3" class="node">
<title>ShowClippedTextDirectiveModule </title>
<polygon fill="#fb8072" stroke="#000000" points="1460.512,-179 1243.488,-179 1243.488,-143 1460.512,-143 1460.512,-179"/>
<text text-anchor="middle" x="1352" y="-156.8" font-family="Times,serif" font-size="14.00" fill="#000000">ShowClippedTextDirectiveModule </text>
</g>
<!-- VcdActionMenuModule  -->
<g id="node4" class="node">
<title>VcdActionMenuModule </title>
<polygon fill="#fb8072" stroke="#000000" points="1225.6327,-179 1068.3673,-179 1068.3673,-143 1225.6327,-143 1225.6327,-179"/>
<text text-anchor="middle" x="1147" y="-156.8" font-family="Times,serif" font-size="14.00" fill="#000000">VcdActionMenuModule </text>
</g>
<!-- VcdActivityReporterModule  -->
<g id="node5" class="node">
<title>VcdActivityReporterModule </title>
<polygon fill="#fb8072" stroke="#000000" points="1050.7323,-179 869.2677,-179 869.2677,-143 1050.7323,-143 1050.7323,-179"/>
<text text-anchor="middle" x="960" y="-156.8" font-family="Times,serif" font-size="14.00" fill="#000000">VcdActivityReporterModule </text>
</g>
<!-- VcdDataExporterModule  -->
<g id="node6" class="node">
<title>VcdDataExporterModule </title>
<polygon fill="#fb8072" stroke="#000000" points="850.7766,-179 689.2234,-179 689.2234,-143 850.7766,-143 850.7766,-179"/>
<text text-anchor="middle" x="770" y="-156.8" font-family="Times,serif" font-size="14.00" fill="#000000">VcdDataExporterModule </text>
</g>
<!-- VcdDatagridModule  -->
<g id="node7" class="node">
<title>VcdDatagridModule </title>
<polygon fill="#fb8072" stroke="#000000" points="670.8491,-179 535.1509,-179 535.1509,-143 670.8491,-143 670.8491,-179"/>
<text text-anchor="middle" x="603" y="-156.8" font-family="Times,serif" font-size="14.00" fill="#000000">VcdDatagridModule </text>
</g>
<!-- VcdErrorBannerModule  -->
<g id="node8" class="node">
<title>VcdErrorBannerModule </title>
<polygon fill="#fb8072" stroke="#000000" points="517.3322,-179 360.6678,-179 360.6678,-143 517.3322,-143 517.3322,-179"/>
<text text-anchor="middle" x="439" y="-156.8" font-family="Times,serif" font-size="14.00" fill="#000000">VcdErrorBannerModule </text>
</g>
<!-- VcdFormModule  -->
<g id="node9" class="node">
<title>VcdFormModule </title>
<polygon fill="#fb8072" stroke="#000000" points="342.2052,-179 225.7948,-179 225.7948,-143 342.2052,-143 342.2052,-179"/>
<text text-anchor="middle" x="284" y="-156.8" font-family="Times,serif" font-size="14.00" fill="#000000">VcdFormModule </text>
</g>
<!-- VcdLoadingIndicatorModule  -->
<g id="node10" class="node">
<title>VcdLoadingIndicatorModule </title>
<polygon fill="#fb8072" stroke="#000000" points="207.5609,-179 24.4391,-179 24.4391,-143 207.5609,-143 207.5609,-179"/>
<text text-anchor="middle" x="116" y="-156.8" font-family="Times,serif" font-size="14.00" fill="#000000">VcdLoadingIndicatorModule </text>
</g>
<!-- VcdComponentsModule -->
<g id="node11" class="node">
<title>VcdComponentsModule</title>
<polygon fill="#8dd3c7" stroke="#000000" points="941.6484,-114 938.6484,-118 917.6484,-118 914.6484,-114 788.3516,-114 788.3516,-78 941.6484,-78 941.6484,-114"/>
<text text-anchor="middle" x="865" y="-91.8" font-family="Times,serif" font-size="14.00" fill="#000000">VcdComponentsModule</text>
</g>
<!-- VcdComponentsModule&#45;&gt;DropdownModule  -->
<g id="edge1" class="edge">
<title>VcdComponentsModule&#45;&gt;DropdownModule </title>
<path fill="none" stroke="#000000" stroke-dasharray="5,2" d="M941.782,-86C1147.0474,-86 1693,-86 1693,-86 1693,-86 1693,-132.8446 1693,-132.8446"/>
<polygon fill="#000000" stroke="#000000" points="1689.5001,-132.8446 1693,-142.8446 1696.5001,-132.8446 1689.5001,-132.8446"/>
</g>
<!-- VcdComponentsModule&#45;&gt;QuickSearchModule  -->
<g id="edge2" class="edge">
<title>VcdComponentsModule&#45;&gt;QuickSearchModule </title>
<path fill="none" stroke="#000000" stroke-dasharray="5,2" d="M941.7956,-93C1119.8944,-93 1546,-93 1546,-93 1546,-93 1546,-132.7772 1546,-132.7772"/>
<polygon fill="#000000" stroke="#000000" points="1542.5001,-132.7772 1546,-142.7772 1549.5001,-132.7773 1542.5001,-132.7772"/>
</g>
<!-- VcdComponentsModule&#45;&gt;ShowClippedTextDirectiveModule  -->
<g id="edge3" class="edge">
<title>VcdComponentsModule&#45;&gt;ShowClippedTextDirectiveModule </title>
<path fill="none" stroke="#000000" stroke-dasharray="5,2" d="M941.8979,-100C1079.1315,-100 1352,-100 1352,-100 1352,-100 1352,-132.698 1352,-132.698"/>
<polygon fill="#000000" stroke="#000000" points="1348.5001,-132.698 1352,-142.698 1355.5001,-132.698 1348.5001,-132.698"/>
</g>
<!-- VcdComponentsModule&#45;&gt;VcdActionMenuModule  -->
<g id="edge4" class="edge">
<title>VcdComponentsModule&#45;&gt;VcdActionMenuModule </title>
<path fill="none" stroke="#000000" stroke-dasharray="5,2" d="M941.6852,-107C1025.191,-107 1147,-107 1147,-107 1147,-107 1147,-132.7181 1147,-132.7181"/>
<polygon fill="#000000" stroke="#000000" points="1143.5001,-132.718 1147,-142.7181 1150.5001,-132.7181 1143.5001,-132.718"/>
</g>
<!-- VcdComponentsModule&#45;&gt;VcdActivityReporterModule  -->
<g id="edge5" class="edge">
<title>VcdComponentsModule&#45;&gt;VcdActivityReporterModule </title>
<path fill="none" stroke="#000000" stroke-dasharray="5,2" d="M905.604,-114.1061C905.604,-114.1061 905.604,-132.991 905.604,-132.991"/>
<polygon fill="#000000" stroke="#000000" points="902.104,-132.9909 905.604,-142.991 909.104,-132.991 902.104,-132.9909"/>
</g>
<!-- VcdComponentsModule&#45;&gt;VcdDataExporterModule  -->
<g id="edge6" class="edge">
<title>VcdComponentsModule&#45;&gt;VcdDataExporterModule </title>
<path fill="none" stroke="#000000" stroke-dasharray="5,2" d="M819.5321,-114.1061C819.5321,-114.1061 819.5321,-132.991 819.5321,-132.991"/>
<polygon fill="#000000" stroke="#000000" points="816.0322,-132.9909 819.5321,-142.991 823.0322,-132.991 816.0322,-132.9909"/>
</g>
<!-- VcdComponentsModule&#45;&gt;VcdDatagridModule  -->
<g id="edge7" class="edge">
<title>VcdComponentsModule&#45;&gt;VcdDatagridModule </title>
<path fill="none" stroke="#000000" stroke-dasharray="5,2" d="M788.1616,-107C710.853,-107 603,-107 603,-107 603,-107 603,-132.7181 603,-132.7181"/>
<polygon fill="#000000" stroke="#000000" points="599.5001,-132.718 603,-142.7181 606.5001,-132.7181 599.5001,-132.718"/>
</g>
<!-- VcdComponentsModule&#45;&gt;VcdErrorBannerModule  -->
<g id="edge8" class="edge">
<title>VcdComponentsModule&#45;&gt;VcdErrorBannerModule </title>
<path fill="none" stroke="#000000" stroke-dasharray="5,2" d="M788.3477,-100C665.6997,-100 439,-100 439,-100 439,-100 439,-132.698 439,-132.698"/>
<polygon fill="#000000" stroke="#000000" points="435.5001,-132.698 439,-142.698 442.5001,-132.698 435.5001,-132.698"/>
</g>
<!-- VcdComponentsModule&#45;&gt;VcdFormModule  -->
<g id="edge9" class="edge">
<title>VcdComponentsModule&#45;&gt;VcdFormModule </title>
<path fill="none" stroke="#000000" stroke-dasharray="5,2" d="M788.1475,-93C630.2422,-93 284,-93 284,-93 284,-93 284,-132.7772 284,-132.7772"/>
<polygon fill="#000000" stroke="#000000" points="280.5001,-132.7772 284,-142.7772 287.5001,-132.7773 280.5001,-132.7772"/>
</g>
<!-- VcdComponentsModule&#45;&gt;VcdLoadingIndicatorModule  -->
<g id="edge10" class="edge">
<title>VcdComponentsModule&#45;&gt;VcdLoadingIndicatorModule </title>
<path fill="none" stroke="#000000" stroke-dasharray="5,2" d="M788.0147,-86C596.8826,-86 116,-86 116,-86 116,-86 116,-132.8446 116,-132.8446"/>
<polygon fill="#000000" stroke="#000000" points="112.5001,-132.8446 116,-142.8446 119.5001,-132.8446 112.5001,-132.8446"/>
</g>
</g>
</svg>
