<?xml version="1.0" encoding="UTF-8" standalone="no"?>
<!DOCTYPE svg PUBLIC "-//W3C//DTD SVG 1.1//EN"
 "http://www.w3.org/Graphics/SVG/1.1/DTD/svg11.dtd">
<!-- Generated by graphviz version 2.40.1 (20161225.0304)
 -->
<!-- Title: dependencies Pages: 1 -->
<svg width="1489pt" height="211pt"
 viewBox="0.00 0.00 1489.00 211.00" xmlns="http://www.w3.org/2000/svg" xmlns:xlink="http://www.w3.org/1999/xlink">
<g id="graph0" class="graph" transform="scale(1 1) rotate(0) translate(4 207)">
<title>dependencies</title>
<polygon fill="#ffffff" stroke="transparent" points="-4,4 -4,-207 1485,-207 1485,4 -4,4"/>
<text text-anchor="start" x="719.5091" y="-42.4" font-family="sans-serif" font-weight="bold" font-size="14.00" fill="#000000">Legend</text>
<polygon fill="#ffffb3" stroke="transparent" points="506.5,-10 506.5,-30 526.5,-30 526.5,-10 506.5,-10"/>
<text text-anchor="start" x="530.129" y="-15.4" font-family="sans-serif" font-size="14.00" fill="#000000"> &#160;Declarations</text>
<polygon fill="#8dd3c7" stroke="transparent" points="619.5,-10 619.5,-30 639.5,-30 639.5,-10 619.5,-10"/>
<text text-anchor="start" x="643.2251" y="-15.4" font-family="sans-serif" font-size="14.00" fill="#000000"> &#160;Module</text>
<polygon fill="#80b1d3" stroke="transparent" points="705.5,-10 705.5,-30 725.5,-30 725.5,-10 705.5,-10"/>
<text text-anchor="start" x="729.2812" y="-15.4" font-family="sans-serif" font-size="14.00" fill="#000000"> &#160;Bootstrap</text>
<polygon fill="#fdb462" stroke="transparent" points="802.5,-10 802.5,-30 822.5,-30 822.5,-10 802.5,-10"/>
<text text-anchor="start" x="826.1732" y="-15.4" font-family="sans-serif" font-size="14.00" fill="#000000"> &#160;Providers</text>
<polygon fill="#fb8072" stroke="transparent" points="898.5,-10 898.5,-30 918.5,-30 918.5,-10 898.5,-10"/>
<text text-anchor="start" x="922.2258" y="-15.4" font-family="sans-serif" font-size="14.00" fill="#000000"> &#160;Exports</text>
<g id="clust1" class="cluster">
<title>cluster_VcdComponentsModule</title>
<polygon fill="none" stroke="#000000" stroke-dasharray="1,5" points="8,-70 8,-195 1473,-195 1473,-70 8,-70"/>
</g>
<g id="clust4" class="cluster">
<title>cluster_VcdComponentsModule_exports</title>
<polygon fill="none" stroke="#000000" points="16,-135 16,-187 1465,-187 1465,-135 16,-135"/>
</g>
<!-- ShowClippedTextDirectiveModule  -->
<g id="node1" class="node">
<title>ShowClippedTextDirectiveModule </title>
<polygon fill="#fb8072" stroke="#000000" points="1456.512,-179 1239.488,-179 1239.488,-143 1456.512,-143 1456.512,-179"/>
<text text-anchor="middle" x="1348" y="-156.8" font-family="Times,serif" font-size="14.00" fill="#000000">ShowClippedTextDirectiveModule </text>
</g>
<!-- SpotlightSearchModule  -->
<g id="node2" class="node">
<title>SpotlightSearchModule </title>
<polygon fill="#fb8072" stroke="#000000" points="1221.4826,-179 1068.5174,-179 1068.5174,-143 1221.4826,-143 1221.4826,-179"/>
<text text-anchor="middle" x="1145" y="-156.8" font-family="Times,serif" font-size="14.00" fill="#000000">SpotlightSearchModule </text>
</g>
<!-- VcdActivityReporterModule  -->
<g id="node3" class="node">
<title>VcdActivityReporterModule </title>
<polygon fill="#fb8072" stroke="#000000" points="1050.7323,-179 869.2677,-179 869.2677,-143 1050.7323,-143 1050.7323,-179"/>
<text text-anchor="middle" x="960" y="-156.8" font-family="Times,serif" font-size="14.00" fill="#000000">VcdActivityReporterModule </text>
</g>
<!-- VcdDataExporterModule  -->
<g id="node4" class="node">
<title>VcdDataExporterModule </title>
<polygon fill="#fb8072" stroke="#000000" points="850.7766,-179 689.2234,-179 689.2234,-143 850.7766,-143 850.7766,-179"/>
<text text-anchor="middle" x="770" y="-156.8" font-family="Times,serif" font-size="14.00" fill="#000000">VcdDataExporterModule </text>
</g>
<!-- VcdDatagridModule  -->
<g id="node5" class="node">
<title>VcdDatagridModule </title>
<polygon fill="#fb8072" stroke="#000000" points="670.8491,-179 535.1509,-179 535.1509,-143 670.8491,-143 670.8491,-179"/>
<text text-anchor="middle" x="603" y="-156.8" font-family="Times,serif" font-size="14.00" fill="#000000">VcdDatagridModule </text>
</g>
<!-- VcdErrorBannerModule  -->
<g id="node6" class="node">
<title>VcdErrorBannerModule </title>
<polygon fill="#fb8072" stroke="#000000" points="517.3322,-179 360.6678,-179 360.6678,-143 517.3322,-143 517.3322,-179"/>
<text text-anchor="middle" x="439" y="-156.8" font-family="Times,serif" font-size="14.00" fill="#000000">VcdErrorBannerModule </text>
</g>
<!-- VcdFormModule  -->
<g id="node7" class="node">
<title>VcdFormModule </title>
<polygon fill="#fb8072" stroke="#000000" points="342.2052,-179 225.7948,-179 225.7948,-143 342.2052,-143 342.2052,-179"/>
<text text-anchor="middle" x="284" y="-156.8" font-family="Times,serif" font-size="14.00" fill="#000000">VcdFormModule </text>
</g>
<!-- VcdLoadingIndicatorModule  -->
<g id="node8" class="node">
<title>VcdLoadingIndicatorModule </title>
<polygon fill="#fb8072" stroke="#000000" points="207.5609,-179 24.4391,-179 24.4391,-143 207.5609,-143 207.5609,-179"/>
<text text-anchor="middle" x="116" y="-156.8" font-family="Times,serif" font-size="14.00" fill="#000000">VcdLoadingIndicatorModule </text>
</g>
<!-- VcdComponentsModule -->
<g id="node9" class="node">
<title>VcdComponentsModule</title>
<polygon fill="#8dd3c7" stroke="#000000" points="762.6484,-114 759.6484,-118 738.6484,-118 735.6484,-114 609.3516,-114 609.3516,-78 762.6484,-78 762.6484,-114"/>
<text text-anchor="middle" x="686" y="-91.8" font-family="Times,serif" font-size="14.00" fill="#000000">VcdComponentsModule</text>
</g>
<!-- VcdComponentsModule&#45;&gt;ShowClippedTextDirectiveModule  -->
<g id="edge1" class="edge">
<title>VcdComponentsModule&#45;&gt;ShowClippedTextDirectiveModule </title>
<path fill="none" stroke="#000000" stroke-dasharray="5,2" d="M762.9107,-87C937.3547,-87 1348,-87 1348,-87 1348,-87 1348,-132.7079 1348,-132.7079"/>
<polygon fill="#000000" stroke="#000000" points="1344.5001,-132.7078 1348,-142.7079 1351.5001,-132.7079 1344.5001,-132.7078"/>
</g>
<!-- VcdComponentsModule&#45;&gt;SpotlightSearchModule  -->
<g id="edge2" class="edge">
<title>VcdComponentsModule&#45;&gt;SpotlightSearchModule </title>
<path fill="none" stroke="#000000" stroke-dasharray="5,2" d="M762.8263,-96C893.4924,-96 1145,-96 1145,-96 1145,-96 1145,-132.8939 1145,-132.8939"/>
<polygon fill="#000000" stroke="#000000" points="1141.5001,-132.8938 1145,-142.8939 1148.5001,-132.8939 1141.5001,-132.8938"/>
</g>
<!-- VcdComponentsModule&#45;&gt;VcdActivityReporterModule  -->
<g id="edge3" class="edge">
<title>VcdComponentsModule&#45;&gt;VcdActivityReporterModule </title>
<path fill="none" stroke="#000000" stroke-dasharray="5,2" d="M762.6886,-105C843.7475,-105 960,-105 960,-105 960,-105 960,-132.973 960,-132.973"/>
<polygon fill="#000000" stroke="#000000" points="956.5001,-132.973 960,-142.973 963.5001,-132.973 956.5001,-132.973"/>
</g>
<!-- VcdComponentsModule&#45;&gt;VcdDataExporterModule  -->
<g id="edge4" class="edge">
<title>VcdComponentsModule&#45;&gt;VcdDataExporterModule </title>
<path fill="none" stroke="#000000" stroke-dasharray="5,2" d="M725.9679,-114.1061C725.9679,-114.1061 725.9679,-132.991 725.9679,-132.991"/>
<polygon fill="#000000" stroke="#000000" points="722.468,-132.9909 725.9679,-142.991 729.468,-132.991 722.468,-132.9909"/>
</g>
<!-- VcdComponentsModule&#45;&gt;VcdDatagridModule  -->
<g id="edge5" class="edge">
<title>VcdComponentsModule&#45;&gt;VcdDatagridModule </title>
<path fill="none" stroke="#000000" stroke-dasharray="5,2" d="M639.9252,-114.1061C639.9252,-114.1061 639.9252,-132.991 639.9252,-132.991"/>
<polygon fill="#000000" stroke="#000000" points="636.4252,-132.9909 639.9252,-142.991 643.4252,-132.991 636.4252,-132.9909"/>
</g>
<!-- VcdComponentsModule&#45;&gt;VcdErrorBannerModule  -->
<g id="edge6" class="edge">
<title>VcdComponentsModule&#45;&gt;VcdErrorBannerModule </title>
<path fill="none" stroke="#000000" stroke-dasharray="5,2" d="M609.2016,-105C536.6942,-105 439,-105 439,-105 439,-105 439,-132.973 439,-132.973"/>
<polygon fill="#000000" stroke="#000000" points="435.5001,-132.973 439,-142.973 442.5001,-132.973 435.5001,-132.973"/>
</g>
<!-- VcdComponentsModule&#45;&gt;VcdFormModule  -->
<g id="edge7" class="edge">
<title>VcdComponentsModule&#45;&gt;VcdFormModule </title>
<path fill="none" stroke="#000000" stroke-dasharray="5,2" d="M608.966,-96C492.2385,-96 284,-96 284,-96 284,-96 284,-132.8939 284,-132.8939"/>
<polygon fill="#000000" stroke="#000000" points="280.5001,-132.8938 284,-142.8939 287.5001,-132.8939 280.5001,-132.8938"/>
</g>
<!-- VcdComponentsModule&#45;&gt;VcdLoadingIndicatorModule  -->
<g id="edge8" class="edge">
<title>VcdComponentsModule&#45;&gt;VcdLoadingIndicatorModule </title>
<path fill="none" stroke="#000000" stroke-dasharray="5,2" d="M609.1273,-87C453.5417,-87 116,-87 116,-87 116,-87 116,-132.7079 116,-132.7079"/>
<polygon fill="#000000" stroke="#000000" points="112.5001,-132.7078 116,-142.7079 119.5001,-132.7079 112.5001,-132.7078"/>
</g>
</g>
</svg>
