<?xml version="1.0" encoding="UTF-8" standalone="no"?>
<!DOCTYPE svg PUBLIC "-//W3C//DTD SVG 1.1//EN"
 "http://www.w3.org/Graphics/SVG/1.1/DTD/svg11.dtd">
<!-- Generated by graphviz version 2.47.0 (20210316.0004)
 -->
<!-- Title: dependencies Pages: 1 -->
<svg width="2573pt" height="211pt"
 viewBox="0.00 0.00 2573.00 211.00" xmlns="http://www.w3.org/2000/svg" xmlns:xlink="http://www.w3.org/1999/xlink">
<g id="graph0" class="graph" transform="scale(1 1) rotate(0) translate(4 207)">
<title>dependencies</title>
<polygon fill="white" stroke="transparent" points="-4,4 -4,-207 2569,-207 2569,4 -4,4"/>
<text text-anchor="start" x="1261.51" y="-42.4" font-family="Times-12" font-weight="bold" font-size="14.00">Legend</text>
<polygon fill="#ffffb3" stroke="transparent" points="1048.5,-10 1048.5,-30 1068.5,-30 1068.5,-10 1048.5,-10"/>
<text text-anchor="start" x="1072.13" y="-15.4" font-family="Times-12" font-size="14.00"> &#160;Declarations</text>
<polygon fill="#8dd3c7" stroke="transparent" points="1161.5,-10 1161.5,-30 1181.5,-30 1181.5,-10 1161.5,-10"/>
<text text-anchor="start" x="1185.23" y="-15.4" font-family="Times-12" font-size="14.00"> &#160;Module</text>
<polygon fill="#80b1d3" stroke="transparent" points="1247.5,-10 1247.5,-30 1267.5,-30 1267.5,-10 1247.5,-10"/>
<text text-anchor="start" x="1271.28" y="-15.4" font-family="Times-12" font-size="14.00"> &#160;Bootstrap</text>
<polygon fill="#fdb462" stroke="transparent" points="1344.5,-10 1344.5,-30 1364.5,-30 1364.5,-10 1344.5,-10"/>
<text text-anchor="start" x="1368.17" y="-15.4" font-family="Times-12" font-size="14.00"> &#160;Providers</text>
<polygon fill="#fb8072" stroke="transparent" points="1440.5,-10 1440.5,-30 1460.5,-30 1460.5,-10 1440.5,-10"/>
<text text-anchor="start" x="1464.23" y="-15.4" font-family="Times-12" font-size="14.00"> &#160;Exports</text>
<g id="clust1" class="cluster">
<title>cluster_VcdComponentsModule</title>
<polygon fill="none" stroke="black" stroke-dasharray="1,5" points="8,-70 8,-195 2557,-195 2557,-70 8,-70"/>
</g>
<g id="clust4" class="cluster">
<title>cluster_VcdComponentsModule_exports</title>
<polygon fill="none" stroke="black" points="16,-135 16,-187 2549,-187 2549,-135 16,-135"/>
</g>
<!-- AlternativeTextModule  -->
<g id="node1" class="node">
<title>AlternativeTextModule </title>
<polygon fill="#fb8072" stroke="black" points="2540.68,-179 2389.32,-179 2389.32,-143 2540.68,-143 2540.68,-179"/>
<text text-anchor="middle" x="2465" y="-156.8" font-family="Times,serif" font-size="14.00">AlternativeTextModule </text>
</g>
<!-- AriaActivedescendantModule  -->
<g id="node2" class="node">
<title>AriaActivedescendantModule </title>
<polygon fill="#fb8072" stroke="black" points="2370.93,-179 2183.07,-179 2183.07,-143 2370.93,-143 2370.93,-179"/>
<text text-anchor="middle" x="2277" y="-156.8" font-family="Times,serif" font-size="14.00">AriaActivedescendantModule </text>
</g>
<!-- DropdownModule  -->
<g id="node3" class="node">
<title>DropdownModule </title>
<polygon fill="#fb8072" stroke="black" points="2165.42,-179 2042.58,-179 2042.58,-143 2165.42,-143 2165.42,-179"/>
<text text-anchor="middle" x="2104" y="-156.8" font-family="Times,serif" font-size="14.00">DropdownModule </text>
</g>
<!-- QuickSearchModule  -->
<g id="node4" class="node">
<title>QuickSearchModule </title>
<polygon fill="#fb8072" stroke="black" points="2024.85,-179 1889.15,-179 1889.15,-143 2024.85,-143 2024.85,-179"/>
<text text-anchor="middle" x="1957" y="-156.8" font-family="Times,serif" font-size="14.00">QuickSearchModule </text>
</g>
<!-- ResponsiveInputDirectiveModule  -->
<g id="node5" class="node">
<title>ResponsiveInputDirectiveModule </title>
<polygon fill="#fb8072" stroke="black" points="1871.73,-179 1662.27,-179 1662.27,-143 1871.73,-143 1871.73,-179"/>
<text text-anchor="middle" x="1767" y="-156.8" font-family="Times,serif" font-size="14.00">ResponsiveInputDirectiveModule </text>
</g>
<!-- ShowClippedTextDirectiveModule  -->
<g id="node6" class="node">
<title>ShowClippedTextDirectiveModule </title>
<polygon fill="#fb8072" stroke="black" points="1644.51,-179 1427.49,-179 1427.49,-143 1644.51,-143 1644.51,-179"/>
<text text-anchor="middle" x="1536" y="-156.8" font-family="Times,serif" font-size="14.00">ShowClippedTextDirectiveModule </text>
</g>
<!-- VcdActionMenuModule  -->
<g id="node7" class="node">
<title>VcdActionMenuModule </title>
<polygon fill="#fb8072" stroke="black" points="1409.63,-179 1252.37,-179 1252.37,-143 1409.63,-143 1409.63,-179"/>
<text text-anchor="middle" x="1331" y="-156.8" font-family="Times,serif" font-size="14.00">VcdActionMenuModule </text>
</g>
<!-- VcdActivityReporterModule  -->
<g id="node8" class="node">
<title>VcdActivityReporterModule </title>
<polygon fill="#fb8072" stroke="black" points="1234.73,-179 1053.27,-179 1053.27,-143 1234.73,-143 1234.73,-179"/>
<text text-anchor="middle" x="1144" y="-156.8" font-family="Times,serif" font-size="14.00">VcdActivityReporterModule </text>
</g>
<!-- VcdDataExporterModule  -->
<g id="node9" class="node">
<title>VcdDataExporterModule </title>
<polygon fill="#fb8072" stroke="black" points="1034.78,-179 873.22,-179 873.22,-143 1034.78,-143 1034.78,-179"/>
<text text-anchor="middle" x="954" y="-156.8" font-family="Times,serif" font-size="14.00">VcdDataExporterModule </text>
</g>
<!-- VcdDatagridModule  -->
<g id="node10" class="node">
<title>VcdDatagridModule </title>
<polygon fill="#fb8072" stroke="black" points="854.85,-179 719.15,-179 719.15,-143 854.85,-143 854.85,-179"/>
<text text-anchor="middle" x="787" y="-156.8" font-family="Times,serif" font-size="14.00">VcdDatagridModule </text>
</g>
<!-- VcdErrorBannerModule  -->
<g id="node11" class="node">
<title>VcdErrorBannerModule </title>
<polygon fill="#fb8072" stroke="black" points="701.33,-179 544.67,-179 544.67,-143 701.33,-143 701.33,-179"/>
<text text-anchor="middle" x="623" y="-156.8" font-family="Times,serif" font-size="14.00">VcdErrorBannerModule </text>
</g>
<!-- VcdFormModule  -->
<g id="node12" class="node">
<title>VcdFormModule </title>
<polygon fill="#fb8072" stroke="black" points="526.21,-179 409.79,-179 409.79,-143 526.21,-143 526.21,-179"/>
<text text-anchor="middle" x="468" y="-156.8" font-family="Times,serif" font-size="14.00">VcdFormModule </text>
</g>
<!-- VcdLoadingIndicatorModule  -->
<g id="node13" class="node">
<title>VcdLoadingIndicatorModule </title>
<polygon fill="#fb8072" stroke="black" points="391.56,-179 208.44,-179 208.44,-143 391.56,-143 391.56,-179"/>
<text text-anchor="middle" x="300" y="-156.8" font-family="Times,serif" font-size="14.00">VcdLoadingIndicatorModule </text>
</g>
<!-- VcdSharingModalModule  -->
<g id="node14" class="node">
<title>VcdSharingModalModule </title>
<polygon fill="#fb8072" stroke="black" points="190.47,-179 23.53,-179 23.53,-143 190.47,-143 190.47,-179"/>
<text text-anchor="middle" x="107" y="-156.8" font-family="Times,serif" font-size="14.00">VcdSharingModalModule </text>
</g>
<!-- VcdComponentsModule -->
<g id="node15" class="node">
<title>VcdComponentsModule</title>
<polygon fill="#8dd3c7" stroke="black" points="1313.65,-114 1310.65,-118 1289.65,-118 1286.65,-114 1160.35,-114 1160.35,-78 1313.65,-78 1313.65,-114"/>
<text text-anchor="middle" x="1237" y="-91.8" font-family="Times,serif" font-size="14.00">VcdComponentsModule</text>
</g>
<!-- VcdComponentsModule&#45;&gt;AlternativeTextModule  -->
<g id="edge1" class="edge">
<title>VcdComponentsModule&#45;&gt;AlternativeTextModule </title>
<path fill="none" stroke="black" stroke-dasharray="5,2" d="M1313.82,-84C1582.66,-84 2465,-84 2465,-84 2465,-84 2465,-132.75 2465,-132.75"/>
<polygon fill="black" stroke="black" points="2461.5,-132.75 2465,-142.75 2468.5,-132.75 2461.5,-132.75"/>
</g>
<!-- VcdComponentsModule&#45;&gt;AriaActivedescendantModule  -->
<g id="edge2" class="edge">
<title>VcdComponentsModule&#45;&gt;AriaActivedescendantModule </title>
<path fill="none" stroke="black" stroke-dasharray="5,2" d="M1313.9,-89C1554.5,-89 2277,-89 2277,-89 2277,-89 2277,-132.83 2277,-132.83"/>
<polygon fill="black" stroke="black" points="2273.5,-132.83 2277,-142.83 2280.5,-132.83 2273.5,-132.83"/>
</g>
<!-- VcdComponentsModule&#45;&gt;DropdownModule  -->
<g id="edge3" class="edge">
<title>VcdComponentsModule&#45;&gt;DropdownModule </title>
<path fill="none" stroke="black" stroke-dasharray="5,2" d="M1313.94,-94C1526.13,-94 2104,-94 2104,-94 2104,-94 2104,-132.69 2104,-132.69"/>
<polygon fill="black" stroke="black" points="2100.5,-132.69 2104,-142.69 2107.5,-132.69 2100.5,-132.69"/>
</g>
<!-- VcdComponentsModule&#45;&gt;QuickSearchModule  -->
<g id="edge4" class="edge">
<title>VcdComponentsModule&#45;&gt;QuickSearchModule </title>
<path fill="none" stroke="black" stroke-dasharray="5,2" d="M1313.71,-99C1499.23,-99 1957,-99 1957,-99 1957,-99 1957,-132.73 1957,-132.73"/>
<polygon fill="black" stroke="black" points="1953.5,-132.73 1957,-142.73 1960.5,-132.73 1953.5,-132.73"/>
</g>
<!-- VcdComponentsModule&#45;&gt;ResponsiveInputDirectiveModule  -->
<g id="edge5" class="edge">
<title>VcdComponentsModule&#45;&gt;ResponsiveInputDirectiveModule </title>
<path fill="none" stroke="black" stroke-dasharray="5,2" d="M1313.78,-104C1460.67,-104 1767,-104 1767,-104 1767,-104 1767,-132.96 1767,-132.96"/>
<polygon fill="black" stroke="black" points="1763.5,-132.96 1767,-142.96 1770.5,-132.96 1763.5,-132.96"/>
</g>
<!-- VcdComponentsModule&#45;&gt;ShowClippedTextDirectiveModule  -->
<g id="edge6" class="edge">
<title>VcdComponentsModule&#45;&gt;ShowClippedTextDirectiveModule </title>
<path fill="none" stroke="black" stroke-dasharray="5,2" d="M1314,-109C1402.59,-109 1536,-109 1536,-109 1536,-109 1536,-132.81 1536,-132.81"/>
<polygon fill="black" stroke="black" points="1532.5,-132.81 1536,-142.81 1539.5,-132.81 1532.5,-132.81"/>
</g>
<!-- VcdComponentsModule&#45;&gt;VcdActionMenuModule  -->
<g id="edge7" class="edge">
<title>VcdComponentsModule&#45;&gt;VcdActionMenuModule </title>
<path fill="none" stroke="black" stroke-dasharray="5,2" d="M1283.13,-114.11C1283.13,-114.11 1283.13,-132.99 1283.13,-132.99"/>
<polygon fill="black" stroke="black" points="1279.63,-132.99 1283.13,-142.99 1286.63,-132.99 1279.63,-132.99"/>
</g>
<!-- VcdComponentsModule&#45;&gt;VcdActivityReporterModule  -->
<g id="edge8" class="edge">
<title>VcdComponentsModule&#45;&gt;VcdActivityReporterModule </title>
<path fill="none" stroke="black" stroke-dasharray="5,2" d="M1197.4,-114.11C1197.4,-114.11 1197.4,-132.99 1197.4,-132.99"/>
<polygon fill="black" stroke="black" points="1193.9,-132.99 1197.4,-142.99 1200.9,-132.99 1193.9,-132.99"/>
</g>
<!-- VcdComponentsModule&#45;&gt;VcdDataExporterModule  -->
<g id="edge9" class="edge">
<title>VcdComponentsModule&#45;&gt;VcdDataExporterModule </title>
<path fill="none" stroke="black" stroke-dasharray="5,2" d="M1160.04,-109C1076.24,-109 954,-109 954,-109 954,-109 954,-132.81 954,-132.81"/>
<polygon fill="black" stroke="black" points="950.5,-132.81 954,-142.81 957.5,-132.81 950.5,-132.81"/>
</g>
<!-- VcdComponentsModule&#45;&gt;VcdDatagridModule  -->
<g id="edge10" class="edge">
<title>VcdComponentsModule&#45;&gt;VcdDatagridModule </title>
<path fill="none" stroke="black" stroke-dasharray="5,2" d="M1160.15,-104C1031.63,-104 787,-104 787,-104 787,-104 787,-132.96 787,-132.96"/>
<polygon fill="black" stroke="black" points="783.5,-132.96 787,-142.96 790.5,-132.96 783.5,-132.96"/>
</g>
<!-- VcdComponentsModule&#45;&gt;VcdErrorBannerModule  -->
<g id="edge11" class="edge">
<title>VcdComponentsModule&#45;&gt;VcdErrorBannerModule </title>
<path fill="none" stroke="black" stroke-dasharray="5,2" d="M1160.17,-99C995.42,-99 623,-99 623,-99 623,-99 623,-132.73 623,-132.73"/>
<polygon fill="black" stroke="black" points="619.5,-132.73 623,-142.73 626.5,-132.73 619.5,-132.73"/>
</g>
<!-- VcdComponentsModule&#45;&gt;VcdFormModule  -->
<g id="edge12" class="edge">
<title>VcdComponentsModule&#45;&gt;VcdFormModule </title>
<path fill="none" stroke="black" stroke-dasharray="5,2" d="M1160.1,-94C965.34,-94 468,-94 468,-94 468,-94 468,-132.69 468,-132.69"/>
<polygon fill="black" stroke="black" points="464.5,-132.69 468,-142.69 471.5,-132.69 464.5,-132.69"/>
</g>
<!-- VcdComponentsModule&#45;&gt;VcdLoadingIndicatorModule  -->
<g id="edge13" class="edge">
<title>VcdComponentsModule&#45;&gt;VcdLoadingIndicatorModule </title>
<path fill="none" stroke="black" stroke-dasharray="5,2" d="M1160.32,-89C936.54,-89 300,-89 300,-89 300,-89 300,-132.83 300,-132.83"/>
<polygon fill="black" stroke="black" points="296.5,-132.83 300,-142.83 303.5,-132.83 296.5,-132.83"/>
</g>
<!-- VcdComponentsModule&#45;&gt;VcdSharingModalModule  -->
<g id="edge14" class="edge">
<title>VcdComponentsModule&#45;&gt;VcdSharingModalModule </title>
<path fill="none" stroke="black" stroke-dasharray="5,2" d="M1160.22,-84C905.89,-84 107,-84 107,-84 107,-84 107,-132.75 107,-132.75"/>
<polygon fill="black" stroke="black" points="103.5,-132.75 107,-142.75 110.5,-132.75 103.5,-132.75"/>
</g>
</g>
</svg>
