<?xml version="1.0" encoding="UTF-8" standalone="no"?>
<!DOCTYPE svg PUBLIC "-//W3C//DTD SVG 1.1//EN"
 "http://www.w3.org/Graphics/SVG/1.1/DTD/svg11.dtd">
<!-- Generated by graphviz version 5.0.0 (20220707.1540)
 -->
<!-- Title: dependencies Pages: 1 -->
<svg width="2367pt" height="174pt"
 viewBox="0.00 0.00 2367.00 173.80" xmlns="http://www.w3.org/2000/svg" xmlns:xlink="http://www.w3.org/1999/xlink">
<g id="graph0" class="graph" transform="scale(1 1) rotate(0) translate(4 169.8)">
<title>dependencies</title>
<polygon fill="white" stroke="transparent" points="-4,4 -4,-169.8 2363,-169.8 2363,4 -4,4"/>
<text text-anchor="middle" x="1179.5" y="-8.2" font-family="sans-serif" font-size="14.00">dependencies</text>
<g id="clust1" class="cluster">
<title>cluster_VcdComponentsModule</title>
<polygon fill="none" stroke="black" stroke-dasharray="1,5" points="8,-32.8 8,-157.8 2351,-157.8 2351,-32.8 8,-32.8"/>
</g>
<g id="clust4" class="cluster">
<title>cluster_VcdComponentsModule_exports</title>
<polygon fill="none" stroke="black" points="16,-97.8 16,-149.8 2343,-149.8 2343,-97.8 16,-97.8"/>
</g>
<!-- AlternativeTextModule  -->
<g id="node1" class="node">
<title>AlternativeTextModule </title>
<polygon fill="#fb8072" stroke="black" points="2334.68,-141.8 2183.32,-141.8 2183.32,-105.8 2334.68,-105.8 2334.68,-141.8"/>
<text text-anchor="middle" x="2259" y="-119.6" font-family="Times,serif" font-size="14.00">AlternativeTextModule </text>
</g>
<!-- DropdownModule  -->
<g id="node2" class="node">
<title>DropdownModule </title>
<polygon fill="#fb8072" stroke="black" points="2165.43,-141.8 2042.57,-141.8 2042.57,-105.8 2165.43,-105.8 2165.43,-141.8"/>
<text text-anchor="middle" x="2104" y="-119.6" font-family="Times,serif" font-size="14.00">DropdownModule </text>
</g>
<!-- QuickSearchModule  -->
<g id="node3" class="node">
<title>QuickSearchModule </title>
<polygon fill="#fb8072" stroke="black" points="2024.86,-141.8 1889.14,-141.8 1889.14,-105.8 2024.86,-105.8 2024.86,-141.8"/>
<text text-anchor="middle" x="1957" y="-119.6" font-family="Times,serif" font-size="14.00">QuickSearchModule </text>
</g>
<!-- ResponsiveInputDirectiveModule  -->
<g id="node4" class="node">
<title>ResponsiveInputDirectiveModule </title>
<polygon fill="#fb8072" stroke="black" points="1871.74,-141.8 1662.26,-141.8 1662.26,-105.8 1871.74,-105.8 1871.74,-141.8"/>
<text text-anchor="middle" x="1767" y="-119.6" font-family="Times,serif" font-size="14.00">ResponsiveInputDirectiveModule </text>
</g>
<!-- ShowClippedTextDirectiveModule  -->
<g id="node5" class="node">
<title>ShowClippedTextDirectiveModule </title>
<polygon fill="#fb8072" stroke="black" points="1644.52,-141.8 1427.48,-141.8 1427.48,-105.8 1644.52,-105.8 1644.52,-141.8"/>
<text text-anchor="middle" x="1536" y="-119.6" font-family="Times,serif" font-size="14.00">ShowClippedTextDirectiveModule </text>
</g>
<!-- VcdActionMenuModule  -->
<g id="node6" class="node">
<title>VcdActionMenuModule </title>
<polygon fill="#fb8072" stroke="black" points="1409.64,-141.8 1252.36,-141.8 1252.36,-105.8 1409.64,-105.8 1409.64,-141.8"/>
<text text-anchor="middle" x="1331" y="-119.6" font-family="Times,serif" font-size="14.00">VcdActionMenuModule </text>
</g>
<!-- VcdActivityReporterModule  -->
<g id="node7" class="node">
<title>VcdActivityReporterModule </title>
<polygon fill="#fb8072" stroke="black" points="1234.74,-141.8 1053.26,-141.8 1053.26,-105.8 1234.74,-105.8 1234.74,-141.8"/>
<text text-anchor="middle" x="1144" y="-119.6" font-family="Times,serif" font-size="14.00">VcdActivityReporterModule </text>
</g>
<!-- VcdDataExporterModule  -->
<g id="node8" class="node">
<title>VcdDataExporterModule </title>
<polygon fill="#fb8072" stroke="black" points="1034.78,-141.8 873.22,-141.8 873.22,-105.8 1034.78,-105.8 1034.78,-141.8"/>
<text text-anchor="middle" x="954" y="-119.6" font-family="Times,serif" font-size="14.00">VcdDataExporterModule </text>
</g>
<!-- VcdDatagridModule  -->
<g id="node9" class="node">
<title>VcdDatagridModule </title>
<polygon fill="#fb8072" stroke="black" points="854.86,-141.8 719.14,-141.8 719.14,-105.8 854.86,-105.8 854.86,-141.8"/>
<text text-anchor="middle" x="787" y="-119.6" font-family="Times,serif" font-size="14.00">VcdDatagridModule </text>
</g>
<!-- VcdErrorBannerModule  -->
<g id="node10" class="node">
<title>VcdErrorBannerModule </title>
<polygon fill="#fb8072" stroke="black" points="701.34,-141.8 544.66,-141.8 544.66,-105.8 701.34,-105.8 701.34,-141.8"/>
<text text-anchor="middle" x="623" y="-119.6" font-family="Times,serif" font-size="14.00">VcdErrorBannerModule </text>
</g>
<!-- VcdFormModule  -->
<g id="node11" class="node">
<title>VcdFormModule </title>
<polygon fill="#fb8072" stroke="black" points="526.21,-141.8 409.79,-141.8 409.79,-105.8 526.21,-105.8 526.21,-141.8"/>
<text text-anchor="middle" x="468" y="-119.6" font-family="Times,serif" font-size="14.00">VcdFormModule </text>
</g>
<!-- VcdLoadingIndicatorModule  -->
<g id="node12" class="node">
<title>VcdLoadingIndicatorModule </title>
<polygon fill="#fb8072" stroke="black" points="391.56,-141.8 208.44,-141.8 208.44,-105.8 391.56,-105.8 391.56,-141.8"/>
<text text-anchor="middle" x="300" y="-119.6" font-family="Times,serif" font-size="14.00">VcdLoadingIndicatorModule </text>
</g>
<!-- VcdSharingModalModule  -->
<g id="node13" class="node">
<title>VcdSharingModalModule </title>
<polygon fill="#fb8072" stroke="black" points="190.48,-141.8 23.52,-141.8 23.52,-105.8 190.48,-105.8 190.48,-141.8"/>
<text text-anchor="middle" x="107" y="-119.6" font-family="Times,serif" font-size="14.00">VcdSharingModalModule </text>
</g>
<!-- VcdComponentsModule -->
<g id="node14" class="node">
<title>VcdComponentsModule</title>
<polygon fill="#8dd3c7" stroke="black" points="1220.66,-76.8 1217.66,-80.8 1196.66,-80.8 1193.66,-76.8 1067.34,-76.8 1067.34,-40.8 1220.66,-40.8 1220.66,-76.8"/>
<text text-anchor="middle" x="1144" y="-54.6" font-family="Times,serif" font-size="14.00">VcdComponentsModule</text>
</g>
<!-- VcdComponentsModule&#45;&gt;AlternativeTextModule  -->
<g id="edge1" class="edge">
<title>VcdComponentsModule&#45;&gt;AlternativeTextModule </title>
<path fill="none" stroke="black" stroke-dasharray="5,2" d="M1221.08,-46.8C1473.46,-46.8 2259,-46.8 2259,-46.8 2259,-46.8 2259,-95.55 2259,-95.55"/>
<polygon fill="black" stroke="black" points="2255.5,-95.55 2259,-105.55 2262.5,-95.55 2255.5,-95.55"/>
</g>
<!-- VcdComponentsModule&#45;&gt;DropdownModule  -->
<g id="edge2" class="edge">
<title>VcdComponentsModule&#45;&gt;DropdownModule </title>
<path fill="none" stroke="black" stroke-dasharray="5,2" d="M1220.94,-51.8C1448.74,-51.8 2104,-51.8 2104,-51.8 2104,-51.8 2104,-95.63 2104,-95.63"/>
<polygon fill="black" stroke="black" points="2100.5,-95.63 2104,-105.63 2107.5,-95.63 2100.5,-95.63"/>
</g>
<!-- VcdComponentsModule&#45;&gt;QuickSearchModule  -->
<g id="edge3" class="edge">
<title>VcdComponentsModule&#45;&gt;QuickSearchModule </title>
<path fill="none" stroke="black" stroke-dasharray="5,2" d="M1220.85,-56.8C1423.51,-56.8 1957,-56.8 1957,-56.8 1957,-56.8 1957,-95.49 1957,-95.49"/>
<polygon fill="black" stroke="black" points="1953.5,-95.49 1957,-105.49 1960.5,-95.49 1953.5,-95.49"/>
</g>
<!-- VcdComponentsModule&#45;&gt;ResponsiveInputDirectiveModule  -->
<g id="edge4" class="edge">
<title>VcdComponentsModule&#45;&gt;ResponsiveInputDirectiveModule </title>
<path fill="none" stroke="black" stroke-dasharray="5,2" d="M1220.7,-61.8C1387.23,-61.8 1767,-61.8 1767,-61.8 1767,-61.8 1767,-95.53 1767,-95.53"/>
<polygon fill="black" stroke="black" points="1763.5,-95.53 1767,-105.53 1770.5,-95.53 1763.5,-95.53"/>
</g>
<!-- VcdComponentsModule&#45;&gt;ShowClippedTextDirectiveModule  -->
<g id="edge5" class="edge">
<title>VcdComponentsModule&#45;&gt;ShowClippedTextDirectiveModule </title>
<path fill="none" stroke="black" stroke-dasharray="5,2" d="M1220.98,-66.8C1335.14,-66.8 1536,-66.8 1536,-66.8 1536,-66.8 1536,-95.76 1536,-95.76"/>
<polygon fill="black" stroke="black" points="1532.5,-95.76 1536,-105.76 1539.5,-95.76 1532.5,-95.76"/>
</g>
<!-- VcdComponentsModule&#45;&gt;VcdActionMenuModule  -->
<g id="edge6" class="edge">
<title>VcdComponentsModule&#45;&gt;VcdActionMenuModule </title>
<path fill="none" stroke="black" stroke-dasharray="5,2" d="M1220.87,-71.8C1272.45,-71.8 1331,-71.8 1331,-71.8 1331,-71.8 1331,-95.61 1331,-95.61"/>
<polygon fill="black" stroke="black" points="1327.5,-95.61 1331,-105.61 1334.5,-95.61 1327.5,-95.61"/>
</g>
<!-- VcdComponentsModule&#45;&gt;VcdActivityReporterModule  -->
<g id="edge7" class="edge">
<title>VcdComponentsModule&#45;&gt;VcdActivityReporterModule </title>
<path fill="none" stroke="black" stroke-dasharray="5,2" d="M1144,-76.91C1144,-76.91 1144,-95.79 1144,-95.79"/>
<polygon fill="black" stroke="black" points="1140.5,-95.79 1144,-105.79 1147.5,-95.79 1140.5,-95.79"/>
</g>
<!-- VcdComponentsModule&#45;&gt;VcdDataExporterModule  -->
<g id="edge8" class="edge">
<title>VcdComponentsModule&#45;&gt;VcdDataExporterModule </title>
<path fill="none" stroke="black" stroke-dasharray="5,2" d="M1067.27,-71.8C1014.54,-71.8 954,-71.8 954,-71.8 954,-71.8 954,-95.61 954,-95.61"/>
<polygon fill="black" stroke="black" points="950.5,-95.61 954,-105.61 957.5,-95.61 950.5,-95.61"/>
</g>
<!-- VcdComponentsModule&#45;&gt;VcdDatagridModule  -->
<g id="edge9" class="edge">
<title>VcdComponentsModule&#45;&gt;VcdDatagridModule </title>
<path fill="none" stroke="black" stroke-dasharray="5,2" d="M1066.98,-66.8C962.03,-66.8 787,-66.8 787,-66.8 787,-66.8 787,-95.76 787,-95.76"/>
<polygon fill="black" stroke="black" points="783.5,-95.76 787,-105.76 790.5,-95.76 783.5,-95.76"/>
</g>
<!-- VcdComponentsModule&#45;&gt;VcdErrorBannerModule  -->
<g id="edge10" class="edge">
<title>VcdComponentsModule&#45;&gt;VcdErrorBannerModule </title>
<path fill="none" stroke="black" stroke-dasharray="5,2" d="M1067.12,-61.8C922.2,-61.8 623,-61.8 623,-61.8 623,-61.8 623,-95.53 623,-95.53"/>
<polygon fill="black" stroke="black" points="619.5,-95.53 623,-105.53 626.5,-95.53 619.5,-95.53"/>
</g>
<!-- VcdComponentsModule&#45;&gt;VcdFormModule  -->
<g id="edge11" class="edge">
<title>VcdComponentsModule&#45;&gt;VcdFormModule </title>
<path fill="none" stroke="black" stroke-dasharray="5,2" d="M1067.11,-56.8C889.93,-56.8 468,-56.8 468,-56.8 468,-56.8 468,-95.49 468,-95.49"/>
<polygon fill="black" stroke="black" points="464.5,-95.49 468,-105.49 471.5,-95.49 464.5,-95.49"/>
</g>
<!-- VcdComponentsModule&#45;&gt;VcdLoadingIndicatorModule  -->
<g id="edge12" class="edge">
<title>VcdComponentsModule&#45;&gt;VcdLoadingIndicatorModule </title>
<path fill="none" stroke="black" stroke-dasharray="5,2" d="M1067.24,-51.8C859.18,-51.8 300,-51.8 300,-51.8 300,-51.8 300,-95.63 300,-95.63"/>
<polygon fill="black" stroke="black" points="296.5,-95.63 300,-105.63 303.5,-95.63 296.5,-95.63"/>
</g>
<!-- VcdComponentsModule&#45;&gt;VcdSharingModalModule  -->
<g id="edge13" class="edge">
<title>VcdComponentsModule&#45;&gt;VcdSharingModalModule </title>
<path fill="none" stroke="black" stroke-dasharray="5,2" d="M1067.33,-46.8C827.42,-46.8 107,-46.8 107,-46.8 107,-46.8 107,-95.55 107,-95.55"/>
<polygon fill="black" stroke="black" points="103.5,-95.55 107,-105.55 110.5,-95.55 103.5,-95.55"/>
</g>
</g>
</svg>
