<?xml version="1.0" encoding="UTF-8" standalone="no"?>
<!DOCTYPE svg PUBLIC "-//W3C//DTD SVG 1.1//EN"
 "http://www.w3.org/Graphics/SVG/1.1/DTD/svg11.dtd">
<!-- Generated by graphviz version 2.40.1 (20161225.0304)
 -->
<!-- Title: dependencies Pages: 1 -->
<svg width="2367pt" height="211pt"
 viewBox="0.00 0.00 2367.00 211.00" xmlns="http://www.w3.org/2000/svg" xmlns:xlink="http://www.w3.org/1999/xlink">
<g id="graph0" class="graph" transform="scale(1 1) rotate(0) translate(4 207)">
<title>dependencies</title>
<polygon fill="#ffffff" stroke="transparent" points="-4,4 -4,-207 2363,-207 2363,4 -4,4"/>
<text text-anchor="start" x="1158.5091" y="-42.4" font-family="sans-serif" font-weight="bold" font-size="14.00" fill="#000000">Legend</text>
<polygon fill="#ffffb3" stroke="transparent" points="945.5,-10 945.5,-30 965.5,-30 965.5,-10 945.5,-10"/>
<text text-anchor="start" x="969.129" y="-15.4" font-family="sans-serif" font-size="14.00" fill="#000000"> &#160;Declarations</text>
<polygon fill="#8dd3c7" stroke="transparent" points="1058.5,-10 1058.5,-30 1078.5,-30 1078.5,-10 1058.5,-10"/>
<text text-anchor="start" x="1082.2251" y="-15.4" font-family="sans-serif" font-size="14.00" fill="#000000"> &#160;Module</text>
<polygon fill="#80b1d3" stroke="transparent" points="1144.5,-10 1144.5,-30 1164.5,-30 1164.5,-10 1144.5,-10"/>
<text text-anchor="start" x="1168.2812" y="-15.4" font-family="sans-serif" font-size="14.00" fill="#000000"> &#160;Bootstrap</text>
<polygon fill="#fdb462" stroke="transparent" points="1241.5,-10 1241.5,-30 1261.5,-30 1261.5,-10 1241.5,-10"/>
<text text-anchor="start" x="1265.1732" y="-15.4" font-family="sans-serif" font-size="14.00" fill="#000000"> &#160;Providers</text>
<polygon fill="#fb8072" stroke="transparent" points="1337.5,-10 1337.5,-30 1357.5,-30 1357.5,-10 1337.5,-10"/>
<text text-anchor="start" x="1361.2258" y="-15.4" font-family="sans-serif" font-size="14.00" fill="#000000"> &#160;Exports</text>
<g id="clust1" class="cluster">
<title>cluster_VcdComponentsModule</title>
<polygon fill="none" stroke="#000000" stroke-dasharray="1,5" points="8,-70 8,-195 2351,-195 2351,-70 8,-70"/>
</g>
<g id="clust4" class="cluster">
<title>cluster_VcdComponentsModule_exports</title>
<polygon fill="none" stroke="#000000" points="16,-135 16,-187 2343,-187 2343,-135 16,-135"/>
</g>
<!-- AlternativeTextModule  -->
<g id="node1" class="node">
<title>AlternativeTextModule </title>
<polygon fill="#fb8072" stroke="#000000" points="2334.6813,-179 2183.3187,-179 2183.3187,-143 2334.6813,-143 2334.6813,-179"/>
<text text-anchor="middle" x="2259" y="-156.8" font-family="Times,serif" font-size="14.00" fill="#000000">AlternativeTextModule </text>
</g>
<!-- DropdownModule  -->
<g id="node2" class="node">
<title>DropdownModule </title>
<polygon fill="#fb8072" stroke="#000000" points="2165.4236,-179 2042.5764,-179 2042.5764,-143 2165.4236,-143 2165.4236,-179"/>
<text text-anchor="middle" x="2104" y="-156.8" font-family="Times,serif" font-size="14.00" fill="#000000">DropdownModule </text>
</g>
<!-- QuickSearchModule  -->
<g id="node3" class="node">
<title>QuickSearchModule </title>
<polygon fill="#fb8072" stroke="#000000" points="2024.8491,-179 1889.1509,-179 1889.1509,-143 2024.8491,-143 2024.8491,-179"/>
<text text-anchor="middle" x="1957" y="-156.8" font-family="Times,serif" font-size="14.00" fill="#000000">QuickSearchModule </text>
</g>
<!-- ResponsiveInputDirectiveModule  -->
<g id="node4" class="node">
<title>ResponsiveInputDirectiveModule </title>
<polygon fill="#fb8072" stroke="#000000" points="1871.7295,-179 1662.2705,-179 1662.2705,-143 1871.7295,-143 1871.7295,-179"/>
<text text-anchor="middle" x="1767" y="-156.8" font-family="Times,serif" font-size="14.00" fill="#000000">ResponsiveInputDirectiveModule </text>
</g>
<!-- ShowClippedTextDirectiveModule  -->
<g id="node5" class="node">
<title>ShowClippedTextDirectiveModule </title>
<polygon fill="#fb8072" stroke="#000000" points="1644.512,-179 1427.488,-179 1427.488,-143 1644.512,-143 1644.512,-179"/>
<text text-anchor="middle" x="1536" y="-156.8" font-family="Times,serif" font-size="14.00" fill="#000000">ShowClippedTextDirectiveModule </text>
</g>
<!-- VcdActionMenuModule  -->
<g id="node6" class="node">
<title>VcdActionMenuModule </title>
<polygon fill="#fb8072" stroke="#000000" points="1409.6327,-179 1252.3673,-179 1252.3673,-143 1409.6327,-143 1409.6327,-179"/>
<text text-anchor="middle" x="1331" y="-156.8" font-family="Times,serif" font-size="14.00" fill="#000000">VcdActionMenuModule </text>
</g>
<!-- VcdActivityReporterModule  -->
<g id="node7" class="node">
<title>VcdActivityReporterModule </title>
<polygon fill="#fb8072" stroke="#000000" points="1234.7323,-179 1053.2677,-179 1053.2677,-143 1234.7323,-143 1234.7323,-179"/>
<text text-anchor="middle" x="1144" y="-156.8" font-family="Times,serif" font-size="14.00" fill="#000000">VcdActivityReporterModule </text>
</g>
<!-- VcdDataExporterModule  -->
<g id="node8" class="node">
<title>VcdDataExporterModule </title>
<polygon fill="#fb8072" stroke="#000000" points="1034.7766,-179 873.2234,-179 873.2234,-143 1034.7766,-143 1034.7766,-179"/>
<text text-anchor="middle" x="954" y="-156.8" font-family="Times,serif" font-size="14.00" fill="#000000">VcdDataExporterModule </text>
</g>
<!-- VcdDatagridModule  -->
<g id="node9" class="node">
<title>VcdDatagridModule </title>
<polygon fill="#fb8072" stroke="#000000" points="854.8491,-179 719.1509,-179 719.1509,-143 854.8491,-143 854.8491,-179"/>
<text text-anchor="middle" x="787" y="-156.8" font-family="Times,serif" font-size="14.00" fill="#000000">VcdDatagridModule </text>
</g>
<!-- VcdErrorBannerModule  -->
<g id="node10" class="node">
<title>VcdErrorBannerModule </title>
<polygon fill="#fb8072" stroke="#000000" points="701.3322,-179 544.6678,-179 544.6678,-143 701.3322,-143 701.3322,-179"/>
<text text-anchor="middle" x="623" y="-156.8" font-family="Times,serif" font-size="14.00" fill="#000000">VcdErrorBannerModule </text>
</g>
<!-- VcdFormModule  -->
<g id="node11" class="node">
<title>VcdFormModule </title>
<polygon fill="#fb8072" stroke="#000000" points="526.2052,-179 409.7948,-179 409.7948,-143 526.2052,-143 526.2052,-179"/>
<text text-anchor="middle" x="468" y="-156.8" font-family="Times,serif" font-size="14.00" fill="#000000">VcdFormModule </text>
</g>
<!-- VcdLoadingIndicatorModule  -->
<g id="node12" class="node">
<title>VcdLoadingIndicatorModule </title>
<polygon fill="#fb8072" stroke="#000000" points="391.5609,-179 208.4391,-179 208.4391,-143 391.5609,-143 391.5609,-179"/>
<text text-anchor="middle" x="300" y="-156.8" font-family="Times,serif" font-size="14.00" fill="#000000">VcdLoadingIndicatorModule </text>
</g>
<!-- VcdSharingModalModule  -->
<g id="node13" class="node">
<title>VcdSharingModalModule </title>
<polygon fill="#fb8072" stroke="#000000" points="190.4699,-179 23.5301,-179 23.5301,-143 190.4699,-143 190.4699,-179"/>
<text text-anchor="middle" x="107" y="-156.8" font-family="Times,serif" font-size="14.00" fill="#000000">VcdSharingModalModule </text>
</g>
<!-- VcdComponentsModule -->
<g id="node14" class="node">
<title>VcdComponentsModule</title>
<polygon fill="#8dd3c7" stroke="#000000" points="1220.6484,-114 1217.6484,-118 1196.6484,-118 1193.6484,-114 1067.3516,-114 1067.3516,-78 1220.6484,-78 1220.6484,-114"/>
<text text-anchor="middle" x="1144" y="-91.8" font-family="Times,serif" font-size="14.00" fill="#000000">VcdComponentsModule</text>
</g>
<!-- VcdComponentsModule&#45;&gt;AlternativeTextModule  -->
<g id="edge1" class="edge">
<title>VcdComponentsModule&#45;&gt;AlternativeTextModule </title>
<path fill="none" stroke="#000000" stroke-dasharray="5,2" d="M1221.0784,-84C1473.4629,-84 2259,-84 2259,-84 2259,-84 2259,-132.7521 2259,-132.7521"/>
<polygon fill="#000000" stroke="#000000" points="2255.5001,-132.752 2259,-142.7521 2262.5001,-132.7521 2255.5001,-132.752"/>
</g>
<!-- VcdComponentsModule&#45;&gt;DropdownModule  -->
<g id="edge2" class="edge">
<title>VcdComponentsModule&#45;&gt;DropdownModule </title>
<path fill="none" stroke="#000000" stroke-dasharray="5,2" d="M1220.938,-89C1448.7424,-89 2104,-89 2104,-89 2104,-89 2104,-132.8314 2104,-132.8314"/>
<polygon fill="#000000" stroke="#000000" points="2100.5001,-132.8313 2104,-142.8314 2107.5001,-132.8314 2100.5001,-132.8313"/>
</g>
<!-- VcdComponentsModule&#45;&gt;QuickSearchModule  -->
<g id="edge3" class="edge">
<title>VcdComponentsModule&#45;&gt;QuickSearchModule </title>
<path fill="none" stroke="#000000" stroke-dasharray="5,2" d="M1220.8512,-94C1423.5135,-94 1957,-94 1957,-94 1957,-94 1957,-132.692 1957,-132.692"/>
<polygon fill="#000000" stroke="#000000" points="1953.5001,-132.6919 1957,-142.692 1960.5001,-132.692 1953.5001,-132.6919"/>
</g>
<!-- VcdComponentsModule&#45;&gt;ResponsiveInputDirectiveModule  -->
<g id="edge4" class="edge">
<title>VcdComponentsModule&#45;&gt;ResponsiveInputDirectiveModule </title>
<path fill="none" stroke="#000000" stroke-dasharray="5,2" d="M1220.7042,-99C1387.2261,-99 1767,-99 1767,-99 1767,-99 1767,-132.7333 1767,-132.7333"/>
<polygon fill="#000000" stroke="#000000" points="1763.5001,-132.7333 1767,-142.7333 1770.5001,-132.7333 1763.5001,-132.7333"/>
</g>
<!-- VcdComponentsModule&#45;&gt;ShowClippedTextDirectiveModule  -->
<g id="edge5" class="edge">
<title>VcdComponentsModule&#45;&gt;ShowClippedTextDirectiveModule </title>
<path fill="none" stroke="#000000" stroke-dasharray="5,2" d="M1220.9789,-104C1335.1397,-104 1536,-104 1536,-104 1536,-104 1536,-132.9648 1536,-132.9648"/>
<polygon fill="#000000" stroke="#000000" points="1532.5001,-132.9648 1536,-142.9648 1539.5001,-132.9649 1532.5001,-132.9648"/>
</g>
<!-- VcdComponentsModule&#45;&gt;VcdActionMenuModule  -->
<g id="edge6" class="edge">
<title>VcdComponentsModule&#45;&gt;VcdActionMenuModule </title>
<path fill="none" stroke="#000000" stroke-dasharray="5,2" d="M1220.8696,-109C1272.4468,-109 1331,-109 1331,-109 1331,-109 1331,-132.8129 1331,-132.8129"/>
<polygon fill="#000000" stroke="#000000" points="1327.5001,-132.8129 1331,-142.8129 1334.5001,-132.813 1327.5001,-132.8129"/>
</g>
<!-- VcdComponentsModule&#45;&gt;VcdActivityReporterModule  -->
<g id="edge7" class="edge">
<title>VcdComponentsModule&#45;&gt;VcdActivityReporterModule </title>
<path fill="none" stroke="#000000" stroke-dasharray="5,2" d="M1144,-114.1061C1144,-114.1061 1144,-132.991 1144,-132.991"/>
<polygon fill="#000000" stroke="#000000" points="1140.5001,-132.9909 1144,-142.991 1147.5001,-132.991 1140.5001,-132.9909"/>
</g>
<!-- VcdComponentsModule&#45;&gt;VcdDataExporterModule  -->
<g id="edge8" class="edge">
<title>VcdComponentsModule&#45;&gt;VcdDataExporterModule </title>
<path fill="none" stroke="#000000" stroke-dasharray="5,2" d="M1067.2674,-109C1014.5354,-109 954,-109 954,-109 954,-109 954,-132.8129 954,-132.8129"/>
<polygon fill="#000000" stroke="#000000" points="950.5001,-132.8129 954,-142.8129 957.5001,-132.813 950.5001,-132.8129"/>
</g>
<!-- VcdComponentsModule&#45;&gt;VcdDatagridModule  -->
<g id="edge9" class="edge">
<title>VcdComponentsModule&#45;&gt;VcdDatagridModule </title>
<path fill="none" stroke="#000000" stroke-dasharray="5,2" d="M1066.9758,-104C962.0276,-104 787,-104 787,-104 787,-104 787,-132.9648 787,-132.9648"/>
<polygon fill="#000000" stroke="#000000" points="783.5001,-132.9648 787,-142.9648 790.5001,-132.9649 783.5001,-132.9648"/>
</g>
<!-- VcdComponentsModule&#45;&gt;VcdErrorBannerModule  -->
<g id="edge10" class="edge">
<title>VcdComponentsModule&#45;&gt;VcdErrorBannerModule </title>
<path fill="none" stroke="#000000" stroke-dasharray="5,2" d="M1067.1247,-99C922.1998,-99 623,-99 623,-99 623,-99 623,-132.7333 623,-132.7333"/>
<polygon fill="#000000" stroke="#000000" points="619.5001,-132.7333 623,-142.7333 626.5001,-132.7333 619.5001,-132.7333"/>
</g>
<!-- VcdComponentsModule&#45;&gt;VcdFormModule  -->
<g id="edge11" class="edge">
<title>VcdComponentsModule&#45;&gt;VcdFormModule </title>
<path fill="none" stroke="#000000" stroke-dasharray="5,2" d="M1067.1124,-94C889.9333,-94 468,-94 468,-94 468,-94 468,-132.692 468,-132.692"/>
<polygon fill="#000000" stroke="#000000" points="464.5001,-132.6919 468,-142.692 471.5001,-132.692 464.5001,-132.6919"/>
</g>
<!-- VcdComponentsModule&#45;&gt;VcdLoadingIndicatorModule  -->
<g id="edge12" class="edge">
<title>VcdComponentsModule&#45;&gt;VcdLoadingIndicatorModule </title>
<path fill="none" stroke="#000000" stroke-dasharray="5,2" d="M1067.238,-89C859.1827,-89 300,-89 300,-89 300,-89 300,-132.8314 300,-132.8314"/>
<polygon fill="#000000" stroke="#000000" points="296.5001,-132.8313 300,-142.8314 303.5001,-132.8314 296.5001,-132.8313"/>
</g>
<!-- VcdComponentsModule&#45;&gt;VcdSharingModalModule  -->
<g id="edge13" class="edge">
<title>VcdComponentsModule&#45;&gt;VcdSharingModalModule </title>
<path fill="none" stroke="#000000" stroke-dasharray="5,2" d="M1067.3258,-84C827.4202,-84 107,-84 107,-84 107,-84 107,-132.7521 107,-132.7521"/>
<polygon fill="#000000" stroke="#000000" points="103.5001,-132.752 107,-142.7521 110.5001,-132.7521 103.5001,-132.752"/>
</g>
</g>
</svg>
