<?xml version="1.0" encoding="UTF-8" standalone="no"?>
<!DOCTYPE svg PUBLIC "-//W3C//DTD SVG 1.1//EN"
 "http://www.w3.org/Graphics/SVG/1.1/DTD/svg11.dtd">
<!-- Generated by graphviz version 5.0.0 (20220707.1540)
 -->
<!-- Title: dependencies Pages: 1 -->
<svg width="256pt" height="247pt"
 viewBox="0.00 0.00 256.00 246.80" xmlns="http://www.w3.org/2000/svg" xmlns:xlink="http://www.w3.org/1999/xlink">
<g id="graph0" class="graph" transform="scale(1 1) rotate(0) translate(4 242.8)">
<title>dependencies</title>
<polygon fill="white" stroke="transparent" points="-4,4 -4,-242.8 252,-242.8 252,4 -4,4"/>
<text text-anchor="middle" x="124" y="-8.2" font-family="sans-serif" font-size="14.00">dependencies</text>
<g id="clust1" class="cluster">
<title>cluster_AriaActivedescendantModule</title>
<polygon fill="none" stroke="black" stroke-dasharray="1,5" points="8,-32.8 8,-230.8 240,-230.8 240,-32.8 8,-32.8"/>
</g>
<g id="clust5" class="cluster">
<title>cluster_AriaActivedescendantModule_exports</title>
<polygon fill="none" stroke="black" points="16,-170.8 16,-222.8 232,-222.8 232,-170.8 16,-170.8"/>
</g>
<g id="clust2" class="cluster">
<title>cluster_AriaActivedescendantModule_declarations</title>
<polygon fill="none" stroke="black" points="18,-40.8 18,-92.8 230,-92.8 230,-40.8 18,-40.8"/>
</g>
<!-- AriaActiveDescendantDirective -->
<g id="node1" class="node">
<title>AriaActiveDescendantDirective</title>
<polygon fill="#ffffb3" stroke="black" points="221.58,-84.8 26.42,-84.8 26.42,-48.8 221.58,-48.8 221.58,-84.8"/>
<text text-anchor="middle" x="124" y="-62.6" font-family="Times,serif" font-size="14.00">AriaActiveDescendantDirective</text>
</g>
<!-- AriaActivedescendantModule -->
<g id="node2" class="node">
<title>AriaActivedescendantModule</title>
<polygon fill="#8dd3c7" stroke="black" points="215.94,-149.8 212.94,-153.8 191.94,-153.8 188.94,-149.8 32.06,-149.8 32.06,-113.8 215.94,-113.8 215.94,-149.8"/>
<text text-anchor="middle" x="124" y="-127.6" font-family="Times,serif" font-size="14.00">AriaActivedescendantModule</text>
</g>
<!-- AriaActiveDescendantDirective&#45;&gt;AriaActivedescendantModule -->
<g id="edge1" class="edge">
<title>AriaActiveDescendantDirective&#45;&gt;AriaActivedescendantModule</title>
<path fill="none" stroke="black" d="M124,-84.91C124,-84.91 124,-103.79 124,-103.79"/>
<polygon fill="black" stroke="black" points="120.5,-103.79 124,-113.79 127.5,-103.79 120.5,-103.79"/>
</g>
<!-- AriaActiveDescendantDirective  -->
<g id="node3" class="node">
<title>AriaActiveDescendantDirective </title>
<polygon fill="#fb8072" stroke="black" points="223.58,-214.8 24.42,-214.8 24.42,-178.8 223.58,-178.8 223.58,-214.8"/>
<text text-anchor="middle" x="124" y="-192.6" font-family="Times,serif" font-size="14.00">AriaActiveDescendantDirective </text>
</g>
<!-- AriaActivedescendantModule&#45;&gt;AriaActiveDescendantDirective  -->
<g id="edge2" class="edge">
<title>AriaActivedescendantModule&#45;&gt;AriaActiveDescendantDirective </title>
<path fill="none" stroke="black" stroke-dasharray="5,2" d="M124,-149.91C124,-149.91 124,-168.79 124,-168.79"/>
<polygon fill="black" stroke="black" points="120.5,-168.79 124,-178.79 127.5,-168.79 120.5,-168.79"/>
</g>
</g>
</svg>
