<?xml version="1.0" encoding="UTF-8" standalone="no"?>
<!DOCTYPE svg PUBLIC "-//W3C//DTD SVG 1.1//EN"
 "http://www.w3.org/Graphics/SVG/1.1/DTD/svg11.dtd">
<!-- Generated by graphviz version 2.40.1 (20161225.0304)
 -->
<!-- Title: dependencies Pages: 1 -->
<svg width="904pt" height="349pt"
 viewBox="0.00 0.00 904.00 349.00" xmlns="http://www.w3.org/2000/svg" xmlns:xlink="http://www.w3.org/1999/xlink">
<g id="graph0" class="graph" transform="scale(1 1) rotate(0) translate(4 345)">
<title>dependencies</title>
<polygon fill="#ffffff" stroke="transparent" points="-4,4 -4,-345 900,-345 900,4 -4,4"/>
<text text-anchor="start" x="427.0091" y="-42.4" font-family="sans-serif" font-weight="bold" font-size="14.00" fill="#000000">Legend</text>
<polygon fill="#ffffb3" stroke="transparent" points="214,-10 214,-30 234,-30 234,-10 214,-10"/>
<text text-anchor="start" x="237.629" y="-15.4" font-family="sans-serif" font-size="14.00" fill="#000000"> &#160;Declarations</text>
<polygon fill="#8dd3c7" stroke="transparent" points="327,-10 327,-30 347,-30 347,-10 327,-10"/>
<text text-anchor="start" x="350.7251" y="-15.4" font-family="sans-serif" font-size="14.00" fill="#000000"> &#160;Module</text>
<polygon fill="#80b1d3" stroke="transparent" points="413,-10 413,-30 433,-30 433,-10 413,-10"/>
<text text-anchor="start" x="436.7812" y="-15.4" font-family="sans-serif" font-size="14.00" fill="#000000"> &#160;Bootstrap</text>
<polygon fill="#fdb462" stroke="transparent" points="510,-10 510,-30 530,-30 530,-10 510,-10"/>
<text text-anchor="start" x="533.6732" y="-15.4" font-family="sans-serif" font-size="14.00" fill="#000000"> &#160;Providers</text>
<polygon fill="#fb8072" stroke="transparent" points="606,-10 606,-30 626,-30 626,-10 606,-10"/>
<text text-anchor="start" x="629.7258" y="-15.4" font-family="sans-serif" font-size="14.00" fill="#000000"> &#160;Exports</text>
<g id="clust1" class="cluster">
<title>cluster_DropdownModule</title>
<polygon fill="none" stroke="#000000" stroke-dasharray="1,5" points="8,-70 8,-333 888,-333 888,-70 8,-70"/>
</g>
<g id="clust2" class="cluster">
<title>cluster_DropdownModule_declarations</title>
<polygon fill="none" stroke="#000000" points="254,-143 254,-195 880,-195 880,-143 254,-143"/>
</g>
<g id="clust3" class="cluster">
<title>cluster_DropdownModule_DropdownComponent_providers</title>
<polygon fill="none" stroke="#000000" points="450,-78 450,-130 880,-130 880,-78 450,-78"/>
</g>
<g id="clust6" class="cluster">
<title>cluster_DropdownModule_imports</title>
<polygon fill="none" stroke="#000000" points="16,-143 16,-195 246,-195 246,-143 16,-143"/>
</g>
<g id="clust7" class="cluster">
<title>cluster_DropdownModule_exports</title>
<polygon fill="none" stroke="#000000" points="131,-273 131,-325 765,-325 765,-273 131,-273"/>
</g>
<!-- DropdownComponent -->
<g id="node1" class="node">
<title>DropdownComponent</title>
<polygon fill="#ffffb3" stroke="#000000" points="871.7064,-187 730.2936,-187 730.2936,-151 871.7064,-151 871.7064,-187"/>
<text text-anchor="middle" x="801" y="-164.8" font-family="Times,serif" font-size="14.00" fill="#000000">DropdownComponent</text>
</g>
<!-- DropdownModule -->
<g id="node4" class="node">
<title>DropdownModule</title>
<polygon fill="#8dd3c7" stroke="#000000" points="549.9244,-252 546.9244,-256 525.9244,-256 522.9244,-252 430.0756,-252 430.0756,-216 549.9244,-216 549.9244,-252"/>
<text text-anchor="middle" x="490" y="-229.8" font-family="Times,serif" font-size="14.00" fill="#000000">DropdownModule</text>
</g>
<!-- DropdownComponent&#45;&gt;DropdownModule -->
<g id="edge1" class="edge">
<title>DropdownComponent&#45;&gt;DropdownModule</title>
<path fill="none" stroke="#000000" d="M743.875,-187.0225C743.875,-204.3734 743.875,-228 743.875,-228 743.875,-228 559.8434,-228 559.8434,-228"/>
<polygon fill="#000000" stroke="#000000" points="559.8434,-224.5001 549.8434,-228 559.8433,-231.5001 559.8434,-224.5001"/>
</g>
<!-- DropdownFocusHandlerDirective -->
<g id="node2" class="node">
<title>DropdownFocusHandlerDirective</title>
<polygon fill="#ffffb3" stroke="#000000" points="712.486,-187 505.514,-187 505.514,-151 712.486,-151 712.486,-187"/>
<text text-anchor="middle" x="609" y="-164.8" font-family="Times,serif" font-size="14.00" fill="#000000">DropdownFocusHandlerDirective</text>
</g>
<!-- DropdownFocusHandlerDirective&#45;&gt;DropdownModule -->
<g id="edge3" class="edge">
<title>DropdownFocusHandlerDirective&#45;&gt;DropdownModule</title>
<path fill="none" stroke="#000000" d="M527.7346,-187.1061C527.7346,-187.1061 527.7346,-205.991 527.7346,-205.991"/>
<polygon fill="#000000" stroke="#000000" points="524.2346,-205.9909 527.7346,-215.991 531.2346,-205.991 524.2346,-205.9909"/>
</g>
<!-- DynamicDropdownPositionDirective -->
<g id="node3" class="node">
<title>DynamicDropdownPositionDirective</title>
<polygon fill="#ffffb3" stroke="#000000" points="487.6727,-187 262.3273,-187 262.3273,-151 487.6727,-151 487.6727,-187"/>
<text text-anchor="middle" x="375" y="-164.8" font-family="Times,serif" font-size="14.00" fill="#000000">DynamicDropdownPositionDirective</text>
</g>
<!-- DynamicDropdownPositionDirective&#45;&gt;DropdownModule -->
<g id="edge4" class="edge">
<title>DynamicDropdownPositionDirective&#45;&gt;DropdownModule</title>
<path fill="none" stroke="#000000" d="M458.9373,-187.1061C458.9373,-187.1061 458.9373,-205.991 458.9373,-205.991"/>
<polygon fill="#000000" stroke="#000000" points="455.4373,-205.9909 458.9373,-215.991 462.4373,-205.991 455.4373,-205.9909"/>
</g>
<!-- DropdownComponent  -->
<g id="node7" class="node">
<title>DropdownComponent </title>
<polygon fill="#fb8072" stroke="#000000" points="757.2065,-317 612.7935,-317 612.7935,-281 757.2065,-281 757.2065,-317"/>
<text text-anchor="middle" x="685" y="-294.8" font-family="Times,serif" font-size="14.00" fill="#000000">DropdownComponent </text>
</g>
<!-- DropdownModule&#45;&gt;DropdownComponent  -->
<g id="edge6" class="edge">
<title>DropdownModule&#45;&gt;DropdownComponent </title>
<path fill="none" stroke="#000000" stroke-dasharray="5,2" d="M549.8289,-240C599.635,-240 662.4448,-240 662.4448,-240 662.4448,-240 662.4448,-270.9775 662.4448,-270.9775"/>
<polygon fill="#000000" stroke="#000000" points="658.9449,-270.9774 662.4448,-280.9775 665.9449,-270.9775 658.9449,-270.9774"/>
</g>
<!-- DropdownFocusHandlerDirective  -->
<g id="node8" class="node">
<title>DropdownFocusHandlerDirective </title>
<polygon fill="#fb8072" stroke="#000000" points="594.9854,-317 385.0146,-317 385.0146,-281 594.9854,-281 594.9854,-317"/>
<text text-anchor="middle" x="490" y="-294.8" font-family="Times,serif" font-size="14.00" fill="#000000">DropdownFocusHandlerDirective </text>
</g>
<!-- DropdownModule&#45;&gt;DropdownFocusHandlerDirective  -->
<g id="edge7" class="edge">
<title>DropdownModule&#45;&gt;DropdownFocusHandlerDirective </title>
<path fill="none" stroke="#000000" stroke-dasharray="5,2" d="M490,-252.1061C490,-252.1061 490,-270.991 490,-270.991"/>
<polygon fill="#000000" stroke="#000000" points="486.5001,-270.9909 490,-280.991 493.5001,-270.991 486.5001,-270.9909"/>
</g>
<!-- DynamicDropdownPositionDirective  -->
<g id="node9" class="node">
<title>DynamicDropdownPositionDirective </title>
<polygon fill="#fb8072" stroke="#000000" points="367.1728,-317 138.8272,-317 138.8272,-281 367.1728,-281 367.1728,-317"/>
<text text-anchor="middle" x="253" y="-294.8" font-family="Times,serif" font-size="14.00" fill="#000000">DynamicDropdownPositionDirective </text>
</g>
<!-- DropdownModule&#45;&gt;DynamicDropdownPositionDirective  -->
<g id="edge8" class="edge">
<title>DropdownModule&#45;&gt;DynamicDropdownPositionDirective </title>
<path fill="none" stroke="#000000" stroke-dasharray="5,2" d="M430.2217,-240C379.4894,-240 314.875,-240 314.875,-240 314.875,-240 314.875,-270.9775 314.875,-270.9775"/>
<polygon fill="#000000" stroke="#000000" points="311.3751,-270.9774 314.875,-280.9775 318.3751,-270.9775 311.3751,-270.9774"/>
</g>
<!-- DROPDOWN_FOCUS_HANDLER_PROVIDER -->
<g id="node5" class="node">
<title>DROPDOWN_FOCUS_HANDLER_PROVIDER</title>
<ellipse fill="#fdb462" stroke="#000000" cx="665" cy="-104" rx="206.6468" ry="18"/>
<text text-anchor="middle" x="665" y="-99.8" font-family="Times,serif" font-size="14.00" fill="#000000">DROPDOWN_FOCUS_HANDLER_PROVIDER</text>
</g>
<!-- DROPDOWN_FOCUS_HANDLER_PROVIDER&#45;&gt;DropdownComponent -->
<g id="edge2" class="edge">
<title>DROPDOWN_FOCUS_HANDLER_PROVIDER&#45;&gt;DropdownComponent</title>
<path fill="none" stroke="#000000" d="M801,-117.7848C801,-117.7848 801,-140.5475 801,-140.5475"/>
<polygon fill="#000000" stroke="#000000" points="797.5001,-140.5474 801,-150.5475 804.5001,-140.5475 797.5001,-140.5474"/>
</g>
<!-- ShowClippedTextDirectiveModule -->
<g id="node6" class="node">
<title>ShowClippedTextDirectiveModule</title>
<polygon fill="#8dd3c7" stroke="#000000" points="237.5126,-187 234.5126,-191 213.5126,-191 210.5126,-187 24.4874,-187 24.4874,-151 237.5126,-151 237.5126,-187"/>
<text text-anchor="middle" x="131" y="-164.8" font-family="Times,serif" font-size="14.00" fill="#000000">ShowClippedTextDirectiveModule</text>
</g>
<!-- ShowClippedTextDirectiveModule&#45;&gt;DropdownModule -->
<g id="edge5" class="edge">
<title>ShowClippedTextDirectiveModule&#45;&gt;DropdownModule</title>
<path fill="none" stroke="#000000" d="M188.2099,-187.0225C188.2099,-204.3734 188.2099,-228 188.2098,-228 188.2098,-228 420.0152,-228 420.0152,-228"/>
<polygon fill="#000000" stroke="#000000" points="420.0152,-231.5001 430.0152,-228 420.0151,-224.5001 420.0152,-231.5001"/>
</g>
</g>
</svg>
