<?xml version="1.0" encoding="UTF-8" standalone="no"?>
<!DOCTYPE svg PUBLIC "-//W3C//DTD SVG 1.1//EN"
 "http://www.w3.org/Graphics/SVG/1.1/DTD/svg11.dtd">
<!-- Generated by graphviz version 5.0.0 (20220707.1540)
 -->
<!-- Title: dependencies Pages: 1 -->
<svg width="904pt" height="312pt"
 viewBox="0.00 0.00 904.00 311.80" xmlns="http://www.w3.org/2000/svg" xmlns:xlink="http://www.w3.org/1999/xlink">
<g id="graph0" class="graph" transform="scale(1 1) rotate(0) translate(4 307.8)">
<title>dependencies</title>
<polygon fill="white" stroke="transparent" points="-4,4 -4,-307.8 900,-307.8 900,4 -4,4"/>
<text text-anchor="middle" x="448" y="-8.2" font-family="sans-serif" font-size="14.00">dependencies</text>
<g id="clust1" class="cluster">
<title>cluster_DropdownModule</title>
<polygon fill="none" stroke="black" stroke-dasharray="1,5" points="8,-32.8 8,-295.8 888,-295.8 888,-32.8 8,-32.8"/>
</g>
<g id="clust2" class="cluster">
<title>cluster_DropdownModule_declarations</title>
<polygon fill="none" stroke="black" points="254,-105.8 254,-157.8 880,-157.8 880,-105.8 254,-105.8"/>
</g>
<g id="clust3" class="cluster">
<title>cluster_DropdownModule_DropdownComponent_providers</title>
<polygon fill="none" stroke="black" points="450,-40.8 450,-92.8 880,-92.8 880,-40.8 450,-40.8"/>
</g>
<g id="clust4" class="cluster">
<title>cluster_DropdownModule_DropdownFocusHandlerDirective_providers</title>
<polygon fill="none" stroke="black" points="246,-40.8 246,-92.8 442,-92.8 442,-40.8 246,-40.8"/>
</g>
<g id="clust6" class="cluster">
<title>cluster_DropdownModule_imports</title>
<polygon fill="none" stroke="black" points="16,-105.8 16,-157.8 246,-157.8 246,-105.8 16,-105.8"/>
</g>
<g id="clust7" class="cluster">
<title>cluster_DropdownModule_exports</title>
<polygon fill="none" stroke="black" points="131,-235.8 131,-287.8 765,-287.8 765,-235.8 131,-235.8"/>
</g>
<!-- DropdownComponent -->
<g id="node1" class="node">
<title>DropdownComponent</title>
<polygon fill="#ffffb3" stroke="black" points="871.71,-149.8 730.29,-149.8 730.29,-113.8 871.71,-113.8 871.71,-149.8"/>
<text text-anchor="middle" x="801" y="-127.6" font-family="Times,serif" font-size="14.00">DropdownComponent</text>
</g>
<!-- DropdownModule -->
<g id="node4" class="node">
<title>DropdownModule</title>
<polygon fill="#8dd3c7" stroke="black" points="549.94,-214.8 546.94,-218.8 525.94,-218.8 522.94,-214.8 430.06,-214.8 430.06,-178.8 549.94,-178.8 549.94,-214.8"/>
<text text-anchor="middle" x="490" y="-192.6" font-family="Times,serif" font-size="14.00">DropdownModule</text>
</g>
<!-- DropdownComponent&#45;&gt;DropdownModule -->
<g id="edge1" class="edge">
<title>DropdownComponent&#45;&gt;DropdownModule</title>
<path fill="none" stroke="black" d="M743.88,-149.82C743.88,-167.17 743.88,-190.8 743.88,-190.8 743.88,-190.8 559.84,-190.8 559.84,-190.8"/>
<polygon fill="black" stroke="black" points="559.84,-187.3 549.84,-190.8 559.84,-194.3 559.84,-187.3"/>
</g>
<!-- DropdownFocusHandlerDirective -->
<g id="node2" class="node">
<title>DropdownFocusHandlerDirective</title>
<polygon fill="#ffffb3" stroke="black" points="712,-149.8 506,-149.8 506,-113.8 712,-113.8 712,-149.8"/>
<text text-anchor="middle" x="609" y="-127.6" font-family="Times,serif" font-size="14.00">DropdownFocusHandlerDirective</text>
</g>
<!-- DropdownFocusHandlerDirective&#45;&gt;DropdownModule -->
<g id="edge3" class="edge">
<title>DropdownFocusHandlerDirective&#45;&gt;DropdownModule</title>
<path fill="none" stroke="black" d="M527.73,-149.91C527.73,-149.91 527.73,-168.79 527.73,-168.79"/>
<polygon fill="black" stroke="black" points="524.23,-168.79 527.73,-178.79 531.23,-168.79 524.23,-168.79"/>
</g>
<!-- DynamicDropdownPositionDirective -->
<g id="node3" class="node">
<title>DynamicDropdownPositionDirective</title>
<polygon fill="#ffffb3" stroke="black" points="487.69,-149.8 262.31,-149.8 262.31,-113.8 487.69,-113.8 487.69,-149.8"/>
<text text-anchor="middle" x="375" y="-127.6" font-family="Times,serif" font-size="14.00">DynamicDropdownPositionDirective</text>
</g>
<!-- DynamicDropdownPositionDirective&#45;&gt;DropdownModule -->
<g id="edge5" class="edge">
<title>DynamicDropdownPositionDirective&#45;&gt;DropdownModule</title>
<path fill="none" stroke="black" d="M458.94,-149.91C458.94,-149.91 458.94,-168.79 458.94,-168.79"/>
<polygon fill="black" stroke="black" points="455.44,-168.79 458.94,-178.79 462.44,-168.79 455.44,-168.79"/>
</g>
<!-- DropdownComponent  -->
<g id="node8" class="node">
<title>DropdownComponent </title>
<polygon fill="#fb8072" stroke="black" points="757.21,-279.8 612.79,-279.8 612.79,-243.8 757.21,-243.8 757.21,-279.8"/>
<text text-anchor="middle" x="685" y="-257.6" font-family="Times,serif" font-size="14.00">DropdownComponent </text>
</g>
<!-- DropdownModule&#45;&gt;DropdownComponent  -->
<g id="edge7" class="edge">
<title>DropdownModule&#45;&gt;DropdownComponent </title>
<path fill="none" stroke="black" stroke-dasharray="5,2" d="M549.83,-202.8C599.64,-202.8 662.45,-202.8 662.45,-202.8 662.45,-202.8 662.45,-233.78 662.45,-233.78"/>
<polygon fill="black" stroke="black" points="658.95,-233.78 662.45,-243.78 665.95,-233.78 658.95,-233.78"/>
</g>
<!-- DropdownFocusHandlerDirective  -->
<g id="node9" class="node">
<title>DropdownFocusHandlerDirective </title>
<polygon fill="#fb8072" stroke="black" points="595,-279.8 385,-279.8 385,-243.8 595,-243.8 595,-279.8"/>
<text text-anchor="middle" x="490" y="-257.6" font-family="Times,serif" font-size="14.00">DropdownFocusHandlerDirective </text>
</g>
<!-- DropdownModule&#45;&gt;DropdownFocusHandlerDirective  -->
<g id="edge8" class="edge">
<title>DropdownModule&#45;&gt;DropdownFocusHandlerDirective </title>
<path fill="none" stroke="black" stroke-dasharray="5,2" d="M490,-214.91C490,-214.91 490,-233.79 490,-233.79"/>
<polygon fill="black" stroke="black" points="486.5,-233.79 490,-243.79 493.5,-233.79 486.5,-233.79"/>
</g>
<!-- DynamicDropdownPositionDirective  -->
<g id="node10" class="node">
<title>DynamicDropdownPositionDirective </title>
<polygon fill="#fb8072" stroke="black" points="367.19,-279.8 138.81,-279.8 138.81,-243.8 367.19,-243.8 367.19,-279.8"/>
<text text-anchor="middle" x="253" y="-257.6" font-family="Times,serif" font-size="14.00">DynamicDropdownPositionDirective </text>
</g>
<!-- DropdownModule&#45;&gt;DynamicDropdownPositionDirective  -->
<g id="edge9" class="edge">
<title>DropdownModule&#45;&gt;DynamicDropdownPositionDirective </title>
<path fill="none" stroke="black" stroke-dasharray="5,2" d="M430.22,-202.8C379.49,-202.8 314.88,-202.8 314.88,-202.8 314.88,-202.8 314.88,-233.78 314.88,-233.78"/>
<polygon fill="black" stroke="black" points="311.38,-233.78 314.88,-243.78 318.38,-233.78 311.38,-233.78"/>
</g>
<!-- DROPDOWN_FOCUS_HANDLER_PROVIDER -->
<g id="node5" class="node">
<title>DROPDOWN_FOCUS_HANDLER_PROVIDER</title>
<ellipse fill="#fdb462" stroke="black" cx="665" cy="-66.8" rx="206.75" ry="18"/>
<text text-anchor="middle" x="665" y="-62.6" font-family="Times,serif" font-size="14.00">DROPDOWN_FOCUS_HANDLER_PROVIDER</text>
</g>
<!-- DROPDOWN_FOCUS_HANDLER_PROVIDER&#45;&gt;DropdownComponent -->
<g id="edge2" class="edge">
<title>DROPDOWN_FOCUS_HANDLER_PROVIDER&#45;&gt;DropdownComponent</title>
<path fill="none" stroke="black" d="M801,-80.58C801,-80.58 801,-103.35 801,-103.35"/>
<polygon fill="black" stroke="black" points="797.5,-103.35 801,-113.35 804.5,-103.35 797.5,-103.35"/>
</g>
<!-- SubscriptionTracker -->
<g id="node6" class="node">
<title>SubscriptionTracker</title>
<ellipse fill="#fdb462" stroke="black" cx="344" cy="-66.8" rx="89.75" ry="18"/>
<text text-anchor="middle" x="344" y="-62.6" font-family="Times,serif" font-size="14.00">SubscriptionTracker</text>
</g>
<!-- SubscriptionTracker&#45;&gt;DropdownFocusHandlerDirective -->
<g id="edge4" class="edge">
<title>SubscriptionTracker&#45;&gt;DropdownFocusHandlerDirective</title>
<path fill="none" stroke="black" d="M348.14,-84.84C348.14,-92.55 348.14,-99.8 348.14,-99.8 348.14,-99.8 609,-99.8 609,-99.8 609,-99.8 609,-103.56 609,-103.56"/>
<polygon fill="black" stroke="black" points="605.5,-103.56 609,-113.56 612.5,-103.56 605.5,-103.56"/>
</g>
<!-- ShowClippedTextDirectiveModule -->
<g id="node7" class="node">
<title>ShowClippedTextDirectiveModule</title>
<polygon fill="#8dd3c7" stroke="black" points="237.52,-149.8 234.52,-153.8 213.52,-153.8 210.52,-149.8 24.48,-149.8 24.48,-113.8 237.52,-113.8 237.52,-149.8"/>
<text text-anchor="middle" x="131" y="-127.6" font-family="Times,serif" font-size="14.00">ShowClippedTextDirectiveModule</text>
</g>
<!-- ShowClippedTextDirectiveModule&#45;&gt;DropdownModule -->
<g id="edge6" class="edge">
<title>ShowClippedTextDirectiveModule&#45;&gt;DropdownModule</title>
<path fill="none" stroke="black" d="M188.21,-149.82C188.21,-167.17 188.21,-190.8 188.21,-190.8 188.21,-190.8 420.01,-190.8 420.01,-190.8"/>
<polygon fill="black" stroke="black" points="420.01,-194.3 430.01,-190.8 420.01,-187.3 420.01,-194.3"/>
</g>
</g>
</svg>
