<?xml version="1.0" encoding="UTF-8" standalone="no"?>
<!DOCTYPE svg PUBLIC "-//W3C//DTD SVG 1.1//EN"
 "http://www.w3.org/Graphics/SVG/1.1/DTD/svg11.dtd">
<!-- Generated by graphviz version 5.0.0 (20220707.1540)
 -->
<!-- Title: dependencies Pages: 1 -->
<svg width="1188pt" height="312pt"
 viewBox="0.00 0.00 1188.00 311.80" xmlns="http://www.w3.org/2000/svg" xmlns:xlink="http://www.w3.org/1999/xlink">
<g id="graph0" class="graph" transform="scale(1 1) rotate(0) translate(4 307.8)">
<title>dependencies</title>
<polygon fill="white" stroke="transparent" points="-4,4 -4,-307.8 1184,-307.8 1184,4 -4,4"/>
<text text-anchor="middle" x="590" y="-8.2" font-family="sans-serif" font-size="14.00">dependencies</text>
<g id="clust1" class="cluster">
<title>cluster_DropdownModule</title>
<polygon fill="none" stroke="black" stroke-dasharray="1,5" points="8,-32.8 8,-295.8 1172,-295.8 1172,-32.8 8,-32.8"/>
</g>
<g id="clust4" class="cluster">
<title>cluster_DropdownModule_DropdownFocusHandlerDirective_providers</title>
<polygon fill="none" stroke="black" points="942,-40.8 942,-157.8 1164,-157.8 1164,-40.8 942,-40.8"/>
</g>
<g id="clust6" class="cluster">
<title>cluster_DropdownModule_imports</title>
<polygon fill="none" stroke="black" points="704,-105.8 704,-157.8 934,-157.8 934,-105.8 704,-105.8"/>
</g>
<g id="clust7" class="cluster">
<title>cluster_DropdownModule_exports</title>
<polygon fill="none" stroke="black" points="359,-235.8 359,-287.8 993,-287.8 993,-235.8 359,-235.8"/>
</g>
<g id="clust3" class="cluster">
<title>cluster_DropdownModule_DropdownComponent_providers</title>
<polygon fill="none" stroke="black" points="266,-40.8 266,-157.8 696,-157.8 696,-40.8 266,-40.8"/>
</g>
<g id="clust2" class="cluster">
<title>cluster_DropdownModule_declarations</title>
<polygon fill="none" stroke="black" points="16,-105.8 16,-157.8 258,-157.8 258,-105.8 16,-105.8"/>
</g>
<!-- DropdownComponent -->
<g id="node1" class="node">
<title>DropdownComponent</title>
<polygon fill="#ffffb3" stroke="black" points="619.71,-149.8 478.29,-149.8 478.29,-113.8 619.71,-113.8 619.71,-149.8"/>
<text text-anchor="middle" x="549" y="-127.6" font-family="Times,serif" font-size="14.00">DropdownComponent</text>
</g>
<!-- DropdownModule -->
<g id="node4" class="node">
<title>DropdownModule</title>
<polygon fill="#8dd3c7" stroke="black" points="777.94,-214.8 774.94,-218.8 753.94,-218.8 750.94,-214.8 658.06,-214.8 658.06,-178.8 777.94,-178.8 777.94,-214.8"/>
<text text-anchor="middle" x="718" y="-192.6" font-family="Times,serif" font-size="14.00">DropdownModule</text>
</g>
<!-- DropdownComponent&#45;&gt;DropdownModule -->
<g id="edge1" class="edge">
<title>DropdownComponent&#45;&gt;DropdownModule</title>
<path fill="none" stroke="black" d="M604.17,-149.83C604.17,-166.2 604.17,-187.8 604.17,-187.8 604.17,-187.8 648.09,-187.8 648.09,-187.8"/>
<polygon fill="black" stroke="black" points="648.09,-191.3 658.09,-187.8 648.09,-184.3 648.09,-191.3"/>
</g>
<!-- DropdownFocusHandlerDirective -->
<g id="node2" class="node">
<title>DropdownFocusHandlerDirective</title>
<polygon fill="#ffffb3" stroke="black" points="1156,-149.8 950,-149.8 950,-113.8 1156,-113.8 1156,-149.8"/>
<text text-anchor="middle" x="1053" y="-127.6" font-family="Times,serif" font-size="14.00">DropdownFocusHandlerDirective</text>
</g>
<!-- DropdownFocusHandlerDirective&#45;&gt;DropdownModule -->
<g id="edge3" class="edge">
<title>DropdownFocusHandlerDirective&#45;&gt;DropdownModule</title>
<path fill="none" stroke="black" d="M967.55,-149.82C967.55,-167.17 967.55,-190.8 967.55,-190.8 967.55,-190.8 787.77,-190.8 787.77,-190.8"/>
<polygon fill="black" stroke="black" points="787.77,-187.3 777.77,-190.8 787.77,-194.3 787.77,-187.3"/>
</g>
<!-- DynamicDropdownPositionDirective -->
<g id="node3" class="node">
<title>DynamicDropdownPositionDirective</title>
<polygon fill="#ffffb3" stroke="black" points="249.69,-149.8 24.31,-149.8 24.31,-113.8 249.69,-113.8 249.69,-149.8"/>
<text text-anchor="middle" x="137" y="-127.6" font-family="Times,serif" font-size="14.00">DynamicDropdownPositionDirective</text>
</g>
<!-- DynamicDropdownPositionDirective&#45;&gt;DropdownModule -->
<g id="edge5" class="edge">
<title>DynamicDropdownPositionDirective&#45;&gt;DropdownModule</title>
<path fill="none" stroke="black" d="M137,-149.91C137,-169.14 137,-196.8 137,-196.8 137,-196.8 648.28,-196.8 648.28,-196.8"/>
<polygon fill="black" stroke="black" points="648.28,-200.3 658.28,-196.8 648.28,-193.3 648.28,-200.3"/>
</g>
<!-- DropdownComponent  -->
<g id="node8" class="node">
<title>DropdownComponent </title>
<polygon fill="#fb8072" stroke="black" points="985.21,-279.8 840.79,-279.8 840.79,-243.8 985.21,-243.8 985.21,-279.8"/>
<text text-anchor="middle" x="913" y="-257.6" font-family="Times,serif" font-size="14.00">DropdownComponent </text>
</g>
<!-- DropdownModule&#45;&gt;DropdownComponent  -->
<g id="edge7" class="edge">
<title>DropdownModule&#45;&gt;DropdownComponent </title>
<path fill="none" stroke="black" stroke-dasharray="5,2" d="M778.11,-202.8C825.34,-202.8 883.2,-202.8 883.2,-202.8 883.2,-202.8 883.2,-233.78 883.2,-233.78"/>
<polygon fill="black" stroke="black" points="879.7,-233.78 883.2,-243.78 886.7,-233.78 879.7,-233.78"/>
</g>
<!-- DropdownFocusHandlerDirective  -->
<g id="node9" class="node">
<title>DropdownFocusHandlerDirective </title>
<polygon fill="#fb8072" stroke="black" points="823,-279.8 613,-279.8 613,-243.8 823,-243.8 823,-279.8"/>
<text text-anchor="middle" x="718" y="-257.6" font-family="Times,serif" font-size="14.00">DropdownFocusHandlerDirective </text>
</g>
<!-- DropdownModule&#45;&gt;DropdownFocusHandlerDirective  -->
<g id="edge8" class="edge">
<title>DropdownModule&#45;&gt;DropdownFocusHandlerDirective </title>
<path fill="none" stroke="black" stroke-dasharray="5,2" d="M718,-214.91C718,-214.91 718,-233.79 718,-233.79"/>
<polygon fill="black" stroke="black" points="714.5,-233.79 718,-243.79 721.5,-233.79 714.5,-233.79"/>
</g>
<!-- DynamicDropdownPositionDirective  -->
<g id="node10" class="node">
<title>DynamicDropdownPositionDirective </title>
<polygon fill="#fb8072" stroke="black" points="595.19,-279.8 366.81,-279.8 366.81,-243.8 595.19,-243.8 595.19,-279.8"/>
<text text-anchor="middle" x="481" y="-257.6" font-family="Times,serif" font-size="14.00">DynamicDropdownPositionDirective </text>
</g>
<!-- DropdownModule&#45;&gt;DynamicDropdownPositionDirective  -->
<g id="edge9" class="edge">
<title>DropdownModule&#45;&gt;DynamicDropdownPositionDirective </title>
<path fill="none" stroke="black" stroke-dasharray="5,2" d="M658.19,-205.8C605.43,-205.8 536.87,-205.8 536.87,-205.8 536.87,-205.8 536.87,-233.77 536.87,-233.77"/>
<polygon fill="black" stroke="black" points="533.37,-233.77 536.87,-243.77 540.37,-233.77 533.37,-233.77"/>
</g>
<!-- DROPDOWN_FOCUS_HANDLER_PROVIDER -->
<g id="node5" class="node">
<title>DROPDOWN_FOCUS_HANDLER_PROVIDER</title>
<ellipse fill="#fdb462" stroke="black" cx="481" cy="-66.8" rx="206.75" ry="18"/>
<text text-anchor="middle" x="481" y="-62.6" font-family="Times,serif" font-size="14.00">DROPDOWN_FOCUS_HANDLER_PROVIDER</text>
</g>
<!-- DROPDOWN_FOCUS_HANDLER_PROVIDER&#45;&gt;DropdownComponent -->
<g id="edge2" class="edge">
<title>DROPDOWN_FOCUS_HANDLER_PROVIDER&#45;&gt;DropdownComponent</title>
<path fill="none" stroke="black" d="M549,-83.88C549,-83.88 549,-103.7 549,-103.7"/>
<polygon fill="black" stroke="black" points="545.5,-103.7 549,-113.7 552.5,-103.7 545.5,-103.7"/>
</g>
<!-- SubscriptionTracker -->
<g id="node6" class="node">
<title>SubscriptionTracker</title>
<ellipse fill="#fdb462" stroke="black" cx="1053" cy="-66.8" rx="89.75" ry="18"/>
<text text-anchor="middle" x="1053" y="-62.6" font-family="Times,serif" font-size="14.00">SubscriptionTracker</text>
</g>
<!-- SubscriptionTracker&#45;&gt;DropdownFocusHandlerDirective -->
<g id="edge4" class="edge">
<title>SubscriptionTracker&#45;&gt;DropdownFocusHandlerDirective</title>
<path fill="none" stroke="black" d="M1053,-84.91C1053,-84.91 1053,-103.79 1053,-103.79"/>
<polygon fill="black" stroke="black" points="1049.5,-103.79 1053,-113.79 1056.5,-103.79 1049.5,-103.79"/>
</g>
<!-- ShowClippedTextDirectiveModule -->
<g id="node7" class="node">
<title>ShowClippedTextDirectiveModule</title>
<polygon fill="#8dd3c7" stroke="black" points="925.52,-149.8 922.52,-153.8 901.52,-153.8 898.52,-149.8 712.48,-149.8 712.48,-113.8 925.52,-113.8 925.52,-149.8"/>
<text text-anchor="middle" x="819" y="-127.6" font-family="Times,serif" font-size="14.00">ShowClippedTextDirectiveModule</text>
</g>
<!-- ShowClippedTextDirectiveModule&#45;&gt;DropdownModule -->
<g id="edge6" class="edge">
<title>ShowClippedTextDirectiveModule&#45;&gt;DropdownModule</title>
<path fill="none" stroke="black" d="M744.98,-149.91C744.98,-149.91 744.98,-168.79 744.98,-168.79"/>
<polygon fill="black" stroke="black" points="741.48,-168.79 744.98,-178.79 748.48,-168.79 741.48,-168.79"/>
</g>
</g>
</svg>
