<?xml version="1.0" encoding="UTF-8" standalone="no"?>
<!DOCTYPE svg PUBLIC "-//W3C//DTD SVG 1.1//EN"
 "http://www.w3.org/Graphics/SVG/1.1/DTD/svg11.dtd">
<!-- Generated by graphviz version 2.47.0 (20210316.0004)
 -->
<!-- Title: dependencies Pages: 1 -->
<svg width="904pt" height="349pt"
 viewBox="0.00 0.00 904.00 349.00" xmlns="http://www.w3.org/2000/svg" xmlns:xlink="http://www.w3.org/1999/xlink">
<g id="graph0" class="graph" transform="scale(1 1) rotate(0) translate(4 345)">
<title>dependencies</title>
<polygon fill="white" stroke="transparent" points="-4,4 -4,-345 900,-345 900,4 -4,4"/>
<text text-anchor="start" x="427.01" y="-42.4" font-family="Times-12" font-weight="bold" font-size="14.00">Legend</text>
<polygon fill="#ffffb3" stroke="transparent" points="214,-10 214,-30 234,-30 234,-10 214,-10"/>
<text text-anchor="start" x="237.63" y="-15.4" font-family="Times-12" font-size="14.00"> &#160;Declarations</text>
<polygon fill="#8dd3c7" stroke="transparent" points="327,-10 327,-30 347,-30 347,-10 327,-10"/>
<text text-anchor="start" x="350.73" y="-15.4" font-family="Times-12" font-size="14.00"> &#160;Module</text>
<polygon fill="#80b1d3" stroke="transparent" points="413,-10 413,-30 433,-30 433,-10 413,-10"/>
<text text-anchor="start" x="436.78" y="-15.4" font-family="Times-12" font-size="14.00"> &#160;Bootstrap</text>
<polygon fill="#fdb462" stroke="transparent" points="510,-10 510,-30 530,-30 530,-10 510,-10"/>
<text text-anchor="start" x="533.67" y="-15.4" font-family="Times-12" font-size="14.00"> &#160;Providers</text>
<polygon fill="#fb8072" stroke="transparent" points="606,-10 606,-30 626,-30 626,-10 606,-10"/>
<text text-anchor="start" x="629.73" y="-15.4" font-family="Times-12" font-size="14.00"> &#160;Exports</text>
<g id="clust1" class="cluster">
<title>cluster_DropdownModule</title>
<polygon fill="none" stroke="black" stroke-dasharray="1,5" points="8,-70 8,-333 888,-333 888,-70 8,-70"/>
</g>
<g id="clust2" class="cluster">
<title>cluster_DropdownModule_declarations</title>
<polygon fill="none" stroke="black" points="254,-143 254,-195 880,-195 880,-143 254,-143"/>
</g>
<g id="clust3" class="cluster">
<title>cluster_DropdownModule_DropdownComponent_providers</title>
<polygon fill="none" stroke="black" points="450,-78 450,-130 880,-130 880,-78 450,-78"/>
</g>
<g id="clust4" class="cluster">
<title>cluster_DropdownModule_DropdownFocusHandlerDirective_providers</title>
<polygon fill="none" stroke="black" points="246,-78 246,-130 442,-130 442,-78 246,-78"/>
</g>
<g id="clust6" class="cluster">
<title>cluster_DropdownModule_imports</title>
<polygon fill="none" stroke="black" points="16,-143 16,-195 246,-195 246,-143 16,-143"/>
</g>
<g id="clust7" class="cluster">
<title>cluster_DropdownModule_exports</title>
<polygon fill="none" stroke="black" points="131,-273 131,-325 765,-325 765,-273 131,-273"/>
</g>
<!-- DropdownComponent -->
<g id="node1" class="node">
<title>DropdownComponent</title>
<polygon fill="#ffffb3" stroke="black" points="871.71,-187 730.29,-187 730.29,-151 871.71,-151 871.71,-187"/>
<text text-anchor="middle" x="801" y="-164.8" font-family="Times,serif" font-size="14.00">DropdownComponent</text>
</g>
<!-- DropdownModule -->
<g id="node4" class="node">
<title>DropdownModule</title>
<polygon fill="#8dd3c7" stroke="black" points="549.92,-252 546.92,-256 525.92,-256 522.92,-252 430.08,-252 430.08,-216 549.92,-216 549.92,-252"/>
<text text-anchor="middle" x="490" y="-229.8" font-family="Times,serif" font-size="14.00">DropdownModule</text>
</g>
<!-- DropdownComponent&#45;&gt;DropdownModule -->
<g id="edge1" class="edge">
<title>DropdownComponent&#45;&gt;DropdownModule</title>
<path fill="none" stroke="black" d="M743.88,-187.02C743.88,-204.37 743.88,-228 743.88,-228 743.88,-228 559.84,-228 559.84,-228"/>
<polygon fill="black" stroke="black" points="559.84,-224.5 549.84,-228 559.84,-231.5 559.84,-224.5"/>
</g>
<!-- DropdownFocusHandlerDirective -->
<g id="node2" class="node">
<title>DropdownFocusHandlerDirective</title>
<polygon fill="#ffffb3" stroke="black" points="712.49,-187 505.51,-187 505.51,-151 712.49,-151 712.49,-187"/>
<text text-anchor="middle" x="609" y="-164.8" font-family="Times,serif" font-size="14.00">DropdownFocusHandlerDirective</text>
</g>
<!-- DropdownFocusHandlerDirective&#45;&gt;DropdownModule -->
<g id="edge3" class="edge">
<title>DropdownFocusHandlerDirective&#45;&gt;DropdownModule</title>
<path fill="none" stroke="black" d="M527.73,-187.11C527.73,-187.11 527.73,-205.99 527.73,-205.99"/>
<polygon fill="black" stroke="black" points="524.23,-205.99 527.73,-215.99 531.23,-205.99 524.23,-205.99"/>
</g>
<!-- DynamicDropdownPositionDirective -->
<g id="node3" class="node">
<title>DynamicDropdownPositionDirective</title>
<polygon fill="#ffffb3" stroke="black" points="487.67,-187 262.33,-187 262.33,-151 487.67,-151 487.67,-187"/>
<text text-anchor="middle" x="375" y="-164.8" font-family="Times,serif" font-size="14.00">DynamicDropdownPositionDirective</text>
</g>
<!-- DynamicDropdownPositionDirective&#45;&gt;DropdownModule -->
<g id="edge5" class="edge">
<title>DynamicDropdownPositionDirective&#45;&gt;DropdownModule</title>
<path fill="none" stroke="black" d="M458.94,-187.11C458.94,-187.11 458.94,-205.99 458.94,-205.99"/>
<polygon fill="black" stroke="black" points="455.44,-205.99 458.94,-215.99 462.44,-205.99 455.44,-205.99"/>
</g>
<!-- DropdownComponent  -->
<g id="node8" class="node">
<title>DropdownComponent </title>
<polygon fill="#fb8072" stroke="black" points="757.21,-317 612.79,-317 612.79,-281 757.21,-281 757.21,-317"/>
<text text-anchor="middle" x="685" y="-294.8" font-family="Times,serif" font-size="14.00">DropdownComponent </text>
</g>
<!-- DropdownModule&#45;&gt;DropdownComponent  -->
<g id="edge7" class="edge">
<title>DropdownModule&#45;&gt;DropdownComponent </title>
<path fill="none" stroke="black" stroke-dasharray="5,2" d="M549.83,-240C599.64,-240 662.44,-240 662.44,-240 662.44,-240 662.44,-270.98 662.44,-270.98"/>
<polygon fill="black" stroke="black" points="658.94,-270.98 662.44,-280.98 665.94,-270.98 658.94,-270.98"/>
</g>
<!-- DropdownFocusHandlerDirective  -->
<g id="node9" class="node">
<title>DropdownFocusHandlerDirective </title>
<polygon fill="#fb8072" stroke="black" points="594.99,-317 385.01,-317 385.01,-281 594.99,-281 594.99,-317"/>
<text text-anchor="middle" x="490" y="-294.8" font-family="Times,serif" font-size="14.00">DropdownFocusHandlerDirective </text>
</g>
<!-- DropdownModule&#45;&gt;DropdownFocusHandlerDirective  -->
<g id="edge8" class="edge">
<title>DropdownModule&#45;&gt;DropdownFocusHandlerDirective </title>
<path fill="none" stroke="black" stroke-dasharray="5,2" d="M490,-252.11C490,-252.11 490,-270.99 490,-270.99"/>
<polygon fill="black" stroke="black" points="486.5,-270.99 490,-280.99 493.5,-270.99 486.5,-270.99"/>
</g>
<!-- DynamicDropdownPositionDirective  -->
<g id="node10" class="node">
<title>DynamicDropdownPositionDirective </title>
<polygon fill="#fb8072" stroke="black" points="367.17,-317 138.83,-317 138.83,-281 367.17,-281 367.17,-317"/>
<text text-anchor="middle" x="253" y="-294.8" font-family="Times,serif" font-size="14.00">DynamicDropdownPositionDirective </text>
</g>
<!-- DropdownModule&#45;&gt;DynamicDropdownPositionDirective  -->
<g id="edge9" class="edge">
<title>DropdownModule&#45;&gt;DynamicDropdownPositionDirective </title>
<path fill="none" stroke="black" stroke-dasharray="5,2" d="M430.22,-240C379.49,-240 314.88,-240 314.88,-240 314.88,-240 314.88,-270.98 314.88,-270.98"/>
<polygon fill="black" stroke="black" points="311.38,-270.98 314.88,-280.98 318.38,-270.98 311.38,-270.98"/>
</g>
<!-- DROPDOWN_FOCUS_HANDLER_PROVIDER -->
<g id="node5" class="node">
<title>DROPDOWN_FOCUS_HANDLER_PROVIDER</title>
<ellipse fill="#fdb462" stroke="black" cx="665" cy="-104" rx="206.65" ry="18"/>
<text text-anchor="middle" x="665" y="-99.8" font-family="Times,serif" font-size="14.00">DROPDOWN_FOCUS_HANDLER_PROVIDER</text>
</g>
<!-- DROPDOWN_FOCUS_HANDLER_PROVIDER&#45;&gt;DropdownComponent -->
<g id="edge2" class="edge">
<title>DROPDOWN_FOCUS_HANDLER_PROVIDER&#45;&gt;DropdownComponent</title>
<path fill="none" stroke="black" d="M801,-117.78C801,-117.78 801,-140.55 801,-140.55"/>
<polygon fill="black" stroke="black" points="797.5,-140.55 801,-150.55 804.5,-140.55 797.5,-140.55"/>
</g>
<!-- SubscriptionTracker -->
<g id="node6" class="node">
<title>SubscriptionTracker</title>
<ellipse fill="#fdb462" stroke="black" cx="344" cy="-104" rx="89.75" ry="18"/>
<text text-anchor="middle" x="344" y="-99.8" font-family="Times,serif" font-size="14.00">SubscriptionTracker</text>
</g>
<!-- SubscriptionTracker&#45;&gt;DropdownFocusHandlerDirective -->
<g id="edge4" class="edge">
<title>SubscriptionTracker&#45;&gt;DropdownFocusHandlerDirective</title>
<path fill="none" stroke="black" d="M348.14,-122.04C348.14,-129.75 348.14,-137 348.14,-137 348.14,-137 609,-137 609,-137 609,-137 609,-140.76 609,-140.76"/>
<polygon fill="black" stroke="black" points="605.5,-140.76 609,-150.76 612.5,-140.76 605.5,-140.76"/>
</g>
<!-- ShowClippedTextDirectiveModule -->
<g id="node7" class="node">
<title>ShowClippedTextDirectiveModule</title>
<polygon fill="#8dd3c7" stroke="black" points="237.51,-187 234.51,-191 213.51,-191 210.51,-187 24.49,-187 24.49,-151 237.51,-151 237.51,-187"/>
<text text-anchor="middle" x="131" y="-164.8" font-family="Times,serif" font-size="14.00">ShowClippedTextDirectiveModule</text>
</g>
<!-- ShowClippedTextDirectiveModule&#45;&gt;DropdownModule -->
<g id="edge6" class="edge">
<title>ShowClippedTextDirectiveModule&#45;&gt;DropdownModule</title>
<path fill="none" stroke="black" d="M188.21,-187.02C188.21,-204.37 188.21,-228 188.21,-228 188.21,-228 420.02,-228 420.02,-228"/>
<polygon fill="black" stroke="black" points="420.02,-231.5 430.02,-228 420.02,-224.5 420.02,-231.5"/>
</g>
</g>
</svg>
