<?xml version="1.0" encoding="UTF-8" standalone="no"?>
<!DOCTYPE svg PUBLIC "-//W3C//DTD SVG 1.1//EN"
 "http://www.w3.org/Graphics/SVG/1.1/DTD/svg11.dtd">
<!-- Generated by graphviz version 5.0.0 (20220707.1540)
 -->
<!-- Title: dependencies Pages: 1 -->
<svg width="904pt" height="247pt"
 viewBox="0.00 0.00 904.00 246.80" xmlns="http://www.w3.org/2000/svg" xmlns:xlink="http://www.w3.org/1999/xlink">
<g id="graph0" class="graph" transform="scale(1 1) rotate(0) translate(4 242.8)">
<title>dependencies</title>
<polygon fill="white" stroke="transparent" points="-4,4 -4,-242.8 900,-242.8 900,4 -4,4"/>
<text text-anchor="middle" x="448" y="-8.2" font-family="sans-serif" font-size="14.00">dependencies</text>
<g id="clust1" class="cluster">
<title>cluster_DropdownModule</title>
<polygon fill="none" stroke="black" stroke-dasharray="1,5" points="8,-32.8 8,-230.8 888,-230.8 888,-32.8 8,-32.8"/>
</g>
<g id="clust2" class="cluster">
<title>cluster_DropdownModule_declarations</title>
<polygon fill="none" stroke="black" points="254,-40.8 254,-92.8 880,-92.8 880,-40.8 254,-40.8"/>
</g>
<g id="clust7" class="cluster">
<title>cluster_DropdownModule_exports</title>
<polygon fill="none" stroke="black" points="131,-170.8 131,-222.8 765,-222.8 765,-170.8 131,-170.8"/>
</g>
<g id="clust6" class="cluster">
<title>cluster_DropdownModule_imports</title>
<polygon fill="none" stroke="black" points="16,-40.8 16,-92.8 246,-92.8 246,-40.8 16,-40.8"/>
</g>
<!-- DropdownComponent -->
<g id="node1" class="node">
<title>DropdownComponent</title>
<polygon fill="#ffffb3" stroke="black" points="871.71,-84.8 730.29,-84.8 730.29,-48.8 871.71,-48.8 871.71,-84.8"/>
<text text-anchor="middle" x="801" y="-62.6" font-family="Times,serif" font-size="14.00">DropdownComponent</text>
</g>
<!-- DropdownModule -->
<g id="node4" class="node">
<title>DropdownModule</title>
<polygon fill="#8dd3c7" stroke="black" points="549.94,-149.8 546.94,-153.8 525.94,-153.8 522.94,-149.8 430.06,-149.8 430.06,-113.8 549.94,-113.8 549.94,-149.8"/>
<text text-anchor="middle" x="490" y="-127.6" font-family="Times,serif" font-size="14.00">DropdownModule</text>
</g>
<!-- DropdownComponent&#45;&gt;DropdownModule -->
<g id="edge1" class="edge">
<title>DropdownComponent&#45;&gt;DropdownModule</title>
<path fill="none" stroke="black" d="M743.88,-84.82C743.88,-102.17 743.88,-125.8 743.88,-125.8 743.88,-125.8 559.84,-125.8 559.84,-125.8"/>
<polygon fill="black" stroke="black" points="559.84,-122.3 549.84,-125.8 559.84,-129.3 559.84,-122.3"/>
</g>
<!-- DropdownFocusHandlerDirective -->
<g id="node2" class="node">
<title>DropdownFocusHandlerDirective</title>
<polygon fill="#ffffb3" stroke="black" points="712,-84.8 506,-84.8 506,-48.8 712,-48.8 712,-84.8"/>
<text text-anchor="middle" x="609" y="-62.6" font-family="Times,serif" font-size="14.00">DropdownFocusHandlerDirective</text>
</g>
<!-- DropdownFocusHandlerDirective&#45;&gt;DropdownModule -->
<g id="edge2" class="edge">
<title>DropdownFocusHandlerDirective&#45;&gt;DropdownModule</title>
<path fill="none" stroke="black" d="M527.73,-84.91C527.73,-84.91 527.73,-103.79 527.73,-103.79"/>
<polygon fill="black" stroke="black" points="524.23,-103.79 527.73,-113.79 531.23,-103.79 524.23,-103.79"/>
</g>
<!-- DynamicDropdownPositionDirective -->
<g id="node3" class="node">
<title>DynamicDropdownPositionDirective</title>
<polygon fill="#ffffb3" stroke="black" points="487.69,-84.8 262.31,-84.8 262.31,-48.8 487.69,-48.8 487.69,-84.8"/>
<text text-anchor="middle" x="375" y="-62.6" font-family="Times,serif" font-size="14.00">DynamicDropdownPositionDirective</text>
</g>
<!-- DynamicDropdownPositionDirective&#45;&gt;DropdownModule -->
<g id="edge3" class="edge">
<title>DynamicDropdownPositionDirective&#45;&gt;DropdownModule</title>
<path fill="none" stroke="black" d="M458.94,-84.91C458.94,-84.91 458.94,-103.79 458.94,-103.79"/>
<polygon fill="black" stroke="black" points="455.44,-103.79 458.94,-113.79 462.44,-103.79 455.44,-103.79"/>
</g>
<!-- DropdownComponent  -->
<g id="node6" class="node">
<title>DropdownComponent </title>
<polygon fill="#fb8072" stroke="black" points="757.21,-214.8 612.79,-214.8 612.79,-178.8 757.21,-178.8 757.21,-214.8"/>
<text text-anchor="middle" x="685" y="-192.6" font-family="Times,serif" font-size="14.00">DropdownComponent </text>
</g>
<!-- DropdownModule&#45;&gt;DropdownComponent  -->
<g id="edge5" class="edge">
<title>DropdownModule&#45;&gt;DropdownComponent </title>
<path fill="none" stroke="black" stroke-dasharray="5,2" d="M549.83,-137.8C599.64,-137.8 662.45,-137.8 662.45,-137.8 662.45,-137.8 662.45,-168.78 662.45,-168.78"/>
<polygon fill="black" stroke="black" points="658.95,-168.78 662.45,-178.78 665.95,-168.78 658.95,-168.78"/>
</g>
<!-- DropdownFocusHandlerDirective  -->
<g id="node7" class="node">
<title>DropdownFocusHandlerDirective </title>
<polygon fill="#fb8072" stroke="black" points="595,-214.8 385,-214.8 385,-178.8 595,-178.8 595,-214.8"/>
<text text-anchor="middle" x="490" y="-192.6" font-family="Times,serif" font-size="14.00">DropdownFocusHandlerDirective </text>
</g>
<!-- DropdownModule&#45;&gt;DropdownFocusHandlerDirective  -->
<g id="edge6" class="edge">
<title>DropdownModule&#45;&gt;DropdownFocusHandlerDirective </title>
<path fill="none" stroke="black" stroke-dasharray="5,2" d="M490,-149.91C490,-149.91 490,-168.79 490,-168.79"/>
<polygon fill="black" stroke="black" points="486.5,-168.79 490,-178.79 493.5,-168.79 486.5,-168.79"/>
</g>
<!-- DynamicDropdownPositionDirective  -->
<g id="node8" class="node">
<title>DynamicDropdownPositionDirective </title>
<polygon fill="#fb8072" stroke="black" points="367.19,-214.8 138.81,-214.8 138.81,-178.8 367.19,-178.8 367.19,-214.8"/>
<text text-anchor="middle" x="253" y="-192.6" font-family="Times,serif" font-size="14.00">DynamicDropdownPositionDirective </text>
</g>
<!-- DropdownModule&#45;&gt;DynamicDropdownPositionDirective  -->
<g id="edge7" class="edge">
<title>DropdownModule&#45;&gt;DynamicDropdownPositionDirective </title>
<path fill="none" stroke="black" stroke-dasharray="5,2" d="M430.22,-137.8C379.49,-137.8 314.88,-137.8 314.88,-137.8 314.88,-137.8 314.88,-168.78 314.88,-168.78"/>
<polygon fill="black" stroke="black" points="311.38,-168.78 314.88,-178.78 318.38,-168.78 311.38,-168.78"/>
</g>
<!-- ShowClippedTextDirectiveModule -->
<g id="node5" class="node">
<title>ShowClippedTextDirectiveModule</title>
<polygon fill="#8dd3c7" stroke="black" points="237.52,-84.8 234.52,-88.8 213.52,-88.8 210.52,-84.8 24.48,-84.8 24.48,-48.8 237.52,-48.8 237.52,-84.8"/>
<text text-anchor="middle" x="131" y="-62.6" font-family="Times,serif" font-size="14.00">ShowClippedTextDirectiveModule</text>
</g>
<!-- ShowClippedTextDirectiveModule&#45;&gt;DropdownModule -->
<g id="edge4" class="edge">
<title>ShowClippedTextDirectiveModule&#45;&gt;DropdownModule</title>
<path fill="none" stroke="black" d="M188.21,-84.82C188.21,-102.17 188.21,-125.8 188.21,-125.8 188.21,-125.8 420.01,-125.8 420.01,-125.8"/>
<polygon fill="black" stroke="black" points="420.01,-129.3 430.01,-125.8 420.01,-122.3 420.01,-129.3"/>
</g>
</g>
</svg>
