<?xml version="1.0" encoding="UTF-8" standalone="no"?>
<!DOCTYPE svg PUBLIC "-//W3C//DTD SVG 1.1//EN"
 "http://www.w3.org/Graphics/SVG/1.1/DTD/svg11.dtd">
<!-- Generated by graphviz version 5.0.0 (20220707.1540)
 -->
<!-- Title: dependencies Pages: 1 -->
<svg width="903pt" height="312pt"
 viewBox="0.00 0.00 903.00 311.80" xmlns="http://www.w3.org/2000/svg" xmlns:xlink="http://www.w3.org/1999/xlink">
<g id="graph0" class="graph" transform="scale(1 1) rotate(0) translate(4 307.8)">
<title>dependencies</title>
<polygon fill="white" stroke="transparent" points="-4,4 -4,-307.8 899,-307.8 899,4 -4,4"/>
<text text-anchor="middle" x="447.5" y="-8.2" font-family="sans-serif" font-size="14.00">dependencies</text>
<g id="clust1" class="cluster">
<title>cluster_DropdownModule</title>
<polygon fill="none" stroke="black" stroke-dasharray="1,5" points="8,-32.8 8,-295.8 887,-295.8 887,-32.8 8,-32.8"/>
</g>
<g id="clust2" class="cluster">
<title>cluster_DropdownModule_declarations</title>
<polygon fill="none" stroke="black" points="16,-105.8 16,-157.8 641,-157.8 641,-105.8 16,-105.8"/>
</g>
<g id="clust4" class="cluster">
<title>cluster_DropdownModule_DropdownFocusHandlerDirective_providers</title>
<polygon fill="none" stroke="black" points="507,-40.8 507,-92.8 703,-92.8 703,-40.8 507,-40.8"/>
</g>
<g id="clust6" class="cluster">
<title>cluster_DropdownModule_imports</title>
<polygon fill="none" stroke="black" points="649,-105.8 649,-157.8 879,-157.8 879,-105.8 649,-105.8"/>
</g>
<g id="clust3" class="cluster">
<title>cluster_DropdownModule_DropdownComponent_providers</title>
<polygon fill="none" stroke="black" points="69,-40.8 69,-92.8 499,-92.8 499,-40.8 69,-40.8"/>
</g>
<g id="clust7" class="cluster">
<title>cluster_DropdownModule_exports</title>
<polygon fill="none" stroke="black" points="93,-235.8 93,-287.8 727,-287.8 727,-235.8 93,-235.8"/>
</g>
<!-- DropdownComponent -->
<g id="node1" class="node">
<title>DropdownComponent</title>
<polygon fill="#ffffb3" stroke="black" points="408.71,-149.8 267.29,-149.8 267.29,-113.8 408.71,-113.8 408.71,-149.8"/>
<text text-anchor="middle" x="338" y="-127.6" font-family="Times,serif" font-size="14.00">DropdownComponent</text>
</g>
<!-- DropdownModule -->
<g id="node4" class="node">
<title>DropdownModule</title>
<polygon fill="#8dd3c7" stroke="black" points="511.94,-214.8 508.94,-218.8 487.94,-218.8 484.94,-214.8 392.06,-214.8 392.06,-178.8 511.94,-178.8 511.94,-214.8"/>
<text text-anchor="middle" x="452" y="-192.6" font-family="Times,serif" font-size="14.00">DropdownModule</text>
</g>
<!-- DropdownComponent&#45;&gt;DropdownModule -->
<g id="edge1" class="edge">
<title>DropdownComponent&#45;&gt;DropdownModule</title>
<path fill="none" stroke="black" d="M400.44,-149.91C400.44,-149.91 400.44,-168.79 400.44,-168.79"/>
<polygon fill="black" stroke="black" points="396.94,-168.79 400.44,-178.79 403.94,-168.79 396.94,-168.79"/>
</g>
<!-- DropdownFocusHandlerDirective -->
<g id="node2" class="node">
<title>DropdownFocusHandlerDirective</title>
<polygon fill="#ffffb3" stroke="black" points="633,-149.8 427,-149.8 427,-113.8 633,-113.8 633,-149.8"/>
<text text-anchor="middle" x="530" y="-127.6" font-family="Times,serif" font-size="14.00">DropdownFocusHandlerDirective</text>
</g>
<!-- DropdownFocusHandlerDirective&#45;&gt;DropdownModule -->
<g id="edge3" class="edge">
<title>DropdownFocusHandlerDirective&#45;&gt;DropdownModule</title>
<path fill="none" stroke="black" d="M469.23,-149.91C469.23,-149.91 469.23,-168.79 469.23,-168.79"/>
<polygon fill="black" stroke="black" points="465.73,-168.79 469.23,-178.79 472.73,-168.79 465.73,-168.79"/>
</g>
<!-- DynamicDropdownPositionDirective -->
<g id="node3" class="node">
<title>DynamicDropdownPositionDirective</title>
<polygon fill="#ffffb3" stroke="black" points="249.69,-149.8 24.31,-149.8 24.31,-113.8 249.69,-113.8 249.69,-149.8"/>
<text text-anchor="middle" x="137" y="-127.6" font-family="Times,serif" font-size="14.00">DynamicDropdownPositionDirective</text>
</g>
<!-- DynamicDropdownPositionDirective&#45;&gt;DropdownModule -->
<g id="edge5" class="edge">
<title>DynamicDropdownPositionDirective&#45;&gt;DropdownModule</title>
<path fill="none" stroke="black" d="M175.12,-149.82C175.12,-167.17 175.12,-190.8 175.12,-190.8 175.12,-190.8 382.26,-190.8 382.26,-190.8"/>
<polygon fill="black" stroke="black" points="382.26,-194.3 392.26,-190.8 382.26,-187.3 382.26,-194.3"/>
</g>
<!-- DropdownComponent  -->
<g id="node8" class="node">
<title>DropdownComponent </title>
<polygon fill="#fb8072" stroke="black" points="719.21,-279.8 574.79,-279.8 574.79,-243.8 719.21,-243.8 719.21,-279.8"/>
<text text-anchor="middle" x="647" y="-257.6" font-family="Times,serif" font-size="14.00">DropdownComponent </text>
</g>
<!-- DropdownModule&#45;&gt;DropdownComponent  -->
<g id="edge7" class="edge">
<title>DropdownModule&#45;&gt;DropdownComponent </title>
<path fill="none" stroke="black" stroke-dasharray="5,2" d="M512.05,-202.8C554.53,-202.8 603.95,-202.8 603.95,-202.8 603.95,-202.8 603.95,-233.78 603.95,-233.78"/>
<polygon fill="black" stroke="black" points="600.45,-233.78 603.95,-243.78 607.45,-233.78 600.45,-233.78"/>
</g>
<!-- DropdownFocusHandlerDirective  -->
<g id="node9" class="node">
<title>DropdownFocusHandlerDirective </title>
<polygon fill="#fb8072" stroke="black" points="557,-279.8 347,-279.8 347,-243.8 557,-243.8 557,-279.8"/>
<text text-anchor="middle" x="452" y="-257.6" font-family="Times,serif" font-size="14.00">DropdownFocusHandlerDirective </text>
</g>
<!-- DropdownModule&#45;&gt;DropdownFocusHandlerDirective  -->
<g id="edge8" class="edge">
<title>DropdownModule&#45;&gt;DropdownFocusHandlerDirective </title>
<path fill="none" stroke="black" stroke-dasharray="5,2" d="M452,-214.91C452,-214.91 452,-233.79 452,-233.79"/>
<polygon fill="black" stroke="black" points="448.5,-233.79 452,-243.79 455.5,-233.79 448.5,-233.79"/>
</g>
<!-- DynamicDropdownPositionDirective  -->
<g id="node10" class="node">
<title>DynamicDropdownPositionDirective </title>
<polygon fill="#fb8072" stroke="black" points="329.19,-279.8 100.81,-279.8 100.81,-243.8 329.19,-243.8 329.19,-279.8"/>
<text text-anchor="middle" x="215" y="-257.6" font-family="Times,serif" font-size="14.00">DynamicDropdownPositionDirective </text>
</g>
<!-- DropdownModule&#45;&gt;DynamicDropdownPositionDirective  -->
<g id="edge9" class="edge">
<title>DropdownModule&#45;&gt;DynamicDropdownPositionDirective </title>
<path fill="none" stroke="black" stroke-dasharray="5,2" d="M392.16,-202.8C349.02,-202.8 298.37,-202.8 298.37,-202.8 298.37,-202.8 298.37,-233.78 298.37,-233.78"/>
<polygon fill="black" stroke="black" points="294.87,-233.78 298.37,-243.78 301.87,-233.78 294.87,-233.78"/>
</g>
<!-- DROPDOWN_FOCUS_HANDLER_PROVIDER -->
<g id="node5" class="node">
<title>DROPDOWN_FOCUS_HANDLER_PROVIDER</title>
<ellipse fill="#fdb462" stroke="black" cx="284" cy="-66.8" rx="206.75" ry="18"/>
<text text-anchor="middle" x="284" y="-62.6" font-family="Times,serif" font-size="14.00">DROPDOWN_FOCUS_HANDLER_PROVIDER</text>
</g>
<!-- DROPDOWN_FOCUS_HANDLER_PROVIDER&#45;&gt;DropdownComponent -->
<g id="edge2" class="edge">
<title>DROPDOWN_FOCUS_HANDLER_PROVIDER&#45;&gt;DropdownComponent</title>
<path fill="none" stroke="black" d="M338,-84.22C338,-84.22 338,-103.42 338,-103.42"/>
<polygon fill="black" stroke="black" points="334.5,-103.42 338,-113.42 341.5,-103.42 334.5,-103.42"/>
</g>
<!-- SubscriptionTracker -->
<g id="node6" class="node">
<title>SubscriptionTracker</title>
<ellipse fill="#fdb462" stroke="black" cx="605" cy="-66.8" rx="89.75" ry="18"/>
<text text-anchor="middle" x="605" y="-62.6" font-family="Times,serif" font-size="14.00">SubscriptionTracker</text>
</g>
<!-- SubscriptionTracker&#45;&gt;DropdownFocusHandlerDirective -->
<g id="edge4" class="edge">
<title>SubscriptionTracker&#45;&gt;DropdownFocusHandlerDirective</title>
<path fill="none" stroke="black" d="M574.19,-83.88C574.19,-83.88 574.19,-103.7 574.19,-103.7"/>
<polygon fill="black" stroke="black" points="570.69,-103.7 574.19,-113.7 577.69,-103.7 570.69,-103.7"/>
</g>
<!-- ShowClippedTextDirectiveModule -->
<g id="node7" class="node">
<title>ShowClippedTextDirectiveModule</title>
<polygon fill="#8dd3c7" stroke="black" points="870.52,-149.8 867.52,-153.8 846.52,-153.8 843.52,-149.8 657.48,-149.8 657.48,-113.8 870.52,-113.8 870.52,-149.8"/>
<text text-anchor="middle" x="764" y="-127.6" font-family="Times,serif" font-size="14.00">ShowClippedTextDirectiveModule</text>
</g>
<!-- ShowClippedTextDirectiveModule&#45;&gt;DropdownModule -->
<g id="edge6" class="edge">
<title>ShowClippedTextDirectiveModule&#45;&gt;DropdownModule</title>
<path fill="none" stroke="black" d="M688.3,-149.82C688.3,-167.17 688.3,-190.8 688.3,-190.8 688.3,-190.8 521.93,-190.8 521.93,-190.8"/>
<polygon fill="black" stroke="black" points="521.93,-187.3 511.93,-190.8 521.93,-194.3 521.93,-187.3"/>
</g>
</g>
</svg>
