<?xml version="1.0" encoding="UTF-8" standalone="no"?>
<!DOCTYPE svg PUBLIC "-//W3C//DTD SVG 1.1//EN"
 "http://www.w3.org/Graphics/SVG/1.1/DTD/svg11.dtd">
<!-- Generated by graphviz version 2.40.1 (20161225.0304)
 -->
<!-- Title: dependencies Pages: 1 -->
<svg width="679pt" height="284pt"
 viewBox="0.00 0.00 679.00 284.00" xmlns="http://www.w3.org/2000/svg" xmlns:xlink="http://www.w3.org/1999/xlink">
<g id="graph0" class="graph" transform="scale(1 1) rotate(0) translate(4 280)">
<title>dependencies</title>
<polygon fill="#ffffff" stroke="transparent" points="-4,4 -4,-280 675,-280 675,4 -4,4"/>
<text text-anchor="start" x="314.5091" y="-42.4" font-family="sans-serif" font-weight="bold" font-size="14.00" fill="#000000">Legend</text>
<polygon fill="#ffffb3" stroke="transparent" points="101.5,-10 101.5,-30 121.5,-30 121.5,-10 101.5,-10"/>
<text text-anchor="start" x="125.129" y="-15.4" font-family="sans-serif" font-size="14.00" fill="#000000"> &#160;Declarations</text>
<polygon fill="#8dd3c7" stroke="transparent" points="214.5,-10 214.5,-30 234.5,-30 234.5,-10 214.5,-10"/>
<text text-anchor="start" x="238.2251" y="-15.4" font-family="sans-serif" font-size="14.00" fill="#000000"> &#160;Module</text>
<polygon fill="#80b1d3" stroke="transparent" points="300.5,-10 300.5,-30 320.5,-30 320.5,-10 300.5,-10"/>
<text text-anchor="start" x="324.2812" y="-15.4" font-family="sans-serif" font-size="14.00" fill="#000000"> &#160;Bootstrap</text>
<polygon fill="#fdb462" stroke="transparent" points="397.5,-10 397.5,-30 417.5,-30 417.5,-10 397.5,-10"/>
<text text-anchor="start" x="421.1732" y="-15.4" font-family="sans-serif" font-size="14.00" fill="#000000"> &#160;Providers</text>
<polygon fill="#fb8072" stroke="transparent" points="493.5,-10 493.5,-30 513.5,-30 513.5,-10 493.5,-10"/>
<text text-anchor="start" x="517.2258" y="-15.4" font-family="sans-serif" font-size="14.00" fill="#000000"> &#160;Exports</text>
<g id="clust1" class="cluster">
<title>cluster_DropdownModule</title>
<polygon fill="none" stroke="#000000" stroke-dasharray="1,5" points="8,-70 8,-268 663,-268 663,-70 8,-70"/>
</g>
<g id="clust2" class="cluster">
<title>cluster_DropdownModule_declarations</title>
<polygon fill="none" stroke="#000000" points="254,-78 254,-130 655,-130 655,-78 254,-78"/>
</g>
<g id="clust5" class="cluster">
<title>cluster_DropdownModule_imports</title>
<polygon fill="none" stroke="#000000" points="16,-78 16,-130 246,-130 246,-78 16,-78"/>
</g>
<g id="clust6" class="cluster">
<title>cluster_DropdownModule_exports</title>
<polygon fill="none" stroke="#000000" points="148,-208 148,-260 555,-260 555,-208 148,-208"/>
</g>
<!-- DropdownComponent -->
<g id="node1" class="node">
<title>DropdownComponent</title>
<polygon fill="#ffffb3" stroke="#000000" points="646.7064,-122 505.2936,-122 505.2936,-86 646.7064,-86 646.7064,-122"/>
<text text-anchor="middle" x="576" y="-99.8" font-family="Times,serif" font-size="14.00" fill="#000000">DropdownComponent</text>
</g>
<!-- DropdownModule -->
<g id="node3" class="node">
<title>DropdownModule</title>
<polygon fill="#8dd3c7" stroke="#000000" points="434.9244,-187 431.9244,-191 410.9244,-191 407.9244,-187 315.0756,-187 315.0756,-151 434.9244,-151 434.9244,-187"/>
<text text-anchor="middle" x="375" y="-164.8" font-family="Times,serif" font-size="14.00" fill="#000000">DropdownModule</text>
</g>
<!-- DropdownComponent&#45;&gt;DropdownModule -->
<g id="edge1" class="edge">
<title>DropdownComponent&#45;&gt;DropdownModule</title>
<path fill="none" stroke="#000000" d="M526.375,-122.1061C526.375,-141.3391 526.375,-169 526.375,-169 526.375,-169 444.8274,-169 444.8274,-169"/>
<polygon fill="#000000" stroke="#000000" points="444.8274,-165.5001 434.8274,-169 444.8274,-172.5001 444.8274,-165.5001"/>
</g>
<!-- DynamicDropdownPositionDirective -->
<g id="node2" class="node">
<title>DynamicDropdownPositionDirective</title>
<polygon fill="#ffffb3" stroke="#000000" points="487.6727,-122 262.3273,-122 262.3273,-86 487.6727,-86 487.6727,-122"/>
<text text-anchor="middle" x="375" y="-99.8" font-family="Times,serif" font-size="14.00" fill="#000000">DynamicDropdownPositionDirective</text>
</g>
<!-- DynamicDropdownPositionDirective&#45;&gt;DropdownModule -->
<g id="edge2" class="edge">
<title>DynamicDropdownPositionDirective&#45;&gt;DropdownModule</title>
<path fill="none" stroke="#000000" d="M375,-122.1061C375,-122.1061 375,-140.991 375,-140.991"/>
<polygon fill="#000000" stroke="#000000" points="371.5001,-140.9909 375,-150.991 378.5001,-140.991 371.5001,-140.9909"/>
</g>
<!-- DropdownComponent  -->
<g id="node5" class="node">
<title>DropdownComponent </title>
<polygon fill="#fb8072" stroke="#000000" points="547.2065,-252 402.7935,-252 402.7935,-216 547.2065,-216 547.2065,-252"/>
<text text-anchor="middle" x="475" y="-229.8" font-family="Times,serif" font-size="14.00" fill="#000000">DropdownComponent </text>
</g>
<!-- DropdownModule&#45;&gt;DropdownComponent  -->
<g id="edge4" class="edge">
<title>DropdownModule&#45;&gt;DropdownComponent </title>
<path fill="none" stroke="#000000" stroke-dasharray="5,2" d="M418.6794,-187.1061C418.6794,-187.1061 418.6794,-205.991 418.6794,-205.991"/>
<polygon fill="#000000" stroke="#000000" points="415.1794,-205.9909 418.6794,-215.991 422.1794,-205.991 415.1794,-205.9909"/>
</g>
<!-- DynamicDropdownPositionDirective  -->
<g id="node6" class="node">
<title>DynamicDropdownPositionDirective </title>
<polygon fill="#fb8072" stroke="#000000" points="384.1728,-252 155.8272,-252 155.8272,-216 384.1728,-216 384.1728,-252"/>
<text text-anchor="middle" x="270" y="-229.8" font-family="Times,serif" font-size="14.00" fill="#000000">DynamicDropdownPositionDirective </text>
</g>
<!-- DropdownModule&#45;&gt;DynamicDropdownPositionDirective  -->
<g id="edge5" class="edge">
<title>DropdownModule&#45;&gt;DynamicDropdownPositionDirective </title>
<path fill="none" stroke="#000000" stroke-dasharray="5,2" d="M349.8123,-187.1061C349.8123,-187.1061 349.8123,-205.991 349.8123,-205.991"/>
<polygon fill="#000000" stroke="#000000" points="346.3123,-205.9909 349.8123,-215.991 353.3123,-205.991 346.3123,-205.9909"/>
</g>
<!-- ShowClippedTextDirectiveModule -->
<g id="node4" class="node">
<title>ShowClippedTextDirectiveModule</title>
<polygon fill="#8dd3c7" stroke="#000000" points="237.5126,-122 234.5126,-126 213.5126,-126 210.5126,-122 24.4874,-122 24.4874,-86 237.5126,-86 237.5126,-122"/>
<text text-anchor="middle" x="131" y="-99.8" font-family="Times,serif" font-size="14.00" fill="#000000">ShowClippedTextDirectiveModule</text>
</g>
<!-- ShowClippedTextDirectiveModule&#45;&gt;DropdownModule -->
<g id="edge3" class="edge">
<title>ShowClippedTextDirectiveModule&#45;&gt;DropdownModule</title>
<path fill="none" stroke="#000000" d="M196.7099,-122.1061C196.7099,-141.3391 196.7099,-169 196.7099,-169 196.7099,-169 305.136,-169 305.136,-169"/>
<polygon fill="#000000" stroke="#000000" points="305.136,-172.5001 315.136,-169 305.1359,-165.5001 305.136,-172.5001"/>
</g>
</g>
</svg>
