<?xml version="1.0" encoding="UTF-8" standalone="no"?>
<!DOCTYPE svg PUBLIC "-//W3C//DTD SVG 1.1//EN"
 "http://www.w3.org/Graphics/SVG/1.1/DTD/svg11.dtd">
<!-- Generated by graphviz version 5.0.0 (20220707.1540)
 -->
<!-- Title: dependencies Pages: 1 -->
<svg width="1188pt" height="312pt"
 viewBox="0.00 0.00 1188.00 311.80" xmlns="http://www.w3.org/2000/svg" xmlns:xlink="http://www.w3.org/1999/xlink">
<g id="graph0" class="graph" transform="scale(1 1) rotate(0) translate(4 307.8)">
<title>dependencies</title>
<polygon fill="white" stroke="transparent" points="-4,4 -4,-307.8 1184,-307.8 1184,4 -4,4"/>
<text text-anchor="middle" x="590" y="-8.2" font-family="sans-serif" font-size="14.00">dependencies</text>
<g id="clust1" class="cluster">
<title>cluster_DropdownModule</title>
<polygon fill="none" stroke="black" stroke-dasharray="1,5" points="8,-32.8 8,-295.8 1172,-295.8 1172,-32.8 8,-32.8"/>
</g>
<g id="clust3" class="cluster">
<title>cluster_DropdownModule_DropdownComponent_providers</title>
<polygon fill="none" stroke="black" points="734,-40.8 734,-157.8 1164,-157.8 1164,-40.8 734,-40.8"/>
</g>
<g id="clust7" class="cluster">
<title>cluster_DropdownModule_exports</title>
<polygon fill="none" stroke="black" points="139,-235.8 139,-287.8 773,-287.8 773,-235.8 139,-235.8"/>
</g>
<g id="clust4" class="cluster">
<title>cluster_DropdownModule_DropdownFocusHandlerDirective_providers</title>
<polygon fill="none" stroke="black" points="504,-40.8 504,-157.8 726,-157.8 726,-40.8 504,-40.8"/>
</g>
<g id="clust6" class="cluster">
<title>cluster_DropdownModule_imports</title>
<polygon fill="none" stroke="black" points="266,-105.8 266,-157.8 496,-157.8 496,-105.8 266,-105.8"/>
</g>
<g id="clust2" class="cluster">
<title>cluster_DropdownModule_declarations</title>
<polygon fill="none" stroke="black" points="16,-105.8 16,-157.8 258,-157.8 258,-105.8 16,-105.8"/>
</g>
<!-- DropdownComponent -->
<g id="node1" class="node">
<title>DropdownComponent</title>
<polygon fill="#ffffb3" stroke="black" points="951.71,-149.8 810.29,-149.8 810.29,-113.8 951.71,-113.8 951.71,-149.8"/>
<text text-anchor="middle" x="881" y="-127.6" font-family="Times,serif" font-size="14.00">DropdownComponent</text>
</g>
<!-- DropdownModule -->
<g id="node4" class="node">
<title>DropdownModule</title>
<polygon fill="#8dd3c7" stroke="black" points="557.94,-214.8 554.94,-218.8 533.94,-218.8 530.94,-214.8 438.06,-214.8 438.06,-178.8 557.94,-178.8 557.94,-214.8"/>
<text text-anchor="middle" x="498" y="-192.6" font-family="Times,serif" font-size="14.00">DropdownModule</text>
</g>
<!-- DropdownComponent&#45;&gt;DropdownModule -->
<g id="edge1" class="edge">
<title>DropdownComponent&#45;&gt;DropdownModule</title>
<path fill="none" stroke="black" d="M881,-149.82C881,-167.17 881,-190.8 881,-190.8 881,-190.8 567.84,-190.8 567.84,-190.8"/>
<polygon fill="black" stroke="black" points="567.84,-187.3 557.84,-190.8 567.84,-194.3 567.84,-187.3"/>
</g>
<!-- DropdownFocusHandlerDirective -->
<g id="node2" class="node">
<title>DropdownFocusHandlerDirective</title>
<polygon fill="#ffffb3" stroke="black" points="718,-149.8 512,-149.8 512,-113.8 718,-113.8 718,-149.8"/>
<text text-anchor="middle" x="615" y="-127.6" font-family="Times,serif" font-size="14.00">DropdownFocusHandlerDirective</text>
</g>
<!-- DropdownFocusHandlerDirective&#45;&gt;DropdownModule -->
<g id="edge3" class="edge">
<title>DropdownFocusHandlerDirective&#45;&gt;DropdownModule</title>
<path fill="none" stroke="black" d="M534.73,-149.91C534.73,-149.91 534.73,-168.79 534.73,-168.79"/>
<polygon fill="black" stroke="black" points="531.23,-168.79 534.73,-178.79 538.23,-168.79 531.23,-168.79"/>
</g>
<!-- DynamicDropdownPositionDirective -->
<g id="node3" class="node">
<title>DynamicDropdownPositionDirective</title>
<polygon fill="#ffffb3" stroke="black" points="249.69,-149.8 24.31,-149.8 24.31,-113.8 249.69,-113.8 249.69,-149.8"/>
<text text-anchor="middle" x="137" y="-127.6" font-family="Times,serif" font-size="14.00">DynamicDropdownPositionDirective</text>
</g>
<!-- DynamicDropdownPositionDirective&#45;&gt;DropdownModule -->
<g id="edge5" class="edge">
<title>DynamicDropdownPositionDirective&#45;&gt;DropdownModule</title>
<path fill="none" stroke="black" d="M198.12,-149.82C198.12,-167.17 198.12,-190.8 198.12,-190.8 198.12,-190.8 428.04,-190.8 428.04,-190.8"/>
<polygon fill="black" stroke="black" points="428.04,-194.3 438.04,-190.8 428.04,-187.3 428.04,-194.3"/>
</g>
<!-- DropdownComponent  -->
<g id="node8" class="node">
<title>DropdownComponent </title>
<polygon fill="#fb8072" stroke="black" points="765.21,-279.8 620.79,-279.8 620.79,-243.8 765.21,-243.8 765.21,-279.8"/>
<text text-anchor="middle" x="693" y="-257.6" font-family="Times,serif" font-size="14.00">DropdownComponent </text>
</g>
<!-- DropdownModule&#45;&gt;DropdownComponent  -->
<g id="edge7" class="edge">
<title>DropdownModule&#45;&gt;DropdownComponent </title>
<path fill="none" stroke="black" stroke-dasharray="5,2" d="M557.96,-202.8C607.4,-202.8 669.45,-202.8 669.45,-202.8 669.45,-202.8 669.45,-233.78 669.45,-233.78"/>
<polygon fill="black" stroke="black" points="665.95,-233.78 669.45,-243.78 672.95,-233.78 665.95,-233.78"/>
</g>
<!-- DropdownFocusHandlerDirective  -->
<g id="node9" class="node">
<title>DropdownFocusHandlerDirective </title>
<polygon fill="#fb8072" stroke="black" points="603,-279.8 393,-279.8 393,-243.8 603,-243.8 603,-279.8"/>
<text text-anchor="middle" x="498" y="-257.6" font-family="Times,serif" font-size="14.00">DropdownFocusHandlerDirective </text>
</g>
<!-- DropdownModule&#45;&gt;DropdownFocusHandlerDirective  -->
<g id="edge8" class="edge">
<title>DropdownModule&#45;&gt;DropdownFocusHandlerDirective </title>
<path fill="none" stroke="black" stroke-dasharray="5,2" d="M498,-214.91C498,-214.91 498,-233.79 498,-233.79"/>
<polygon fill="black" stroke="black" points="494.5,-233.79 498,-243.79 501.5,-233.79 494.5,-233.79"/>
</g>
<!-- DynamicDropdownPositionDirective  -->
<g id="node10" class="node">
<title>DynamicDropdownPositionDirective </title>
<polygon fill="#fb8072" stroke="black" points="375.19,-279.8 146.81,-279.8 146.81,-243.8 375.19,-243.8 375.19,-279.8"/>
<text text-anchor="middle" x="261" y="-257.6" font-family="Times,serif" font-size="14.00">DynamicDropdownPositionDirective </text>
</g>
<!-- DropdownModule&#45;&gt;DynamicDropdownPositionDirective  -->
<g id="edge9" class="edge">
<title>DropdownModule&#45;&gt;DynamicDropdownPositionDirective </title>
<path fill="none" stroke="black" stroke-dasharray="5,2" d="M437.91,-202.8C387.88,-202.8 324.79,-202.8 324.79,-202.8 324.79,-202.8 324.79,-233.78 324.79,-233.78"/>
<polygon fill="black" stroke="black" points="321.29,-233.78 324.79,-243.78 328.29,-233.78 321.29,-233.78"/>
</g>
<!-- DROPDOWN_FOCUS_HANDLER_PROVIDER -->
<g id="node5" class="node">
<title>DROPDOWN_FOCUS_HANDLER_PROVIDER</title>
<ellipse fill="#fdb462" stroke="black" cx="949" cy="-66.8" rx="206.75" ry="18"/>
<text text-anchor="middle" x="949" y="-62.6" font-family="Times,serif" font-size="14.00">DROPDOWN_FOCUS_HANDLER_PROVIDER</text>
</g>
<!-- DROPDOWN_FOCUS_HANDLER_PROVIDER&#45;&gt;DropdownComponent -->
<g id="edge2" class="edge">
<title>DROPDOWN_FOCUS_HANDLER_PROVIDER&#45;&gt;DropdownComponent</title>
<path fill="none" stroke="black" d="M881,-83.88C881,-83.88 881,-103.7 881,-103.7"/>
<polygon fill="black" stroke="black" points="877.5,-103.7 881,-113.7 884.5,-103.7 877.5,-103.7"/>
</g>
<!-- SubscriptionTracker -->
<g id="node6" class="node">
<title>SubscriptionTracker</title>
<ellipse fill="#fdb462" stroke="black" cx="615" cy="-66.8" rx="89.75" ry="18"/>
<text text-anchor="middle" x="615" y="-62.6" font-family="Times,serif" font-size="14.00">SubscriptionTracker</text>
</g>
<!-- SubscriptionTracker&#45;&gt;DropdownFocusHandlerDirective -->
<g id="edge4" class="edge">
<title>SubscriptionTracker&#45;&gt;DropdownFocusHandlerDirective</title>
<path fill="none" stroke="black" d="M615,-84.91C615,-84.91 615,-103.79 615,-103.79"/>
<polygon fill="black" stroke="black" points="611.5,-103.79 615,-113.79 618.5,-103.79 611.5,-103.79"/>
</g>
<!-- ShowClippedTextDirectiveModule -->
<g id="node7" class="node">
<title>ShowClippedTextDirectiveModule</title>
<polygon fill="#8dd3c7" stroke="black" points="487.52,-149.8 484.52,-153.8 463.52,-153.8 460.52,-149.8 274.48,-149.8 274.48,-113.8 487.52,-113.8 487.52,-149.8"/>
<text text-anchor="middle" x="381" y="-127.6" font-family="Times,serif" font-size="14.00">ShowClippedTextDirectiveModule</text>
</g>
<!-- ShowClippedTextDirectiveModule&#45;&gt;DropdownModule -->
<g id="edge6" class="edge">
<title>ShowClippedTextDirectiveModule&#45;&gt;DropdownModule</title>
<path fill="none" stroke="black" d="M463.02,-149.91C463.02,-149.91 463.02,-168.79 463.02,-168.79"/>
<polygon fill="black" stroke="black" points="459.52,-168.79 463.02,-178.79 466.52,-168.79 459.52,-168.79"/>
</g>
</g>
</svg>
