<?xml version="1.0" encoding="UTF-8" standalone="no"?>
<!DOCTYPE svg PUBLIC "-//W3C//DTD SVG 1.1//EN"
 "http://www.w3.org/Graphics/SVG/1.1/DTD/svg11.dtd">
<!-- Generated by graphviz version 2.47.3 (20210619.1520)
 -->
<!-- Title: dependencies Pages: 1 -->
<svg width="1182pt" height="312pt"
 viewBox="0.00 0.00 1182.00 311.80" xmlns="http://www.w3.org/2000/svg" xmlns:xlink="http://www.w3.org/1999/xlink">
<g id="graph0" class="graph" transform="scale(1 1) rotate(0) translate(4 307.8)">
<title>dependencies</title>
<polygon fill="white" stroke="transparent" points="-4,4 -4,-307.8 1178,-307.8 1178,4 -4,4"/>
<text text-anchor="middle" x="587" y="-8.2" font-family="sans-serif" font-size="14.00">dependencies</text>
<g id="clust1" class="cluster">
<title>cluster_DropdownModule</title>
<polygon fill="none" stroke="black" stroke-dasharray="1,5" points="8,-32.8 8,-295.8 1166,-295.8 1166,-32.8 8,-32.8"/>
</g>
<g id="clust7" class="cluster">
<title>cluster_DropdownModule_exports</title>
<polygon fill="none" stroke="black" points="131,-235.8 131,-287.8 765,-287.8 765,-235.8 131,-235.8"/>
</g>
<g id="clust3" class="cluster">
<title>cluster_DropdownModule_DropdownComponent_providers</title>
<polygon fill="none" stroke="black" points="728,-40.8 728,-157.8 1158,-157.8 1158,-40.8 728,-40.8"/>
</g>
<g id="clust6" class="cluster">
<title>cluster_DropdownModule_imports</title>
<polygon fill="none" stroke="black" points="490,-105.8 490,-157.8 720,-157.8 720,-105.8 490,-105.8"/>
</g>
<g id="clust2" class="cluster">
<title>cluster_DropdownModule_declarations</title>
<polygon fill="none" stroke="black" points="16,-105.8 16,-157.8 482,-157.8 482,-105.8 16,-105.8"/>
</g>
<g id="clust4" class="cluster">
<title>cluster_DropdownModule_DropdownFocusHandlerDirective_providers</title>
<polygon fill="none" stroke="black" points="273,-40.8 273,-92.8 469,-92.8 469,-40.8 273,-40.8"/>
</g>
<!-- DropdownComponent -->
<g id="node1" class="node">
<title>DropdownComponent</title>
<polygon fill="#ffffb3" stroke="black" points="945.71,-149.8 804.29,-149.8 804.29,-113.8 945.71,-113.8 945.71,-149.8"/>
<text text-anchor="middle" x="875" y="-127.6" font-family="Times,serif" font-size="14.00">DropdownComponent</text>
</g>
<!-- DropdownModule -->
<g id="node4" class="node">
<title>DropdownModule</title>
<polygon fill="#8dd3c7" stroke="black" points="549.92,-214.8 546.92,-218.8 525.92,-218.8 522.92,-214.8 430.08,-214.8 430.08,-178.8 549.92,-178.8 549.92,-214.8"/>
<text text-anchor="middle" x="490" y="-192.6" font-family="Times,serif" font-size="14.00">DropdownModule</text>
</g>
<!-- DropdownComponent&#45;&gt;DropdownModule -->
<g id="edge1" class="edge">
<title>DropdownComponent&#45;&gt;DropdownModule</title>
<path fill="none" stroke="black" d="M875,-149.82C875,-167.17 875,-190.8 875,-190.8 875,-190.8 559.73,-190.8 559.73,-190.8"/>
<polygon fill="black" stroke="black" points="559.73,-187.3 549.73,-190.8 559.73,-194.3 559.73,-187.3"/>
</g>
<!-- DropdownFocusHandlerDirective -->
<g id="node2" class="node">
<title>DropdownFocusHandlerDirective</title>
<polygon fill="#ffffb3" stroke="black" points="474.49,-149.8 267.51,-149.8 267.51,-113.8 474.49,-113.8 474.49,-149.8"/>
<text text-anchor="middle" x="371" y="-127.6" font-family="Times,serif" font-size="14.00">DropdownFocusHandlerDirective</text>
</g>
<!-- DropdownFocusHandlerDirective&#45;&gt;DropdownModule -->
<g id="edge3" class="edge">
<title>DropdownFocusHandlerDirective&#45;&gt;DropdownModule</title>
<path fill="none" stroke="black" d="M452.27,-149.91C452.27,-149.91 452.27,-168.79 452.27,-168.79"/>
<polygon fill="black" stroke="black" points="448.77,-168.79 452.27,-178.79 455.77,-168.79 448.77,-168.79"/>
</g>
<!-- DynamicDropdownPositionDirective -->
<g id="node3" class="node">
<title>DynamicDropdownPositionDirective</title>
<polygon fill="#ffffb3" stroke="black" points="249.67,-149.8 24.33,-149.8 24.33,-113.8 249.67,-113.8 249.67,-149.8"/>
<text text-anchor="middle" x="137" y="-127.6" font-family="Times,serif" font-size="14.00">DynamicDropdownPositionDirective</text>
</g>
<!-- DynamicDropdownPositionDirective&#45;&gt;DropdownModule -->
<g id="edge5" class="edge">
<title>DynamicDropdownPositionDirective&#45;&gt;DropdownModule</title>
<path fill="none" stroke="black" d="M194.12,-149.82C194.12,-167.17 194.12,-190.8 194.12,-190.8 194.12,-190.8 420.13,-190.8 420.13,-190.8"/>
<polygon fill="black" stroke="black" points="420.13,-194.3 430.13,-190.8 420.13,-187.3 420.13,-194.3"/>
</g>
<!-- DropdownComponent  -->
<g id="node8" class="node">
<title>DropdownComponent </title>
<polygon fill="#fb8072" stroke="black" points="757.21,-279.8 612.79,-279.8 612.79,-243.8 757.21,-243.8 757.21,-279.8"/>
<text text-anchor="middle" x="685" y="-257.6" font-family="Times,serif" font-size="14.00">DropdownComponent </text>
</g>
<!-- DropdownModule&#45;&gt;DropdownComponent  -->
<g id="edge7" class="edge">
<title>DropdownModule&#45;&gt;DropdownComponent </title>
<path fill="none" stroke="black" stroke-dasharray="5,2" d="M549.74,-202.8C599.48,-202.8 662.2,-202.8 662.2,-202.8 662.2,-202.8 662.2,-233.78 662.2,-233.78"/>
<polygon fill="black" stroke="black" points="658.7,-233.78 662.2,-243.78 665.7,-233.78 658.7,-233.78"/>
</g>
<!-- DropdownFocusHandlerDirective  -->
<g id="node9" class="node">
<title>DropdownFocusHandlerDirective </title>
<polygon fill="#fb8072" stroke="black" points="594.99,-279.8 385.01,-279.8 385.01,-243.8 594.99,-243.8 594.99,-279.8"/>
<text text-anchor="middle" x="490" y="-257.6" font-family="Times,serif" font-size="14.00">DropdownFocusHandlerDirective </text>
</g>
<!-- DropdownModule&#45;&gt;DropdownFocusHandlerDirective  -->
<g id="edge8" class="edge">
<title>DropdownModule&#45;&gt;DropdownFocusHandlerDirective </title>
<path fill="none" stroke="black" stroke-dasharray="5,2" d="M490,-214.91C490,-214.91 490,-233.79 490,-233.79"/>
<polygon fill="black" stroke="black" points="486.5,-233.79 490,-243.79 493.5,-233.79 486.5,-233.79"/>
</g>
<!-- DynamicDropdownPositionDirective  -->
<g id="node10" class="node">
<title>DynamicDropdownPositionDirective </title>
<polygon fill="#fb8072" stroke="black" points="367.17,-279.8 138.83,-279.8 138.83,-243.8 367.17,-243.8 367.17,-279.8"/>
<text text-anchor="middle" x="253" y="-257.6" font-family="Times,serif" font-size="14.00">DynamicDropdownPositionDirective </text>
</g>
<!-- DropdownModule&#45;&gt;DynamicDropdownPositionDirective  -->
<g id="edge9" class="edge">
<title>DropdownModule&#45;&gt;DynamicDropdownPositionDirective </title>
<path fill="none" stroke="black" stroke-dasharray="5,2" d="M430.17,-202.8C380.36,-202.8 317.55,-202.8 317.55,-202.8 317.55,-202.8 317.55,-233.78 317.55,-233.78"/>
<polygon fill="black" stroke="black" points="314.05,-233.78 317.55,-243.78 321.05,-233.78 314.05,-233.78"/>
</g>
<!-- DROPDOWN_FOCUS_HANDLER_PROVIDER -->
<g id="node5" class="node">
<title>DROPDOWN_FOCUS_HANDLER_PROVIDER</title>
<ellipse fill="#fdb462" stroke="black" cx="943" cy="-66.8" rx="206.65" ry="18"/>
<text text-anchor="middle" x="943" y="-62.6" font-family="Times,serif" font-size="14.00">DROPDOWN_FOCUS_HANDLER_PROVIDER</text>
</g>
<!-- DROPDOWN_FOCUS_HANDLER_PROVIDER&#45;&gt;DropdownComponent -->
<g id="edge2" class="edge">
<title>DROPDOWN_FOCUS_HANDLER_PROVIDER&#45;&gt;DropdownComponent</title>
<path fill="none" stroke="black" d="M875,-83.88C875,-83.88 875,-103.7 875,-103.7"/>
<polygon fill="black" stroke="black" points="871.5,-103.7 875,-113.7 878.5,-103.7 871.5,-103.7"/>
</g>
<!-- SubscriptionTracker -->
<g id="node6" class="node">
<title>SubscriptionTracker</title>
<ellipse fill="#fdb462" stroke="black" cx="371" cy="-66.8" rx="89.75" ry="18"/>
<text text-anchor="middle" x="371" y="-62.6" font-family="Times,serif" font-size="14.00">SubscriptionTracker</text>
</g>
<!-- SubscriptionTracker&#45;&gt;DropdownFocusHandlerDirective -->
<g id="edge4" class="edge">
<title>SubscriptionTracker&#45;&gt;DropdownFocusHandlerDirective</title>
<path fill="none" stroke="black" d="M371,-84.91C371,-84.91 371,-103.79 371,-103.79"/>
<polygon fill="black" stroke="black" points="367.5,-103.79 371,-113.79 374.5,-103.79 367.5,-103.79"/>
</g>
<!-- ShowClippedTextDirectiveModule -->
<g id="node7" class="node">
<title>ShowClippedTextDirectiveModule</title>
<polygon fill="#8dd3c7" stroke="black" points="711.51,-149.8 708.51,-153.8 687.51,-153.8 684.51,-149.8 498.49,-149.8 498.49,-113.8 711.51,-113.8 711.51,-149.8"/>
<text text-anchor="middle" x="605" y="-127.6" font-family="Times,serif" font-size="14.00">ShowClippedTextDirectiveModule</text>
</g>
<!-- ShowClippedTextDirectiveModule&#45;&gt;DropdownModule -->
<g id="edge6" class="edge">
<title>ShowClippedTextDirectiveModule&#45;&gt;DropdownModule</title>
<path fill="none" stroke="black" d="M523.98,-149.91C523.98,-149.91 523.98,-168.79 523.98,-168.79"/>
<polygon fill="black" stroke="black" points="520.48,-168.79 523.98,-178.79 527.48,-168.79 520.48,-168.79"/>
</g>
</g>
</svg>
