<?xml version="1.0" encoding="UTF-8" standalone="no"?>
<!DOCTYPE svg PUBLIC "-//W3C//DTD SVG 1.1//EN"
 "http://www.w3.org/Graphics/SVG/1.1/DTD/svg11.dtd">
<!-- Generated by graphviz version 2.40.1 (20161225.0304)
 -->
<!-- Title: dependencies Pages: 1 -->
<svg width="583pt" height="284pt"
 viewBox="0.00 0.00 583.00 284.00" xmlns="http://www.w3.org/2000/svg" xmlns:xlink="http://www.w3.org/1999/xlink">
<g id="graph0" class="graph" transform="scale(1 1) rotate(0) translate(4 280)">
<title>dependencies</title>
<polygon fill="#ffffff" stroke="transparent" points="-4,4 -4,-280 579,-280 579,4 -4,4"/>
<text text-anchor="start" x="266.5091" y="-42.4" font-family="sans-serif" font-weight="bold" font-size="14.00" fill="#000000">Legend</text>
<polygon fill="#ffffb3" stroke="transparent" points="53.5,-10 53.5,-30 73.5,-30 73.5,-10 53.5,-10"/>
<text text-anchor="start" x="77.129" y="-15.4" font-family="sans-serif" font-size="14.00" fill="#000000"> &#160;Declarations</text>
<polygon fill="#8dd3c7" stroke="transparent" points="166.5,-10 166.5,-30 186.5,-30 186.5,-10 166.5,-10"/>
<text text-anchor="start" x="190.2251" y="-15.4" font-family="sans-serif" font-size="14.00" fill="#000000"> &#160;Module</text>
<polygon fill="#80b1d3" stroke="transparent" points="252.5,-10 252.5,-30 272.5,-30 272.5,-10 252.5,-10"/>
<text text-anchor="start" x="276.2812" y="-15.4" font-family="sans-serif" font-size="14.00" fill="#000000"> &#160;Bootstrap</text>
<polygon fill="#fdb462" stroke="transparent" points="349.5,-10 349.5,-30 369.5,-30 369.5,-10 349.5,-10"/>
<text text-anchor="start" x="373.1732" y="-15.4" font-family="sans-serif" font-size="14.00" fill="#000000"> &#160;Providers</text>
<polygon fill="#fb8072" stroke="transparent" points="445.5,-10 445.5,-30 465.5,-30 465.5,-10 445.5,-10"/>
<text text-anchor="start" x="469.2258" y="-15.4" font-family="sans-serif" font-size="14.00" fill="#000000"> &#160;Exports</text>
<g id="clust1" class="cluster">
<title>cluster_VcdActionMenuModule</title>
<polygon fill="none" stroke="#000000" stroke-dasharray="1,5" points="8,-70 8,-268 567,-268 567,-70 8,-70"/>
</g>
<g id="clust2" class="cluster">
<title>cluster_VcdActionMenuModule_declarations</title>
<polygon fill="none" stroke="#000000" points="391,-78 391,-130 559,-130 559,-78 391,-78"/>
</g>
<g id="clust4" class="cluster">
<title>cluster_VcdActionMenuModule_imports</title>
<polygon fill="none" stroke="#000000" points="16,-78 16,-130 383,-130 383,-78 16,-78"/>
</g>
<g id="clust5" class="cluster">
<title>cluster_VcdActionMenuModule_exports</title>
<polygon fill="none" stroke="#000000" points="229,-208 229,-260 401,-260 401,-208 229,-208"/>
</g>
<!-- ActionMenuComponent -->
<g id="node1" class="node">
<title>ActionMenuComponent</title>
<polygon fill="#ffffb3" stroke="#000000" points="551.094,-122 398.906,-122 398.906,-86 551.094,-86 551.094,-122"/>
<text text-anchor="middle" x="475" y="-99.8" font-family="Times,serif" font-size="14.00" fill="#000000">ActionMenuComponent</text>
</g>
<!-- VcdActionMenuModule -->
<g id="node2" class="node">
<title>VcdActionMenuModule</title>
<polygon fill="#8dd3c7" stroke="#000000" points="391.633,-187 388.633,-191 367.633,-191 364.633,-187 238.367,-187 238.367,-151 391.633,-151 391.633,-187"/>
<text text-anchor="middle" x="315" y="-164.8" font-family="Times,serif" font-size="14.00" fill="#000000">VcdActionMenuModule</text>
</g>
<!-- ActionMenuComponent&#45;&gt;VcdActionMenuModule -->
<g id="edge1" class="edge">
<title>ActionMenuComponent&#45;&gt;VcdActionMenuModule</title>
<path fill="none" stroke="#000000" d="M398.8258,-104C389.5477,-104 383.2641,-104 383.2641,-104 383.2641,-104 383.2641,-140.8939 383.2641,-140.8939"/>
<polygon fill="#000000" stroke="#000000" points="379.7641,-140.8938 383.2641,-150.8939 386.7641,-140.8939 379.7641,-140.8938"/>
</g>
<!-- ActionMenuComponent  -->
<g id="node5" class="node">
<title>ActionMenuComponent </title>
<polygon fill="#fb8072" stroke="#000000" points="392.5945,-252 237.4055,-252 237.4055,-216 392.5945,-216 392.5945,-252"/>
<text text-anchor="middle" x="315" y="-229.8" font-family="Times,serif" font-size="14.00" fill="#000000">ActionMenuComponent </text>
</g>
<!-- VcdActionMenuModule&#45;&gt;ActionMenuComponent  -->
<g id="edge4" class="edge">
<title>VcdActionMenuModule&#45;&gt;ActionMenuComponent </title>
<path fill="none" stroke="#000000" stroke-dasharray="5,2" d="M315,-187.1061C315,-187.1061 315,-205.991 315,-205.991"/>
<polygon fill="#000000" stroke="#000000" points="311.5001,-205.9909 315,-215.991 318.5001,-205.991 311.5001,-205.9909"/>
</g>
<!-- DropdownModule -->
<g id="node3" class="node">
<title>DropdownModule</title>
<polygon fill="#8dd3c7" stroke="#000000" points="374.9244,-122 371.9244,-126 350.9244,-126 347.9244,-122 255.0756,-122 255.0756,-86 374.9244,-86 374.9244,-122"/>
<text text-anchor="middle" x="315" y="-99.8" font-family="Times,serif" font-size="14.00" fill="#000000">DropdownModule</text>
</g>
<!-- DropdownModule&#45;&gt;VcdActionMenuModule -->
<g id="edge2" class="edge">
<title>DropdownModule&#45;&gt;VcdActionMenuModule</title>
<path fill="none" stroke="#000000" d="M315,-122.1061C315,-122.1061 315,-140.991 315,-140.991"/>
<polygon fill="#000000" stroke="#000000" points="311.5001,-140.9909 315,-150.991 318.5001,-140.991 311.5001,-140.9909"/>
</g>
<!-- ShowClippedTextDirectiveModule -->
<g id="node4" class="node">
<title>ShowClippedTextDirectiveModule</title>
<polygon fill="#8dd3c7" stroke="#000000" points="237.5126,-122 234.5126,-126 213.5126,-126 210.5126,-122 24.4874,-122 24.4874,-86 237.5126,-86 237.5126,-122"/>
<text text-anchor="middle" x="131" y="-99.8" font-family="Times,serif" font-size="14.00" fill="#000000">ShowClippedTextDirectiveModule</text>
</g>
<!-- ShowClippedTextDirectiveModule&#45;&gt;VcdActionMenuModule -->
<g id="edge3" class="edge">
<title>ShowClippedTextDirectiveModule&#45;&gt;VcdActionMenuModule</title>
<path fill="none" stroke="#000000" d="M237.6543,-104C243.317,-104 246.736,-104 246.736,-104 246.736,-104 246.736,-140.8939 246.736,-140.8939"/>
<polygon fill="#000000" stroke="#000000" points="243.236,-140.8938 246.736,-150.8939 250.236,-140.8939 243.236,-140.8938"/>
</g>
</g>
</svg>
