<?xml version="1.0" encoding="UTF-8" standalone="no"?>
<!DOCTYPE svg PUBLIC "-//W3C//DTD SVG 1.1//EN"
 "http://www.w3.org/Graphics/SVG/1.1/DTD/svg11.dtd">
<!-- Generated by graphviz version 2.40.1 (20161225.0304)
 -->
<!-- Title: dependencies Pages: 1 -->
<svg width="869pt" height="284pt"
 viewBox="0.00 0.00 869.00 284.00" xmlns="http://www.w3.org/2000/svg" xmlns:xlink="http://www.w3.org/1999/xlink">
<g id="graph0" class="graph" transform="scale(1 1) rotate(0) translate(4 280)">
<title>dependencies</title>
<polygon fill="#ffffff" stroke="transparent" points="-4,4 -4,-280 865,-280 865,4 -4,4"/>
<text text-anchor="start" x="409.5091" y="-42.4" font-family="sans-serif" font-weight="bold" font-size="14.00" fill="#000000">Legend</text>
<polygon fill="#ffffb3" stroke="transparent" points="196.5,-10 196.5,-30 216.5,-30 216.5,-10 196.5,-10"/>
<text text-anchor="start" x="220.129" y="-15.4" font-family="sans-serif" font-size="14.00" fill="#000000"> &#160;Declarations</text>
<polygon fill="#8dd3c7" stroke="transparent" points="309.5,-10 309.5,-30 329.5,-30 329.5,-10 309.5,-10"/>
<text text-anchor="start" x="333.2251" y="-15.4" font-family="sans-serif" font-size="14.00" fill="#000000"> &#160;Module</text>
<polygon fill="#80b1d3" stroke="transparent" points="395.5,-10 395.5,-30 415.5,-30 415.5,-10 395.5,-10"/>
<text text-anchor="start" x="419.2812" y="-15.4" font-family="sans-serif" font-size="14.00" fill="#000000"> &#160;Bootstrap</text>
<polygon fill="#fdb462" stroke="transparent" points="492.5,-10 492.5,-30 512.5,-30 512.5,-10 492.5,-10"/>
<text text-anchor="start" x="516.1732" y="-15.4" font-family="sans-serif" font-size="14.00" fill="#000000"> &#160;Providers</text>
<polygon fill="#fb8072" stroke="transparent" points="588.5,-10 588.5,-30 608.5,-30 608.5,-10 588.5,-10"/>
<text text-anchor="start" x="612.2258" y="-15.4" font-family="sans-serif" font-size="14.00" fill="#000000"> &#160;Exports</text>
<g id="clust1" class="cluster">
<title>cluster_VcdActionMenuModule</title>
<polygon fill="none" stroke="#000000" stroke-dasharray="1,5" points="8,-70 8,-268 853,-268 853,-70 8,-70"/>
</g>
<g id="clust2" class="cluster">
<title>cluster_VcdActionMenuModule_declarations</title>
<polygon fill="none" stroke="#000000" points="391,-78 391,-130 845,-130 845,-78 391,-78"/>
</g>
<g id="clust5" class="cluster">
<title>cluster_VcdActionMenuModule_imports</title>
<polygon fill="none" stroke="#000000" points="16,-78 16,-130 383,-130 383,-78 16,-78"/>
</g>
<g id="clust6" class="cluster">
<title>cluster_VcdActionMenuModule_exports</title>
<polygon fill="none" stroke="#000000" points="163,-208 163,-260 623,-260 623,-208 163,-208"/>
</g>
<!-- ActionMenuComponent -->
<g id="node1" class="node">
<title>ActionMenuComponent</title>
<polygon fill="#ffffb3" stroke="#000000" points="837.094,-122 684.906,-122 684.906,-86 837.094,-86 837.094,-122"/>
<text text-anchor="middle" x="761" y="-99.8" font-family="Times,serif" font-size="14.00" fill="#000000">ActionMenuComponent</text>
</g>
<!-- VcdActionMenuModule -->
<g id="node3" class="node">
<title>VcdActionMenuModule</title>
<polygon fill="#8dd3c7" stroke="#000000" points="497.633,-187 494.633,-191 473.633,-191 470.633,-187 344.367,-187 344.367,-151 497.633,-151 497.633,-187"/>
<text text-anchor="middle" x="421" y="-164.8" font-family="Times,serif" font-size="14.00" fill="#000000">VcdActionMenuModule</text>
</g>
<!-- ActionMenuComponent&#45;&gt;VcdActionMenuModule -->
<g id="edge1" class="edge">
<title>ActionMenuComponent&#45;&gt;VcdActionMenuModule</title>
<path fill="none" stroke="#000000" d="M761,-122.1061C761,-141.3391 761,-169 761,-169 761,-169 507.7266,-169 507.7266,-169"/>
<polygon fill="#000000" stroke="#000000" points="507.7266,-165.5001 497.7266,-169 507.7265,-172.5001 507.7266,-165.5001"/>
</g>
<!-- EntityActionExtensionComponentsDirective -->
<g id="node2" class="node">
<title>EntityActionExtensionComponentsDirective</title>
<polygon fill="#ffffb3" stroke="#000000" points="666.6797,-122 399.3203,-122 399.3203,-86 666.6797,-86 666.6797,-122"/>
<text text-anchor="middle" x="533" y="-99.8" font-family="Times,serif" font-size="14.00" fill="#000000">EntityActionExtensionComponentsDirective</text>
</g>
<!-- EntityActionExtensionComponentsDirective&#45;&gt;VcdActionMenuModule -->
<g id="edge2" class="edge">
<title>EntityActionExtensionComponentsDirective&#45;&gt;VcdActionMenuModule</title>
<path fill="none" stroke="#000000" d="M448.6133,-122.1061C448.6133,-122.1061 448.6133,-140.991 448.6133,-140.991"/>
<polygon fill="#000000" stroke="#000000" points="445.1133,-140.9909 448.6133,-150.991 452.1133,-140.991 445.1133,-140.9909"/>
</g>
<!-- ActionMenuComponent  -->
<g id="node6" class="node">
<title>ActionMenuComponent </title>
<polygon fill="#fb8072" stroke="#000000" points="614.5945,-252 459.4055,-252 459.4055,-216 614.5945,-216 614.5945,-252"/>
<text text-anchor="middle" x="537" y="-229.8" font-family="Times,serif" font-size="14.00" fill="#000000">ActionMenuComponent </text>
</g>
<!-- VcdActionMenuModule&#45;&gt;ActionMenuComponent  -->
<g id="edge5" class="edge">
<title>VcdActionMenuModule&#45;&gt;ActionMenuComponent </title>
<path fill="none" stroke="#000000" stroke-dasharray="5,2" d="M478.5097,-187.1061C478.5097,-187.1061 478.5097,-205.991 478.5097,-205.991"/>
<polygon fill="#000000" stroke="#000000" points="475.0097,-205.9909 478.5097,-215.991 482.0097,-205.991 475.0097,-205.9909"/>
</g>
<!-- EntityActionExtensionComponentsDirective  -->
<g id="node7" class="node">
<title>EntityActionExtensionComponentsDirective </title>
<polygon fill="#fb8072" stroke="#000000" points="441.1798,-252 170.8202,-252 170.8202,-216 441.1798,-216 441.1798,-252"/>
<text text-anchor="middle" x="306" y="-229.8" font-family="Times,serif" font-size="14.00" fill="#000000">EntityActionExtensionComponentsDirective </text>
</g>
<!-- VcdActionMenuModule&#45;&gt;EntityActionExtensionComponentsDirective  -->
<g id="edge6" class="edge">
<title>VcdActionMenuModule&#45;&gt;EntityActionExtensionComponentsDirective </title>
<path fill="none" stroke="#000000" stroke-dasharray="5,2" d="M392.7618,-187.1061C392.7618,-187.1061 392.7618,-205.991 392.7618,-205.991"/>
<polygon fill="#000000" stroke="#000000" points="389.2618,-205.9909 392.7618,-215.991 396.2618,-205.991 389.2618,-205.9909"/>
</g>
<!-- DropdownModule -->
<g id="node4" class="node">
<title>DropdownModule</title>
<polygon fill="#8dd3c7" stroke="#000000" points="374.9244,-122 371.9244,-126 350.9244,-126 347.9244,-122 255.0756,-122 255.0756,-86 374.9244,-86 374.9244,-122"/>
<text text-anchor="middle" x="315" y="-99.8" font-family="Times,serif" font-size="14.00" fill="#000000">DropdownModule</text>
</g>
<!-- DropdownModule&#45;&gt;VcdActionMenuModule -->
<g id="edge3" class="edge">
<title>DropdownModule&#45;&gt;VcdActionMenuModule</title>
<path fill="none" stroke="#000000" d="M359.4478,-122.1061C359.4478,-122.1061 359.4478,-140.991 359.4478,-140.991"/>
<polygon fill="#000000" stroke="#000000" points="355.9478,-140.9909 359.4478,-150.991 362.9478,-140.991 355.9478,-140.9909"/>
</g>
<!-- ShowClippedTextDirectiveModule -->
<g id="node5" class="node">
<title>ShowClippedTextDirectiveModule</title>
<polygon fill="#8dd3c7" stroke="#000000" points="237.5126,-122 234.5126,-126 213.5126,-126 210.5126,-122 24.4874,-122 24.4874,-86 237.5126,-86 237.5126,-122"/>
<text text-anchor="middle" x="131" y="-99.8" font-family="Times,serif" font-size="14.00" fill="#000000">ShowClippedTextDirectiveModule</text>
</g>
<!-- ShowClippedTextDirectiveModule&#45;&gt;VcdActionMenuModule -->
<g id="edge4" class="edge">
<title>ShowClippedTextDirectiveModule&#45;&gt;VcdActionMenuModule</title>
<path fill="none" stroke="#000000" d="M204.2081,-122.1061C204.2081,-141.3391 204.2081,-169 204.2081,-169 204.2081,-169 334.2622,-169 334.2622,-169"/>
<polygon fill="#000000" stroke="#000000" points="334.2622,-172.5001 344.2622,-169 334.2622,-165.5001 334.2622,-172.5001"/>
</g>
</g>
</svg>
