<?xml version="1.0" encoding="UTF-8" standalone="no"?>
<!DOCTYPE svg PUBLIC "-//W3C//DTD SVG 1.1//EN"
 "http://www.w3.org/Graphics/SVG/1.1/DTD/svg11.dtd">
<!-- Generated by graphviz version 5.0.0 (20220707.1540)
 -->
<!-- Title: dependencies Pages: 1 -->
<svg width="583pt" height="247pt"
 viewBox="0.00 0.00 583.00 246.80" xmlns="http://www.w3.org/2000/svg" xmlns:xlink="http://www.w3.org/1999/xlink">
<g id="graph0" class="graph" transform="scale(1 1) rotate(0) translate(4 242.8)">
<title>dependencies</title>
<polygon fill="white" stroke="transparent" points="-4,4 -4,-242.8 579,-242.8 579,4 -4,4"/>
<text text-anchor="middle" x="287.5" y="-8.2" font-family="sans-serif" font-size="14.00">dependencies</text>
<g id="clust1" class="cluster">
<title>cluster_VcdActionMenuModule</title>
<polygon fill="none" stroke="black" stroke-dasharray="1,5" points="8,-32.8 8,-230.8 567,-230.8 567,-32.8 8,-32.8"/>
</g>
<g id="clust5" class="cluster">
<title>cluster_VcdActionMenuModule_exports</title>
<polygon fill="none" stroke="black" points="229,-170.8 229,-222.8 401,-222.8 401,-170.8 229,-170.8"/>
</g>
<g id="clust2" class="cluster">
<title>cluster_VcdActionMenuModule_declarations</title>
<polygon fill="none" stroke="black" points="391,-40.8 391,-92.8 559,-92.8 559,-40.8 391,-40.8"/>
</g>
<g id="clust4" class="cluster">
<title>cluster_VcdActionMenuModule_imports</title>
<polygon fill="none" stroke="black" points="16,-40.8 16,-92.8 383,-92.8 383,-40.8 16,-40.8"/>
</g>
<!-- ActionMenuComponent -->
<g id="node1" class="node">
<title>ActionMenuComponent</title>
<polygon fill="#ffffb3" stroke="black" points="551.1,-84.8 398.9,-84.8 398.9,-48.8 551.1,-48.8 551.1,-84.8"/>
<text text-anchor="middle" x="475" y="-62.6" font-family="Times,serif" font-size="14.00">ActionMenuComponent</text>
</g>
<!-- VcdActionMenuModule -->
<g id="node2" class="node">
<title>VcdActionMenuModule</title>
<polygon fill="#8dd3c7" stroke="black" points="391.64,-149.8 388.64,-153.8 367.64,-153.8 364.64,-149.8 238.36,-149.8 238.36,-113.8 391.64,-113.8 391.64,-149.8"/>
<text text-anchor="middle" x="315" y="-127.6" font-family="Times,serif" font-size="14.00">VcdActionMenuModule</text>
</g>
<!-- ActionMenuComponent&#45;&gt;VcdActionMenuModule -->
<g id="edge1" class="edge">
<title>ActionMenuComponent&#45;&gt;VcdActionMenuModule</title>
<path fill="none" stroke="black" d="M398.83,-66.8C389.55,-66.8 383.27,-66.8 383.27,-66.8 383.27,-66.8 383.27,-103.69 383.27,-103.69"/>
<polygon fill="black" stroke="black" points="379.77,-103.69 383.27,-113.69 386.77,-103.69 379.77,-103.69"/>
</g>
<!-- ActionMenuComponent  -->
<g id="node5" class="node">
<title>ActionMenuComponent </title>
<polygon fill="#fb8072" stroke="black" points="392.6,-214.8 237.4,-214.8 237.4,-178.8 392.6,-178.8 392.6,-214.8"/>
<text text-anchor="middle" x="315" y="-192.6" font-family="Times,serif" font-size="14.00">ActionMenuComponent </text>
</g>
<!-- VcdActionMenuModule&#45;&gt;ActionMenuComponent  -->
<g id="edge4" class="edge">
<title>VcdActionMenuModule&#45;&gt;ActionMenuComponent </title>
<path fill="none" stroke="black" stroke-dasharray="5,2" d="M315,-149.91C315,-149.91 315,-168.79 315,-168.79"/>
<polygon fill="black" stroke="black" points="311.5,-168.79 315,-178.79 318.5,-168.79 311.5,-168.79"/>
</g>
<!-- DropdownModule -->
<g id="node3" class="node">
<title>DropdownModule</title>
<polygon fill="#8dd3c7" stroke="black" points="374.94,-84.8 371.94,-88.8 350.94,-88.8 347.94,-84.8 255.06,-84.8 255.06,-48.8 374.94,-48.8 374.94,-84.8"/>
<text text-anchor="middle" x="315" y="-62.6" font-family="Times,serif" font-size="14.00">DropdownModule</text>
</g>
<!-- DropdownModule&#45;&gt;VcdActionMenuModule -->
<g id="edge2" class="edge">
<title>DropdownModule&#45;&gt;VcdActionMenuModule</title>
<path fill="none" stroke="black" d="M315,-84.91C315,-84.91 315,-103.79 315,-103.79"/>
<polygon fill="black" stroke="black" points="311.5,-103.79 315,-113.79 318.5,-103.79 311.5,-103.79"/>
</g>
<!-- ShowClippedTextDirectiveModule -->
<g id="node4" class="node">
<title>ShowClippedTextDirectiveModule</title>
<polygon fill="#8dd3c7" stroke="black" points="237.52,-84.8 234.52,-88.8 213.52,-88.8 210.52,-84.8 24.48,-84.8 24.48,-48.8 237.52,-48.8 237.52,-84.8"/>
<text text-anchor="middle" x="131" y="-62.6" font-family="Times,serif" font-size="14.00">ShowClippedTextDirectiveModule</text>
</g>
<!-- ShowClippedTextDirectiveModule&#45;&gt;VcdActionMenuModule -->
<g id="edge3" class="edge">
<title>ShowClippedTextDirectiveModule&#45;&gt;VcdActionMenuModule</title>
<path fill="none" stroke="black" d="M237.65,-66.8C243.31,-66.8 246.73,-66.8 246.73,-66.8 246.73,-66.8 246.73,-103.69 246.73,-103.69"/>
<polygon fill="black" stroke="black" points="243.23,-103.69 246.73,-113.69 250.23,-103.69 243.23,-103.69"/>
</g>
</g>
</svg>
