<?xml version="1.0" encoding="UTF-8" standalone="no"?>
<!DOCTYPE svg PUBLIC "-//W3C//DTD SVG 1.1//EN"
 "http://www.w3.org/Graphics/SVG/1.1/DTD/svg11.dtd">
<!-- Generated by graphviz version 2.47.3 (20210619.1520)
 -->
<!-- Title: dependencies Pages: 1 -->
<svg width="583pt" height="247pt"
 viewBox="0.00 0.00 583.00 246.80" xmlns="http://www.w3.org/2000/svg" xmlns:xlink="http://www.w3.org/1999/xlink">
<g id="graph0" class="graph" transform="scale(1 1) rotate(0) translate(4 242.8)">
<title>dependencies</title>
<polygon fill="white" stroke="transparent" points="-4,4 -4,-242.8 579,-242.8 579,4 -4,4"/>
<text text-anchor="middle" x="287.5" y="-8.2" font-family="sans-serif" font-size="14.00">dependencies</text>
<g id="clust1" class="cluster">
<title>cluster_VcdActionMenuModule</title>
<polygon fill="none" stroke="black" stroke-dasharray="1,5" points="8,-32.8 8,-230.8 567,-230.8 567,-32.8 8,-32.8"/>
</g>
<g id="clust4" class="cluster">
<title>cluster_VcdActionMenuModule_imports</title>
<polygon fill="none" stroke="black" points="192,-40.8 192,-92.8 559,-92.8 559,-40.8 192,-40.8"/>
</g>
<g id="clust2" class="cluster">
<title>cluster_VcdActionMenuModule_declarations</title>
<polygon fill="none" stroke="black" points="16,-40.8 16,-92.8 184,-92.8 184,-40.8 16,-40.8"/>
</g>
<g id="clust5" class="cluster">
<title>cluster_VcdActionMenuModule_exports</title>
<polygon fill="none" stroke="black" points="221,-170.8 221,-222.8 393,-222.8 393,-170.8 221,-170.8"/>
</g>
<!-- ActionMenuComponent -->
<g id="node1" class="node">
<title>ActionMenuComponent</title>
<polygon fill="#ffffb3" stroke="black" points="176.09,-84.8 23.91,-84.8 23.91,-48.8 176.09,-48.8 176.09,-84.8"/>
<text text-anchor="middle" x="100" y="-62.6" font-family="Times,serif" font-size="14.00">ActionMenuComponent</text>
</g>
<!-- VcdActionMenuModule -->
<g id="node2" class="node">
<title>VcdActionMenuModule</title>
<polygon fill="#8dd3c7" stroke="black" points="383.63,-149.8 380.63,-153.8 359.63,-153.8 356.63,-149.8 230.37,-149.8 230.37,-113.8 383.63,-113.8 383.63,-149.8"/>
<text text-anchor="middle" x="307" y="-127.6" font-family="Times,serif" font-size="14.00">VcdActionMenuModule</text>
</g>
<!-- ActionMenuComponent&#45;&gt;VcdActionMenuModule -->
<g id="edge1" class="edge">
<title>ActionMenuComponent&#45;&gt;VcdActionMenuModule</title>
<path fill="none" stroke="black" d="M100,-84.91C100,-104.14 100,-131.8 100,-131.8 100,-131.8 220.22,-131.8 220.22,-131.8"/>
<polygon fill="black" stroke="black" points="220.22,-135.3 230.22,-131.8 220.21,-128.3 220.22,-135.3"/>
</g>
<!-- ActionMenuComponent  -->
<g id="node5" class="node">
<title>ActionMenuComponent </title>
<polygon fill="#fb8072" stroke="black" points="384.59,-214.8 229.41,-214.8 229.41,-178.8 384.59,-178.8 384.59,-214.8"/>
<text text-anchor="middle" x="307" y="-192.6" font-family="Times,serif" font-size="14.00">ActionMenuComponent </text>
</g>
<!-- VcdActionMenuModule&#45;&gt;ActionMenuComponent  -->
<g id="edge4" class="edge">
<title>VcdActionMenuModule&#45;&gt;ActionMenuComponent </title>
<path fill="none" stroke="black" stroke-dasharray="5,2" d="M307,-149.91C307,-149.91 307,-168.79 307,-168.79"/>
<polygon fill="black" stroke="black" points="303.5,-168.79 307,-178.79 310.5,-168.79 303.5,-168.79"/>
</g>
<!-- DropdownModule -->
<g id="node3" class="node">
<title>DropdownModule</title>
<polygon fill="#8dd3c7" stroke="black" points="550.92,-84.8 547.92,-88.8 526.92,-88.8 523.92,-84.8 431.08,-84.8 431.08,-48.8 550.92,-48.8 550.92,-84.8"/>
<text text-anchor="middle" x="491" y="-62.6" font-family="Times,serif" font-size="14.00">DropdownModule</text>
</g>
<!-- DropdownModule&#45;&gt;VcdActionMenuModule -->
<g id="edge2" class="edge">
<title>DropdownModule&#45;&gt;VcdActionMenuModule</title>
<path fill="none" stroke="black" d="M491,-84.91C491,-104.14 491,-131.8 491,-131.8 491,-131.8 393.7,-131.8 393.7,-131.8"/>
<polygon fill="black" stroke="black" points="393.7,-128.3 383.7,-131.8 393.7,-135.3 393.7,-128.3"/>
</g>
<!-- ShowClippedTextDirectiveModule -->
<g id="node4" class="node">
<title>ShowClippedTextDirectiveModule</title>
<polygon fill="#8dd3c7" stroke="black" points="413.51,-84.8 410.51,-88.8 389.51,-88.8 386.51,-84.8 200.49,-84.8 200.49,-48.8 413.51,-48.8 413.51,-84.8"/>
<text text-anchor="middle" x="307" y="-62.6" font-family="Times,serif" font-size="14.00">ShowClippedTextDirectiveModule</text>
</g>
<!-- ShowClippedTextDirectiveModule&#45;&gt;VcdActionMenuModule -->
<g id="edge3" class="edge">
<title>ShowClippedTextDirectiveModule&#45;&gt;VcdActionMenuModule</title>
<path fill="none" stroke="black" d="M307,-84.91C307,-84.91 307,-103.79 307,-103.79"/>
<polygon fill="black" stroke="black" points="303.5,-103.79 307,-113.79 310.5,-103.79 303.5,-103.79"/>
</g>
</g>
</svg>
