<?xml version="1.0" encoding="UTF-8" standalone="no"?>
<!DOCTYPE svg PUBLIC "-//W3C//DTD SVG 1.1//EN"
 "http://www.w3.org/Graphics/SVG/1.1/DTD/svg11.dtd">
<!-- Generated by graphviz version 2.47.0 (20210316.0004)
 -->
<!-- Title: dependencies Pages: 1 -->
<svg width="583pt" height="284pt"
 viewBox="0.00 0.00 583.00 284.00" xmlns="http://www.w3.org/2000/svg" xmlns:xlink="http://www.w3.org/1999/xlink">
<g id="graph0" class="graph" transform="scale(1 1) rotate(0) translate(4 280)">
<title>dependencies</title>
<polygon fill="white" stroke="transparent" points="-4,4 -4,-280 579,-280 579,4 -4,4"/>
<text text-anchor="start" x="266.51" y="-42.4" font-family="Times-12" font-weight="bold" font-size="14.00">Legend</text>
<polygon fill="#ffffb3" stroke="transparent" points="53.5,-10 53.5,-30 73.5,-30 73.5,-10 53.5,-10"/>
<text text-anchor="start" x="77.13" y="-15.4" font-family="Times-12" font-size="14.00"> &#160;Declarations</text>
<polygon fill="#8dd3c7" stroke="transparent" points="166.5,-10 166.5,-30 186.5,-30 186.5,-10 166.5,-10"/>
<text text-anchor="start" x="190.23" y="-15.4" font-family="Times-12" font-size="14.00"> &#160;Module</text>
<polygon fill="#80b1d3" stroke="transparent" points="252.5,-10 252.5,-30 272.5,-30 272.5,-10 252.5,-10"/>
<text text-anchor="start" x="276.28" y="-15.4" font-family="Times-12" font-size="14.00"> &#160;Bootstrap</text>
<polygon fill="#fdb462" stroke="transparent" points="349.5,-10 349.5,-30 369.5,-30 369.5,-10 349.5,-10"/>
<text text-anchor="start" x="373.17" y="-15.4" font-family="Times-12" font-size="14.00"> &#160;Providers</text>
<polygon fill="#fb8072" stroke="transparent" points="445.5,-10 445.5,-30 465.5,-30 465.5,-10 445.5,-10"/>
<text text-anchor="start" x="469.23" y="-15.4" font-family="Times-12" font-size="14.00"> &#160;Exports</text>
<g id="clust1" class="cluster">
<title>cluster_VcdActionMenuModule</title>
<polygon fill="none" stroke="black" stroke-dasharray="1,5" points="8,-70 8,-268 567,-268 567,-70 8,-70"/>
</g>
<g id="clust2" class="cluster">
<title>cluster_VcdActionMenuModule_declarations</title>
<polygon fill="none" stroke="black" points="391,-78 391,-130 559,-130 559,-78 391,-78"/>
</g>
<g id="clust4" class="cluster">
<title>cluster_VcdActionMenuModule_imports</title>
<polygon fill="none" stroke="black" points="16,-78 16,-130 383,-130 383,-78 16,-78"/>
</g>
<g id="clust5" class="cluster">
<title>cluster_VcdActionMenuModule_exports</title>
<polygon fill="none" stroke="black" points="229,-208 229,-260 401,-260 401,-208 229,-208"/>
</g>
<!-- ActionMenuComponent -->
<g id="node1" class="node">
<title>ActionMenuComponent</title>
<polygon fill="#ffffb3" stroke="black" points="551.09,-122 398.91,-122 398.91,-86 551.09,-86 551.09,-122"/>
<text text-anchor="middle" x="475" y="-99.8" font-family="Times,serif" font-size="14.00">ActionMenuComponent</text>
</g>
<!-- VcdActionMenuModule -->
<g id="node2" class="node">
<title>VcdActionMenuModule</title>
<polygon fill="#8dd3c7" stroke="black" points="391.63,-187 388.63,-191 367.63,-191 364.63,-187 238.37,-187 238.37,-151 391.63,-151 391.63,-187"/>
<text text-anchor="middle" x="315" y="-164.8" font-family="Times,serif" font-size="14.00">VcdActionMenuModule</text>
</g>
<!-- ActionMenuComponent&#45;&gt;VcdActionMenuModule -->
<g id="edge1" class="edge">
<title>ActionMenuComponent&#45;&gt;VcdActionMenuModule</title>
<path fill="none" stroke="black" d="M398.83,-104C389.55,-104 383.26,-104 383.26,-104 383.26,-104 383.26,-140.89 383.26,-140.89"/>
<polygon fill="black" stroke="black" points="379.76,-140.89 383.26,-150.89 386.76,-140.89 379.76,-140.89"/>
</g>
<!-- ActionMenuComponent  -->
<g id="node5" class="node">
<title>ActionMenuComponent </title>
<polygon fill="#fb8072" stroke="black" points="392.59,-252 237.41,-252 237.41,-216 392.59,-216 392.59,-252"/>
<text text-anchor="middle" x="315" y="-229.8" font-family="Times,serif" font-size="14.00">ActionMenuComponent </text>
</g>
<!-- VcdActionMenuModule&#45;&gt;ActionMenuComponent  -->
<g id="edge4" class="edge">
<title>VcdActionMenuModule&#45;&gt;ActionMenuComponent </title>
<path fill="none" stroke="black" stroke-dasharray="5,2" d="M315,-187.11C315,-187.11 315,-205.99 315,-205.99"/>
<polygon fill="black" stroke="black" points="311.5,-205.99 315,-215.99 318.5,-205.99 311.5,-205.99"/>
</g>
<!-- DropdownModule -->
<g id="node3" class="node">
<title>DropdownModule</title>
<polygon fill="#8dd3c7" stroke="black" points="374.92,-122 371.92,-126 350.92,-126 347.92,-122 255.08,-122 255.08,-86 374.92,-86 374.92,-122"/>
<text text-anchor="middle" x="315" y="-99.8" font-family="Times,serif" font-size="14.00">DropdownModule</text>
</g>
<!-- DropdownModule&#45;&gt;VcdActionMenuModule -->
<g id="edge2" class="edge">
<title>DropdownModule&#45;&gt;VcdActionMenuModule</title>
<path fill="none" stroke="black" d="M315,-122.11C315,-122.11 315,-140.99 315,-140.99"/>
<polygon fill="black" stroke="black" points="311.5,-140.99 315,-150.99 318.5,-140.99 311.5,-140.99"/>
</g>
<!-- ShowClippedTextDirectiveModule -->
<g id="node4" class="node">
<title>ShowClippedTextDirectiveModule</title>
<polygon fill="#8dd3c7" stroke="black" points="237.51,-122 234.51,-126 213.51,-126 210.51,-122 24.49,-122 24.49,-86 237.51,-86 237.51,-122"/>
<text text-anchor="middle" x="131" y="-99.8" font-family="Times,serif" font-size="14.00">ShowClippedTextDirectiveModule</text>
</g>
<!-- ShowClippedTextDirectiveModule&#45;&gt;VcdActionMenuModule -->
<g id="edge3" class="edge">
<title>ShowClippedTextDirectiveModule&#45;&gt;VcdActionMenuModule</title>
<path fill="none" stroke="black" d="M237.65,-104C243.32,-104 246.74,-104 246.74,-104 246.74,-104 246.74,-140.89 246.74,-140.89"/>
<polygon fill="black" stroke="black" points="243.24,-140.89 246.74,-150.89 250.24,-140.89 243.24,-140.89"/>
</g>
</g>
</svg>
