<?xml version="1.0" encoding="UTF-8" standalone="no"?>
<!DOCTYPE svg PUBLIC "-//W3C//DTD SVG 1.1//EN"
 "http://www.w3.org/Graphics/SVG/1.1/DTD/svg11.dtd">
<!-- Generated by graphviz version 5.0.0 (20220707.1540)
 -->
<!-- Title: dependencies Pages: 1 -->
<svg width="246pt" height="247pt"
 viewBox="0.00 0.00 246.00 246.80" xmlns="http://www.w3.org/2000/svg" xmlns:xlink="http://www.w3.org/1999/xlink">
<g id="graph0" class="graph" transform="scale(1 1) rotate(0) translate(4 242.8)">
<title>dependencies</title>
<polygon fill="white" stroke="transparent" points="-4,4 -4,-242.8 242,-242.8 242,4 -4,4"/>
<text text-anchor="middle" x="119" y="-8.2" font-family="sans-serif" font-size="14.00">dependencies</text>
<g id="clust1" class="cluster">
<title>cluster_ResponsiveInputDirectiveModule</title>
<polygon fill="none" stroke="black" stroke-dasharray="1,5" points="8,-32.8 8,-230.8 230,-230.8 230,-32.8 8,-32.8"/>
</g>
<g id="clust2" class="cluster">
<title>cluster_ResponsiveInputDirectiveModule_declarations</title>
<polygon fill="none" stroke="black" points="30,-40.8 30,-92.8 208,-92.8 208,-40.8 30,-40.8"/>
</g>
<g id="clust5" class="cluster">
<title>cluster_ResponsiveInputDirectiveModule_exports</title>
<polygon fill="none" stroke="black" points="28,-170.8 28,-222.8 210,-222.8 210,-170.8 28,-170.8"/>
</g>
<!-- ResponsiveInputDirective -->
<g id="node1" class="node">
<title>ResponsiveInputDirective</title>
<polygon fill="#ffffb3" stroke="black" points="200.19,-84.8 37.81,-84.8 37.81,-48.8 200.19,-48.8 200.19,-84.8"/>
<text text-anchor="middle" x="119" y="-62.6" font-family="Times,serif" font-size="14.00">ResponsiveInputDirective</text>
</g>
<!-- ResponsiveInputDirectiveModule -->
<g id="node2" class="node">
<title>ResponsiveInputDirectiveModule</title>
<polygon fill="#8dd3c7" stroke="black" points="221.74,-149.8 218.74,-153.8 197.74,-153.8 194.74,-149.8 16.26,-149.8 16.26,-113.8 221.74,-113.8 221.74,-149.8"/>
<text text-anchor="middle" x="119" y="-127.6" font-family="Times,serif" font-size="14.00">ResponsiveInputDirectiveModule</text>
</g>
<!-- ResponsiveInputDirective&#45;&gt;ResponsiveInputDirectiveModule -->
<g id="edge1" class="edge">
<title>ResponsiveInputDirective&#45;&gt;ResponsiveInputDirectiveModule</title>
<path fill="none" stroke="black" d="M119,-84.91C119,-84.91 119,-103.79 119,-103.79"/>
<polygon fill="black" stroke="black" points="115.5,-103.79 119,-113.79 122.5,-103.79 115.5,-103.79"/>
</g>
<!-- ResponsiveInputDirective  -->
<g id="node3" class="node">
<title>ResponsiveInputDirective </title>
<polygon fill="#fb8072" stroke="black" points="201.69,-214.8 36.31,-214.8 36.31,-178.8 201.69,-178.8 201.69,-214.8"/>
<text text-anchor="middle" x="119" y="-192.6" font-family="Times,serif" font-size="14.00">ResponsiveInputDirective </text>
</g>
<!-- ResponsiveInputDirectiveModule&#45;&gt;ResponsiveInputDirective  -->
<g id="edge2" class="edge">
<title>ResponsiveInputDirectiveModule&#45;&gt;ResponsiveInputDirective </title>
<path fill="none" stroke="black" stroke-dasharray="5,2" d="M119,-149.91C119,-149.91 119,-168.79 119,-168.79"/>
<polygon fill="black" stroke="black" points="115.5,-168.79 119,-178.79 122.5,-168.79 115.5,-168.79"/>
</g>
</g>
</svg>
