<?xml version="1.0" encoding="UTF-8" standalone="no"?>
<!DOCTYPE svg PUBLIC "-//W3C//DTD SVG 1.1//EN"
 "http://www.w3.org/Graphics/SVG/1.1/DTD/svg11.dtd">
<!-- Generated by graphviz version 2.47.3 (20210619.1520)
 -->
<!-- Title: dependencies Pages: 1 -->
<svg width="280pt" height="247pt"
 viewBox="0.00 0.00 280.00 246.80" xmlns="http://www.w3.org/2000/svg" xmlns:xlink="http://www.w3.org/1999/xlink">
<g id="graph0" class="graph" transform="scale(1 1) rotate(0) translate(4 242.8)">
<title>dependencies</title>
<polygon fill="white" stroke="transparent" points="-4,4 -4,-242.8 276,-242.8 276,4 -4,4"/>
<text text-anchor="middle" x="136" y="-8.2" font-family="sans-serif" font-size="14.00">dependencies</text>
<g id="clust1" class="cluster">
<title>cluster_VcdComponentRendererOutletModule</title>
<polygon fill="none" stroke="black" stroke-dasharray="1,5" points="8,-32.8 8,-230.8 264,-230.8 264,-32.8 8,-32.8"/>
</g>
<g id="clust2" class="cluster">
<title>cluster_VcdComponentRendererOutletModule_declarations</title>
<polygon fill="none" stroke="black" points="18,-40.8 18,-92.8 254,-92.8 254,-40.8 18,-40.8"/>
</g>
<g id="clust5" class="cluster">
<title>cluster_VcdComponentRendererOutletModule_exports</title>
<polygon fill="none" stroke="black" points="16,-170.8 16,-222.8 256,-222.8 256,-170.8 16,-170.8"/>
</g>
<!-- ComponentRendererOutletDirective -->
<g id="node1" class="node">
<title>ComponentRendererOutletDirective</title>
<polygon fill="#ffffb3" stroke="black" points="245.71,-84.8 26.29,-84.8 26.29,-48.8 245.71,-48.8 245.71,-84.8"/>
<text text-anchor="middle" x="136" y="-62.6" font-family="Times,serif" font-size="14.00">ComponentRendererOutletDirective</text>
</g>
<!-- VcdComponentRendererOutletModule -->
<g id="node2" class="node">
<title>VcdComponentRendererOutletModule</title>
<polygon fill="#8dd3c7" stroke="black" points="253.5,-149.8 250.5,-153.8 229.5,-153.8 226.5,-149.8 18.5,-149.8 18.5,-113.8 253.5,-113.8 253.5,-149.8"/>
<text text-anchor="middle" x="136" y="-127.6" font-family="Times,serif" font-size="14.00">VcdComponentRendererOutletModule</text>
</g>
<!-- ComponentRendererOutletDirective&#45;&gt;VcdComponentRendererOutletModule -->
<g id="edge1" class="edge">
<title>ComponentRendererOutletDirective&#45;&gt;VcdComponentRendererOutletModule</title>
<path fill="none" stroke="black" d="M136,-84.91C136,-84.91 136,-103.79 136,-103.79"/>
<polygon fill="black" stroke="black" points="132.5,-103.79 136,-113.79 139.5,-103.79 132.5,-103.79"/>
</g>
<!-- ComponentRendererOutletDirective  -->
<g id="node3" class="node">
<title>ComponentRendererOutletDirective </title>
<polygon fill="#fb8072" stroke="black" points="247.71,-214.8 24.29,-214.8 24.29,-178.8 247.71,-178.8 247.71,-214.8"/>
<text text-anchor="middle" x="136" y="-192.6" font-family="Times,serif" font-size="14.00">ComponentRendererOutletDirective </text>
</g>
<!-- VcdComponentRendererOutletModule&#45;&gt;ComponentRendererOutletDirective  -->
<g id="edge2" class="edge">
<title>VcdComponentRendererOutletModule&#45;&gt;ComponentRendererOutletDirective </title>
<path fill="none" stroke="black" stroke-dasharray="5,2" d="M136,-149.91C136,-149.91 136,-168.79 136,-168.79"/>
<polygon fill="black" stroke="black" points="132.5,-168.79 136,-178.79 139.5,-168.79 132.5,-168.79"/>
</g>
</g>
</svg>
