<?xml version="1.0" encoding="UTF-8" standalone="no"?>
<!DOCTYPE svg PUBLIC "-//W3C//DTD SVG 1.1//EN"
 "http://www.w3.org/Graphics/SVG/1.1/DTD/svg11.dtd">
<!-- Generated by graphviz version 2.47.3 (20210619.1520)
 -->
<!-- Title: dependencies Pages: 1 -->
<svg width="236pt" height="312pt"
 viewBox="0.00 0.00 236.00 311.80" xmlns="http://www.w3.org/2000/svg" xmlns:xlink="http://www.w3.org/1999/xlink">
<g id="graph0" class="graph" transform="scale(1 1) rotate(0) translate(4 307.8)">
<title>dependencies</title>
<polygon fill="white" stroke="transparent" points="-4,4 -4,-307.8 232,-307.8 232,4 -4,4"/>
<text text-anchor="middle" x="114" y="-8.2" font-family="sans-serif" font-size="14.00">dependencies</text>
<g id="clust1" class="cluster">
<title>cluster_VcdDataExporterModule</title>
<polygon fill="none" stroke="black" stroke-dasharray="1,5" points="8,-32.8 8,-295.8 220,-295.8 220,-32.8 8,-32.8"/>
</g>
<g id="clust2" class="cluster">
<title>cluster_VcdDataExporterModule_declarations</title>
<polygon fill="none" stroke="black" points="28,-105.8 28,-157.8 200,-157.8 200,-105.8 28,-105.8"/>
</g>
<g id="clust3" class="cluster">
<title>cluster_VcdDataExporterModule_DataExporterComponent_providers</title>
<polygon fill="none" stroke="black" points="16,-40.8 16,-92.8 212,-92.8 212,-40.8 16,-40.8"/>
</g>
<g id="clust5" class="cluster">
<title>cluster_VcdDataExporterModule_exports</title>
<polygon fill="none" stroke="black" points="26,-235.8 26,-287.8 202,-287.8 202,-235.8 26,-235.8"/>
</g>
<!-- DataExporterComponent -->
<g id="node1" class="node">
<title>DataExporterComponent</title>
<polygon fill="#ffffb3" stroke="black" points="192.24,-149.8 35.76,-149.8 35.76,-113.8 192.24,-113.8 192.24,-149.8"/>
<text text-anchor="middle" x="114" y="-127.6" font-family="Times,serif" font-size="14.00">DataExporterComponent</text>
</g>
<!-- VcdDataExporterModule -->
<g id="node2" class="node">
<title>VcdDataExporterModule</title>
<polygon fill="#8dd3c7" stroke="black" points="193.28,-214.8 190.28,-218.8 169.28,-218.8 166.28,-214.8 34.72,-214.8 34.72,-178.8 193.28,-178.8 193.28,-214.8"/>
<text text-anchor="middle" x="114" y="-192.6" font-family="Times,serif" font-size="14.00">VcdDataExporterModule</text>
</g>
<!-- DataExporterComponent&#45;&gt;VcdDataExporterModule -->
<g id="edge1" class="edge">
<title>DataExporterComponent&#45;&gt;VcdDataExporterModule</title>
<path fill="none" stroke="black" d="M114,-149.91C114,-149.91 114,-168.79 114,-168.79"/>
<polygon fill="black" stroke="black" points="110.5,-168.79 114,-178.79 117.5,-168.79 110.5,-168.79"/>
</g>
<!-- DataExporterComponent  -->
<g id="node4" class="node">
<title>DataExporterComponent </title>
<polygon fill="#fb8072" stroke="black" points="194.24,-279.8 33.76,-279.8 33.76,-243.8 194.24,-243.8 194.24,-279.8"/>
<text text-anchor="middle" x="114" y="-257.6" font-family="Times,serif" font-size="14.00">DataExporterComponent </text>
</g>
<!-- VcdDataExporterModule&#45;&gt;DataExporterComponent  -->
<g id="edge3" class="edge">
<title>VcdDataExporterModule&#45;&gt;DataExporterComponent </title>
<path fill="none" stroke="black" stroke-dasharray="5,2" d="M114,-214.91C114,-214.91 114,-233.79 114,-233.79"/>
<polygon fill="black" stroke="black" points="110.5,-233.79 114,-243.79 117.5,-233.79 110.5,-233.79"/>
</g>
<!-- SubscriptionTracker -->
<g id="node3" class="node">
<title>SubscriptionTracker</title>
<ellipse fill="#fdb462" stroke="black" cx="114" cy="-66.8" rx="89.75" ry="18"/>
<text text-anchor="middle" x="114" y="-62.6" font-family="Times,serif" font-size="14.00">SubscriptionTracker</text>
</g>
<!-- SubscriptionTracker&#45;&gt;DataExporterComponent -->
<g id="edge2" class="edge">
<title>SubscriptionTracker&#45;&gt;DataExporterComponent</title>
<path fill="none" stroke="black" d="M114,-84.91C114,-84.91 114,-103.79 114,-103.79"/>
<polygon fill="black" stroke="black" points="110.5,-103.79 114,-113.79 117.5,-103.79 110.5,-103.79"/>
</g>
</g>
</svg>
