<?xml version="1.0" encoding="UTF-8" standalone="no"?>
<!DOCTYPE svg PUBLIC "-//W3C//DTD SVG 1.1//EN"
 "http://www.w3.org/Graphics/SVG/1.1/DTD/svg11.dtd">
<!-- Generated by graphviz version 2.47.0 (20210316.0004)
 -->
<!-- Title: dependencies Pages: 1 -->
<svg width="504pt" height="349pt"
 viewBox="0.00 0.00 504.00 349.00" xmlns="http://www.w3.org/2000/svg" xmlns:xlink="http://www.w3.org/1999/xlink">
<g id="graph0" class="graph" transform="scale(1 1) rotate(0) translate(4 345)">
<title>dependencies</title>
<polygon fill="white" stroke="transparent" points="-4,4 -4,-345 500,-345 500,4 -4,4"/>
<text text-anchor="start" x="227.01" y="-42.4" font-family="Times-12" font-weight="bold" font-size="14.00">Legend</text>
<polygon fill="#ffffb3" stroke="transparent" points="14,-10 14,-30 34,-30 34,-10 14,-10"/>
<text text-anchor="start" x="37.63" y="-15.4" font-family="Times-12" font-size="14.00"> &#160;Declarations</text>
<polygon fill="#8dd3c7" stroke="transparent" points="127,-10 127,-30 147,-30 147,-10 127,-10"/>
<text text-anchor="start" x="150.73" y="-15.4" font-family="Times-12" font-size="14.00"> &#160;Module</text>
<polygon fill="#80b1d3" stroke="transparent" points="213,-10 213,-30 233,-30 233,-10 213,-10"/>
<text text-anchor="start" x="236.78" y="-15.4" font-family="Times-12" font-size="14.00"> &#160;Bootstrap</text>
<polygon fill="#fdb462" stroke="transparent" points="310,-10 310,-30 330,-30 330,-10 310,-10"/>
<text text-anchor="start" x="333.67" y="-15.4" font-family="Times-12" font-size="14.00"> &#160;Providers</text>
<polygon fill="#fb8072" stroke="transparent" points="406,-10 406,-30 426,-30 426,-10 406,-10"/>
<text text-anchor="start" x="429.73" y="-15.4" font-family="Times-12" font-size="14.00"> &#160;Exports</text>
<g id="clust1" class="cluster">
<title>cluster_VcdDataExporterModule</title>
<polygon fill="none" stroke="black" stroke-dasharray="1,5" points="142,-70 142,-333 354,-333 354,-70 142,-70"/>
</g>
<g id="clust5" class="cluster">
<title>cluster_VcdDataExporterModule_exports</title>
<polygon fill="none" stroke="black" points="160,-273 160,-325 336,-325 336,-273 160,-273"/>
</g>
<g id="clust2" class="cluster">
<title>cluster_VcdDataExporterModule_declarations</title>
<polygon fill="none" stroke="black" points="162,-143 162,-195 334,-195 334,-143 162,-143"/>
</g>
<g id="clust3" class="cluster">
<title>cluster_VcdDataExporterModule_DataExporterComponent_providers</title>
<polygon fill="none" stroke="black" points="150,-78 150,-130 346,-130 346,-78 150,-78"/>
</g>
<!-- DataExporterComponent -->
<g id="node1" class="node">
<title>DataExporterComponent</title>
<polygon fill="#ffffb3" stroke="black" points="326.24,-187 169.76,-187 169.76,-151 326.24,-151 326.24,-187"/>
<text text-anchor="middle" x="248" y="-164.8" font-family="Times,serif" font-size="14.00">DataExporterComponent</text>
</g>
<!-- VcdDataExporterModule -->
<g id="node2" class="node">
<title>VcdDataExporterModule</title>
<polygon fill="#8dd3c7" stroke="black" points="327.28,-252 324.28,-256 303.28,-256 300.28,-252 168.72,-252 168.72,-216 327.28,-216 327.28,-252"/>
<text text-anchor="middle" x="248" y="-229.8" font-family="Times,serif" font-size="14.00">VcdDataExporterModule</text>
</g>
<!-- DataExporterComponent&#45;&gt;VcdDataExporterModule -->
<g id="edge1" class="edge">
<title>DataExporterComponent&#45;&gt;VcdDataExporterModule</title>
<path fill="none" stroke="black" d="M248,-187.11C248,-187.11 248,-205.99 248,-205.99"/>
<polygon fill="black" stroke="black" points="244.5,-205.99 248,-215.99 251.5,-205.99 244.5,-205.99"/>
</g>
<!-- DataExporterComponent  -->
<g id="node4" class="node">
<title>DataExporterComponent </title>
<polygon fill="#fb8072" stroke="black" points="328.24,-317 167.76,-317 167.76,-281 328.24,-281 328.24,-317"/>
<text text-anchor="middle" x="248" y="-294.8" font-family="Times,serif" font-size="14.00">DataExporterComponent </text>
</g>
<!-- VcdDataExporterModule&#45;&gt;DataExporterComponent  -->
<g id="edge3" class="edge">
<title>VcdDataExporterModule&#45;&gt;DataExporterComponent </title>
<path fill="none" stroke="black" stroke-dasharray="5,2" d="M248,-252.11C248,-252.11 248,-270.99 248,-270.99"/>
<polygon fill="black" stroke="black" points="244.5,-270.99 248,-280.99 251.5,-270.99 244.5,-270.99"/>
</g>
<!-- SubscriptionTracker -->
<g id="node3" class="node">
<title>SubscriptionTracker</title>
<ellipse fill="#fdb462" stroke="black" cx="248" cy="-104" rx="89.75" ry="18"/>
<text text-anchor="middle" x="248" y="-99.8" font-family="Times,serif" font-size="14.00">SubscriptionTracker</text>
</g>
<!-- SubscriptionTracker&#45;&gt;DataExporterComponent -->
<g id="edge2" class="edge">
<title>SubscriptionTracker&#45;&gt;DataExporterComponent</title>
<path fill="none" stroke="black" d="M248,-122.11C248,-122.11 248,-140.99 248,-140.99"/>
<polygon fill="black" stroke="black" points="244.5,-140.99 248,-150.99 251.5,-140.99 244.5,-140.99"/>
</g>
</g>
</svg>
