<?xml version="1.0" encoding="UTF-8" standalone="no"?>
<!DOCTYPE svg PUBLIC "-//W3C//DTD SVG 1.1//EN"
 "http://www.w3.org/Graphics/SVG/1.1/DTD/svg11.dtd">
<!-- Generated by graphviz version 2.40.1 (20161225.0304)
 -->
<!-- Title: dependencies Pages: 1 -->
<svg width="504pt" height="349pt"
 viewBox="0.00 0.00 504.00 349.00" xmlns="http://www.w3.org/2000/svg" xmlns:xlink="http://www.w3.org/1999/xlink">
<g id="graph0" class="graph" transform="scale(1 1) rotate(0) translate(4 345)">
<title>dependencies</title>
<polygon fill="#ffffff" stroke="transparent" points="-4,4 -4,-345 500,-345 500,4 -4,4"/>
<text text-anchor="start" x="227.0091" y="-42.4" font-family="sans-serif" font-weight="bold" font-size="14.00" fill="#000000">Legend</text>
<polygon fill="#ffffb3" stroke="transparent" points="14,-10 14,-30 34,-30 34,-10 14,-10"/>
<text text-anchor="start" x="37.629" y="-15.4" font-family="sans-serif" font-size="14.00" fill="#000000"> &#160;Declarations</text>
<polygon fill="#8dd3c7" stroke="transparent" points="127,-10 127,-30 147,-30 147,-10 127,-10"/>
<text text-anchor="start" x="150.7251" y="-15.4" font-family="sans-serif" font-size="14.00" fill="#000000"> &#160;Module</text>
<polygon fill="#80b1d3" stroke="transparent" points="213,-10 213,-30 233,-30 233,-10 213,-10"/>
<text text-anchor="start" x="236.7812" y="-15.4" font-family="sans-serif" font-size="14.00" fill="#000000"> &#160;Bootstrap</text>
<polygon fill="#fdb462" stroke="transparent" points="310,-10 310,-30 330,-30 330,-10 310,-10"/>
<text text-anchor="start" x="333.6732" y="-15.4" font-family="sans-serif" font-size="14.00" fill="#000000"> &#160;Providers</text>
<polygon fill="#fb8072" stroke="transparent" points="406,-10 406,-30 426,-30 426,-10 406,-10"/>
<text text-anchor="start" x="429.7258" y="-15.4" font-family="sans-serif" font-size="14.00" fill="#000000"> &#160;Exports</text>
<g id="clust1" class="cluster">
<title>cluster_VcdDataExporterModule</title>
<polygon fill="none" stroke="#000000" stroke-dasharray="1,5" points="142,-70 142,-333 354,-333 354,-70 142,-70"/>
</g>
<g id="clust2" class="cluster">
<title>cluster_VcdDataExporterModule_declarations</title>
<polygon fill="none" stroke="#000000" points="162,-143 162,-195 334,-195 334,-143 162,-143"/>
</g>
<g id="clust3" class="cluster">
<title>cluster_VcdDataExporterModule_DataExporterComponent_providers</title>
<polygon fill="none" stroke="#000000" points="150,-78 150,-130 346,-130 346,-78 150,-78"/>
</g>
<g id="clust5" class="cluster">
<title>cluster_VcdDataExporterModule_exports</title>
<polygon fill="none" stroke="#000000" points="160,-273 160,-325 336,-325 336,-273 160,-273"/>
</g>
<!-- DataExporterComponent -->
<g id="node1" class="node">
<title>DataExporterComponent</title>
<polygon fill="#ffffb3" stroke="#000000" points="326.238,-187 169.762,-187 169.762,-151 326.238,-151 326.238,-187"/>
<text text-anchor="middle" x="248" y="-164.8" font-family="Times,serif" font-size="14.00" fill="#000000">DataExporterComponent</text>
</g>
<!-- VcdDataExporterModule -->
<g id="node2" class="node">
<title>VcdDataExporterModule</title>
<polygon fill="#8dd3c7" stroke="#000000" points="327.2766,-252 324.2766,-256 303.2766,-256 300.2766,-252 168.7234,-252 168.7234,-216 327.2766,-216 327.2766,-252"/>
<text text-anchor="middle" x="248" y="-229.8" font-family="Times,serif" font-size="14.00" fill="#000000">VcdDataExporterModule</text>
</g>
<!-- DataExporterComponent&#45;&gt;VcdDataExporterModule -->
<g id="edge1" class="edge">
<title>DataExporterComponent&#45;&gt;VcdDataExporterModule</title>
<path fill="none" stroke="#000000" d="M248,-187.1061C248,-187.1061 248,-205.991 248,-205.991"/>
<polygon fill="#000000" stroke="#000000" points="244.5001,-205.9909 248,-215.991 251.5001,-205.991 244.5001,-205.9909"/>
</g>
<!-- DataExporterComponent  -->
<g id="node4" class="node">
<title>DataExporterComponent </title>
<polygon fill="#fb8072" stroke="#000000" points="328.238,-317 167.762,-317 167.762,-281 328.238,-281 328.238,-317"/>
<text text-anchor="middle" x="248" y="-294.8" font-family="Times,serif" font-size="14.00" fill="#000000">DataExporterComponent </text>
</g>
<!-- VcdDataExporterModule&#45;&gt;DataExporterComponent  -->
<g id="edge3" class="edge">
<title>VcdDataExporterModule&#45;&gt;DataExporterComponent </title>
<path fill="none" stroke="#000000" stroke-dasharray="5,2" d="M248,-252.1061C248,-252.1061 248,-270.991 248,-270.991"/>
<polygon fill="#000000" stroke="#000000" points="244.5001,-270.9909 248,-280.991 251.5001,-270.991 244.5001,-270.9909"/>
</g>
<!-- SubscriptionTracker -->
<g id="node3" class="node">
<title>SubscriptionTracker</title>
<ellipse fill="#fdb462" stroke="#000000" cx="248" cy="-104" rx="89.746" ry="18"/>
<text text-anchor="middle" x="248" y="-99.8" font-family="Times,serif" font-size="14.00" fill="#000000">SubscriptionTracker</text>
</g>
<!-- SubscriptionTracker&#45;&gt;DataExporterComponent -->
<g id="edge2" class="edge">
<title>SubscriptionTracker&#45;&gt;DataExporterComponent</title>
<path fill="none" stroke="#000000" d="M248,-122.1061C248,-122.1061 248,-140.991 248,-140.991"/>
<polygon fill="#000000" stroke="#000000" points="244.5001,-140.9909 248,-150.991 251.5001,-140.991 244.5001,-140.9909"/>
</g>
</g>
</svg>
